ISO-10303-21;
HEADER;
/* Generated by software containing ST-Developer
 * from STEP Tools, Inc. (www.steptools.com) 
 */

FILE_DESCRIPTION(
/* description */ (''),
/* implementation_level */ '2;1');

FILE_NAME(
/* name */ 'TurtleSquareSkinCover.step',
/* time_stamp */ '2026-09-14T11:19:30+01:00',
/* author */ (''),
/* organization */ (''),
/* preprocessor_version */ 'ST-DEVELOPER v20.2',
/* originating_system */ 'Autodesk Translation Framework v15.15.0.0',
/* authorisation */ '');

FILE_SCHEMA (('AUTOMOTIVE_DESIGN { 1 0 10303 214 3 1 1 }'));
ENDSEC;

DATA;
#10=MECHANICAL_DESIGN_GEOMETRIC_PRESENTATION_REPRESENTATION('',(#13),#1059);
#11=SHAPE_REPRESENTATION_RELATIONSHIP('SRR','None',#1066,#12);
#12=ADVANCED_BREP_SHAPE_REPRESENTATION('',(#14),#1058);
#13=STYLED_ITEM('',(#1075),#14);
#14=MANIFOLD_SOLID_BREP('Body1',#649);
#15=CIRCLE('',#677,0.8);
#16=CIRCLE('',#678,0.8);
#17=CIRCLE('',#681,0.8);
#18=CIRCLE('',#682,0.8);
#19=CIRCLE('',#685,0.8);
#20=CIRCLE('',#686,0.8);
#21=CIRCLE('',#689,0.8);
#22=CIRCLE('',#690,0.8);
#23=CYLINDRICAL_SURFACE('',#676,0.8);
#24=CYLINDRICAL_SURFACE('',#680,0.8);
#25=CYLINDRICAL_SURFACE('',#684,0.8);
#26=CYLINDRICAL_SURFACE('',#688,0.8);
#27=FACE_BOUND('',#80,.T.);
#28=FACE_BOUND('',#100,.T.);
#29=FACE_BOUND('',#108,.T.);
#30=FACE_BOUND('',#114,.T.);
#31=FACE_BOUND('',#115,.T.);
#32=FACE_BOUND('',#116,.T.);
#33=FACE_BOUND('',#117,.T.);
#34=FACE_BOUND('',#118,.T.);
#35=FACE_OUTER_BOUND('',#73,.T.);
#36=FACE_OUTER_BOUND('',#74,.T.);
#37=FACE_OUTER_BOUND('',#75,.T.);
#38=FACE_OUTER_BOUND('',#76,.T.);
#39=FACE_OUTER_BOUND('',#77,.T.);
#40=FACE_OUTER_BOUND('',#78,.T.);
#41=FACE_OUTER_BOUND('',#79,.T.);
#42=FACE_OUTER_BOUND('',#81,.T.);
#43=FACE_OUTER_BOUND('',#82,.T.);
#44=FACE_OUTER_BOUND('',#83,.T.);
#45=FACE_OUTER_BOUND('',#84,.T.);
#46=FACE_OUTER_BOUND('',#85,.T.);
#47=FACE_OUTER_BOUND('',#86,.T.);
#48=FACE_OUTER_BOUND('',#87,.T.);
#49=FACE_OUTER_BOUND('',#88,.T.);
#50=FACE_OUTER_BOUND('',#89,.T.);
#51=FACE_OUTER_BOUND('',#90,.T.);
#52=FACE_OUTER_BOUND('',#91,.T.);
#53=FACE_OUTER_BOUND('',#92,.T.);
#54=FACE_OUTER_BOUND('',#93,.T.);
#55=FACE_OUTER_BOUND('',#94,.T.);
#56=FACE_OUTER_BOUND('',#95,.T.);
#57=FACE_OUTER_BOUND('',#96,.T.);
#58=FACE_OUTER_BOUND('',#97,.T.);
#59=FACE_OUTER_BOUND('',#98,.T.);
#60=FACE_OUTER_BOUND('',#99,.T.);
#61=FACE_OUTER_BOUND('',#101,.T.);
#62=FACE_OUTER_BOUND('',#102,.T.);
#63=FACE_OUTER_BOUND('',#103,.T.);
#64=FACE_OUTER_BOUND('',#104,.T.);
#65=FACE_OUTER_BOUND('',#105,.T.);
#66=FACE_OUTER_BOUND('',#106,.T.);
#67=FACE_OUTER_BOUND('',#107,.T.);
#68=FACE_OUTER_BOUND('',#109,.T.);
#69=FACE_OUTER_BOUND('',#110,.T.);
#70=FACE_OUTER_BOUND('',#111,.T.);
#71=FACE_OUTER_BOUND('',#112,.T.);
#72=FACE_OUTER_BOUND('',#113,.T.);
#73=EDGE_LOOP('',(#409,#410,#411,#412,#413,#414));
#74=EDGE_LOOP('',(#415,#416,#417,#418,#419,#420,#421,#422));
#75=EDGE_LOOP('',(#423,#424,#425,#426));
#76=EDGE_LOOP('',(#427,#428,#429,#430,#431));
#77=EDGE_LOOP('',(#432,#433,#434,#435));
#78=EDGE_LOOP('',(#436,#437,#438,#439,#440));
#79=EDGE_LOOP('',(#441,#442,#443,#444));
#80=EDGE_LOOP('',(#445,#446,#447,#448));
#81=EDGE_LOOP('',(#449,#450,#451,#452));
#82=EDGE_LOOP('',(#453,#454,#455,#456));
#83=EDGE_LOOP('',(#457,#458,#459,#460));
#84=EDGE_LOOP('',(#461,#462,#463,#464));
#85=EDGE_LOOP('',(#465,#466,#467,#468));
#86=EDGE_LOOP('',(#469,#470,#471,#472));
#87=EDGE_LOOP('',(#473,#474,#475,#476));
#88=EDGE_LOOP('',(#477));
#89=EDGE_LOOP('',(#478,#479,#480,#481));
#90=EDGE_LOOP('',(#482));
#91=EDGE_LOOP('',(#483,#484,#485,#486));
#92=EDGE_LOOP('',(#487));
#93=EDGE_LOOP('',(#488,#489,#490,#491));
#94=EDGE_LOOP('',(#492));
#95=EDGE_LOOP('',(#493,#494,#495,#496));
#96=EDGE_LOOP('',(#497,#498,#499,#500));
#97=EDGE_LOOP('',(#501,#502,#503,#504));
#98=EDGE_LOOP('',(#505,#506,#507,#508));
#99=EDGE_LOOP('',(#509,#510,#511,#512));
#100=EDGE_LOOP('',(#513,#514,#515,#516));
#101=EDGE_LOOP('',(#517,#518,#519,#520));
#102=EDGE_LOOP('',(#521,#522,#523,#524));
#103=EDGE_LOOP('',(#525,#526,#527,#528));
#104=EDGE_LOOP('',(#529,#530,#531,#532));
#105=EDGE_LOOP('',(#533,#534,#535,#536));
#106=EDGE_LOOP('',(#537,#538,#539,#540));
#107=EDGE_LOOP('',(#541,#542,#543,#544));
#108=EDGE_LOOP('',(#545,#546,#547,#548));
#109=EDGE_LOOP('',(#549,#550,#551,#552));
#110=EDGE_LOOP('',(#553,#554,#555,#556));
#111=EDGE_LOOP('',(#557,#558,#559,#560));
#112=EDGE_LOOP('',(#561,#562,#563,#564));
#113=EDGE_LOOP('',(#565,#566,#567,#568));
#114=EDGE_LOOP('',(#569,#570,#571,#572));
#115=EDGE_LOOP('',(#573));
#116=EDGE_LOOP('',(#574));
#117=EDGE_LOOP('',(#575));
#118=EDGE_LOOP('',(#576));
#119=LINE('',#883,#195);
#120=LINE('',#885,#196);
#121=LINE('',#887,#197);
#122=LINE('',#889,#198);
#123=LINE('',#891,#199);
#124=LINE('',#892,#200);
#125=LINE('',#895,#201);
#126=LINE('',#897,#202);
#127=LINE('',#898,#203);
#128=LINE('',#900,#204);
#129=LINE('',#902,#205);
#130=LINE('',#903,#206);
#131=LINE('',#906,#207);
#132=LINE('',#908,#208);
#133=LINE('',#909,#209);
#134=LINE('',#912,#210);
#135=LINE('',#913,#211);
#136=LINE('',#916,#212);
#137=LINE('',#917,#213);
#138=LINE('',#919,#214);
#139=LINE('',#923,#215);
#140=LINE('',#925,#216);
#141=LINE('',#927,#217);
#142=LINE('',#928,#218);
#143=LINE('',#931,#219);
#144=LINE('',#933,#220);
#145=LINE('',#934,#221);
#146=LINE('',#937,#222);
#147=LINE('',#939,#223);
#148=LINE('',#940,#224);
#149=LINE('',#943,#225);
#150=LINE('',#944,#226);
#151=LINE('',#947,#227);
#152=LINE('',#948,#228);
#153=LINE('',#951,#229);
#154=LINE('',#952,#230);
#155=LINE('',#954,#231);
#156=LINE('',#959,#232);
#157=LINE('',#966,#233);
#158=LINE('',#973,#234);
#159=LINE('',#980,#235);
#160=LINE('',#986,#236);
#161=LINE('',#988,#237);
#162=LINE('',#990,#238);
#163=LINE('',#991,#239);
#164=LINE('',#994,#240);
#165=LINE('',#996,#241);
#166=LINE('',#997,#242);
#167=LINE('',#1000,#243);
#168=LINE('',#1002,#244);
#169=LINE('',#1003,#245);
#170=LINE('',#1005,#246);
#171=LINE('',#1006,#247);
#172=LINE('',#1010,#248);
#173=LINE('',#1012,#249);
#174=LINE('',#1014,#250);
#175=LINE('',#1015,#251);
#176=LINE('',#1018,#252);
#177=LINE('',#1020,#253);
#178=LINE('',#1021,#254);
#179=LINE('',#1024,#255);
#180=LINE('',#1025,#256);
#181=LINE('',#1028,#257);
#182=LINE('',#1029,#258);
#183=LINE('',#1031,#259);
#184=LINE('',#1034,#260);
#185=LINE('',#1036,#261);
#186=LINE('',#1037,#262);
#187=LINE('',#1040,#263);
#188=LINE('',#1041,#264);
#189=LINE('',#1044,#265);
#190=LINE('',#1045,#266);
#191=LINE('',#1047,#267);
#192=LINE('',#1051,#268);
#193=LINE('',#1052,#269);
#194=LINE('',#1054,#270);
#195=VECTOR('',#713,10.);
#196=VECTOR('',#714,10.);
#197=VECTOR('',#715,10.);
#198=VECTOR('',#716,10.);
#199=VECTOR('',#717,10.);
#200=VECTOR('',#718,10.);
#201=VECTOR('',#721,10.);
#202=VECTOR('',#722,10.);
#203=VECTOR('',#723,10.);
#204=VECTOR('',#724,10.);
#205=VECTOR('',#725,10.);
#206=VECTOR('',#726,10.);
#207=VECTOR('',#729,10.);
#208=VECTOR('',#730,10.);
#209=VECTOR('',#731,10.);
#210=VECTOR('',#734,10.);
#211=VECTOR('',#735,10.);
#212=VECTOR('',#738,10.);
#213=VECTOR('',#739,10.);
#214=VECTOR('',#742,10.);
#215=VECTOR('',#745,10.);
#216=VECTOR('',#746,10.);
#217=VECTOR('',#747,10.);
#218=VECTOR('',#748,10.);
#219=VECTOR('',#751,10.);
#220=VECTOR('',#752,10.);
#221=VECTOR('',#753,10.);
#222=VECTOR('',#756,10.);
#223=VECTOR('',#757,10.);
#224=VECTOR('',#758,10.);
#225=VECTOR('',#761,10.);
#226=VECTOR('',#762,10.);
#227=VECTOR('',#765,10.);
#228=VECTOR('',#766,10.);
#229=VECTOR('',#769,10.);
#230=VECTOR('',#770,10.);
#231=VECTOR('',#773,10.);
#232=VECTOR('',#778,0.8);
#233=VECTOR('',#787,0.8);
#234=VECTOR('',#796,0.8);
#235=VECTOR('',#805,0.8);
#236=VECTOR('',#812,10.);
#237=VECTOR('',#813,10.);
#238=VECTOR('',#814,10.);
#239=VECTOR('',#815,10.);
#240=VECTOR('',#818,10.);
#241=VECTOR('',#819,10.);
#242=VECTOR('',#820,10.);
#243=VECTOR('',#823,10.);
#244=VECTOR('',#824,10.);
#245=VECTOR('',#825,10.);
#246=VECTOR('',#828,10.);
#247=VECTOR('',#829,10.);
#248=VECTOR('',#832,10.);
#249=VECTOR('',#833,10.);
#250=VECTOR('',#834,10.);
#251=VECTOR('',#835,10.);
#252=VECTOR('',#838,10.);
#253=VECTOR('',#839,10.);
#254=VECTOR('',#840,10.);
#255=VECTOR('',#843,10.);
#256=VECTOR('',#844,10.);
#257=VECTOR('',#847,10.);
#258=VECTOR('',#848,10.);
#259=VECTOR('',#851,10.);
#260=VECTOR('',#854,10.);
#261=VECTOR('',#855,10.);
#262=VECTOR('',#856,10.);
#263=VECTOR('',#859,10.);
#264=VECTOR('',#860,10.);
#265=VECTOR('',#863,10.);
#266=VECTOR('',#864,10.);
#267=VECTOR('',#867,10.);
#268=VECTOR('',#872,10.);
#269=VECTOR('',#873,10.);
#270=VECTOR('',#876,10.);
#271=VERTEX_POINT('',#881);
#272=VERTEX_POINT('',#882);
#273=VERTEX_POINT('',#884);
#274=VERTEX_POINT('',#886);
#275=VERTEX_POINT('',#888);
#276=VERTEX_POINT('',#890);
#277=VERTEX_POINT('',#894);
#278=VERTEX_POINT('',#896);
#279=VERTEX_POINT('',#899);
#280=VERTEX_POINT('',#901);
#281=VERTEX_POINT('',#905);
#282=VERTEX_POINT('',#907);
#283=VERTEX_POINT('',#911);
#284=VERTEX_POINT('',#915);
#285=VERTEX_POINT('',#921);
#286=VERTEX_POINT('',#922);
#287=VERTEX_POINT('',#924);
#288=VERTEX_POINT('',#926);
#289=VERTEX_POINT('',#930);
#290=VERTEX_POINT('',#932);
#291=VERTEX_POINT('',#936);
#292=VERTEX_POINT('',#938);
#293=VERTEX_POINT('',#942);
#294=VERTEX_POINT('',#946);
#295=VERTEX_POINT('',#950);
#296=VERTEX_POINT('',#956);
#297=VERTEX_POINT('',#958);
#298=VERTEX_POINT('',#963);
#299=VERTEX_POINT('',#965);
#300=VERTEX_POINT('',#970);
#301=VERTEX_POINT('',#972);
#302=VERTEX_POINT('',#977);
#303=VERTEX_POINT('',#979);
#304=VERTEX_POINT('',#984);
#305=VERTEX_POINT('',#985);
#306=VERTEX_POINT('',#987);
#307=VERTEX_POINT('',#989);
#308=VERTEX_POINT('',#993);
#309=VERTEX_POINT('',#995);
#310=VERTEX_POINT('',#999);
#311=VERTEX_POINT('',#1001);
#312=VERTEX_POINT('',#1008);
#313=VERTEX_POINT('',#1009);
#314=VERTEX_POINT('',#1011);
#315=VERTEX_POINT('',#1013);
#316=VERTEX_POINT('',#1017);
#317=VERTEX_POINT('',#1019);
#318=VERTEX_POINT('',#1023);
#319=VERTEX_POINT('',#1027);
#320=VERTEX_POINT('',#1033);
#321=VERTEX_POINT('',#1035);
#322=VERTEX_POINT('',#1039);
#323=VERTEX_POINT('',#1043);
#324=VERTEX_POINT('',#1050);
#325=EDGE_CURVE('',#271,#272,#119,.T.);
#326=EDGE_CURVE('',#271,#273,#120,.T.);
#327=EDGE_CURVE('',#274,#273,#121,.T.);
#328=EDGE_CURVE('',#274,#275,#122,.T.);
#329=EDGE_CURVE('',#276,#275,#123,.T.);
#330=EDGE_CURVE('',#276,#272,#124,.T.);
#331=EDGE_CURVE('',#277,#276,#125,.T.);
#332=EDGE_CURVE('',#278,#277,#126,.T.);
#333=EDGE_CURVE('',#275,#278,#127,.T.);
#334=EDGE_CURVE('',#279,#274,#128,.T.);
#335=EDGE_CURVE('',#280,#279,#129,.T.);
#336=EDGE_CURVE('',#272,#280,#130,.T.);
#337=EDGE_CURVE('',#279,#281,#131,.T.);
#338=EDGE_CURVE('',#281,#282,#132,.T.);
#339=EDGE_CURVE('',#280,#282,#133,.T.);
#340=EDGE_CURVE('',#273,#283,#134,.T.);
#341=EDGE_CURVE('',#283,#281,#135,.T.);
#342=EDGE_CURVE('',#271,#284,#136,.T.);
#343=EDGE_CURVE('',#284,#283,#137,.T.);
#344=EDGE_CURVE('',#282,#284,#138,.T.);
#345=EDGE_CURVE('',#285,#286,#139,.T.);
#346=EDGE_CURVE('',#287,#285,#140,.T.);
#347=EDGE_CURVE('',#288,#287,#141,.T.);
#348=EDGE_CURVE('',#286,#288,#142,.T.);
#349=EDGE_CURVE('',#289,#275,#143,.T.);
#350=EDGE_CURVE('',#289,#290,#144,.T.);
#351=EDGE_CURVE('',#290,#276,#145,.T.);
#352=EDGE_CURVE('',#287,#291,#146,.T.);
#353=EDGE_CURVE('',#292,#291,#147,.T.);
#354=EDGE_CURVE('',#288,#292,#148,.T.);
#355=EDGE_CURVE('',#290,#293,#149,.T.);
#356=EDGE_CURVE('',#293,#277,#150,.T.);
#357=EDGE_CURVE('',#285,#294,#151,.T.);
#358=EDGE_CURVE('',#291,#294,#152,.T.);
#359=EDGE_CURVE('',#295,#278,#153,.T.);
#360=EDGE_CURVE('',#295,#289,#154,.T.);
#361=EDGE_CURVE('',#293,#295,#155,.T.);
#362=EDGE_CURVE('',#296,#296,#15,.T.);
#363=EDGE_CURVE('',#296,#297,#156,.T.);
#364=EDGE_CURVE('',#297,#297,#16,.T.);
#365=EDGE_CURVE('',#298,#298,#17,.T.);
#366=EDGE_CURVE('',#298,#299,#157,.T.);
#367=EDGE_CURVE('',#299,#299,#18,.T.);
#368=EDGE_CURVE('',#300,#300,#19,.T.);
#369=EDGE_CURVE('',#300,#301,#158,.T.);
#370=EDGE_CURVE('',#301,#301,#20,.T.);
#371=EDGE_CURVE('',#302,#302,#21,.T.);
#372=EDGE_CURVE('',#302,#303,#159,.T.);
#373=EDGE_CURVE('',#303,#303,#22,.T.);
#374=EDGE_CURVE('',#304,#305,#160,.T.);
#375=EDGE_CURVE('',#305,#306,#161,.T.);
#376=EDGE_CURVE('',#306,#307,#162,.T.);
#377=EDGE_CURVE('',#304,#307,#163,.T.);
#378=EDGE_CURVE('',#305,#308,#164,.T.);
#379=EDGE_CURVE('',#308,#309,#165,.T.);
#380=EDGE_CURVE('',#309,#306,#166,.T.);
#381=EDGE_CURVE('',#308,#310,#167,.T.);
#382=EDGE_CURVE('',#310,#311,#168,.T.);
#383=EDGE_CURVE('',#311,#309,#169,.T.);
#384=EDGE_CURVE('',#307,#311,#170,.T.);
#385=EDGE_CURVE('',#310,#304,#171,.T.);
#386=EDGE_CURVE('',#312,#313,#172,.T.);
#387=EDGE_CURVE('',#314,#312,#173,.T.);
#388=EDGE_CURVE('',#315,#314,#174,.T.);
#389=EDGE_CURVE('',#313,#315,#175,.T.);
#390=EDGE_CURVE('',#313,#316,#176,.T.);
#391=EDGE_CURVE('',#316,#317,#177,.T.);
#392=EDGE_CURVE('',#312,#317,#178,.T.);
#393=EDGE_CURVE('',#315,#318,#179,.T.);
#394=EDGE_CURVE('',#318,#316,#180,.T.);
#395=EDGE_CURVE('',#314,#319,#181,.T.);
#396=EDGE_CURVE('',#319,#318,#182,.T.);
#397=EDGE_CURVE('',#317,#319,#183,.T.);
#398=EDGE_CURVE('',#320,#317,#184,.T.);
#399=EDGE_CURVE('',#320,#321,#185,.T.);
#400=EDGE_CURVE('',#321,#319,#186,.T.);
#401=EDGE_CURVE('',#322,#316,#187,.T.);
#402=EDGE_CURVE('',#322,#320,#188,.T.);
#403=EDGE_CURVE('',#294,#323,#189,.T.);
#404=EDGE_CURVE('',#323,#292,#190,.T.);
#405=EDGE_CURVE('',#286,#323,#191,.T.);
#406=EDGE_CURVE('',#324,#318,#192,.T.);
#407=EDGE_CURVE('',#324,#322,#193,.T.);
#408=EDGE_CURVE('',#321,#324,#194,.T.);
#409=ORIENTED_EDGE('',*,*,#325,.F.);
#410=ORIENTED_EDGE('',*,*,#326,.T.);
#411=ORIENTED_EDGE('',*,*,#327,.F.);
#412=ORIENTED_EDGE('',*,*,#328,.T.);
#413=ORIENTED_EDGE('',*,*,#329,.F.);
#414=ORIENTED_EDGE('',*,*,#330,.T.);
#415=ORIENTED_EDGE('',*,*,#330,.F.);
#416=ORIENTED_EDGE('',*,*,#331,.F.);
#417=ORIENTED_EDGE('',*,*,#332,.F.);
#418=ORIENTED_EDGE('',*,*,#333,.F.);
#419=ORIENTED_EDGE('',*,*,#328,.F.);
#420=ORIENTED_EDGE('',*,*,#334,.F.);
#421=ORIENTED_EDGE('',*,*,#335,.F.);
#422=ORIENTED_EDGE('',*,*,#336,.F.);
#423=ORIENTED_EDGE('',*,*,#335,.T.);
#424=ORIENTED_EDGE('',*,*,#337,.T.);
#425=ORIENTED_EDGE('',*,*,#338,.T.);
#426=ORIENTED_EDGE('',*,*,#339,.F.);
#427=ORIENTED_EDGE('',*,*,#327,.T.);
#428=ORIENTED_EDGE('',*,*,#340,.T.);
#429=ORIENTED_EDGE('',*,*,#341,.T.);
#430=ORIENTED_EDGE('',*,*,#337,.F.);
#431=ORIENTED_EDGE('',*,*,#334,.T.);
#432=ORIENTED_EDGE('',*,*,#326,.F.);
#433=ORIENTED_EDGE('',*,*,#342,.T.);
#434=ORIENTED_EDGE('',*,*,#343,.T.);
#435=ORIENTED_EDGE('',*,*,#340,.F.);
#436=ORIENTED_EDGE('',*,*,#325,.T.);
#437=ORIENTED_EDGE('',*,*,#336,.T.);
#438=ORIENTED_EDGE('',*,*,#339,.T.);
#439=ORIENTED_EDGE('',*,*,#344,.T.);
#440=ORIENTED_EDGE('',*,*,#342,.F.);
#441=ORIENTED_EDGE('',*,*,#344,.F.);
#442=ORIENTED_EDGE('',*,*,#338,.F.);
#443=ORIENTED_EDGE('',*,*,#341,.F.);
#444=ORIENTED_EDGE('',*,*,#343,.F.);
#445=ORIENTED_EDGE('',*,*,#345,.F.);
#446=ORIENTED_EDGE('',*,*,#346,.F.);
#447=ORIENTED_EDGE('',*,*,#347,.F.);
#448=ORIENTED_EDGE('',*,*,#348,.F.);
#449=ORIENTED_EDGE('',*,*,#329,.T.);
#450=ORIENTED_EDGE('',*,*,#349,.F.);
#451=ORIENTED_EDGE('',*,*,#350,.T.);
#452=ORIENTED_EDGE('',*,*,#351,.T.);
#453=ORIENTED_EDGE('',*,*,#347,.T.);
#454=ORIENTED_EDGE('',*,*,#352,.T.);
#455=ORIENTED_EDGE('',*,*,#353,.F.);
#456=ORIENTED_EDGE('',*,*,#354,.F.);
#457=ORIENTED_EDGE('',*,*,#331,.T.);
#458=ORIENTED_EDGE('',*,*,#351,.F.);
#459=ORIENTED_EDGE('',*,*,#355,.T.);
#460=ORIENTED_EDGE('',*,*,#356,.T.);
#461=ORIENTED_EDGE('',*,*,#346,.T.);
#462=ORIENTED_EDGE('',*,*,#357,.T.);
#463=ORIENTED_EDGE('',*,*,#358,.F.);
#464=ORIENTED_EDGE('',*,*,#352,.F.);
#465=ORIENTED_EDGE('',*,*,#333,.T.);
#466=ORIENTED_EDGE('',*,*,#359,.F.);
#467=ORIENTED_EDGE('',*,*,#360,.T.);
#468=ORIENTED_EDGE('',*,*,#349,.T.);
#469=ORIENTED_EDGE('',*,*,#332,.T.);
#470=ORIENTED_EDGE('',*,*,#356,.F.);
#471=ORIENTED_EDGE('',*,*,#361,.T.);
#472=ORIENTED_EDGE('',*,*,#359,.T.);
#473=ORIENTED_EDGE('',*,*,#362,.F.);
#474=ORIENTED_EDGE('',*,*,#363,.T.);
#475=ORIENTED_EDGE('',*,*,#364,.T.);
#476=ORIENTED_EDGE('',*,*,#363,.F.);
#477=ORIENTED_EDGE('',*,*,#364,.F.);
#478=ORIENTED_EDGE('',*,*,#365,.F.);
#479=ORIENTED_EDGE('',*,*,#366,.T.);
#480=ORIENTED_EDGE('',*,*,#367,.T.);
#481=ORIENTED_EDGE('',*,*,#366,.F.);
#482=ORIENTED_EDGE('',*,*,#367,.F.);
#483=ORIENTED_EDGE('',*,*,#368,.F.);
#484=ORIENTED_EDGE('',*,*,#369,.T.);
#485=ORIENTED_EDGE('',*,*,#370,.T.);
#486=ORIENTED_EDGE('',*,*,#369,.F.);
#487=ORIENTED_EDGE('',*,*,#370,.F.);
#488=ORIENTED_EDGE('',*,*,#371,.F.);
#489=ORIENTED_EDGE('',*,*,#372,.T.);
#490=ORIENTED_EDGE('',*,*,#373,.T.);
#491=ORIENTED_EDGE('',*,*,#372,.F.);
#492=ORIENTED_EDGE('',*,*,#373,.F.);
#493=ORIENTED_EDGE('',*,*,#374,.T.);
#494=ORIENTED_EDGE('',*,*,#375,.T.);
#495=ORIENTED_EDGE('',*,*,#376,.T.);
#496=ORIENTED_EDGE('',*,*,#377,.F.);
#497=ORIENTED_EDGE('',*,*,#378,.T.);
#498=ORIENTED_EDGE('',*,*,#379,.T.);
#499=ORIENTED_EDGE('',*,*,#380,.T.);
#500=ORIENTED_EDGE('',*,*,#375,.F.);
#501=ORIENTED_EDGE('',*,*,#381,.T.);
#502=ORIENTED_EDGE('',*,*,#382,.T.);
#503=ORIENTED_EDGE('',*,*,#383,.T.);
#504=ORIENTED_EDGE('',*,*,#379,.F.);
#505=ORIENTED_EDGE('',*,*,#384,.T.);
#506=ORIENTED_EDGE('',*,*,#382,.F.);
#507=ORIENTED_EDGE('',*,*,#385,.T.);
#508=ORIENTED_EDGE('',*,*,#377,.T.);
#509=ORIENTED_EDGE('',*,*,#386,.F.);
#510=ORIENTED_EDGE('',*,*,#387,.F.);
#511=ORIENTED_EDGE('',*,*,#388,.F.);
#512=ORIENTED_EDGE('',*,*,#389,.F.);
#513=ORIENTED_EDGE('',*,*,#374,.F.);
#514=ORIENTED_EDGE('',*,*,#385,.F.);
#515=ORIENTED_EDGE('',*,*,#381,.F.);
#516=ORIENTED_EDGE('',*,*,#378,.F.);
#517=ORIENTED_EDGE('',*,*,#386,.T.);
#518=ORIENTED_EDGE('',*,*,#390,.T.);
#519=ORIENTED_EDGE('',*,*,#391,.T.);
#520=ORIENTED_EDGE('',*,*,#392,.F.);
#521=ORIENTED_EDGE('',*,*,#389,.T.);
#522=ORIENTED_EDGE('',*,*,#393,.T.);
#523=ORIENTED_EDGE('',*,*,#394,.T.);
#524=ORIENTED_EDGE('',*,*,#390,.F.);
#525=ORIENTED_EDGE('',*,*,#388,.T.);
#526=ORIENTED_EDGE('',*,*,#395,.T.);
#527=ORIENTED_EDGE('',*,*,#396,.T.);
#528=ORIENTED_EDGE('',*,*,#393,.F.);
#529=ORIENTED_EDGE('',*,*,#397,.T.);
#530=ORIENTED_EDGE('',*,*,#395,.F.);
#531=ORIENTED_EDGE('',*,*,#387,.T.);
#532=ORIENTED_EDGE('',*,*,#392,.T.);
#533=ORIENTED_EDGE('',*,*,#397,.F.);
#534=ORIENTED_EDGE('',*,*,#398,.F.);
#535=ORIENTED_EDGE('',*,*,#399,.T.);
#536=ORIENTED_EDGE('',*,*,#400,.T.);
#537=ORIENTED_EDGE('',*,*,#391,.F.);
#538=ORIENTED_EDGE('',*,*,#401,.F.);
#539=ORIENTED_EDGE('',*,*,#402,.T.);
#540=ORIENTED_EDGE('',*,*,#398,.T.);
#541=ORIENTED_EDGE('',*,*,#403,.T.);
#542=ORIENTED_EDGE('',*,*,#404,.T.);
#543=ORIENTED_EDGE('',*,*,#353,.T.);
#544=ORIENTED_EDGE('',*,*,#358,.T.);
#545=ORIENTED_EDGE('',*,*,#383,.F.);
#546=ORIENTED_EDGE('',*,*,#384,.F.);
#547=ORIENTED_EDGE('',*,*,#376,.F.);
#548=ORIENTED_EDGE('',*,*,#380,.F.);
#549=ORIENTED_EDGE('',*,*,#345,.T.);
#550=ORIENTED_EDGE('',*,*,#405,.T.);
#551=ORIENTED_EDGE('',*,*,#403,.F.);
#552=ORIENTED_EDGE('',*,*,#357,.F.);
#553=ORIENTED_EDGE('',*,*,#348,.T.);
#554=ORIENTED_EDGE('',*,*,#354,.T.);
#555=ORIENTED_EDGE('',*,*,#404,.F.);
#556=ORIENTED_EDGE('',*,*,#405,.F.);
#557=ORIENTED_EDGE('',*,*,#394,.F.);
#558=ORIENTED_EDGE('',*,*,#406,.F.);
#559=ORIENTED_EDGE('',*,*,#407,.T.);
#560=ORIENTED_EDGE('',*,*,#401,.T.);
#561=ORIENTED_EDGE('',*,*,#396,.F.);
#562=ORIENTED_EDGE('',*,*,#400,.F.);
#563=ORIENTED_EDGE('',*,*,#408,.T.);
#564=ORIENTED_EDGE('',*,*,#406,.T.);
#565=ORIENTED_EDGE('',*,*,#408,.F.);
#566=ORIENTED_EDGE('',*,*,#399,.F.);
#567=ORIENTED_EDGE('',*,*,#402,.F.);
#568=ORIENTED_EDGE('',*,*,#407,.F.);
#569=ORIENTED_EDGE('',*,*,#360,.F.);
#570=ORIENTED_EDGE('',*,*,#361,.F.);
#571=ORIENTED_EDGE('',*,*,#355,.F.);
#572=ORIENTED_EDGE('',*,*,#350,.F.);
#573=ORIENTED_EDGE('',*,*,#371,.T.);
#574=ORIENTED_EDGE('',*,*,#368,.T.);
#575=ORIENTED_EDGE('',*,*,#365,.T.);
#576=ORIENTED_EDGE('',*,*,#362,.T.);
#577=PLANE('',#663);
#578=PLANE('',#664);
#579=PLANE('',#665);
#580=PLANE('',#666);
#581=PLANE('',#667);
#582=PLANE('',#668);
#583=PLANE('',#669);
#584=PLANE('',#670);
#585=PLANE('',#671);
#586=PLANE('',#672);
#587=PLANE('',#673);
#588=PLANE('',#674);
#589=PLANE('',#675);
#590=PLANE('',#679);
#591=PLANE('',#683);
#592=PLANE('',#687);
#593=PLANE('',#691);
#594=PLANE('',#692);
#595=PLANE('',#693);
#596=PLANE('',#694);
#597=PLANE('',#695);
#598=PLANE('',#696);
#599=PLANE('',#697);
#600=PLANE('',#698);
#601=PLANE('',#699);
#602=PLANE('',#700);
#603=PLANE('',#701);
#604=PLANE('',#702);
#605=PLANE('',#703);
#606=PLANE('',#704);
#607=PLANE('',#705);
#608=PLANE('',#706);
#609=PLANE('',#707);
#610=PLANE('',#708);
#611=ADVANCED_FACE('',(#35),#577,.T.);
#612=ADVANCED_FACE('',(#36),#578,.T.);
#613=ADVANCED_FACE('',(#37),#579,.F.);
#614=ADVANCED_FACE('',(#38),#580,.F.);
#615=ADVANCED_FACE('',(#39),#581,.F.);
#616=ADVANCED_FACE('',(#40),#582,.F.);
#617=ADVANCED_FACE('',(#41,#27),#583,.F.);
#618=ADVANCED_FACE('',(#42),#584,.T.);
#619=ADVANCED_FACE('',(#43),#585,.T.);
#620=ADVANCED_FACE('',(#44),#586,.T.);
#621=ADVANCED_FACE('',(#45),#587,.T.);
#622=ADVANCED_FACE('',(#46),#588,.T.);
#623=ADVANCED_FACE('',(#47),#589,.T.);
#624=ADVANCED_FACE('',(#48),#23,.F.);
#625=ADVANCED_FACE('',(#49),#590,.F.);
#626=ADVANCED_FACE('',(#50),#24,.F.);
#627=ADVANCED_FACE('',(#51),#591,.F.);
#628=ADVANCED_FACE('',(#52),#25,.F.);
#629=ADVANCED_FACE('',(#53),#592,.F.);
#630=ADVANCED_FACE('',(#54),#26,.F.);
#631=ADVANCED_FACE('',(#55),#593,.F.);
#632=ADVANCED_FACE('',(#56),#594,.T.);
#633=ADVANCED_FACE('',(#57),#595,.T.);
#634=ADVANCED_FACE('',(#58),#596,.T.);
#635=ADVANCED_FACE('',(#59),#597,.T.);
#636=ADVANCED_FACE('',(#60,#28),#598,.T.);
#637=ADVANCED_FACE('',(#61),#599,.T.);
#638=ADVANCED_FACE('',(#62),#600,.T.);
#639=ADVANCED_FACE('',(#63),#601,.T.);
#640=ADVANCED_FACE('',(#64),#602,.T.);
#641=ADVANCED_FACE('',(#65),#603,.T.);
#642=ADVANCED_FACE('',(#66),#604,.T.);
#643=ADVANCED_FACE('',(#67,#29),#605,.F.);
#644=ADVANCED_FACE('',(#68),#606,.T.);
#645=ADVANCED_FACE('',(#69),#607,.T.);
#646=ADVANCED_FACE('',(#70),#608,.T.);
#647=ADVANCED_FACE('',(#71),#609,.T.);
#648=ADVANCED_FACE('',(#72,#30,#31,#32,#33,#34),#610,.F.);
#649=CLOSED_SHELL('',(#611,#612,#613,#614,#615,#616,#617,#618,#619,#620,
#621,#622,#623,#624,#625,#626,#627,#628,#629,#630,#631,#632,#633,#634,#635,
#636,#637,#638,#639,#640,#641,#642,#643,#644,#645,#646,#647,#648));
#650=DERIVED_UNIT_ELEMENT(#652,1.);
#651=DERIVED_UNIT_ELEMENT(#1061,-3.);
#652=(
MASS_UNIT()
NAMED_UNIT(*)
SI_UNIT(.KILO.,.GRAM.)
);
#653=DERIVED_UNIT((#650,#651));
#654=MEASURE_REPRESENTATION_ITEM('density measure',
POSITIVE_RATIO_MEASURE(7850.),#653);
#655=PROPERTY_DEFINITION_REPRESENTATION(#660,#657);
#656=PROPERTY_DEFINITION_REPRESENTATION(#661,#658);
#657=REPRESENTATION('material name',(#659),#1058);
#658=REPRESENTATION('density',(#654),#1058);
#659=DESCRIPTIVE_REPRESENTATION_ITEM('Steel','Steel');
#660=PROPERTY_DEFINITION('material property','material name',#1068);
#661=PROPERTY_DEFINITION('material property','density of part',#1068);
#662=AXIS2_PLACEMENT_3D('',#879,#709,#710);
#663=AXIS2_PLACEMENT_3D('',#880,#711,#712);
#664=AXIS2_PLACEMENT_3D('',#893,#719,#720);
#665=AXIS2_PLACEMENT_3D('',#904,#727,#728);
#666=AXIS2_PLACEMENT_3D('',#910,#732,#733);
#667=AXIS2_PLACEMENT_3D('',#914,#736,#737);
#668=AXIS2_PLACEMENT_3D('',#918,#740,#741);
#669=AXIS2_PLACEMENT_3D('',#920,#743,#744);
#670=AXIS2_PLACEMENT_3D('',#929,#749,#750);
#671=AXIS2_PLACEMENT_3D('',#935,#754,#755);
#672=AXIS2_PLACEMENT_3D('',#941,#759,#760);
#673=AXIS2_PLACEMENT_3D('',#945,#763,#764);
#674=AXIS2_PLACEMENT_3D('',#949,#767,#768);
#675=AXIS2_PLACEMENT_3D('',#953,#771,#772);
#676=AXIS2_PLACEMENT_3D('',#955,#774,#775);
#677=AXIS2_PLACEMENT_3D('',#957,#776,#777);
#678=AXIS2_PLACEMENT_3D('',#960,#779,#780);
#679=AXIS2_PLACEMENT_3D('',#961,#781,#782);
#680=AXIS2_PLACEMENT_3D('',#962,#783,#784);
#681=AXIS2_PLACEMENT_3D('',#964,#785,#786);
#682=AXIS2_PLACEMENT_3D('',#967,#788,#789);
#683=AXIS2_PLACEMENT_3D('',#968,#790,#791);
#684=AXIS2_PLACEMENT_3D('',#969,#792,#793);
#685=AXIS2_PLACEMENT_3D('',#971,#794,#795);
#686=AXIS2_PLACEMENT_3D('',#974,#797,#798);
#687=AXIS2_PLACEMENT_3D('',#975,#799,#800);
#688=AXIS2_PLACEMENT_3D('',#976,#801,#802);
#689=AXIS2_PLACEMENT_3D('',#978,#803,#804);
#690=AXIS2_PLACEMENT_3D('',#981,#806,#807);
#691=AXIS2_PLACEMENT_3D('',#982,#808,#809);
#692=AXIS2_PLACEMENT_3D('',#983,#810,#811);
#693=AXIS2_PLACEMENT_3D('',#992,#816,#817);
#694=AXIS2_PLACEMENT_3D('',#998,#821,#822);
#695=AXIS2_PLACEMENT_3D('',#1004,#826,#827);
#696=AXIS2_PLACEMENT_3D('',#1007,#830,#831);
#697=AXIS2_PLACEMENT_3D('',#1016,#836,#837);
#698=AXIS2_PLACEMENT_3D('',#1022,#841,#842);
#699=AXIS2_PLACEMENT_3D('',#1026,#845,#846);
#700=AXIS2_PLACEMENT_3D('',#1030,#849,#850);
#701=AXIS2_PLACEMENT_3D('',#1032,#852,#853);
#702=AXIS2_PLACEMENT_3D('',#1038,#857,#858);
#703=AXIS2_PLACEMENT_3D('',#1042,#861,#862);
#704=AXIS2_PLACEMENT_3D('',#1046,#865,#866);
#705=AXIS2_PLACEMENT_3D('',#1048,#868,#869);
#706=AXIS2_PLACEMENT_3D('',#1049,#870,#871);
#707=AXIS2_PLACEMENT_3D('',#1053,#874,#875);
#708=AXIS2_PLACEMENT_3D('',#1055,#877,#878);
#709=DIRECTION('axis',(0.,0.,1.));
#710=DIRECTION('refdir',(1.,0.,0.));
#711=DIRECTION('center_axis',(0.707106781186549,-1.07356749311711E-16,0.707106781186546));
#712=DIRECTION('ref_axis',(0.707106781186546,0.,-0.707106781186549));
#713=DIRECTION('',(0.707106781186546,-5.36783746558554E-17,-0.707106781186549));
#714=DIRECTION('',(-1.5182537088891E-16,-1.,0.));
#715=DIRECTION('',(-0.707106781186546,1.61035123967566E-16,0.707106781186549));
#716=DIRECTION('',(1.5182537088891E-16,1.,0.));
#717=DIRECTION('',(0.,-1.,0.));
#718=DIRECTION('',(1.5182537088891E-16,1.,0.));
#719=DIRECTION('center_axis',(0.,0.,1.));
#720=DIRECTION('ref_axis',(1.,0.,0.));
#721=DIRECTION('',(-1.,0.,0.));
#722=DIRECTION('',(0.,1.,0.));
#723=DIRECTION('',(1.,0.,0.));
#724=DIRECTION('',(-1.,2.27738056333365E-16,0.));
#725=DIRECTION('',(1.5182537088891E-16,-1.,0.));
#726=DIRECTION('',(1.,-7.59126854444551E-17,0.));
#727=DIRECTION('center_axis',(1.,1.5182537088891E-16,0.));
#728=DIRECTION('ref_axis',(-1.5182537088891E-16,1.,0.));
#729=DIRECTION('',(0.,0.,1.));
#730=DIRECTION('',(-1.5182537088891E-16,1.,0.));
#731=DIRECTION('',(0.,0.,1.));
#732=DIRECTION('center_axis',(-2.27738056333365E-16,-1.,0.));
#733=DIRECTION('ref_axis',(1.,-2.27738056333365E-16,0.));
#734=DIRECTION('',(0.,0.,1.));
#735=DIRECTION('',(1.,-2.27738056333365E-16,0.));
#736=DIRECTION('center_axis',(-1.,1.5182537088891E-16,0.));
#737=DIRECTION('ref_axis',(-1.5182537088891E-16,-1.,0.));
#738=DIRECTION('',(0.,0.,1.));
#739=DIRECTION('',(-1.5182537088891E-16,-1.,0.));
#740=DIRECTION('center_axis',(7.59126854444551E-17,1.,0.));
#741=DIRECTION('ref_axis',(-1.,7.59126854444551E-17,0.));
#742=DIRECTION('',(-1.,7.59126854444551E-17,0.));
#743=DIRECTION('center_axis',(0.,0.,1.));
#744=DIRECTION('ref_axis',(1.,0.,0.));
#745=DIRECTION('',(0.,-1.,0.));
#746=DIRECTION('',(1.,0.,0.));
#747=DIRECTION('',(0.,1.,0.));
#748=DIRECTION('',(-1.,0.,0.));
#749=DIRECTION('center_axis',(1.,0.,0.));
#750=DIRECTION('ref_axis',(0.,1.,0.));
#751=DIRECTION('',(0.,0.,1.));
#752=DIRECTION('',(0.,1.,0.));
#753=DIRECTION('',(0.,0.,1.));
#754=DIRECTION('center_axis',(1.,0.,0.));
#755=DIRECTION('ref_axis',(0.,1.,0.));
#756=DIRECTION('',(0.,0.,1.));
#757=DIRECTION('',(0.,1.,0.));
#758=DIRECTION('',(0.,0.,1.));
#759=DIRECTION('center_axis',(0.,-1.,0.));
#760=DIRECTION('ref_axis',(1.,0.,0.));
#761=DIRECTION('',(1.,0.,0.));
#762=DIRECTION('',(0.,0.,1.));
#763=DIRECTION('center_axis',(0.,-1.,0.));
#764=DIRECTION('ref_axis',(1.,0.,0.));
#765=DIRECTION('',(0.,0.,1.));
#766=DIRECTION('',(1.,0.,0.));
#767=DIRECTION('center_axis',(0.,1.,0.));
#768=DIRECTION('ref_axis',(-1.,0.,0.));
#769=DIRECTION('',(0.,0.,1.));
#770=DIRECTION('',(-1.,0.,0.));
#771=DIRECTION('center_axis',(-1.,0.,0.));
#772=DIRECTION('ref_axis',(0.,-1.,0.));
#773=DIRECTION('',(0.,-1.,0.));
#774=DIRECTION('center_axis',(0.,0.,1.));
#775=DIRECTION('ref_axis',(-1.,0.,0.));
#776=DIRECTION('center_axis',(0.,0.,1.));
#777=DIRECTION('ref_axis',(-1.,0.,0.));
#778=DIRECTION('',(0.,0.,1.));
#779=DIRECTION('center_axis',(0.,0.,1.));
#780=DIRECTION('ref_axis',(-1.,0.,0.));
#781=DIRECTION('center_axis',(0.,0.,1.));
#782=DIRECTION('ref_axis',(-1.,0.,0.));
#783=DIRECTION('center_axis',(0.,0.,1.));
#784=DIRECTION('ref_axis',(-1.,0.,0.));
#785=DIRECTION('center_axis',(0.,0.,1.));
#786=DIRECTION('ref_axis',(-1.,0.,0.));
#787=DIRECTION('',(0.,0.,1.));
#788=DIRECTION('center_axis',(0.,0.,1.));
#789=DIRECTION('ref_axis',(-1.,0.,0.));
#790=DIRECTION('center_axis',(0.,0.,1.));
#791=DIRECTION('ref_axis',(-1.,0.,0.));
#792=DIRECTION('center_axis',(0.,0.,1.));
#793=DIRECTION('ref_axis',(-1.,0.,0.));
#794=DIRECTION('center_axis',(0.,0.,1.));
#795=DIRECTION('ref_axis',(-1.,0.,0.));
#796=DIRECTION('',(0.,0.,1.));
#797=DIRECTION('center_axis',(0.,0.,1.));
#798=DIRECTION('ref_axis',(-1.,0.,0.));
#799=DIRECTION('center_axis',(0.,0.,1.));
#800=DIRECTION('ref_axis',(-1.,0.,0.));
#801=DIRECTION('center_axis',(0.,0.,1.));
#802=DIRECTION('ref_axis',(-1.,0.,0.));
#803=DIRECTION('center_axis',(0.,0.,1.));
#804=DIRECTION('ref_axis',(-1.,0.,0.));
#805=DIRECTION('',(0.,0.,1.));
#806=DIRECTION('center_axis',(0.,0.,1.));
#807=DIRECTION('ref_axis',(-1.,0.,0.));
#808=DIRECTION('center_axis',(0.,0.,1.));
#809=DIRECTION('ref_axis',(-1.,0.,0.));
#810=DIRECTION('center_axis',(0.707106781186548,0.,0.707106781186548));
#811=DIRECTION('ref_axis',(0.707106781186548,0.,-0.707106781186548));
#812=DIRECTION('',(0.,-1.,0.));
#813=DIRECTION('',(0.577350269189624,0.577350269189627,-0.577350269189627));
#814=DIRECTION('',(0.,1.,0.));
#815=DIRECTION('',(0.577350269189626,-0.577350269189626,-0.577350269189626));
#816=DIRECTION('center_axis',(0.,0.707106781186548,0.707106781186548));
#817=DIRECTION('ref_axis',(1.,0.,0.));
#818=DIRECTION('',(1.,0.,0.));
#819=DIRECTION('',(-0.577350269189626,0.577350269189626,-0.577350269189626));
#820=DIRECTION('',(-1.,0.,0.));
#821=DIRECTION('center_axis',(-0.707106781186548,0.,0.707106781186548));
#822=DIRECTION('ref_axis',(0.707106781186548,0.,0.707106781186548));
#823=DIRECTION('',(0.,1.,0.));
#824=DIRECTION('',(-0.577350269189626,-0.577350269189626,-0.577350269189626));
#825=DIRECTION('',(0.,-1.,0.));
#826=DIRECTION('center_axis',(0.,-0.707106781186548,0.707106781186548));
#827=DIRECTION('ref_axis',(1.,0.,0.));
#828=DIRECTION('',(1.,0.,0.));
#829=DIRECTION('',(-1.,0.,0.));
#830=DIRECTION('center_axis',(0.,0.,1.));
#831=DIRECTION('ref_axis',(1.,0.,0.));
#832=DIRECTION('',(0.,1.,0.));
#833=DIRECTION('',(-1.,0.,0.));
#834=DIRECTION('',(0.,-1.,0.));
#835=DIRECTION('',(1.,0.,0.));
#836=DIRECTION('center_axis',(-0.707106781186546,0.,0.707106781186549));
#837=DIRECTION('ref_axis',(0.707106781186549,0.,0.707106781186546));
#838=DIRECTION('',(-0.577350269189628,0.577350269189625,-0.577350269189625));
#839=DIRECTION('',(0.,-1.,0.));
#840=DIRECTION('',(-0.577350269189628,-0.577350269189623,-0.577350269189626));
#841=DIRECTION('center_axis',(0.,0.707106781186548,0.707106781186548));
#842=DIRECTION('ref_axis',(1.,0.,0.));
#843=DIRECTION('',(0.577350269189627,0.577350269189624,-0.577350269189627));
#844=DIRECTION('',(-1.,0.,0.));
#845=DIRECTION('center_axis',(0.707106781186548,0.,0.707106781186548));
#846=DIRECTION('ref_axis',(0.707106781186548,0.,-0.707106781186548));
#847=DIRECTION('',(0.577350269189626,-0.577350269189626,-0.577350269189626));
#848=DIRECTION('',(0.,1.,0.));
#849=DIRECTION('center_axis',(0.,-0.707106781186548,0.707106781186548));
#850=DIRECTION('ref_axis',(1.,0.,0.));
#851=DIRECTION('',(1.,0.,0.));
#852=DIRECTION('center_axis',(0.,-1.,0.));
#853=DIRECTION('ref_axis',(1.,0.,0.));
#854=DIRECTION('',(0.,0.,1.));
#855=DIRECTION('',(1.,0.,0.));
#856=DIRECTION('',(0.,0.,1.));
#857=DIRECTION('center_axis',(-1.,0.,0.));
#858=DIRECTION('ref_axis',(0.,-1.,0.));
#859=DIRECTION('',(0.,0.,1.));
#860=DIRECTION('',(0.,-1.,0.));
#861=DIRECTION('center_axis',(0.,0.,1.));
#862=DIRECTION('ref_axis',(-1.,0.,0.));
#863=DIRECTION('',(0.,-1.,0.));
#864=DIRECTION('',(-1.,0.,0.));
#865=DIRECTION('center_axis',(-1.,0.,0.));
#866=DIRECTION('ref_axis',(0.,-1.,0.));
#867=DIRECTION('',(0.,0.,1.));
#868=DIRECTION('center_axis',(0.,1.,0.));
#869=DIRECTION('ref_axis',(-1.,0.,0.));
#870=DIRECTION('center_axis',(0.,1.,0.));
#871=DIRECTION('ref_axis',(-1.,0.,0.));
#872=DIRECTION('',(0.,0.,1.));
#873=DIRECTION('',(-1.,0.,0.));
#874=DIRECTION('center_axis',(1.,0.,0.));
#875=DIRECTION('ref_axis',(0.,1.,0.));
#876=DIRECTION('',(0.,1.,0.));
#877=DIRECTION('center_axis',(0.,0.,1.));
#878=DIRECTION('ref_axis',(-1.,0.,0.));
#879=CARTESIAN_POINT('',(0.,0.,0.));
#880=CARTESIAN_POINT('Origin',(-58.,29.25,18.65));
#881=CARTESIAN_POINT('',(-58.5,58.5,19.15));
#882=CARTESIAN_POINT('',(-57.5,58.5,18.15));
#883=CARTESIAN_POINT('',(-28.7500000000001,58.5,-10.6));
#884=CARTESIAN_POINT('',(-58.5,-58.5,19.15));
#885=CARTESIAN_POINT('',(-58.5,29.25,19.15));
#886=CARTESIAN_POINT('',(-57.5,-58.5,18.15));
#887=CARTESIAN_POINT('',(-58.,-58.5,18.65));
#888=CARTESIAN_POINT('',(-57.5,-57.5,18.15));
#889=CARTESIAN_POINT('',(-57.5,29.25,18.15));
#890=CARTESIAN_POINT('',(-57.5,57.5,18.15));
#891=CARTESIAN_POINT('',(-57.5,-28.75,18.15));
#892=CARTESIAN_POINT('',(-57.5,29.25,18.15));
#893=CARTESIAN_POINT('Origin',(-8.88178419700125E-15,8.88178419700125E-15,
18.15));
#894=CARTESIAN_POINT('',(57.5,57.5,18.15));
#895=CARTESIAN_POINT('',(-28.75,57.5,18.15));
#896=CARTESIAN_POINT('',(57.5,-57.5,18.15));
#897=CARTESIAN_POINT('',(57.5,28.75,18.15));
#898=CARTESIAN_POINT('',(28.75,-57.5,18.15));
#899=CARTESIAN_POINT('',(58.5,-58.5,18.15));
#900=CARTESIAN_POINT('',(58.5,-58.5,18.15));
#901=CARTESIAN_POINT('',(58.5,58.5,18.15));
#902=CARTESIAN_POINT('',(58.5,58.5,18.15));
#903=CARTESIAN_POINT('',(-58.5,58.5,18.15));
#904=CARTESIAN_POINT('Origin',(58.5,-58.5,18.15));
#905=CARTESIAN_POINT('',(58.5,-58.5,29.15));
#906=CARTESIAN_POINT('',(58.5,-58.5,18.15));
#907=CARTESIAN_POINT('',(58.5,58.5,29.15));
#908=CARTESIAN_POINT('',(58.5,58.5,29.15));
#909=CARTESIAN_POINT('',(58.5,58.5,18.15));
#910=CARTESIAN_POINT('Origin',(-58.5,-58.5,18.15));
#911=CARTESIAN_POINT('',(-58.5,-58.5,29.15));
#912=CARTESIAN_POINT('',(-58.5,-58.5,18.15));
#913=CARTESIAN_POINT('',(58.5,-58.5,29.15));
#914=CARTESIAN_POINT('Origin',(-58.5,58.5,18.15));
#915=CARTESIAN_POINT('',(-58.5,58.5,29.15));
#916=CARTESIAN_POINT('',(-58.5,58.5,18.15));
#917=CARTESIAN_POINT('',(-58.5,-58.5,29.15));
#918=CARTESIAN_POINT('Origin',(58.5,58.5,18.15));
#919=CARTESIAN_POINT('',(-58.5,58.5,29.15));
#920=CARTESIAN_POINT('Origin',(-8.88178419700125E-15,8.88178419700125E-15,
29.15));
#921=CARTESIAN_POINT('',(57.5,57.5,29.15));
#922=CARTESIAN_POINT('',(57.5,-57.5,29.15));
#923=CARTESIAN_POINT('',(57.5,28.75,29.15));
#924=CARTESIAN_POINT('',(-57.5,57.5,29.15));
#925=CARTESIAN_POINT('',(-28.75,57.5,29.15));
#926=CARTESIAN_POINT('',(-57.5,-57.5,29.15));
#927=CARTESIAN_POINT('',(-57.5,-28.75,29.15));
#928=CARTESIAN_POINT('',(28.75,-57.5,29.15));
#929=CARTESIAN_POINT('Origin',(-57.5,-57.5,14.15));
#930=CARTESIAN_POINT('',(-57.5,-57.5,14.15));
#931=CARTESIAN_POINT('',(-57.5,-57.5,14.15));
#932=CARTESIAN_POINT('',(-57.5,57.5,14.15));
#933=CARTESIAN_POINT('',(-57.5,57.5,14.15));
#934=CARTESIAN_POINT('',(-57.5,57.5,14.15));
#935=CARTESIAN_POINT('Origin',(-57.5,-57.5,14.15));
#936=CARTESIAN_POINT('',(-57.5,57.5,34.15));
#937=CARTESIAN_POINT('',(-57.5,57.5,14.15));
#938=CARTESIAN_POINT('',(-57.5,-57.5,34.15));
#939=CARTESIAN_POINT('',(-57.5,57.5,34.15));
#940=CARTESIAN_POINT('',(-57.5,-57.5,14.15));
#941=CARTESIAN_POINT('Origin',(-57.5,57.5,14.15));
#942=CARTESIAN_POINT('',(57.5,57.5,14.15));
#943=CARTESIAN_POINT('',(57.5,57.5,14.15));
#944=CARTESIAN_POINT('',(57.5,57.5,14.15));
#945=CARTESIAN_POINT('Origin',(-57.5,57.5,14.15));
#946=CARTESIAN_POINT('',(57.5,57.5,34.15));
#947=CARTESIAN_POINT('',(57.5,57.5,14.15));
#948=CARTESIAN_POINT('',(57.5,57.5,34.15));
#949=CARTESIAN_POINT('Origin',(57.5,-57.5,14.15));
#950=CARTESIAN_POINT('',(57.5,-57.5,14.15));
#951=CARTESIAN_POINT('',(57.5,-57.5,14.15));
#952=CARTESIAN_POINT('',(-57.5,-57.5,14.15));
#953=CARTESIAN_POINT('Origin',(57.5,57.5,14.15));
#954=CARTESIAN_POINT('',(57.5,-57.5,14.15));
#955=CARTESIAN_POINT('Origin',(-59.675,39.35,18.65));
#956=CARTESIAN_POINT('',(-58.875,39.35,14.15));
#957=CARTESIAN_POINT('Origin',(-59.675,39.35,14.15));
#958=CARTESIAN_POINT('',(-58.875,39.35,25.15));
#959=CARTESIAN_POINT('',(-58.875,39.35,18.65));
#960=CARTESIAN_POINT('Origin',(-59.675,39.35,25.15));
#961=CARTESIAN_POINT('Origin',(-59.675,39.35,25.15));
#962=CARTESIAN_POINT('Origin',(59.675,-39.35,18.65));
#963=CARTESIAN_POINT('',(60.475,-39.35,14.15));
#964=CARTESIAN_POINT('Origin',(59.675,-39.35,14.15));
#965=CARTESIAN_POINT('',(60.475,-39.35,25.15));
#966=CARTESIAN_POINT('',(60.475,-39.35,18.65));
#967=CARTESIAN_POINT('Origin',(59.675,-39.35,25.15));
#968=CARTESIAN_POINT('Origin',(59.675,-39.35,25.15));
#969=CARTESIAN_POINT('Origin',(59.675,39.35,18.65));
#970=CARTESIAN_POINT('',(60.475,39.35,14.15));
#971=CARTESIAN_POINT('Origin',(59.675,39.35,14.15));
#972=CARTESIAN_POINT('',(60.475,39.35,25.15));
#973=CARTESIAN_POINT('',(60.475,39.35,18.65));
#974=CARTESIAN_POINT('Origin',(59.675,39.35,25.15));
#975=CARTESIAN_POINT('Origin',(59.675,39.35,25.15));
#976=CARTESIAN_POINT('Origin',(-59.675,-39.35,18.65));
#977=CARTESIAN_POINT('',(-58.875,-39.35,14.15));
#978=CARTESIAN_POINT('Origin',(-59.675,-39.35,14.15));
#979=CARTESIAN_POINT('',(-58.875,-39.35,25.15));
#980=CARTESIAN_POINT('',(-58.875,-39.35,18.65));
#981=CARTESIAN_POINT('Origin',(-59.675,-39.35,25.15));
#982=CARTESIAN_POINT('Origin',(-59.675,-39.35,25.15));
#983=CARTESIAN_POINT('Origin',(-55.5,-27.25,35.15));
#984=CARTESIAN_POINT('',(-56.5,56.5,36.15));
#985=CARTESIAN_POINT('',(-56.5,-56.5,36.15));
#986=CARTESIAN_POINT('',(-56.5,-27.25,36.15));
#987=CARTESIAN_POINT('',(-54.5,-54.5,34.15));
#988=CARTESIAN_POINT('',(-56.5,-56.5,36.15));
#989=CARTESIAN_POINT('',(-54.5,54.5,34.15));
#990=CARTESIAN_POINT('',(-54.5,-54.5,34.15));
#991=CARTESIAN_POINT('',(-56.5,56.5,36.15));
#992=CARTESIAN_POINT('Origin',(27.25,-55.5,35.15));
#993=CARTESIAN_POINT('',(56.5,-56.5,36.15));
#994=CARTESIAN_POINT('',(27.25,-56.5,36.15));
#995=CARTESIAN_POINT('',(54.5,-54.5,34.15));
#996=CARTESIAN_POINT('',(56.5,-56.5,36.15));
#997=CARTESIAN_POINT('',(54.5,-54.5,34.15));
#998=CARTESIAN_POINT('Origin',(55.5,27.25,35.15));
#999=CARTESIAN_POINT('',(56.5,56.5,36.15));
#1000=CARTESIAN_POINT('',(56.5,27.25,36.15));
#1001=CARTESIAN_POINT('',(54.5,54.5,34.15));
#1002=CARTESIAN_POINT('',(56.5,56.5,36.15));
#1003=CARTESIAN_POINT('',(54.5,54.5,34.15));
#1004=CARTESIAN_POINT('Origin',(-27.25,55.5,35.15));
#1005=CARTESIAN_POINT('',(-54.5,54.5,34.15));
#1006=CARTESIAN_POINT('',(-27.25,56.5,36.15));
#1007=CARTESIAN_POINT('Origin',(0.,-1.77635683940025E-14,36.15));
#1008=CARTESIAN_POINT('',(-59.85,-57.85,36.15));
#1009=CARTESIAN_POINT('',(-59.85,57.85,36.15));
#1010=CARTESIAN_POINT('',(-59.85,29.925,36.15));
#1011=CARTESIAN_POINT('',(59.85,-57.85,36.15));
#1012=CARTESIAN_POINT('',(-30.925,-57.85,36.15));
#1013=CARTESIAN_POINT('',(59.85,57.85,36.15));
#1014=CARTESIAN_POINT('',(59.85,-29.925,36.15));
#1015=CARTESIAN_POINT('',(30.925,57.85,36.15));
#1016=CARTESIAN_POINT('Origin',(-60.85,29.925,35.15));
#1017=CARTESIAN_POINT('',(-61.85,59.85,34.15));
#1018=CARTESIAN_POINT('',(-59.85,57.85,36.15));
#1019=CARTESIAN_POINT('',(-61.85,-59.85,34.15));
#1020=CARTESIAN_POINT('',(-61.85,29.925,34.15));
#1021=CARTESIAN_POINT('',(-59.85,-57.85,36.15));
#1022=CARTESIAN_POINT('Origin',(30.925,58.85,35.15));
#1023=CARTESIAN_POINT('',(61.85,59.85,34.15));
#1024=CARTESIAN_POINT('',(59.85,57.85,36.15));
#1025=CARTESIAN_POINT('',(30.925,59.85,34.15));
#1026=CARTESIAN_POINT('Origin',(60.85,-29.925,35.15));
#1027=CARTESIAN_POINT('',(61.85,-59.85,34.15));
#1028=CARTESIAN_POINT('',(59.85,-57.85,36.15));
#1029=CARTESIAN_POINT('',(61.85,-29.925,34.15));
#1030=CARTESIAN_POINT('Origin',(-30.925,-58.85,35.15));
#1031=CARTESIAN_POINT('',(-30.925,-59.85,34.15));
#1032=CARTESIAN_POINT('Origin',(-61.85,-59.85,14.15));
#1033=CARTESIAN_POINT('',(-61.85,-59.85,14.15));
#1034=CARTESIAN_POINT('',(-61.85,-59.85,14.15));
#1035=CARTESIAN_POINT('',(61.85,-59.85,14.15));
#1036=CARTESIAN_POINT('',(-61.85,-59.85,14.15));
#1037=CARTESIAN_POINT('',(61.85,-59.85,14.15));
#1038=CARTESIAN_POINT('Origin',(-61.85,59.85,14.15));
#1039=CARTESIAN_POINT('',(-61.85,59.85,14.15));
#1040=CARTESIAN_POINT('',(-61.85,59.85,14.15));
#1041=CARTESIAN_POINT('',(-61.85,59.85,14.15));
#1042=CARTESIAN_POINT('Origin',(0.,-1.77635683940025E-14,34.15));
#1043=CARTESIAN_POINT('',(57.5,-57.5,34.15));
#1044=CARTESIAN_POINT('',(57.5,-57.5,34.15));
#1045=CARTESIAN_POINT('',(-57.5,-57.5,34.15));
#1046=CARTESIAN_POINT('Origin',(57.5,57.5,14.15));
#1047=CARTESIAN_POINT('',(57.5,-57.5,14.15));
#1048=CARTESIAN_POINT('Origin',(57.5,-57.5,14.15));
#1049=CARTESIAN_POINT('Origin',(61.85,59.85,14.15));
#1050=CARTESIAN_POINT('',(61.85,59.85,14.15));
#1051=CARTESIAN_POINT('',(61.85,59.85,14.15));
#1052=CARTESIAN_POINT('',(61.85,59.85,14.15));
#1053=CARTESIAN_POINT('Origin',(61.85,-59.85,14.15));
#1054=CARTESIAN_POINT('',(61.85,-59.85,14.15));
#1055=CARTESIAN_POINT('Origin',(-8.88178419700125E-15,-1.77635683940025E-14,
14.15));
#1056=UNCERTAINTY_MEASURE_WITH_UNIT(LENGTH_MEASURE(0.01),#1060,
'DISTANCE_ACCURACY_VALUE',
'Maximum model space distance between geometric entities at asserted c
onnectivities');
#1057=UNCERTAINTY_MEASURE_WITH_UNIT(LENGTH_MEASURE(0.01),#1060,
'DISTANCE_ACCURACY_VALUE',
'Maximum model space distance between geometric entities at asserted c
onnectivities');
#1058=(
GEOMETRIC_REPRESENTATION_CONTEXT(3)
GLOBAL_UNCERTAINTY_ASSIGNED_CONTEXT((#1056))
GLOBAL_UNIT_ASSIGNED_CONTEXT((#1060,#1062,#1063))
REPRESENTATION_CONTEXT('','3D')
);
#1059=(
GEOMETRIC_REPRESENTATION_CONTEXT(3)
GLOBAL_UNCERTAINTY_ASSIGNED_CONTEXT((#1057))
GLOBAL_UNIT_ASSIGNED_CONTEXT((#1060,#1062,#1063))
REPRESENTATION_CONTEXT('','3D')
);
#1060=(
LENGTH_UNIT()
NAMED_UNIT(*)
SI_UNIT(.MILLI.,.METRE.)
);
#1061=(
LENGTH_UNIT()
NAMED_UNIT(*)
SI_UNIT($,.METRE.)
);
#1062=(
NAMED_UNIT(*)
PLANE_ANGLE_UNIT()
SI_UNIT($,.RADIAN.)
);
#1063=(
NAMED_UNIT(*)
SI_UNIT($,.STERADIAN.)
SOLID_ANGLE_UNIT()
);
#1064=SHAPE_DEFINITION_REPRESENTATION(#1065,#1066);
#1065=PRODUCT_DEFINITION_SHAPE('',$,#1068);
#1066=SHAPE_REPRESENTATION('',(#662),#1058);
#1067=PRODUCT_DEFINITION_CONTEXT('part definition',#1072,'design');
#1068=PRODUCT_DEFINITION('2026-09-14-11-19-30-491',
'TurtleSquareSkinCover',#1069,#1067);
#1069=PRODUCT_DEFINITION_FORMATION('',$,#1074);
#1070=PRODUCT_RELATED_PRODUCT_CATEGORY('TurtleSquareSkinCover',
'TurtleSquareSkinCover',(#1074));
#1071=APPLICATION_PROTOCOL_DEFINITION('international standard',
'automotive_design',2009,#1072);
#1072=APPLICATION_CONTEXT(
'Core Data for Automotive Mechanical Design Process');
#1073=PRODUCT_CONTEXT('part definition',#1072,'mechanical');
#1074=PRODUCT('2026-09-14-11-19-30-491','TurtleSquareSkinCover',$,(#1073));
#1075=PRESENTATION_STYLE_ASSIGNMENT((#1076));
#1076=SURFACE_STYLE_USAGE(.BOTH.,#1077);
#1077=SURFACE_SIDE_STYLE('',(#1078));
#1078=SURFACE_STYLE_FILL_AREA(#1079);
#1079=FILL_AREA_STYLE('Steel - Satin',(#1080));
#1080=FILL_AREA_STYLE_COLOUR('Steel - Satin',#1081);
#1081=COLOUR_RGB('Steel - Satin',0.627450980392157,0.627450980392157,0.627450980392157);
ENDSEC;
END-ISO-10303-21;
