ISO-10303-21;
HEADER;
/* Generated by software containing ST-Developer
 * from STEP Tools, Inc. (www.steptools.com) 
 */

FILE_DESCRIPTION(
/* description */ (''),
/* implementation_level */ '2;1');

FILE_NAME(
/* name */ 'TurtleSquareSkinCover.step',
/* time_stamp */ '2026-08-30T18:40:37+01:00',
/* author */ (''),
/* organization */ (''),
/* preprocessor_version */ 'ST-DEVELOPER v20.1',
/* originating_system */ 'Autodesk Translation Framework v15.8.0.0',
/* authorisation */ '');

FILE_SCHEMA (('AUTOMOTIVE_DESIGN { 1 0 10303 214 3 1 1 }'));
ENDSEC;

DATA;
#10=MECHANICAL_DESIGN_GEOMETRIC_PRESENTATION_REPRESENTATION('',(#13),#737);
#11=SHAPE_REPRESENTATION_RELATIONSHIP('SRR','None',#744,#12);
#12=ADVANCED_BREP_SHAPE_REPRESENTATION('',(#14),#736);
#13=STYLED_ITEM('',(#753),#14);
#14=MANIFOLD_SOLID_BREP('Body1',#445);
#15=FACE_BOUND('',#85,.T.);
#16=FACE_BOUND('',#93,.T.);
#17=FACE_BOUND('',#101,.T.);
#18=FACE_BOUND('',#102,.T.);
#19=FACE_BOUND('',#103,.T.);
#20=FACE_BOUND('',#104,.T.);
#21=FACE_BOUND('',#105,.T.);
#22=PLANE('',#462);
#23=PLANE('',#466);
#24=PLANE('',#470);
#25=PLANE('',#474);
#26=PLANE('',#475);
#27=PLANE('',#476);
#28=PLANE('',#477);
#29=PLANE('',#478);
#30=PLANE('',#479);
#31=PLANE('',#480);
#32=PLANE('',#481);
#33=PLANE('',#482);
#34=PLANE('',#483);
#35=PLANE('',#484);
#36=PLANE('',#485);
#37=PLANE('',#486);
#38=PLANE('',#487);
#39=PLANE('',#488);
#40=PLANE('',#489);
#41=PLANE('',#490);
#42=PLANE('',#491);
#43=PLANE('',#492);
#44=PLANE('',#493);
#45=FACE_OUTER_BOUND('',#72,.T.);
#46=FACE_OUTER_BOUND('',#73,.T.);
#47=FACE_OUTER_BOUND('',#74,.T.);
#48=FACE_OUTER_BOUND('',#75,.T.);
#49=FACE_OUTER_BOUND('',#76,.T.);
#50=FACE_OUTER_BOUND('',#77,.T.);
#51=FACE_OUTER_BOUND('',#78,.T.);
#52=FACE_OUTER_BOUND('',#79,.T.);
#53=FACE_OUTER_BOUND('',#80,.T.);
#54=FACE_OUTER_BOUND('',#81,.T.);
#55=FACE_OUTER_BOUND('',#82,.T.);
#56=FACE_OUTER_BOUND('',#83,.T.);
#57=FACE_OUTER_BOUND('',#84,.T.);
#58=FACE_OUTER_BOUND('',#86,.T.);
#59=FACE_OUTER_BOUND('',#87,.T.);
#60=FACE_OUTER_BOUND('',#88,.T.);
#61=FACE_OUTER_BOUND('',#89,.T.);
#62=FACE_OUTER_BOUND('',#90,.T.);
#63=FACE_OUTER_BOUND('',#91,.T.);
#64=FACE_OUTER_BOUND('',#92,.T.);
#65=FACE_OUTER_BOUND('',#94,.T.);
#66=FACE_OUTER_BOUND('',#95,.T.);
#67=FACE_OUTER_BOUND('',#96,.T.);
#68=FACE_OUTER_BOUND('',#97,.T.);
#69=FACE_OUTER_BOUND('',#98,.T.);
#70=FACE_OUTER_BOUND('',#99,.T.);
#71=FACE_OUTER_BOUND('',#100,.T.);
#72=EDGE_LOOP('',(#302,#303,#304,#305));
#73=EDGE_LOOP('',(#306));
#74=EDGE_LOOP('',(#307,#308,#309,#310));
#75=EDGE_LOOP('',(#311));
#76=EDGE_LOOP('',(#312,#313,#314,#315));
#77=EDGE_LOOP('',(#316));
#78=EDGE_LOOP('',(#317,#318,#319,#320));
#79=EDGE_LOOP('',(#321));
#80=EDGE_LOOP('',(#322,#323,#324,#325));
#81=EDGE_LOOP('',(#326,#327,#328,#329));
#82=EDGE_LOOP('',(#330,#331,#332,#333));
#83=EDGE_LOOP('',(#334,#335,#336,#337));
#84=EDGE_LOOP('',(#338,#339,#340,#341));
#85=EDGE_LOOP('',(#342,#343,#344,#345));
#86=EDGE_LOOP('',(#346,#347,#348,#349));
#87=EDGE_LOOP('',(#350,#351,#352,#353));
#88=EDGE_LOOP('',(#354,#355,#356,#357));
#89=EDGE_LOOP('',(#358,#359,#360,#361));
#90=EDGE_LOOP('',(#362,#363,#364,#365));
#91=EDGE_LOOP('',(#366,#367,#368,#369));
#92=EDGE_LOOP('',(#370,#371,#372,#373));
#93=EDGE_LOOP('',(#374,#375,#376,#377));
#94=EDGE_LOOP('',(#378,#379,#380,#381));
#95=EDGE_LOOP('',(#382,#383,#384,#385));
#96=EDGE_LOOP('',(#386,#387,#388,#389));
#97=EDGE_LOOP('',(#390,#391,#392,#393));
#98=EDGE_LOOP('',(#394,#395,#396,#397));
#99=EDGE_LOOP('',(#398,#399,#400,#401));
#100=EDGE_LOOP('',(#402,#403,#404,#405));
#101=EDGE_LOOP('',(#406,#407,#408,#409));
#102=EDGE_LOOP('',(#410));
#103=EDGE_LOOP('',(#411));
#104=EDGE_LOOP('',(#412));
#105=EDGE_LOOP('',(#413));
#106=LINE('',#619,#154);
#107=LINE('',#626,#155);
#108=LINE('',#633,#156);
#109=LINE('',#640,#157);
#110=LINE('',#646,#158);
#111=LINE('',#648,#159);
#112=LINE('',#650,#160);
#113=LINE('',#651,#161);
#114=LINE('',#654,#162);
#115=LINE('',#656,#163);
#116=LINE('',#657,#164);
#117=LINE('',#660,#165);
#118=LINE('',#662,#166);
#119=LINE('',#663,#167);
#120=LINE('',#665,#168);
#121=LINE('',#666,#169);
#122=LINE('',#670,#170);
#123=LINE('',#672,#171);
#124=LINE('',#674,#172);
#125=LINE('',#675,#173);
#126=LINE('',#678,#174);
#127=LINE('',#680,#175);
#128=LINE('',#681,#176);
#129=LINE('',#684,#177);
#130=LINE('',#685,#178);
#131=LINE('',#688,#179);
#132=LINE('',#689,#180);
#133=LINE('',#691,#181);
#134=LINE('',#694,#182);
#135=LINE('',#696,#183);
#136=LINE('',#697,#184);
#137=LINE('',#700,#185);
#138=LINE('',#701,#186);
#139=LINE('',#705,#187);
#140=LINE('',#707,#188);
#141=LINE('',#709,#189);
#142=LINE('',#710,#190);
#143=LINE('',#714,#191);
#144=LINE('',#715,#192);
#145=LINE('',#716,#193);
#146=LINE('',#719,#194);
#147=LINE('',#720,#195);
#148=LINE('',#723,#196);
#149=LINE('',#724,#197);
#150=LINE('',#726,#198);
#151=LINE('',#729,#199);
#152=LINE('',#730,#200);
#153=LINE('',#732,#201);
#154=VECTOR('',#500,0.8);
#155=VECTOR('',#509,0.8);
#156=VECTOR('',#518,0.8);
#157=VECTOR('',#527,0.8);
#158=VECTOR('',#534,10.);
#159=VECTOR('',#535,10.);
#160=VECTOR('',#536,10.);
#161=VECTOR('',#537,10.);
#162=VECTOR('',#540,10.);
#163=VECTOR('',#541,10.);
#164=VECTOR('',#542,10.);
#165=VECTOR('',#545,10.);
#166=VECTOR('',#546,10.);
#167=VECTOR('',#547,10.);
#168=VECTOR('',#550,10.);
#169=VECTOR('',#551,10.);
#170=VECTOR('',#554,10.);
#171=VECTOR('',#555,10.);
#172=VECTOR('',#556,10.);
#173=VECTOR('',#557,10.);
#174=VECTOR('',#560,10.);
#175=VECTOR('',#561,10.);
#176=VECTOR('',#562,10.);
#177=VECTOR('',#565,10.);
#178=VECTOR('',#566,10.);
#179=VECTOR('',#569,10.);
#180=VECTOR('',#570,10.);
#181=VECTOR('',#573,10.);
#182=VECTOR('',#576,10.);
#183=VECTOR('',#577,10.);
#184=VECTOR('',#578,10.);
#185=VECTOR('',#581,10.);
#186=VECTOR('',#582,10.);
#187=VECTOR('',#585,10.);
#188=VECTOR('',#586,10.);
#189=VECTOR('',#587,10.);
#190=VECTOR('',#588,10.);
#191=VECTOR('',#591,10.);
#192=VECTOR('',#592,10.);
#193=VECTOR('',#593,10.);
#194=VECTOR('',#596,10.);
#195=VECTOR('',#597,10.);
#196=VECTOR('',#600,10.);
#197=VECTOR('',#601,10.);
#198=VECTOR('',#604,10.);
#199=VECTOR('',#607,10.);
#200=VECTOR('',#608,10.);
#201=VECTOR('',#611,10.);
#202=CIRCLE('',#460,0.8);
#203=CIRCLE('',#461,0.8);
#204=CIRCLE('',#464,0.8);
#205=CIRCLE('',#465,0.8);
#206=CIRCLE('',#468,0.8);
#207=CIRCLE('',#469,0.8);
#208=CIRCLE('',#472,0.8);
#209=CIRCLE('',#473,0.8);
#210=VERTEX_POINT('',#616);
#211=VERTEX_POINT('',#618);
#212=VERTEX_POINT('',#623);
#213=VERTEX_POINT('',#625);
#214=VERTEX_POINT('',#630);
#215=VERTEX_POINT('',#632);
#216=VERTEX_POINT('',#637);
#217=VERTEX_POINT('',#639);
#218=VERTEX_POINT('',#644);
#219=VERTEX_POINT('',#645);
#220=VERTEX_POINT('',#647);
#221=VERTEX_POINT('',#649);
#222=VERTEX_POINT('',#653);
#223=VERTEX_POINT('',#655);
#224=VERTEX_POINT('',#659);
#225=VERTEX_POINT('',#661);
#226=VERTEX_POINT('',#668);
#227=VERTEX_POINT('',#669);
#228=VERTEX_POINT('',#671);
#229=VERTEX_POINT('',#673);
#230=VERTEX_POINT('',#677);
#231=VERTEX_POINT('',#679);
#232=VERTEX_POINT('',#683);
#233=VERTEX_POINT('',#687);
#234=VERTEX_POINT('',#693);
#235=VERTEX_POINT('',#695);
#236=VERTEX_POINT('',#699);
#237=VERTEX_POINT('',#703);
#238=VERTEX_POINT('',#704);
#239=VERTEX_POINT('',#706);
#240=VERTEX_POINT('',#708);
#241=VERTEX_POINT('',#712);
#242=VERTEX_POINT('',#713);
#243=VERTEX_POINT('',#718);
#244=VERTEX_POINT('',#722);
#245=VERTEX_POINT('',#728);
#246=EDGE_CURVE('',#210,#210,#202,.T.);
#247=EDGE_CURVE('',#210,#211,#106,.T.);
#248=EDGE_CURVE('',#211,#211,#203,.T.);
#249=EDGE_CURVE('',#212,#212,#204,.T.);
#250=EDGE_CURVE('',#212,#213,#107,.T.);
#251=EDGE_CURVE('',#213,#213,#205,.T.);
#252=EDGE_CURVE('',#214,#214,#206,.T.);
#253=EDGE_CURVE('',#214,#215,#108,.T.);
#254=EDGE_CURVE('',#215,#215,#207,.T.);
#255=EDGE_CURVE('',#216,#216,#208,.T.);
#256=EDGE_CURVE('',#216,#217,#109,.T.);
#257=EDGE_CURVE('',#217,#217,#209,.T.);
#258=EDGE_CURVE('',#218,#219,#110,.T.);
#259=EDGE_CURVE('',#219,#220,#111,.T.);
#260=EDGE_CURVE('',#220,#221,#112,.T.);
#261=EDGE_CURVE('',#218,#221,#113,.T.);
#262=EDGE_CURVE('',#219,#222,#114,.T.);
#263=EDGE_CURVE('',#222,#223,#115,.T.);
#264=EDGE_CURVE('',#223,#220,#116,.T.);
#265=EDGE_CURVE('',#222,#224,#117,.T.);
#266=EDGE_CURVE('',#224,#225,#118,.T.);
#267=EDGE_CURVE('',#225,#223,#119,.T.);
#268=EDGE_CURVE('',#221,#225,#120,.T.);
#269=EDGE_CURVE('',#224,#218,#121,.T.);
#270=EDGE_CURVE('',#226,#227,#122,.T.);
#271=EDGE_CURVE('',#228,#226,#123,.T.);
#272=EDGE_CURVE('',#229,#228,#124,.T.);
#273=EDGE_CURVE('',#227,#229,#125,.T.);
#274=EDGE_CURVE('',#227,#230,#126,.T.);
#275=EDGE_CURVE('',#230,#231,#127,.T.);
#276=EDGE_CURVE('',#226,#231,#128,.T.);
#277=EDGE_CURVE('',#229,#232,#129,.T.);
#278=EDGE_CURVE('',#232,#230,#130,.T.);
#279=EDGE_CURVE('',#228,#233,#131,.T.);
#280=EDGE_CURVE('',#233,#232,#132,.T.);
#281=EDGE_CURVE('',#231,#233,#133,.T.);
#282=EDGE_CURVE('',#234,#231,#134,.T.);
#283=EDGE_CURVE('',#234,#235,#135,.T.);
#284=EDGE_CURVE('',#235,#233,#136,.T.);
#285=EDGE_CURVE('',#236,#230,#137,.T.);
#286=EDGE_CURVE('',#236,#234,#138,.T.);
#287=EDGE_CURVE('',#237,#238,#139,.T.);
#288=EDGE_CURVE('',#238,#239,#140,.T.);
#289=EDGE_CURVE('',#239,#240,#141,.T.);
#290=EDGE_CURVE('',#240,#237,#142,.T.);
#291=EDGE_CURVE('',#241,#242,#143,.T.);
#292=EDGE_CURVE('',#242,#238,#144,.T.);
#293=EDGE_CURVE('',#241,#237,#145,.T.);
#294=EDGE_CURVE('',#243,#241,#146,.T.);
#295=EDGE_CURVE('',#243,#240,#147,.T.);
#296=EDGE_CURVE('',#244,#243,#148,.T.);
#297=EDGE_CURVE('',#244,#239,#149,.T.);
#298=EDGE_CURVE('',#242,#244,#150,.T.);
#299=EDGE_CURVE('',#245,#232,#151,.T.);
#300=EDGE_CURVE('',#245,#236,#152,.T.);
#301=EDGE_CURVE('',#235,#245,#153,.T.);
#302=ORIENTED_EDGE('',*,*,#246,.F.);
#303=ORIENTED_EDGE('',*,*,#247,.T.);
#304=ORIENTED_EDGE('',*,*,#248,.T.);
#305=ORIENTED_EDGE('',*,*,#247,.F.);
#306=ORIENTED_EDGE('',*,*,#248,.F.);
#307=ORIENTED_EDGE('',*,*,#249,.F.);
#308=ORIENTED_EDGE('',*,*,#250,.T.);
#309=ORIENTED_EDGE('',*,*,#251,.T.);
#310=ORIENTED_EDGE('',*,*,#250,.F.);
#311=ORIENTED_EDGE('',*,*,#251,.F.);
#312=ORIENTED_EDGE('',*,*,#252,.F.);
#313=ORIENTED_EDGE('',*,*,#253,.T.);
#314=ORIENTED_EDGE('',*,*,#254,.T.);
#315=ORIENTED_EDGE('',*,*,#253,.F.);
#316=ORIENTED_EDGE('',*,*,#254,.F.);
#317=ORIENTED_EDGE('',*,*,#255,.F.);
#318=ORIENTED_EDGE('',*,*,#256,.T.);
#319=ORIENTED_EDGE('',*,*,#257,.T.);
#320=ORIENTED_EDGE('',*,*,#256,.F.);
#321=ORIENTED_EDGE('',*,*,#257,.F.);
#322=ORIENTED_EDGE('',*,*,#258,.T.);
#323=ORIENTED_EDGE('',*,*,#259,.T.);
#324=ORIENTED_EDGE('',*,*,#260,.T.);
#325=ORIENTED_EDGE('',*,*,#261,.F.);
#326=ORIENTED_EDGE('',*,*,#262,.T.);
#327=ORIENTED_EDGE('',*,*,#263,.T.);
#328=ORIENTED_EDGE('',*,*,#264,.T.);
#329=ORIENTED_EDGE('',*,*,#259,.F.);
#330=ORIENTED_EDGE('',*,*,#265,.T.);
#331=ORIENTED_EDGE('',*,*,#266,.T.);
#332=ORIENTED_EDGE('',*,*,#267,.T.);
#333=ORIENTED_EDGE('',*,*,#263,.F.);
#334=ORIENTED_EDGE('',*,*,#268,.T.);
#335=ORIENTED_EDGE('',*,*,#266,.F.);
#336=ORIENTED_EDGE('',*,*,#269,.T.);
#337=ORIENTED_EDGE('',*,*,#261,.T.);
#338=ORIENTED_EDGE('',*,*,#270,.F.);
#339=ORIENTED_EDGE('',*,*,#271,.F.);
#340=ORIENTED_EDGE('',*,*,#272,.F.);
#341=ORIENTED_EDGE('',*,*,#273,.F.);
#342=ORIENTED_EDGE('',*,*,#258,.F.);
#343=ORIENTED_EDGE('',*,*,#269,.F.);
#344=ORIENTED_EDGE('',*,*,#265,.F.);
#345=ORIENTED_EDGE('',*,*,#262,.F.);
#346=ORIENTED_EDGE('',*,*,#270,.T.);
#347=ORIENTED_EDGE('',*,*,#274,.T.);
#348=ORIENTED_EDGE('',*,*,#275,.T.);
#349=ORIENTED_EDGE('',*,*,#276,.F.);
#350=ORIENTED_EDGE('',*,*,#273,.T.);
#351=ORIENTED_EDGE('',*,*,#277,.T.);
#352=ORIENTED_EDGE('',*,*,#278,.T.);
#353=ORIENTED_EDGE('',*,*,#274,.F.);
#354=ORIENTED_EDGE('',*,*,#272,.T.);
#355=ORIENTED_EDGE('',*,*,#279,.T.);
#356=ORIENTED_EDGE('',*,*,#280,.T.);
#357=ORIENTED_EDGE('',*,*,#277,.F.);
#358=ORIENTED_EDGE('',*,*,#281,.T.);
#359=ORIENTED_EDGE('',*,*,#279,.F.);
#360=ORIENTED_EDGE('',*,*,#271,.T.);
#361=ORIENTED_EDGE('',*,*,#276,.T.);
#362=ORIENTED_EDGE('',*,*,#281,.F.);
#363=ORIENTED_EDGE('',*,*,#282,.F.);
#364=ORIENTED_EDGE('',*,*,#283,.T.);
#365=ORIENTED_EDGE('',*,*,#284,.T.);
#366=ORIENTED_EDGE('',*,*,#275,.F.);
#367=ORIENTED_EDGE('',*,*,#285,.F.);
#368=ORIENTED_EDGE('',*,*,#286,.T.);
#369=ORIENTED_EDGE('',*,*,#282,.T.);
#370=ORIENTED_EDGE('',*,*,#287,.T.);
#371=ORIENTED_EDGE('',*,*,#288,.T.);
#372=ORIENTED_EDGE('',*,*,#289,.T.);
#373=ORIENTED_EDGE('',*,*,#290,.T.);
#374=ORIENTED_EDGE('',*,*,#267,.F.);
#375=ORIENTED_EDGE('',*,*,#268,.F.);
#376=ORIENTED_EDGE('',*,*,#260,.F.);
#377=ORIENTED_EDGE('',*,*,#264,.F.);
#378=ORIENTED_EDGE('',*,*,#291,.T.);
#379=ORIENTED_EDGE('',*,*,#292,.T.);
#380=ORIENTED_EDGE('',*,*,#287,.F.);
#381=ORIENTED_EDGE('',*,*,#293,.F.);
#382=ORIENTED_EDGE('',*,*,#294,.T.);
#383=ORIENTED_EDGE('',*,*,#293,.T.);
#384=ORIENTED_EDGE('',*,*,#290,.F.);
#385=ORIENTED_EDGE('',*,*,#295,.F.);
#386=ORIENTED_EDGE('',*,*,#296,.T.);
#387=ORIENTED_EDGE('',*,*,#295,.T.);
#388=ORIENTED_EDGE('',*,*,#289,.F.);
#389=ORIENTED_EDGE('',*,*,#297,.F.);
#390=ORIENTED_EDGE('',*,*,#298,.T.);
#391=ORIENTED_EDGE('',*,*,#297,.T.);
#392=ORIENTED_EDGE('',*,*,#288,.F.);
#393=ORIENTED_EDGE('',*,*,#292,.F.);
#394=ORIENTED_EDGE('',*,*,#278,.F.);
#395=ORIENTED_EDGE('',*,*,#299,.F.);
#396=ORIENTED_EDGE('',*,*,#300,.T.);
#397=ORIENTED_EDGE('',*,*,#285,.T.);
#398=ORIENTED_EDGE('',*,*,#280,.F.);
#399=ORIENTED_EDGE('',*,*,#284,.F.);
#400=ORIENTED_EDGE('',*,*,#301,.T.);
#401=ORIENTED_EDGE('',*,*,#299,.T.);
#402=ORIENTED_EDGE('',*,*,#301,.F.);
#403=ORIENTED_EDGE('',*,*,#283,.F.);
#404=ORIENTED_EDGE('',*,*,#286,.F.);
#405=ORIENTED_EDGE('',*,*,#300,.F.);
#406=ORIENTED_EDGE('',*,*,#298,.F.);
#407=ORIENTED_EDGE('',*,*,#291,.F.);
#408=ORIENTED_EDGE('',*,*,#294,.F.);
#409=ORIENTED_EDGE('',*,*,#296,.F.);
#410=ORIENTED_EDGE('',*,*,#255,.T.);
#411=ORIENTED_EDGE('',*,*,#252,.T.);
#412=ORIENTED_EDGE('',*,*,#249,.T.);
#413=ORIENTED_EDGE('',*,*,#246,.T.);
#414=CYLINDRICAL_SURFACE('',#459,0.8);
#415=CYLINDRICAL_SURFACE('',#463,0.8);
#416=CYLINDRICAL_SURFACE('',#467,0.8);
#417=CYLINDRICAL_SURFACE('',#471,0.8);
#418=ADVANCED_FACE('',(#45),#414,.F.);
#419=ADVANCED_FACE('',(#46),#22,.F.);
#420=ADVANCED_FACE('',(#47),#415,.F.);
#421=ADVANCED_FACE('',(#48),#23,.F.);
#422=ADVANCED_FACE('',(#49),#416,.F.);
#423=ADVANCED_FACE('',(#50),#24,.F.);
#424=ADVANCED_FACE('',(#51),#417,.F.);
#425=ADVANCED_FACE('',(#52),#25,.F.);
#426=ADVANCED_FACE('',(#53),#26,.T.);
#427=ADVANCED_FACE('',(#54),#27,.T.);
#428=ADVANCED_FACE('',(#55),#28,.T.);
#429=ADVANCED_FACE('',(#56),#29,.T.);
#430=ADVANCED_FACE('',(#57,#15),#30,.T.);
#431=ADVANCED_FACE('',(#58),#31,.T.);
#432=ADVANCED_FACE('',(#59),#32,.T.);
#433=ADVANCED_FACE('',(#60),#33,.T.);
#434=ADVANCED_FACE('',(#61),#34,.T.);
#435=ADVANCED_FACE('',(#62),#35,.T.);
#436=ADVANCED_FACE('',(#63),#36,.T.);
#437=ADVANCED_FACE('',(#64,#16),#37,.F.);
#438=ADVANCED_FACE('',(#65),#38,.T.);
#439=ADVANCED_FACE('',(#66),#39,.T.);
#440=ADVANCED_FACE('',(#67),#40,.T.);
#441=ADVANCED_FACE('',(#68),#41,.T.);
#442=ADVANCED_FACE('',(#69),#42,.T.);
#443=ADVANCED_FACE('',(#70),#43,.T.);
#444=ADVANCED_FACE('',(#71,#17,#18,#19,#20,#21),#44,.F.);
#445=CLOSED_SHELL('',(#418,#419,#420,#421,#422,#423,#424,#425,#426,#427,
#428,#429,#430,#431,#432,#433,#434,#435,#436,#437,#438,#439,#440,#441,#442,
#443,#444));
#446=DERIVED_UNIT_ELEMENT(#448,1.);
#447=DERIVED_UNIT_ELEMENT(#739,-3.);
#448=(
MASS_UNIT()
NAMED_UNIT(*)
SI_UNIT(.KILO.,.GRAM.)
);
#449=DERIVED_UNIT((#446,#447));
#450=MEASURE_REPRESENTATION_ITEM('density measure',
POSITIVE_RATIO_MEASURE(7850.),#449);
#451=PROPERTY_DEFINITION_REPRESENTATION(#456,#453);
#452=PROPERTY_DEFINITION_REPRESENTATION(#457,#454);
#453=REPRESENTATION('material name',(#455),#736);
#454=REPRESENTATION('density',(#450),#736);
#455=DESCRIPTIVE_REPRESENTATION_ITEM('Steel','Steel');
#456=PROPERTY_DEFINITION('material property','material name',#746);
#457=PROPERTY_DEFINITION('material property','density of part',#746);
#458=AXIS2_PLACEMENT_3D('',#614,#494,#495);
#459=AXIS2_PLACEMENT_3D('',#615,#496,#497);
#460=AXIS2_PLACEMENT_3D('',#617,#498,#499);
#461=AXIS2_PLACEMENT_3D('',#620,#501,#502);
#462=AXIS2_PLACEMENT_3D('',#621,#503,#504);
#463=AXIS2_PLACEMENT_3D('',#622,#505,#506);
#464=AXIS2_PLACEMENT_3D('',#624,#507,#508);
#465=AXIS2_PLACEMENT_3D('',#627,#510,#511);
#466=AXIS2_PLACEMENT_3D('',#628,#512,#513);
#467=AXIS2_PLACEMENT_3D('',#629,#514,#515);
#468=AXIS2_PLACEMENT_3D('',#631,#516,#517);
#469=AXIS2_PLACEMENT_3D('',#634,#519,#520);
#470=AXIS2_PLACEMENT_3D('',#635,#521,#522);
#471=AXIS2_PLACEMENT_3D('',#636,#523,#524);
#472=AXIS2_PLACEMENT_3D('',#638,#525,#526);
#473=AXIS2_PLACEMENT_3D('',#641,#528,#529);
#474=AXIS2_PLACEMENT_3D('',#642,#530,#531);
#475=AXIS2_PLACEMENT_3D('',#643,#532,#533);
#476=AXIS2_PLACEMENT_3D('',#652,#538,#539);
#477=AXIS2_PLACEMENT_3D('',#658,#543,#544);
#478=AXIS2_PLACEMENT_3D('',#664,#548,#549);
#479=AXIS2_PLACEMENT_3D('',#667,#552,#553);
#480=AXIS2_PLACEMENT_3D('',#676,#558,#559);
#481=AXIS2_PLACEMENT_3D('',#682,#563,#564);
#482=AXIS2_PLACEMENT_3D('',#686,#567,#568);
#483=AXIS2_PLACEMENT_3D('',#690,#571,#572);
#484=AXIS2_PLACEMENT_3D('',#692,#574,#575);
#485=AXIS2_PLACEMENT_3D('',#698,#579,#580);
#486=AXIS2_PLACEMENT_3D('',#702,#583,#584);
#487=AXIS2_PLACEMENT_3D('',#711,#589,#590);
#488=AXIS2_PLACEMENT_3D('',#717,#594,#595);
#489=AXIS2_PLACEMENT_3D('',#721,#598,#599);
#490=AXIS2_PLACEMENT_3D('',#725,#602,#603);
#491=AXIS2_PLACEMENT_3D('',#727,#605,#606);
#492=AXIS2_PLACEMENT_3D('',#731,#609,#610);
#493=AXIS2_PLACEMENT_3D('',#733,#612,#613);
#494=DIRECTION('axis',(0.,0.,1.));
#495=DIRECTION('refdir',(1.,0.,0.));
#496=DIRECTION('center_axis',(0.,0.,1.));
#497=DIRECTION('ref_axis',(-1.,0.,0.));
#498=DIRECTION('center_axis',(0.,0.,1.));
#499=DIRECTION('ref_axis',(-1.,0.,0.));
#500=DIRECTION('',(0.,0.,1.));
#501=DIRECTION('center_axis',(0.,0.,1.));
#502=DIRECTION('ref_axis',(-1.,0.,0.));
#503=DIRECTION('center_axis',(0.,0.,1.));
#504=DIRECTION('ref_axis',(-1.,0.,0.));
#505=DIRECTION('center_axis',(0.,0.,1.));
#506=DIRECTION('ref_axis',(-1.,0.,0.));
#507=DIRECTION('center_axis',(0.,0.,1.));
#508=DIRECTION('ref_axis',(-1.,0.,0.));
#509=DIRECTION('',(0.,0.,1.));
#510=DIRECTION('center_axis',(0.,0.,1.));
#511=DIRECTION('ref_axis',(-1.,0.,0.));
#512=DIRECTION('center_axis',(0.,0.,1.));
#513=DIRECTION('ref_axis',(-1.,0.,0.));
#514=DIRECTION('center_axis',(0.,0.,1.));
#515=DIRECTION('ref_axis',(-1.,0.,0.));
#516=DIRECTION('center_axis',(0.,0.,1.));
#517=DIRECTION('ref_axis',(-1.,0.,0.));
#518=DIRECTION('',(0.,0.,1.));
#519=DIRECTION('center_axis',(0.,0.,1.));
#520=DIRECTION('ref_axis',(-1.,0.,0.));
#521=DIRECTION('center_axis',(0.,0.,1.));
#522=DIRECTION('ref_axis',(-1.,0.,0.));
#523=DIRECTION('center_axis',(0.,0.,1.));
#524=DIRECTION('ref_axis',(-1.,0.,0.));
#525=DIRECTION('center_axis',(0.,0.,1.));
#526=DIRECTION('ref_axis',(-1.,0.,0.));
#527=DIRECTION('',(0.,0.,1.));
#528=DIRECTION('center_axis',(0.,0.,1.));
#529=DIRECTION('ref_axis',(-1.,0.,0.));
#530=DIRECTION('center_axis',(0.,0.,1.));
#531=DIRECTION('ref_axis',(-1.,0.,0.));
#532=DIRECTION('center_axis',(0.707106781186548,0.,0.707106781186548));
#533=DIRECTION('ref_axis',(0.707106781186548,0.,-0.707106781186548));
#534=DIRECTION('',(0.,-1.,0.));
#535=DIRECTION('',(0.577350269189624,0.577350269189627,-0.577350269189627));
#536=DIRECTION('',(0.,1.,0.));
#537=DIRECTION('',(0.577350269189626,-0.577350269189626,-0.577350269189626));
#538=DIRECTION('center_axis',(0.,0.707106781186548,0.707106781186548));
#539=DIRECTION('ref_axis',(1.,0.,0.));
#540=DIRECTION('',(1.,0.,0.));
#541=DIRECTION('',(-0.577350269189626,0.577350269189626,-0.577350269189626));
#542=DIRECTION('',(-1.,0.,0.));
#543=DIRECTION('center_axis',(-0.707106781186548,0.,0.707106781186548));
#544=DIRECTION('ref_axis',(0.707106781186548,0.,0.707106781186548));
#545=DIRECTION('',(0.,1.,0.));
#546=DIRECTION('',(-0.577350269189626,-0.577350269189626,-0.577350269189626));
#547=DIRECTION('',(0.,-1.,0.));
#548=DIRECTION('center_axis',(0.,-0.707106781186548,0.707106781186548));
#549=DIRECTION('ref_axis',(1.,0.,0.));
#550=DIRECTION('',(1.,0.,0.));
#551=DIRECTION('',(-1.,0.,0.));
#552=DIRECTION('center_axis',(0.,0.,1.));
#553=DIRECTION('ref_axis',(1.,0.,0.));
#554=DIRECTION('',(0.,1.,0.));
#555=DIRECTION('',(-1.,0.,0.));
#556=DIRECTION('',(0.,-1.,0.));
#557=DIRECTION('',(1.,0.,0.));
#558=DIRECTION('center_axis',(-0.707106781186546,0.,0.707106781186549));
#559=DIRECTION('ref_axis',(0.707106781186549,0.,0.707106781186546));
#560=DIRECTION('',(-0.577350269189628,0.577350269189625,-0.577350269189625));
#561=DIRECTION('',(0.,-1.,0.));
#562=DIRECTION('',(-0.577350269189628,-0.577350269189623,-0.577350269189626));
#563=DIRECTION('center_axis',(0.,0.707106781186548,0.707106781186548));
#564=DIRECTION('ref_axis',(1.,0.,0.));
#565=DIRECTION('',(0.577350269189627,0.577350269189624,-0.577350269189627));
#566=DIRECTION('',(-1.,0.,0.));
#567=DIRECTION('center_axis',(0.707106781186548,0.,0.707106781186548));
#568=DIRECTION('ref_axis',(0.707106781186548,0.,-0.707106781186548));
#569=DIRECTION('',(0.577350269189626,-0.577350269189626,-0.577350269189626));
#570=DIRECTION('',(0.,1.,0.));
#571=DIRECTION('center_axis',(0.,-0.707106781186548,0.707106781186548));
#572=DIRECTION('ref_axis',(1.,0.,0.));
#573=DIRECTION('',(1.,0.,0.));
#574=DIRECTION('center_axis',(0.,-1.,0.));
#575=DIRECTION('ref_axis',(1.,0.,0.));
#576=DIRECTION('',(0.,0.,1.));
#577=DIRECTION('',(1.,0.,0.));
#578=DIRECTION('',(0.,0.,1.));
#579=DIRECTION('center_axis',(-1.,0.,0.));
#580=DIRECTION('ref_axis',(0.,-1.,0.));
#581=DIRECTION('',(0.,0.,1.));
#582=DIRECTION('',(0.,-1.,0.));
#583=DIRECTION('center_axis',(0.,0.,1.));
#584=DIRECTION('ref_axis',(-1.,0.,0.));
#585=DIRECTION('',(0.,-1.,0.));
#586=DIRECTION('',(-1.,0.,0.));
#587=DIRECTION('',(0.,1.,0.));
#588=DIRECTION('',(1.,0.,0.));
#589=DIRECTION('center_axis',(-1.,0.,0.));
#590=DIRECTION('ref_axis',(0.,-1.,0.));
#591=DIRECTION('',(0.,-1.,0.));
#592=DIRECTION('',(0.,0.,1.));
#593=DIRECTION('',(0.,0.,1.));
#594=DIRECTION('center_axis',(0.,-1.,0.));
#595=DIRECTION('ref_axis',(1.,0.,0.));
#596=DIRECTION('',(1.,0.,0.));
#597=DIRECTION('',(0.,0.,1.));
#598=DIRECTION('center_axis',(1.,0.,0.));
#599=DIRECTION('ref_axis',(0.,1.,0.));
#600=DIRECTION('',(0.,1.,0.));
#601=DIRECTION('',(0.,0.,1.));
#602=DIRECTION('center_axis',(0.,1.,0.));
#603=DIRECTION('ref_axis',(-1.,0.,0.));
#604=DIRECTION('',(-1.,0.,0.));
#605=DIRECTION('center_axis',(0.,1.,0.));
#606=DIRECTION('ref_axis',(-1.,0.,0.));
#607=DIRECTION('',(0.,0.,1.));
#608=DIRECTION('',(-1.,0.,0.));
#609=DIRECTION('center_axis',(1.,0.,0.));
#610=DIRECTION('ref_axis',(0.,1.,0.));
#611=DIRECTION('',(0.,1.,0.));
#612=DIRECTION('center_axis',(0.,0.,1.));
#613=DIRECTION('ref_axis',(-1.,0.,0.));
#614=CARTESIAN_POINT('',(0.,0.,0.));
#615=CARTESIAN_POINT('Origin',(-59.85,39.35,18.65));
#616=CARTESIAN_POINT('',(-59.05,39.35,14.15));
#617=CARTESIAN_POINT('Origin',(-59.85,39.35,14.15));
#618=CARTESIAN_POINT('',(-59.05,39.35,25.15));
#619=CARTESIAN_POINT('',(-59.05,39.35,18.65));
#620=CARTESIAN_POINT('Origin',(-59.85,39.35,25.15));
#621=CARTESIAN_POINT('Origin',(-59.85,39.35,25.15));
#622=CARTESIAN_POINT('Origin',(59.85,-39.35,18.65));
#623=CARTESIAN_POINT('',(60.65,-39.35,14.15));
#624=CARTESIAN_POINT('Origin',(59.85,-39.35,14.15));
#625=CARTESIAN_POINT('',(60.65,-39.35,25.15));
#626=CARTESIAN_POINT('',(60.65,-39.35,18.65));
#627=CARTESIAN_POINT('Origin',(59.85,-39.35,25.15));
#628=CARTESIAN_POINT('Origin',(59.85,-39.35,25.15));
#629=CARTESIAN_POINT('Origin',(59.85,39.35,18.65));
#630=CARTESIAN_POINT('',(60.65,39.35,14.15));
#631=CARTESIAN_POINT('Origin',(59.85,39.35,14.15));
#632=CARTESIAN_POINT('',(60.65,39.35,25.15));
#633=CARTESIAN_POINT('',(60.65,39.35,18.65));
#634=CARTESIAN_POINT('Origin',(59.85,39.35,25.15));
#635=CARTESIAN_POINT('Origin',(59.85,39.35,25.15));
#636=CARTESIAN_POINT('Origin',(-59.85,-39.35,18.65));
#637=CARTESIAN_POINT('',(-59.05,-39.35,14.15));
#638=CARTESIAN_POINT('Origin',(-59.85,-39.35,14.15));
#639=CARTESIAN_POINT('',(-59.05,-39.35,25.15));
#640=CARTESIAN_POINT('',(-59.05,-39.35,18.65));
#641=CARTESIAN_POINT('Origin',(-59.85,-39.35,25.15));
#642=CARTESIAN_POINT('Origin',(-59.85,-39.35,25.15));
#643=CARTESIAN_POINT('Origin',(-55.5,-27.25,35.15));
#644=CARTESIAN_POINT('',(-56.5,56.5,36.15));
#645=CARTESIAN_POINT('',(-56.5,-56.5,36.15));
#646=CARTESIAN_POINT('',(-56.5,-27.25,36.15));
#647=CARTESIAN_POINT('',(-54.5,-54.5,34.15));
#648=CARTESIAN_POINT('',(-56.5,-56.5,36.15));
#649=CARTESIAN_POINT('',(-54.5,54.5,34.15));
#650=CARTESIAN_POINT('',(-54.5,-54.5,34.15));
#651=CARTESIAN_POINT('',(-56.5,56.5,36.15));
#652=CARTESIAN_POINT('Origin',(27.25,-55.5,35.15));
#653=CARTESIAN_POINT('',(56.5,-56.5,36.15));
#654=CARTESIAN_POINT('',(27.25,-56.5,36.15));
#655=CARTESIAN_POINT('',(54.5,-54.5,34.15));
#656=CARTESIAN_POINT('',(56.5,-56.5,36.15));
#657=CARTESIAN_POINT('',(54.5,-54.5,34.15));
#658=CARTESIAN_POINT('Origin',(55.5,27.25,35.15));
#659=CARTESIAN_POINT('',(56.5,56.5,36.15));
#660=CARTESIAN_POINT('',(56.5,27.25,36.15));
#661=CARTESIAN_POINT('',(54.5,54.5,34.15));
#662=CARTESIAN_POINT('',(56.5,56.5,36.15));
#663=CARTESIAN_POINT('',(54.5,54.5,34.15));
#664=CARTESIAN_POINT('Origin',(-27.25,55.5,35.15));
#665=CARTESIAN_POINT('',(-54.5,54.5,34.15));
#666=CARTESIAN_POINT('',(-27.25,56.5,36.15));
#667=CARTESIAN_POINT('Origin',(0.,-1.77635683940025E-14,36.15));
#668=CARTESIAN_POINT('',(-59.85,-57.85,36.15));
#669=CARTESIAN_POINT('',(-59.85,57.85,36.15));
#670=CARTESIAN_POINT('',(-59.85,29.925,36.15));
#671=CARTESIAN_POINT('',(59.85,-57.85,36.15));
#672=CARTESIAN_POINT('',(-30.925,-57.85,36.15));
#673=CARTESIAN_POINT('',(59.85,57.85,36.15));
#674=CARTESIAN_POINT('',(59.85,-29.925,36.15));
#675=CARTESIAN_POINT('',(30.925,57.85,36.15));
#676=CARTESIAN_POINT('Origin',(-60.85,29.925,35.15));
#677=CARTESIAN_POINT('',(-61.85,59.85,34.15));
#678=CARTESIAN_POINT('',(-59.85,57.85,36.15));
#679=CARTESIAN_POINT('',(-61.85,-59.85,34.15));
#680=CARTESIAN_POINT('',(-61.85,29.925,34.15));
#681=CARTESIAN_POINT('',(-59.85,-57.85,36.15));
#682=CARTESIAN_POINT('Origin',(30.925,58.85,35.15));
#683=CARTESIAN_POINT('',(61.85,59.85,34.15));
#684=CARTESIAN_POINT('',(59.85,57.85,36.15));
#685=CARTESIAN_POINT('',(30.925,59.85,34.15));
#686=CARTESIAN_POINT('Origin',(60.85,-29.925,35.15));
#687=CARTESIAN_POINT('',(61.85,-59.85,34.15));
#688=CARTESIAN_POINT('',(59.85,-57.85,36.15));
#689=CARTESIAN_POINT('',(61.85,-29.925,34.15));
#690=CARTESIAN_POINT('Origin',(-30.925,-58.85,35.15));
#691=CARTESIAN_POINT('',(-30.925,-59.85,34.15));
#692=CARTESIAN_POINT('Origin',(-61.85,-59.85,14.15));
#693=CARTESIAN_POINT('',(-61.85,-59.85,14.15));
#694=CARTESIAN_POINT('',(-61.85,-59.85,14.15));
#695=CARTESIAN_POINT('',(61.85,-59.85,14.15));
#696=CARTESIAN_POINT('',(-61.85,-59.85,14.15));
#697=CARTESIAN_POINT('',(61.85,-59.85,14.15));
#698=CARTESIAN_POINT('Origin',(-61.85,59.85,14.15));
#699=CARTESIAN_POINT('',(-61.85,59.85,14.15));
#700=CARTESIAN_POINT('',(-61.85,59.85,14.15));
#701=CARTESIAN_POINT('',(-61.85,59.85,14.15));
#702=CARTESIAN_POINT('Origin',(0.,-1.77635683940025E-14,34.15));
#703=CARTESIAN_POINT('',(57.5,57.5,34.15));
#704=CARTESIAN_POINT('',(57.5,-57.5,34.15));
#705=CARTESIAN_POINT('',(57.5,-57.5,34.15));
#706=CARTESIAN_POINT('',(-57.5,-57.5,34.15));
#707=CARTESIAN_POINT('',(-57.5,-57.5,34.15));
#708=CARTESIAN_POINT('',(-57.5,57.5,34.15));
#709=CARTESIAN_POINT('',(-57.5,57.5,34.15));
#710=CARTESIAN_POINT('',(57.5,57.5,34.15));
#711=CARTESIAN_POINT('Origin',(57.5,57.5,14.15));
#712=CARTESIAN_POINT('',(57.5,57.5,14.15));
#713=CARTESIAN_POINT('',(57.5,-57.5,14.15));
#714=CARTESIAN_POINT('',(57.5,-57.5,14.15));
#715=CARTESIAN_POINT('',(57.5,-57.5,14.15));
#716=CARTESIAN_POINT('',(57.5,57.5,14.15));
#717=CARTESIAN_POINT('Origin',(-57.5,57.5,14.15));
#718=CARTESIAN_POINT('',(-57.5,57.5,14.15));
#719=CARTESIAN_POINT('',(57.5,57.5,14.15));
#720=CARTESIAN_POINT('',(-57.5,57.5,14.15));
#721=CARTESIAN_POINT('Origin',(-57.5,-57.5,14.15));
#722=CARTESIAN_POINT('',(-57.5,-57.5,14.15));
#723=CARTESIAN_POINT('',(-57.5,57.5,14.15));
#724=CARTESIAN_POINT('',(-57.5,-57.5,14.15));
#725=CARTESIAN_POINT('Origin',(57.5,-57.5,14.15));
#726=CARTESIAN_POINT('',(-57.5,-57.5,14.15));
#727=CARTESIAN_POINT('Origin',(61.85,59.85,14.15));
#728=CARTESIAN_POINT('',(61.85,59.85,14.15));
#729=CARTESIAN_POINT('',(61.85,59.85,14.15));
#730=CARTESIAN_POINT('',(61.85,59.85,14.15));
#731=CARTESIAN_POINT('Origin',(61.85,-59.85,14.15));
#732=CARTESIAN_POINT('',(61.85,-59.85,14.15));
#733=CARTESIAN_POINT('Origin',(-8.88178419700125E-15,-1.77635683940025E-14,
14.15));
#734=UNCERTAINTY_MEASURE_WITH_UNIT(LENGTH_MEASURE(0.01),#738,
'DISTANCE_ACCURACY_VALUE',
'Maximum model space distance between geometric entities at asserted c
onnectivities');
#735=UNCERTAINTY_MEASURE_WITH_UNIT(LENGTH_MEASURE(0.01),#738,
'DISTANCE_ACCURACY_VALUE',
'Maximum model space distance between geometric entities at asserted c
onnectivities');
#736=(
GEOMETRIC_REPRESENTATION_CONTEXT(3)
GLOBAL_UNCERTAINTY_ASSIGNED_CONTEXT((#734))
GLOBAL_UNIT_ASSIGNED_CONTEXT((#738,#740,#741))
REPRESENTATION_CONTEXT('','3D')
);
#737=(
GEOMETRIC_REPRESENTATION_CONTEXT(3)
GLOBAL_UNCERTAINTY_ASSIGNED_CONTEXT((#735))
GLOBAL_UNIT_ASSIGNED_CONTEXT((#738,#740,#741))
REPRESENTATION_CONTEXT('','3D')
);
#738=(
LENGTH_UNIT()
NAMED_UNIT(*)
SI_UNIT(.MILLI.,.METRE.)
);
#739=(
LENGTH_UNIT()
NAMED_UNIT(*)
SI_UNIT($,.METRE.)
);
#740=(
NAMED_UNIT(*)
PLANE_ANGLE_UNIT()
SI_UNIT($,.RADIAN.)
);
#741=(
NAMED_UNIT(*)
SI_UNIT($,.STERADIAN.)
SOLID_ANGLE_UNIT()
);
#742=SHAPE_DEFINITION_REPRESENTATION(#743,#744);
#743=PRODUCT_DEFINITION_SHAPE('',$,#746);
#744=SHAPE_REPRESENTATION('',(#458),#736);
#745=PRODUCT_DEFINITION_CONTEXT('part definition',#750,'design');
#746=PRODUCT_DEFINITION('2026-08-30-18-40-36-955',
'TurtleSquareSkinCover',#747,#745);
#747=PRODUCT_DEFINITION_FORMATION('',$,#752);
#748=PRODUCT_RELATED_PRODUCT_CATEGORY('TurtleSquareSkinCover',
'TurtleSquareSkinCover',(#752));
#749=APPLICATION_PROTOCOL_DEFINITION('international standard',
'automotive_design',2009,#750);
#750=APPLICATION_CONTEXT(
'Core Data for Automotive Mechanical Design Process');
#751=PRODUCT_CONTEXT('part definition',#750,'mechanical');
#752=PRODUCT('2026-08-30-18-40-36-955','TurtleSquareSkinCover',$,(#751));
#753=PRESENTATION_STYLE_ASSIGNMENT((#754));
#754=SURFACE_STYLE_USAGE(.BOTH.,#755);
#755=SURFACE_SIDE_STYLE('',(#756));
#756=SURFACE_STYLE_FILL_AREA(#757);
#757=FILL_AREA_STYLE('Steel - Satin',(#758));
#758=FILL_AREA_STYLE_COLOUR('Steel - Satin',#759);
#759=COLOUR_RGB('Steel - Satin',0.627450980392157,0.627450980392157,0.627450980392157);
ENDSEC;
END-ISO-10303-21;
