ISO-10303-21;
HEADER;
/* Generated by software containing ST-Developer
 * from STEP Tools, Inc. (www.steptools.com) 
 */

FILE_DESCRIPTION(
/* description */ (''),
/* implementation_level */ '2;1');

FILE_NAME(
/* name */ 'PneumaticConnectorSupportRight.step',
/* time_stamp */ '2026-10-01T14:40:54+01:00',
/* author */ (''),
/* organization */ (''),
/* preprocessor_version */ 'ST-DEVELOPER v20.2',
/* originating_system */ 'Autodesk Translation Framework v15.15.0.0',
/* authorisation */ '');

FILE_SCHEMA (('AUTOMOTIVE_DESIGN { 1 0 10303 214 3 1 1 }'));
ENDSEC;

DATA;
#10=MECHANICAL_DESIGN_GEOMETRIC_PRESENTATION_REPRESENTATION('',(#13),#738);
#11=SHAPE_REPRESENTATION_RELATIONSHIP('SRR','None',#745,#12);
#12=ADVANCED_BREP_SHAPE_REPRESENTATION('',(#14),#737);
#13=STYLED_ITEM('',(#754),#14);
#14=MANIFOLD_SOLID_BREP('Body1',#452);
#15=CYLINDRICAL_SURFACE('',#485,12.3);
#16=CIRCLE('',#484,12.3);
#17=CIRCLE('',#486,12.3);
#18=ELLIPSE('',#472,17.3948268171893,12.3);
#19=FACE_OUTER_BOUND('',#45,.T.);
#20=FACE_OUTER_BOUND('',#46,.T.);
#21=FACE_OUTER_BOUND('',#47,.T.);
#22=FACE_OUTER_BOUND('',#48,.T.);
#23=FACE_OUTER_BOUND('',#49,.T.);
#24=FACE_OUTER_BOUND('',#50,.T.);
#25=FACE_OUTER_BOUND('',#51,.T.);
#26=FACE_OUTER_BOUND('',#52,.T.);
#27=FACE_OUTER_BOUND('',#53,.T.);
#28=FACE_OUTER_BOUND('',#54,.T.);
#29=FACE_OUTER_BOUND('',#55,.T.);
#30=FACE_OUTER_BOUND('',#56,.T.);
#31=FACE_OUTER_BOUND('',#57,.T.);
#32=FACE_OUTER_BOUND('',#58,.T.);
#33=FACE_OUTER_BOUND('',#59,.T.);
#34=FACE_OUTER_BOUND('',#60,.T.);
#35=FACE_OUTER_BOUND('',#61,.T.);
#36=FACE_OUTER_BOUND('',#62,.T.);
#37=FACE_OUTER_BOUND('',#63,.T.);
#38=FACE_OUTER_BOUND('',#64,.T.);
#39=FACE_OUTER_BOUND('',#65,.T.);
#40=FACE_OUTER_BOUND('',#66,.T.);
#41=FACE_OUTER_BOUND('',#67,.T.);
#42=FACE_OUTER_BOUND('',#68,.T.);
#43=FACE_OUTER_BOUND('',#69,.T.);
#44=FACE_OUTER_BOUND('',#70,.T.);
#45=EDGE_LOOP('',(#281,#282,#283));
#46=EDGE_LOOP('',(#284,#285,#286));
#47=EDGE_LOOP('',(#287,#288,#289,#290));
#48=EDGE_LOOP('',(#291,#292,#293,#294));
#49=EDGE_LOOP('',(#295,#296,#297));
#50=EDGE_LOOP('',(#298,#299,#300,#301));
#51=EDGE_LOOP('',(#302,#303,#304,#305));
#52=EDGE_LOOP('',(#306,#307,#308,#309));
#53=EDGE_LOOP('',(#310,#311,#312,#313));
#54=EDGE_LOOP('',(#314,#315,#316,#317));
#55=EDGE_LOOP('',(#318,#319,#320,#321));
#56=EDGE_LOOP('',(#322,#323,#324,#325));
#57=EDGE_LOOP('',(#326,#327,#328,#329));
#58=EDGE_LOOP('',(#330,#331,#332,#333,#334));
#59=EDGE_LOOP('',(#335,#336,#337,#338,#339,#340));
#60=EDGE_LOOP('',(#341,#342,#343,#344,#345,#346));
#61=EDGE_LOOP('',(#347,#348,#349,#350,#351,#352));
#62=EDGE_LOOP('',(#353,#354,#355,#356,#357));
#63=EDGE_LOOP('',(#358,#359,#360,#361,#362,#363));
#64=EDGE_LOOP('',(#364,#365,#366,#367));
#65=EDGE_LOOP('',(#368,#369,#370,#371));
#66=EDGE_LOOP('',(#372,#373,#374,#375,#376,#377,#378,#379));
#67=EDGE_LOOP('',(#380,#381,#382,#383,#384,#385,#386));
#68=EDGE_LOOP('',(#387,#388,#389,#390));
#69=EDGE_LOOP('',(#391,#392,#393,#394,#395,#396));
#70=EDGE_LOOP('',(#397,#398,#399,#400));
#71=LINE('',#616,#128);
#72=LINE('',#618,#129);
#73=LINE('',#619,#130);
#74=LINE('',#623,#131);
#75=LINE('',#625,#132);
#76=LINE('',#626,#133);
#77=LINE('',#630,#134);
#78=LINE('',#631,#135);
#79=LINE('',#632,#136);
#80=LINE('',#636,#137);
#81=LINE('',#638,#138);
#82=LINE('',#640,#139);
#83=LINE('',#641,#140);
#84=LINE('',#645,#141);
#85=LINE('',#647,#142);
#86=LINE('',#648,#143);
#87=LINE('',#653,#144);
#88=LINE('',#654,#145);
#89=LINE('',#656,#146);
#90=LINE('',#657,#147);
#91=LINE('',#659,#148);
#92=LINE('',#660,#149);
#93=LINE('',#663,#150);
#94=LINE('',#665,#151);
#95=LINE('',#666,#152);
#96=LINE('',#668,#153);
#97=LINE('',#669,#154);
#98=LINE('',#671,#155);
#99=LINE('',#672,#156);
#100=LINE('',#676,#157);
#101=LINE('',#677,#158);
#102=LINE('',#678,#159);
#103=LINE('',#681,#160);
#104=LINE('',#682,#161);
#105=LINE('',#685,#162);
#106=LINE('',#687,#163);
#107=LINE('',#688,#164);
#108=LINE('',#691,#165);
#109=LINE('',#693,#166);
#110=LINE('',#694,#167);
#111=LINE('',#697,#168);
#112=LINE('',#699,#169);
#113=LINE('',#701,#170);
#114=LINE('',#702,#171);
#115=LINE('',#707,#172);
#116=LINE('',#708,#173);
#117=LINE('',#711,#174);
#118=LINE('',#714,#175);
#119=LINE('',#718,#176);
#120=LINE('',#719,#177);
#121=LINE('',#721,#178);
#122=LINE('',#723,#179);
#123=LINE('',#726,#180);
#124=LINE('',#728,#181);
#125=LINE('',#729,#182);
#126=LINE('',#731,#183);
#127=LINE('',#733,#184);
#128=VECTOR('',#499,10.);
#129=VECTOR('',#500,10.);
#130=VECTOR('',#501,10.);
#131=VECTOR('',#504,10.);
#132=VECTOR('',#505,10.);
#133=VECTOR('',#506,10.);
#134=VECTOR('',#509,10.);
#135=VECTOR('',#510,10.);
#136=VECTOR('',#511,10.);
#137=VECTOR('',#514,10.);
#138=VECTOR('',#515,10.);
#139=VECTOR('',#516,10.);
#140=VECTOR('',#517,10.);
#141=VECTOR('',#520,10.);
#142=VECTOR('',#521,10.);
#143=VECTOR('',#522,10.);
#144=VECTOR('',#527,10.);
#145=VECTOR('',#528,10.);
#146=VECTOR('',#531,10.);
#147=VECTOR('',#532,10.);
#148=VECTOR('',#535,10.);
#149=VECTOR('',#536,10.);
#150=VECTOR('',#539,10.);
#151=VECTOR('',#540,10.);
#152=VECTOR('',#541,10.);
#153=VECTOR('',#544,10.);
#154=VECTOR('',#545,10.);
#155=VECTOR('',#548,10.);
#156=VECTOR('',#549,10.);
#157=VECTOR('',#552,10.);
#158=VECTOR('',#553,10.);
#159=VECTOR('',#554,10.);
#160=VECTOR('',#557,10.);
#161=VECTOR('',#558,10.);
#162=VECTOR('',#561,10.);
#163=VECTOR('',#562,10.);
#164=VECTOR('',#563,10.);
#165=VECTOR('',#566,10.);
#166=VECTOR('',#567,10.);
#167=VECTOR('',#568,10.);
#168=VECTOR('',#571,10.);
#169=VECTOR('',#572,10.);
#170=VECTOR('',#573,10.);
#171=VECTOR('',#574,10.);
#172=VECTOR('',#579,10.);
#173=VECTOR('',#580,10.);
#174=VECTOR('',#583,10.);
#175=VECTOR('',#586,10.);
#176=VECTOR('',#591,10.);
#177=VECTOR('',#592,10.);
#178=VECTOR('',#595,10.);
#179=VECTOR('',#598,10.);
#180=VECTOR('',#601,10.);
#181=VECTOR('',#602,10.);
#182=VECTOR('',#603,10.);
#183=VECTOR('',#606,10.);
#184=VECTOR('',#609,10.);
#185=VERTEX_POINT('',#614);
#186=VERTEX_POINT('',#615);
#187=VERTEX_POINT('',#617);
#188=VERTEX_POINT('',#621);
#189=VERTEX_POINT('',#622);
#190=VERTEX_POINT('',#624);
#191=VERTEX_POINT('',#628);
#192=VERTEX_POINT('',#629);
#193=VERTEX_POINT('',#634);
#194=VERTEX_POINT('',#635);
#195=VERTEX_POINT('',#637);
#196=VERTEX_POINT('',#639);
#197=VERTEX_POINT('',#643);
#198=VERTEX_POINT('',#644);
#199=VERTEX_POINT('',#646);
#200=VERTEX_POINT('',#650);
#201=VERTEX_POINT('',#651);
#202=VERTEX_POINT('',#662);
#203=VERTEX_POINT('',#664);
#204=VERTEX_POINT('',#674);
#205=VERTEX_POINT('',#675);
#206=VERTEX_POINT('',#680);
#207=VERTEX_POINT('',#684);
#208=VERTEX_POINT('',#686);
#209=VERTEX_POINT('',#690);
#210=VERTEX_POINT('',#692);
#211=VERTEX_POINT('',#696);
#212=VERTEX_POINT('',#698);
#213=VERTEX_POINT('',#700);
#214=VERTEX_POINT('',#704);
#215=VERTEX_POINT('',#706);
#216=VERTEX_POINT('',#710);
#217=VERTEX_POINT('',#712);
#218=VERTEX_POINT('',#717);
#219=VERTEX_POINT('',#725);
#220=VERTEX_POINT('',#727);
#221=EDGE_CURVE('',#185,#186,#71,.T.);
#222=EDGE_CURVE('',#187,#185,#72,.T.);
#223=EDGE_CURVE('',#186,#187,#73,.T.);
#224=EDGE_CURVE('',#188,#189,#74,.T.);
#225=EDGE_CURVE('',#190,#188,#75,.T.);
#226=EDGE_CURVE('',#189,#190,#76,.T.);
#227=EDGE_CURVE('',#191,#192,#77,.F.);
#228=EDGE_CURVE('',#192,#190,#78,.T.);
#229=EDGE_CURVE('',#188,#191,#79,.T.);
#230=EDGE_CURVE('',#193,#194,#80,.T.);
#231=EDGE_CURVE('',#194,#195,#81,.T.);
#232=EDGE_CURVE('',#195,#196,#82,.T.);
#233=EDGE_CURVE('',#196,#193,#83,.T.);
#234=EDGE_CURVE('',#197,#198,#84,.T.);
#235=EDGE_CURVE('',#199,#197,#85,.T.);
#236=EDGE_CURVE('',#198,#199,#86,.T.);
#237=EDGE_CURVE('',#200,#201,#18,.T.);
#238=EDGE_CURVE('',#201,#199,#87,.T.);
#239=EDGE_CURVE('',#197,#200,#88,.T.);
#240=EDGE_CURVE('',#194,#198,#89,.T.);
#241=EDGE_CURVE('',#199,#195,#90,.T.);
#242=EDGE_CURVE('',#198,#189,#91,.T.);
#243=EDGE_CURVE('',#190,#197,#92,.T.);
#244=EDGE_CURVE('',#202,#188,#93,.T.);
#245=EDGE_CURVE('',#189,#203,#94,.T.);
#246=EDGE_CURVE('',#203,#202,#95,.T.);
#247=EDGE_CURVE('',#196,#186,#96,.T.);
#248=EDGE_CURVE('',#187,#193,#97,.T.);
#249=EDGE_CURVE('',#203,#187,#98,.T.);
#250=EDGE_CURVE('',#185,#202,#99,.T.);
#251=EDGE_CURVE('',#204,#205,#100,.T.);
#252=EDGE_CURVE('',#205,#185,#101,.T.);
#253=EDGE_CURVE('',#186,#204,#102,.T.);
#254=EDGE_CURVE('',#206,#205,#103,.T.);
#255=EDGE_CURVE('',#202,#206,#104,.T.);
#256=EDGE_CURVE('',#207,#204,#105,.T.);
#257=EDGE_CURVE('',#208,#207,#106,.T.);
#258=EDGE_CURVE('',#206,#208,#107,.T.);
#259=EDGE_CURVE('',#196,#209,#108,.T.);
#260=EDGE_CURVE('',#209,#210,#109,.T.);
#261=EDGE_CURVE('',#210,#207,#110,.T.);
#262=EDGE_CURVE('',#211,#195,#111,.T.);
#263=EDGE_CURVE('',#212,#211,#112,.T.);
#264=EDGE_CURVE('',#212,#213,#113,.T.);
#265=EDGE_CURVE('',#213,#209,#114,.T.);
#266=EDGE_CURVE('',#201,#214,#16,.T.);
#267=EDGE_CURVE('',#214,#215,#115,.T.);
#268=EDGE_CURVE('',#215,#211,#116,.T.);
#269=EDGE_CURVE('',#216,#200,#117,.T.);
#270=EDGE_CURVE('',#216,#217,#17,.T.);
#271=EDGE_CURVE('',#217,#214,#118,.T.);
#272=EDGE_CURVE('',#208,#218,#119,.T.);
#273=EDGE_CURVE('',#218,#210,#120,.T.);
#274=EDGE_CURVE('',#218,#213,#121,.T.);
#275=EDGE_CURVE('',#191,#212,#122,.T.);
#276=EDGE_CURVE('',#219,#215,#123,.T.);
#277=EDGE_CURVE('',#220,#219,#124,.T.);
#278=EDGE_CURVE('',#220,#192,#125,.T.);
#279=EDGE_CURVE('',#219,#217,#126,.T.);
#280=EDGE_CURVE('',#216,#220,#127,.T.);
#281=ORIENTED_EDGE('',*,*,#221,.F.);
#282=ORIENTED_EDGE('',*,*,#222,.F.);
#283=ORIENTED_EDGE('',*,*,#223,.F.);
#284=ORIENTED_EDGE('',*,*,#224,.F.);
#285=ORIENTED_EDGE('',*,*,#225,.F.);
#286=ORIENTED_EDGE('',*,*,#226,.F.);
#287=ORIENTED_EDGE('',*,*,#227,.T.);
#288=ORIENTED_EDGE('',*,*,#228,.T.);
#289=ORIENTED_EDGE('',*,*,#225,.T.);
#290=ORIENTED_EDGE('',*,*,#229,.T.);
#291=ORIENTED_EDGE('',*,*,#230,.T.);
#292=ORIENTED_EDGE('',*,*,#231,.T.);
#293=ORIENTED_EDGE('',*,*,#232,.T.);
#294=ORIENTED_EDGE('',*,*,#233,.T.);
#295=ORIENTED_EDGE('',*,*,#234,.F.);
#296=ORIENTED_EDGE('',*,*,#235,.F.);
#297=ORIENTED_EDGE('',*,*,#236,.F.);
#298=ORIENTED_EDGE('',*,*,#237,.T.);
#299=ORIENTED_EDGE('',*,*,#238,.T.);
#300=ORIENTED_EDGE('',*,*,#235,.T.);
#301=ORIENTED_EDGE('',*,*,#239,.T.);
#302=ORIENTED_EDGE('',*,*,#240,.T.);
#303=ORIENTED_EDGE('',*,*,#236,.T.);
#304=ORIENTED_EDGE('',*,*,#241,.T.);
#305=ORIENTED_EDGE('',*,*,#231,.F.);
#306=ORIENTED_EDGE('',*,*,#234,.T.);
#307=ORIENTED_EDGE('',*,*,#242,.T.);
#308=ORIENTED_EDGE('',*,*,#226,.T.);
#309=ORIENTED_EDGE('',*,*,#243,.T.);
#310=ORIENTED_EDGE('',*,*,#244,.T.);
#311=ORIENTED_EDGE('',*,*,#224,.T.);
#312=ORIENTED_EDGE('',*,*,#245,.T.);
#313=ORIENTED_EDGE('',*,*,#246,.T.);
#314=ORIENTED_EDGE('',*,*,#247,.T.);
#315=ORIENTED_EDGE('',*,*,#223,.T.);
#316=ORIENTED_EDGE('',*,*,#248,.T.);
#317=ORIENTED_EDGE('',*,*,#233,.F.);
#318=ORIENTED_EDGE('',*,*,#249,.T.);
#319=ORIENTED_EDGE('',*,*,#222,.T.);
#320=ORIENTED_EDGE('',*,*,#250,.T.);
#321=ORIENTED_EDGE('',*,*,#246,.F.);
#322=ORIENTED_EDGE('',*,*,#251,.T.);
#323=ORIENTED_EDGE('',*,*,#252,.T.);
#324=ORIENTED_EDGE('',*,*,#221,.T.);
#325=ORIENTED_EDGE('',*,*,#253,.T.);
#326=ORIENTED_EDGE('',*,*,#250,.F.);
#327=ORIENTED_EDGE('',*,*,#252,.F.);
#328=ORIENTED_EDGE('',*,*,#254,.F.);
#329=ORIENTED_EDGE('',*,*,#255,.F.);
#330=ORIENTED_EDGE('',*,*,#251,.F.);
#331=ORIENTED_EDGE('',*,*,#256,.F.);
#332=ORIENTED_EDGE('',*,*,#257,.F.);
#333=ORIENTED_EDGE('',*,*,#258,.F.);
#334=ORIENTED_EDGE('',*,*,#254,.T.);
#335=ORIENTED_EDGE('',*,*,#253,.F.);
#336=ORIENTED_EDGE('',*,*,#247,.F.);
#337=ORIENTED_EDGE('',*,*,#259,.T.);
#338=ORIENTED_EDGE('',*,*,#260,.T.);
#339=ORIENTED_EDGE('',*,*,#261,.T.);
#340=ORIENTED_EDGE('',*,*,#256,.T.);
#341=ORIENTED_EDGE('',*,*,#232,.F.);
#342=ORIENTED_EDGE('',*,*,#262,.F.);
#343=ORIENTED_EDGE('',*,*,#263,.F.);
#344=ORIENTED_EDGE('',*,*,#264,.T.);
#345=ORIENTED_EDGE('',*,*,#265,.T.);
#346=ORIENTED_EDGE('',*,*,#259,.F.);
#347=ORIENTED_EDGE('',*,*,#241,.F.);
#348=ORIENTED_EDGE('',*,*,#238,.F.);
#349=ORIENTED_EDGE('',*,*,#266,.T.);
#350=ORIENTED_EDGE('',*,*,#267,.T.);
#351=ORIENTED_EDGE('',*,*,#268,.T.);
#352=ORIENTED_EDGE('',*,*,#262,.T.);
#353=ORIENTED_EDGE('',*,*,#237,.F.);
#354=ORIENTED_EDGE('',*,*,#269,.F.);
#355=ORIENTED_EDGE('',*,*,#270,.T.);
#356=ORIENTED_EDGE('',*,*,#271,.T.);
#357=ORIENTED_EDGE('',*,*,#266,.F.);
#358=ORIENTED_EDGE('',*,*,#230,.F.);
#359=ORIENTED_EDGE('',*,*,#248,.F.);
#360=ORIENTED_EDGE('',*,*,#249,.F.);
#361=ORIENTED_EDGE('',*,*,#245,.F.);
#362=ORIENTED_EDGE('',*,*,#242,.F.);
#363=ORIENTED_EDGE('',*,*,#240,.F.);
#364=ORIENTED_EDGE('',*,*,#272,.F.);
#365=ORIENTED_EDGE('',*,*,#257,.T.);
#366=ORIENTED_EDGE('',*,*,#261,.F.);
#367=ORIENTED_EDGE('',*,*,#273,.F.);
#368=ORIENTED_EDGE('',*,*,#274,.F.);
#369=ORIENTED_EDGE('',*,*,#273,.T.);
#370=ORIENTED_EDGE('',*,*,#260,.F.);
#371=ORIENTED_EDGE('',*,*,#265,.F.);
#372=ORIENTED_EDGE('',*,*,#244,.F.);
#373=ORIENTED_EDGE('',*,*,#255,.T.);
#374=ORIENTED_EDGE('',*,*,#258,.T.);
#375=ORIENTED_EDGE('',*,*,#272,.T.);
#376=ORIENTED_EDGE('',*,*,#274,.T.);
#377=ORIENTED_EDGE('',*,*,#264,.F.);
#378=ORIENTED_EDGE('',*,*,#275,.F.);
#379=ORIENTED_EDGE('',*,*,#229,.F.);
#380=ORIENTED_EDGE('',*,*,#263,.T.);
#381=ORIENTED_EDGE('',*,*,#268,.F.);
#382=ORIENTED_EDGE('',*,*,#276,.F.);
#383=ORIENTED_EDGE('',*,*,#277,.F.);
#384=ORIENTED_EDGE('',*,*,#278,.T.);
#385=ORIENTED_EDGE('',*,*,#227,.F.);
#386=ORIENTED_EDGE('',*,*,#275,.T.);
#387=ORIENTED_EDGE('',*,*,#279,.F.);
#388=ORIENTED_EDGE('',*,*,#276,.T.);
#389=ORIENTED_EDGE('',*,*,#267,.F.);
#390=ORIENTED_EDGE('',*,*,#271,.F.);
#391=ORIENTED_EDGE('',*,*,#278,.F.);
#392=ORIENTED_EDGE('',*,*,#280,.F.);
#393=ORIENTED_EDGE('',*,*,#269,.T.);
#394=ORIENTED_EDGE('',*,*,#239,.F.);
#395=ORIENTED_EDGE('',*,*,#243,.F.);
#396=ORIENTED_EDGE('',*,*,#228,.F.);
#397=ORIENTED_EDGE('',*,*,#280,.T.);
#398=ORIENTED_EDGE('',*,*,#277,.T.);
#399=ORIENTED_EDGE('',*,*,#279,.T.);
#400=ORIENTED_EDGE('',*,*,#270,.F.);
#401=PLANE('',#466);
#402=PLANE('',#467);
#403=PLANE('',#468);
#404=PLANE('',#469);
#405=PLANE('',#470);
#406=PLANE('',#471);
#407=PLANE('',#473);
#408=PLANE('',#474);
#409=PLANE('',#475);
#410=PLANE('',#476);
#411=PLANE('',#477);
#412=PLANE('',#478);
#413=PLANE('',#479);
#414=PLANE('',#480);
#415=PLANE('',#481);
#416=PLANE('',#482);
#417=PLANE('',#483);
#418=PLANE('',#487);
#419=PLANE('',#488);
#420=PLANE('',#489);
#421=PLANE('',#490);
#422=PLANE('',#491);
#423=PLANE('',#492);
#424=PLANE('',#493);
#425=PLANE('',#494);
#426=ADVANCED_FACE('',(#19),#401,.T.);
#427=ADVANCED_FACE('',(#20),#402,.T.);
#428=ADVANCED_FACE('',(#21),#403,.T.);
#429=ADVANCED_FACE('',(#22),#404,.T.);
#430=ADVANCED_FACE('',(#23),#405,.T.);
#431=ADVANCED_FACE('',(#24),#406,.T.);
#432=ADVANCED_FACE('',(#25),#407,.T.);
#433=ADVANCED_FACE('',(#26),#408,.T.);
#434=ADVANCED_FACE('',(#27),#409,.T.);
#435=ADVANCED_FACE('',(#28),#410,.T.);
#436=ADVANCED_FACE('',(#29),#411,.T.);
#437=ADVANCED_FACE('',(#30),#412,.T.);
#438=ADVANCED_FACE('',(#31),#413,.T.);
#439=ADVANCED_FACE('',(#32),#414,.T.);
#440=ADVANCED_FACE('',(#33),#415,.T.);
#441=ADVANCED_FACE('',(#34),#416,.T.);
#442=ADVANCED_FACE('',(#35),#417,.F.);
#443=ADVANCED_FACE('',(#36),#15,.F.);
#444=ADVANCED_FACE('',(#37),#418,.T.);
#445=ADVANCED_FACE('',(#38),#419,.T.);
#446=ADVANCED_FACE('',(#39),#420,.T.);
#447=ADVANCED_FACE('',(#40),#421,.T.);
#448=ADVANCED_FACE('',(#41),#422,.T.);
#449=ADVANCED_FACE('',(#42),#423,.T.);
#450=ADVANCED_FACE('',(#43),#424,.T.);
#451=ADVANCED_FACE('',(#44),#425,.T.);
#452=CLOSED_SHELL('',(#426,#427,#428,#429,#430,#431,#432,#433,#434,#435,
#436,#437,#438,#439,#440,#441,#442,#443,#444,#445,#446,#447,#448,#449,#450,
#451));
#453=DERIVED_UNIT_ELEMENT(#455,1.);
#454=DERIVED_UNIT_ELEMENT(#740,-3.);
#455=(
MASS_UNIT()
NAMED_UNIT(*)
SI_UNIT(.KILO.,.GRAM.)
);
#456=DERIVED_UNIT((#453,#454));
#457=MEASURE_REPRESENTATION_ITEM('density measure',
POSITIVE_RATIO_MEASURE(7850.),#456);
#458=PROPERTY_DEFINITION_REPRESENTATION(#463,#460);
#459=PROPERTY_DEFINITION_REPRESENTATION(#464,#461);
#460=REPRESENTATION('material name',(#462),#737);
#461=REPRESENTATION('density',(#457),#737);
#462=DESCRIPTIVE_REPRESENTATION_ITEM('Steel','Steel');
#463=PROPERTY_DEFINITION('material property','material name',#747);
#464=PROPERTY_DEFINITION('material property','density of part',#747);
#465=AXIS2_PLACEMENT_3D('',#612,#495,#496);
#466=AXIS2_PLACEMENT_3D('',#613,#497,#498);
#467=AXIS2_PLACEMENT_3D('',#620,#502,#503);
#468=AXIS2_PLACEMENT_3D('',#627,#507,#508);
#469=AXIS2_PLACEMENT_3D('',#633,#512,#513);
#470=AXIS2_PLACEMENT_3D('',#642,#518,#519);
#471=AXIS2_PLACEMENT_3D('',#649,#523,#524);
#472=AXIS2_PLACEMENT_3D('',#652,#525,#526);
#473=AXIS2_PLACEMENT_3D('',#655,#529,#530);
#474=AXIS2_PLACEMENT_3D('',#658,#533,#534);
#475=AXIS2_PLACEMENT_3D('',#661,#537,#538);
#476=AXIS2_PLACEMENT_3D('',#667,#542,#543);
#477=AXIS2_PLACEMENT_3D('',#670,#546,#547);
#478=AXIS2_PLACEMENT_3D('',#673,#550,#551);
#479=AXIS2_PLACEMENT_3D('',#679,#555,#556);
#480=AXIS2_PLACEMENT_3D('',#683,#559,#560);
#481=AXIS2_PLACEMENT_3D('',#689,#564,#565);
#482=AXIS2_PLACEMENT_3D('',#695,#569,#570);
#483=AXIS2_PLACEMENT_3D('',#703,#575,#576);
#484=AXIS2_PLACEMENT_3D('',#705,#577,#578);
#485=AXIS2_PLACEMENT_3D('',#709,#581,#582);
#486=AXIS2_PLACEMENT_3D('',#713,#584,#585);
#487=AXIS2_PLACEMENT_3D('',#715,#587,#588);
#488=AXIS2_PLACEMENT_3D('',#716,#589,#590);
#489=AXIS2_PLACEMENT_3D('',#720,#593,#594);
#490=AXIS2_PLACEMENT_3D('',#722,#596,#597);
#491=AXIS2_PLACEMENT_3D('',#724,#599,#600);
#492=AXIS2_PLACEMENT_3D('',#730,#604,#605);
#493=AXIS2_PLACEMENT_3D('',#732,#607,#608);
#494=AXIS2_PLACEMENT_3D('',#734,#610,#611);
#495=DIRECTION('axis',(0.,0.,1.));
#496=DIRECTION('refdir',(1.,0.,0.));
#497=DIRECTION('center_axis',(0.577350269189627,-0.577350269189624,0.577350269189627));
#498=DIRECTION('ref_axis',(0.707106781186547,0.,-0.707106781186547));
#499=DIRECTION('',(-0.707106781186546,-0.707106781186549,0.));
#500=DIRECTION('',(0.707106781186548,0.,-0.707106781186548));
#501=DIRECTION('',(0.,0.707106781186549,0.707106781186546));
#502=DIRECTION('center_axis',(0.577350269189627,-0.577350269189624,0.577350269189627));
#503=DIRECTION('ref_axis',(0.707106781186547,0.,-0.707106781186547));
#504=DIRECTION('',(0.,0.707106781186549,0.707106781186546));
#505=DIRECTION('',(-0.707106781186546,-0.707106781186549,0.));
#506=DIRECTION('',(0.707106781186548,0.,-0.707106781186548));
#507=DIRECTION('center_axis',(0.707106781186549,-0.707106781186546,-5.58013171213301E-31));
#508=DIRECTION('ref_axis',(-7.89149794712668E-31,0.,-1.));
#509=DIRECTION('',(-0.707106781186546,-0.707106781186549,5.57808895494737E-31));
#510=DIRECTION('',(7.89149794712668E-31,0.,1.));
#511=DIRECTION('',(-7.89149794712668E-31,0.,-1.));
#512=DIRECTION('center_axis',(-0.707106781186548,0.,0.707106781186548));
#513=DIRECTION('ref_axis',(0.707106781186548,0.,0.707106781186548));
#514=DIRECTION('',(0.,1.,0.));
#515=DIRECTION('',(-0.577350269189626,0.577350269189626,-0.577350269189626));
#516=DIRECTION('',(0.,-1.,0.));
#517=DIRECTION('',(0.577350269189625,0.577350269189628,0.577350269189625));
#518=DIRECTION('center_axis',(0.577350269189628,0.577350269189618,0.577350269189631));
#519=DIRECTION('ref_axis',(0.707106781186549,0.,-0.707106781186546));
#520=DIRECTION('',(-0.707106781186548,0.,0.707106781186548));
#521=DIRECTION('',(0.707106781186541,-0.707106781186554,0.));
#522=DIRECTION('',(1.25607396694702E-14,0.707106781186549,-0.707106781186546));
#523=DIRECTION('center_axis',(0.707106781186554,0.707106781186541,2.4532694666808E-18));
#524=DIRECTION('ref_axis',(3.46944695193577E-18,0.,-1.));
#525=DIRECTION('center_axis',(-0.707106781186554,-0.707106781186541,-2.4532694666808E-18));
#526=DIRECTION('ref_axis',(0.707106781186541,-0.707106781186554,-5.57808895494729E-31));
#527=DIRECTION('',(8.01475746356686E-31,-3.46944695193663E-18,1.));
#528=DIRECTION('',(-8.01475746356686E-31,3.46944695193663E-18,-1.));
#529=DIRECTION('center_axis',(-2.57102640109468E-15,0.707106781186546,0.707106781186549));
#530=DIRECTION('ref_axis',(1.,0.,3.63598040564737E-15));
#531=DIRECTION('',(1.,3.63598040564739E-15,0.));
#532=DIRECTION('',(-1.,-3.63598040564739E-15,0.));
#533=DIRECTION('center_axis',(0.707106781186548,2.51214793389404E-15,0.707106781186548));
#534=DIRECTION('ref_axis',(0.707106781186548,0.,-0.707106781186548));
#535=DIRECTION('',(3.5527136788005E-15,-1.,0.));
#536=DIRECTION('',(-3.5527136788005E-15,1.,0.));
#537=DIRECTION('center_axis',(0.,-0.707106781186546,0.707106781186549));
#538=DIRECTION('ref_axis',(1.,0.,0.));
#539=DIRECTION('',(1.,0.,0.));
#540=DIRECTION('',(-1.,0.,0.));
#541=DIRECTION('',(0.577350269189625,-0.577350269189628,-0.577350269189625));
#542=DIRECTION('center_axis',(0.,-0.707106781186546,0.707106781186549));
#543=DIRECTION('ref_axis',(1.,0.,0.));
#544=DIRECTION('',(1.,0.,0.));
#545=DIRECTION('',(-1.,0.,0.));
#546=DIRECTION('center_axis',(0.707106781186548,0.,0.707106781186548));
#547=DIRECTION('ref_axis',(0.707106781186548,0.,-0.707106781186548));
#548=DIRECTION('',(0.,-1.,0.));
#549=DIRECTION('',(0.,1.,0.));
#550=DIRECTION('center_axis',(0.707106781186549,-0.707106781186546,0.));
#551=DIRECTION('ref_axis',(0.,0.,-1.));
#552=DIRECTION('',(0.707106781186546,0.707106781186549,-5.10169331230145E-16));
#553=DIRECTION('',(0.,0.,1.));
#554=DIRECTION('',(0.,0.,-1.));
#555=DIRECTION('center_axis',(1.,0.,0.));
#556=DIRECTION('ref_axis',(0.,0.,1.));
#557=DIRECTION('',(0.,-1.,0.));
#558=DIRECTION('',(0.,0.,-1.));
#559=DIRECTION('center_axis',(-7.21488387332485E-16,0.,-1.));
#560=DIRECTION('ref_axis',(1.,0.,-7.21488387332485E-16));
#561=DIRECTION('',(1.,0.,-7.21488387332485E-16));
#562=DIRECTION('',(0.,-1.,0.));
#563=DIRECTION('',(-1.,0.,7.21488387332485E-16));
#564=DIRECTION('center_axis',(0.,-1.,0.));
#565=DIRECTION('ref_axis',(0.,0.,-1.));
#566=DIRECTION('',(0.,0.,-1.));
#567=DIRECTION('',(1.,0.,0.));
#568=DIRECTION('',(0.,0.,-1.));
#569=DIRECTION('center_axis',(-1.,0.,0.));
#570=DIRECTION('ref_axis',(0.,-1.,-2.81869698229711E-45));
#571=DIRECTION('',(0.,0.,1.));
#572=DIRECTION('',(0.,1.,-2.80259692864963E-45));
#573=DIRECTION('',(0.,0.,1.));
#574=DIRECTION('',(0.,-1.,0.));
#575=DIRECTION('center_axis',(3.63598040564739E-15,-1.,-3.46944695193663E-18));
#576=DIRECTION('ref_axis',(1.,3.63598040564739E-15,-7.88860905221012E-31));
#577=DIRECTION('center_axis',(3.63598040564739E-15,-1.,-3.46944695193663E-18));
#578=DIRECTION('ref_axis',(1.,3.63598040564739E-15,-7.88860905221012E-31));
#579=DIRECTION('',(8.01475746356686E-31,-3.46944695193663E-18,1.));
#580=DIRECTION('',(1.,3.63598040564739E-15,-7.88860905221012E-31));
#581=DIRECTION('center_axis',(-3.5527136788005E-15,1.,0.));
#582=DIRECTION('ref_axis',(1.,3.5527136788005E-15,-7.88860905221012E-31));
#583=DIRECTION('',(-3.5527136788005E-15,1.,0.));
#584=DIRECTION('center_axis',(3.63598040564739E-15,-1.,-3.46944695193663E-18));
#585=DIRECTION('ref_axis',(1.,3.63598040564739E-15,-7.88860905221012E-31));
#586=DIRECTION('',(-3.5527136788005E-15,1.,0.));
#587=DIRECTION('center_axis',(0.,0.,1.));
#588=DIRECTION('ref_axis',(1.,0.,0.));
#589=DIRECTION('center_axis',(-1.,0.,0.));
#590=DIRECTION('ref_axis',(0.,0.,-1.));
#591=DIRECTION('',(0.,0.,1.));
#592=DIRECTION('',(0.,-1.,0.));
#593=DIRECTION('center_axis',(0.,0.,-1.));
#594=DIRECTION('ref_axis',(1.,0.,0.));
#595=DIRECTION('',(-1.,0.,0.));
#596=DIRECTION('center_axis',(0.,-1.,0.));
#597=DIRECTION('ref_axis',(1.,0.,0.));
#598=DIRECTION('',(-1.,0.,7.88860905221012E-31));
#599=DIRECTION('center_axis',(7.88860905221012E-31,2.80259692864963E-45,
1.));
#600=DIRECTION('ref_axis',(1.,3.63598040564739E-15,-7.88860905221012E-31));
#601=DIRECTION('',(-3.5527136788005E-15,1.,0.));
#602=DIRECTION('',(-1.,-3.63598040564739E-15,7.88860905221012E-31));
#603=DIRECTION('',(-3.5527136788005E-15,1.,0.));
#604=DIRECTION('center_axis',(-1.,-3.5527136788005E-15,7.89149794712668E-31));
#605=DIRECTION('ref_axis',(8.01475746356686E-31,-3.46944695193663E-18,1.));
#606=DIRECTION('',(-8.01475746356686E-31,3.46944695193663E-18,-1.));
#607=DIRECTION('center_axis',(1.,3.5527136788005E-15,-7.89149794712668E-31));
#608=DIRECTION('ref_axis',(-8.01475746356686E-31,3.46944695193663E-18,-1.));
#609=DIRECTION('',(8.01475746356686E-31,-3.46944695193663E-18,1.));
#610=DIRECTION('center_axis',(3.63598040564739E-15,-1.,-3.46944695193663E-18));
#611=DIRECTION('ref_axis',(1.,3.63598040564739E-15,-7.88860905221012E-31));
#612=CARTESIAN_POINT('',(0.,0.,0.));
#613=CARTESIAN_POINT('Origin',(109.5,13.8,43.45));
#614=CARTESIAN_POINT('',(110.5,13.8,42.45));
#615=CARTESIAN_POINT('',(109.5,12.8,42.45));
#616=CARTESIAN_POINT('',(110.5,13.8,42.45));
#617=CARTESIAN_POINT('',(109.5,13.8,43.45));
#618=CARTESIAN_POINT('',(109.5,13.8,43.45));
#619=CARTESIAN_POINT('',(109.5,12.8,42.45));
#620=CARTESIAN_POINT('Origin',(112.498180554513,23.8,42.45));
#621=CARTESIAN_POINT('',(111.498180554513,22.8,42.45));
#622=CARTESIAN_POINT('',(111.498180554513,23.8,43.45));
#623=CARTESIAN_POINT('',(111.498180554513,22.8,42.45));
#624=CARTESIAN_POINT('',(112.498180554513,23.8,42.45));
#625=CARTESIAN_POINT('',(112.498180554513,23.8,42.45));
#626=CARTESIAN_POINT('',(111.498180554513,23.8,43.45));
#627=CARTESIAN_POINT('Origin',(111.998180554513,23.3,21.45));
#628=CARTESIAN_POINT('',(111.498180554513,22.8,21.45));
#629=CARTESIAN_POINT('',(112.498180554513,23.8,21.45));
#630=CARTESIAN_POINT('',(105.89194078954,17.1937602350269,21.45));
#631=CARTESIAN_POINT('',(112.498180554513,23.8,21.45));
#632=CARTESIAN_POINT('',(111.498180554513,22.8,21.45));
#633=CARTESIAN_POINT('Origin',(101.3,26.9812807050806,42.95));
#634=CARTESIAN_POINT('',(101.8,13.8,43.45));
#635=CARTESIAN_POINT('',(101.8,27.3750409401075,43.45));
#636=CARTESIAN_POINT('',(101.8,26.9812807050806,43.45));
#637=CARTESIAN_POINT('',(100.8,28.3750409401075,42.45));
#638=CARTESIAN_POINT('',(101.8,27.3750409401075,43.45));
#639=CARTESIAN_POINT('',(100.8,12.8,42.45));
#640=CARTESIAN_POINT('',(100.8,26.9812807050806,42.45));
#641=CARTESIAN_POINT('',(100.8,12.8,42.45));
#642=CARTESIAN_POINT('Origin',(111.498180554513,28.3750409401075,42.45));
#643=CARTESIAN_POINT('',(112.498180554513,27.3750409401075,42.45));
#644=CARTESIAN_POINT('',(111.498180554513,27.3750409401075,43.45));
#645=CARTESIAN_POINT('',(112.498180554513,27.3750409401075,42.45));
#646=CARTESIAN_POINT('',(111.498180554513,28.3750409401075,42.45));
#647=CARTESIAN_POINT('',(111.498180554513,28.3750409401075,42.45));
#648=CARTESIAN_POINT('',(111.498180554513,27.3750409401075,43.45));
#649=CARTESIAN_POINT('Origin',(111.998180554513,27.8750409401075,16.6247115213908));
#650=CARTESIAN_POINT('',(112.498180554513,27.3750409401075,2.14884608556316));
#651=CARTESIAN_POINT('',(111.498180554513,28.3750409401075,2.84222198576528));
#652=CARTESIAN_POINT('Origin',(104.998180554513,34.8750409401077,-7.6));
#653=CARTESIAN_POINT('',(111.498180554513,28.3750409401075,16.6247115213908));
#654=CARTESIAN_POINT('',(112.498180554513,27.3750409401075,16.6247115213908));
#655=CARTESIAN_POINT('Origin',(105.823635415885,27.8750409401075,42.95));
#656=CARTESIAN_POINT('',(105.823635415885,27.3750409401075,43.45));
#657=CARTESIAN_POINT('',(105.823635415885,28.3750409401075,42.45));
#658=CARTESIAN_POINT('Origin',(111.998180554513,19.4812807050806,42.95));
#659=CARTESIAN_POINT('',(111.498180554513,19.4812807050806,43.45));
#660=CARTESIAN_POINT('',(112.498180554513,19.4812807050806,42.45));
#661=CARTESIAN_POINT('Origin',(103.724545138628,23.3,42.95));
#662=CARTESIAN_POINT('',(110.5,22.8,42.45));
#663=CARTESIAN_POINT('',(103.724545138628,22.8,42.45));
#664=CARTESIAN_POINT('',(109.5,23.8,43.45));
#665=CARTESIAN_POINT('',(103.724545138628,23.8,43.45));
#666=CARTESIAN_POINT('',(109.5,23.8,43.45));
#667=CARTESIAN_POINT('Origin',(106.149545138628,13.3,42.95));
#668=CARTESIAN_POINT('',(106.149545138628,12.8,42.45));
#669=CARTESIAN_POINT('',(106.149545138628,13.8,43.45));
#670=CARTESIAN_POINT('Origin',(110.,24.1937602350269,42.95));
#671=CARTESIAN_POINT('',(109.5,24.1937602350269,43.45));
#672=CARTESIAN_POINT('',(110.5,24.1937602350269,42.45));
#673=CARTESIAN_POINT('Origin',(110.,13.3,33.5875));
#674=CARTESIAN_POINT('',(109.5,12.8,30.3));
#675=CARTESIAN_POINT('',(110.5,13.8,30.3));
#676=CARTESIAN_POINT('',(112.1,15.4,30.3));
#677=CARTESIAN_POINT('',(110.5,13.8,33.5875));
#678=CARTESIAN_POINT('',(109.5,12.8,33.5875));
#679=CARTESIAN_POINT('Origin',(110.5,22.8,30.3));
#680=CARTESIAN_POINT('',(110.5,22.8,30.3));
#681=CARTESIAN_POINT('',(110.5,22.8,30.3));
#682=CARTESIAN_POINT('',(110.5,22.8,25.875));
#683=CARTESIAN_POINT('Origin',(108.9,22.8,30.3));
#684=CARTESIAN_POINT('',(108.9,12.8,30.3));
#685=CARTESIAN_POINT('',(108.9,12.8,30.3));
#686=CARTESIAN_POINT('',(108.9,22.8,30.3));
#687=CARTESIAN_POINT('',(108.9,22.8,30.3));
#688=CARTESIAN_POINT('',(104.85,22.8,30.3));
#689=CARTESIAN_POINT('Origin',(105.65,12.8,36.875));
#690=CARTESIAN_POINT('',(100.8,12.8,40.3));
#691=CARTESIAN_POINT('',(100.8,12.8,21.45));
#692=CARTESIAN_POINT('',(108.9,12.8,40.3));
#693=CARTESIAN_POINT('',(91.5,12.8,40.3));
#694=CARTESIAN_POINT('',(108.9,12.8,40.3));
#695=CARTESIAN_POINT('Origin',(100.8,28.3750409401075,21.45));
#696=CARTESIAN_POINT('',(100.8,28.3750409401075,21.45));
#697=CARTESIAN_POINT('',(100.8,28.3750409401075,21.45));
#698=CARTESIAN_POINT('',(100.8,22.8,21.45));
#699=CARTESIAN_POINT('',(100.8,20.8750409401074,21.45));
#700=CARTESIAN_POINT('',(100.8,22.8,40.3));
#701=CARTESIAN_POINT('',(100.8,22.8,21.45));
#702=CARTESIAN_POINT('',(100.8,22.8,40.3));
#703=CARTESIAN_POINT('Origin',(104.998180554513,28.3750409401075,11.7994230427816));
#704=CARTESIAN_POINT('',(97.4981805545132,28.3750409401074,2.14884608556316));
#705=CARTESIAN_POINT('Origin',(104.998180554513,28.3750409401075,-7.6));
#706=CARTESIAN_POINT('',(97.4981805545132,28.3750409401074,21.45));
#707=CARTESIAN_POINT('',(97.4981805545132,28.3750409401074,21.45));
#708=CARTESIAN_POINT('',(112.498180554513,28.3750409401075,21.45));
#709=CARTESIAN_POINT('Origin',(104.998180554513,13.3750409401075,-7.6));
#710=CARTESIAN_POINT('',(112.498180554513,13.3750409401075,2.14884608556316));
#711=CARTESIAN_POINT('',(112.498180554513,13.3750409401075,2.14884608556316));
#712=CARTESIAN_POINT('',(97.4981805545132,13.3750409401074,2.14884608556316));
#713=CARTESIAN_POINT('Origin',(104.998180554513,13.3750409401075,-7.6));
#714=CARTESIAN_POINT('',(97.4981805545132,13.3750409401074,2.14884608556316));
#715=CARTESIAN_POINT('Origin',(106.649090277257,25.5875204700537,43.45));
#716=CARTESIAN_POINT('Origin',(108.9,22.8,40.3));
#717=CARTESIAN_POINT('',(108.9,22.8,40.3));
#718=CARTESIAN_POINT('',(108.9,22.8,30.875));
#719=CARTESIAN_POINT('',(108.9,22.8,40.3));
#720=CARTESIAN_POINT('Origin',(100.8,22.8,40.3));
#721=CARTESIAN_POINT('',(100.8,22.8,40.3));
#722=CARTESIAN_POINT('Origin',(100.8,22.8,21.45));
#723=CARTESIAN_POINT('',(99.1490902772566,22.8,21.45));
#724=CARTESIAN_POINT('Origin',(97.4981805545132,13.3750409401074,21.45));
#725=CARTESIAN_POINT('',(97.4981805545132,13.3750409401074,21.45));
#726=CARTESIAN_POINT('',(97.4981805545132,13.3750409401074,21.45));
#727=CARTESIAN_POINT('',(112.498180554513,13.3750409401075,21.45));
#728=CARTESIAN_POINT('',(112.498180554513,13.3750409401075,21.45));
#729=CARTESIAN_POINT('',(112.498180554513,13.3750409401075,21.45));
#730=CARTESIAN_POINT('Origin',(97.4981805545132,13.3750409401074,2.14884608556316));
#731=CARTESIAN_POINT('',(97.4981805545132,13.3750409401074,21.45));
#732=CARTESIAN_POINT('Origin',(112.498180554513,13.3750409401075,21.45));
#733=CARTESIAN_POINT('',(112.498180554513,13.3750409401075,-7.6));
#734=CARTESIAN_POINT('Origin',(104.998180554513,13.3750409401075,11.7994230427816));
#735=UNCERTAINTY_MEASURE_WITH_UNIT(LENGTH_MEASURE(0.01),#739,
'DISTANCE_ACCURACY_VALUE',
'Maximum model space distance between geometric entities at asserted c
onnectivities');
#736=UNCERTAINTY_MEASURE_WITH_UNIT(LENGTH_MEASURE(0.01),#739,
'DISTANCE_ACCURACY_VALUE',
'Maximum model space distance between geometric entities at asserted c
onnectivities');
#737=(
GEOMETRIC_REPRESENTATION_CONTEXT(3)
GLOBAL_UNCERTAINTY_ASSIGNED_CONTEXT((#735))
GLOBAL_UNIT_ASSIGNED_CONTEXT((#739,#741,#742))
REPRESENTATION_CONTEXT('','3D')
);
#738=(
GEOMETRIC_REPRESENTATION_CONTEXT(3)
GLOBAL_UNCERTAINTY_ASSIGNED_CONTEXT((#736))
GLOBAL_UNIT_ASSIGNED_CONTEXT((#739,#741,#742))
REPRESENTATION_CONTEXT('','3D')
);
#739=(
LENGTH_UNIT()
NAMED_UNIT(*)
SI_UNIT(.MILLI.,.METRE.)
);
#740=(
LENGTH_UNIT()
NAMED_UNIT(*)
SI_UNIT($,.METRE.)
);
#741=(
NAMED_UNIT(*)
PLANE_ANGLE_UNIT()
SI_UNIT($,.RADIAN.)
);
#742=(
NAMED_UNIT(*)
SI_UNIT($,.STERADIAN.)
SOLID_ANGLE_UNIT()
);
#743=SHAPE_DEFINITION_REPRESENTATION(#744,#745);
#744=PRODUCT_DEFINITION_SHAPE('',$,#747);
#745=SHAPE_REPRESENTATION('',(#465),#737);
#746=PRODUCT_DEFINITION_CONTEXT('part definition',#751,'design');
#747=PRODUCT_DEFINITION('2026-10-01-14-40-54-318',
'PneumaticConnectorSupportRight',#748,#746);
#748=PRODUCT_DEFINITION_FORMATION('',$,#753);
#749=PRODUCT_RELATED_PRODUCT_CATEGORY('PneumaticConnectorSupportRight',
'PneumaticConnectorSupportRight',(#753));
#750=APPLICATION_PROTOCOL_DEFINITION('international standard',
'automotive_design',2009,#751);
#751=APPLICATION_CONTEXT(
'Core Data for Automotive Mechanical Design Process');
#752=PRODUCT_CONTEXT('part definition',#751,'mechanical');
#753=PRODUCT('2026-10-01-14-40-54-318','PneumaticConnectorSupportRight',
$,(#752));
#754=PRESENTATION_STYLE_ASSIGNMENT((#755));
#755=SURFACE_STYLE_USAGE(.BOTH.,#756);
#756=SURFACE_SIDE_STYLE('',(#757));
#757=SURFACE_STYLE_FILL_AREA(#758);
#758=FILL_AREA_STYLE('Steel - Satin',(#759));
#759=FILL_AREA_STYLE_COLOUR('Steel - Satin',#760);
#760=COLOUR_RGB('Steel - Satin',0.627450980392157,0.627450980392157,0.627450980392157);
ENDSEC;
END-ISO-10303-21;
