ISO-10303-21;
HEADER;
/* Generated by software containing ST-Developer
 * from STEP Tools, Inc. (www.steptools.com) 
 */

FILE_DESCRIPTION(
/* description */ (''),
/* implementation_level */ '2;1');

FILE_NAME(
/* name */ 'PneumaticConnectorSupportLeft.step',
/* time_stamp */ '2026-10-01T14:40:59+01:00',
/* author */ (''),
/* organization */ (''),
/* preprocessor_version */ 'ST-DEVELOPER v20.2',
/* originating_system */ 'Autodesk Translation Framework v15.15.0.0',
/* authorisation */ '');

FILE_SCHEMA (('AUTOMOTIVE_DESIGN { 1 0 10303 214 3 1 1 }'));
ENDSEC;

DATA;
#10=MECHANICAL_DESIGN_GEOMETRIC_PRESENTATION_REPRESENTATION('',(#13),#672);
#11=SHAPE_REPRESENTATION_RELATIONSHIP('SRR','None',#679,#12);
#12=ADVANCED_BREP_SHAPE_REPRESENTATION('',(#14),#671);
#13=STYLED_ITEM('',(#688),#14);
#14=MANIFOLD_SOLID_BREP('Body1',#410);
#15=CIRCLE('',#446,12.3);
#16=CIRCLE('',#447,12.3);
#17=CYLINDRICAL_SURFACE('',#445,12.3);
#18=ELLIPSE('',#427,17.3948268171891,12.3);
#19=FACE_OUTER_BOUND('',#43,.T.);
#20=FACE_OUTER_BOUND('',#44,.T.);
#21=FACE_OUTER_BOUND('',#45,.T.);
#22=FACE_OUTER_BOUND('',#46,.T.);
#23=FACE_OUTER_BOUND('',#47,.T.);
#24=FACE_OUTER_BOUND('',#48,.T.);
#25=FACE_OUTER_BOUND('',#49,.T.);
#26=FACE_OUTER_BOUND('',#50,.T.);
#27=FACE_OUTER_BOUND('',#51,.T.);
#28=FACE_OUTER_BOUND('',#52,.T.);
#29=FACE_OUTER_BOUND('',#53,.T.);
#30=FACE_OUTER_BOUND('',#54,.T.);
#31=FACE_OUTER_BOUND('',#55,.T.);
#32=FACE_OUTER_BOUND('',#56,.T.);
#33=FACE_OUTER_BOUND('',#57,.T.);
#34=FACE_OUTER_BOUND('',#58,.T.);
#35=FACE_OUTER_BOUND('',#59,.T.);
#36=FACE_OUTER_BOUND('',#60,.T.);
#37=FACE_OUTER_BOUND('',#61,.T.);
#38=FACE_OUTER_BOUND('',#62,.T.);
#39=FACE_OUTER_BOUND('',#63,.T.);
#40=FACE_OUTER_BOUND('',#64,.T.);
#41=FACE_OUTER_BOUND('',#65,.T.);
#42=FACE_OUTER_BOUND('',#66,.T.);
#43=EDGE_LOOP('',(#255,#256,#257));
#44=EDGE_LOOP('',(#258,#259,#260));
#45=EDGE_LOOP('',(#261,#262,#263,#264));
#46=EDGE_LOOP('',(#265,#266,#267));
#47=EDGE_LOOP('',(#268,#269,#270,#271));
#48=EDGE_LOOP('',(#272,#273,#274,#275));
#49=EDGE_LOOP('',(#276,#277,#278,#279));
#50=EDGE_LOOP('',(#280,#281,#282,#283));
#51=EDGE_LOOP('',(#284,#285,#286,#287));
#52=EDGE_LOOP('',(#288,#289,#290,#291));
#53=EDGE_LOOP('',(#292,#293,#294,#295));
#54=EDGE_LOOP('',(#296,#297,#298,#299));
#55=EDGE_LOOP('',(#300,#301,#302,#303,#304,#305));
#56=EDGE_LOOP('',(#306,#307,#308,#309));
#57=EDGE_LOOP('',(#310,#311,#312,#313,#314));
#58=EDGE_LOOP('',(#315,#316,#317,#318));
#59=EDGE_LOOP('',(#319,#320,#321,#322,#323,#324));
#60=EDGE_LOOP('',(#325,#326,#327,#328,#329,#330));
#61=EDGE_LOOP('',(#331,#332,#333,#334,#335,#336,#337));
#62=EDGE_LOOP('',(#338,#339,#340,#341));
#63=EDGE_LOOP('',(#342,#343,#344,#345,#346));
#64=EDGE_LOOP('',(#347,#348,#349,#350,#351,#352));
#65=EDGE_LOOP('',(#353,#354,#355,#356));
#66=EDGE_LOOP('',(#357,#358,#359,#360,#361,#362));
#67=LINE('',#562,#118);
#68=LINE('',#564,#119);
#69=LINE('',#565,#120);
#70=LINE('',#569,#121);
#71=LINE('',#571,#122);
#72=LINE('',#572,#123);
#73=LINE('',#577,#124);
#74=LINE('',#578,#125);
#75=LINE('',#582,#126);
#76=LINE('',#584,#127);
#77=LINE('',#585,#128);
#78=LINE('',#589,#129);
#79=LINE('',#590,#130);
#80=LINE('',#591,#131);
#81=LINE('',#594,#132);
#82=LINE('',#596,#133);
#83=LINE('',#597,#134);
#84=LINE('',#599,#135);
#85=LINE('',#600,#136);
#86=LINE('',#603,#137);
#87=LINE('',#605,#138);
#88=LINE('',#606,#139);
#89=LINE('',#608,#140);
#90=LINE('',#609,#141);
#91=LINE('',#612,#142);
#92=LINE('',#614,#143);
#93=LINE('',#615,#144);
#94=LINE('',#617,#145);
#95=LINE('',#618,#146);
#96=LINE('',#622,#147);
#97=LINE('',#623,#148);
#98=LINE('',#624,#149);
#99=LINE('',#627,#150);
#100=LINE('',#629,#151);
#101=LINE('',#631,#152);
#102=LINE('',#633,#153);
#103=LINE('',#634,#154);
#104=LINE('',#636,#155);
#105=LINE('',#639,#156);
#106=LINE('',#640,#157);
#107=LINE('',#642,#158);
#108=LINE('',#644,#159);
#109=LINE('',#648,#160);
#110=LINE('',#650,#161);
#111=LINE('',#652,#162);
#112=LINE('',#653,#163);
#113=LINE('',#656,#164);
#114=LINE('',#658,#165);
#115=LINE('',#659,#166);
#116=LINE('',#664,#167);
#117=LINE('',#666,#168);
#118=VECTOR('',#455,10.);
#119=VECTOR('',#456,10.);
#120=VECTOR('',#457,10.);
#121=VECTOR('',#460,10.);
#122=VECTOR('',#461,10.);
#123=VECTOR('',#462,10.);
#124=VECTOR('',#467,10.);
#125=VECTOR('',#468,10.);
#126=VECTOR('',#471,10.);
#127=VECTOR('',#472,10.);
#128=VECTOR('',#473,10.);
#129=VECTOR('',#476,10.);
#130=VECTOR('',#477,10.);
#131=VECTOR('',#478,10.);
#132=VECTOR('',#481,10.);
#133=VECTOR('',#482,10.);
#134=VECTOR('',#483,10.);
#135=VECTOR('',#486,10.);
#136=VECTOR('',#487,10.);
#137=VECTOR('',#490,10.);
#138=VECTOR('',#491,10.);
#139=VECTOR('',#492,10.);
#140=VECTOR('',#495,10.);
#141=VECTOR('',#496,10.);
#142=VECTOR('',#499,10.);
#143=VECTOR('',#500,10.);
#144=VECTOR('',#501,10.);
#145=VECTOR('',#504,10.);
#146=VECTOR('',#505,10.);
#147=VECTOR('',#508,10.);
#148=VECTOR('',#509,10.);
#149=VECTOR('',#510,10.);
#150=VECTOR('',#513,10.);
#151=VECTOR('',#514,10.);
#152=VECTOR('',#515,10.);
#153=VECTOR('',#516,10.);
#154=VECTOR('',#517,10.);
#155=VECTOR('',#520,10.);
#156=VECTOR('',#523,10.);
#157=VECTOR('',#524,10.);
#158=VECTOR('',#527,10.);
#159=VECTOR('',#530,10.);
#160=VECTOR('',#535,10.);
#161=VECTOR('',#536,10.);
#162=VECTOR('',#537,10.);
#163=VECTOR('',#538,10.);
#164=VECTOR('',#541,10.);
#165=VECTOR('',#542,10.);
#166=VECTOR('',#543,10.);
#167=VECTOR('',#550,10.);
#168=VECTOR('',#553,10.);
#169=VERTEX_POINT('',#560);
#170=VERTEX_POINT('',#561);
#171=VERTEX_POINT('',#563);
#172=VERTEX_POINT('',#567);
#173=VERTEX_POINT('',#568);
#174=VERTEX_POINT('',#570);
#175=VERTEX_POINT('',#574);
#176=VERTEX_POINT('',#575);
#177=VERTEX_POINT('',#580);
#178=VERTEX_POINT('',#581);
#179=VERTEX_POINT('',#583);
#180=VERTEX_POINT('',#587);
#181=VERTEX_POINT('',#588);
#182=VERTEX_POINT('',#593);
#183=VERTEX_POINT('',#595);
#184=VERTEX_POINT('',#602);
#185=VERTEX_POINT('',#604);
#186=VERTEX_POINT('',#611);
#187=VERTEX_POINT('',#613);
#188=VERTEX_POINT('',#620);
#189=VERTEX_POINT('',#621);
#190=VERTEX_POINT('',#626);
#191=VERTEX_POINT('',#628);
#192=VERTEX_POINT('',#630);
#193=VERTEX_POINT('',#632);
#194=VERTEX_POINT('',#638);
#195=VERTEX_POINT('',#647);
#196=VERTEX_POINT('',#649);
#197=VERTEX_POINT('',#651);
#198=VERTEX_POINT('',#655);
#199=VERTEX_POINT('',#657);
#200=VERTEX_POINT('',#662);
#201=EDGE_CURVE('',#169,#170,#67,.T.);
#202=EDGE_CURVE('',#171,#169,#68,.T.);
#203=EDGE_CURVE('',#170,#171,#69,.T.);
#204=EDGE_CURVE('',#172,#173,#70,.T.);
#205=EDGE_CURVE('',#174,#172,#71,.T.);
#206=EDGE_CURVE('',#173,#174,#72,.T.);
#207=EDGE_CURVE('',#175,#176,#18,.T.);
#208=EDGE_CURVE('',#176,#174,#73,.T.);
#209=EDGE_CURVE('',#172,#175,#74,.T.);
#210=EDGE_CURVE('',#177,#178,#75,.T.);
#211=EDGE_CURVE('',#179,#177,#76,.T.);
#212=EDGE_CURVE('',#178,#179,#77,.T.);
#213=EDGE_CURVE('',#180,#181,#78,.F.);
#214=EDGE_CURVE('',#181,#179,#79,.T.);
#215=EDGE_CURVE('',#177,#180,#80,.T.);
#216=EDGE_CURVE('',#182,#178,#81,.T.);
#217=EDGE_CURVE('',#179,#183,#82,.T.);
#218=EDGE_CURVE('',#183,#182,#83,.T.);
#219=EDGE_CURVE('',#174,#177,#84,.T.);
#220=EDGE_CURVE('',#178,#173,#85,.T.);
#221=EDGE_CURVE('',#184,#172,#86,.T.);
#222=EDGE_CURVE('',#173,#185,#87,.T.);
#223=EDGE_CURVE('',#185,#184,#88,.T.);
#224=EDGE_CURVE('',#183,#171,#89,.T.);
#225=EDGE_CURVE('',#169,#182,#90,.T.);
#226=EDGE_CURVE('',#186,#184,#91,.T.);
#227=EDGE_CURVE('',#185,#187,#92,.T.);
#228=EDGE_CURVE('',#187,#186,#93,.T.);
#229=EDGE_CURVE('',#187,#169,#94,.T.);
#230=EDGE_CURVE('',#170,#186,#95,.T.);
#231=EDGE_CURVE('',#188,#189,#96,.T.);
#232=EDGE_CURVE('',#189,#170,#97,.T.);
#233=EDGE_CURVE('',#171,#188,#98,.T.);
#234=EDGE_CURVE('',#186,#190,#99,.T.);
#235=EDGE_CURVE('',#190,#191,#100,.T.);
#236=EDGE_CURVE('',#192,#191,#101,.T.);
#237=EDGE_CURVE('',#192,#193,#102,.T.);
#238=EDGE_CURVE('',#193,#184,#103,.T.);
#239=EDGE_CURVE('',#190,#189,#104,.T.);
#240=EDGE_CURVE('',#194,#188,#105,.T.);
#241=EDGE_CURVE('',#194,#191,#106,.T.);
#242=EDGE_CURVE('',#183,#194,#107,.T.);
#243=EDGE_CURVE('',#181,#192,#108,.T.);
#244=EDGE_CURVE('',#195,#180,#109,.T.);
#245=EDGE_CURVE('',#195,#196,#110,.T.);
#246=EDGE_CURVE('',#196,#197,#111,.T.);
#247=EDGE_CURVE('',#197,#193,#112,.T.);
#248=EDGE_CURVE('',#196,#198,#113,.T.);
#249=EDGE_CURVE('',#198,#199,#114,.T.);
#250=EDGE_CURVE('',#199,#197,#115,.T.);
#251=EDGE_CURVE('',#175,#199,#15,.T.);
#252=EDGE_CURVE('',#200,#198,#16,.T.);
#253=EDGE_CURVE('',#200,#176,#116,.T.);
#254=EDGE_CURVE('',#200,#195,#117,.T.);
#255=ORIENTED_EDGE('',*,*,#201,.F.);
#256=ORIENTED_EDGE('',*,*,#202,.F.);
#257=ORIENTED_EDGE('',*,*,#203,.F.);
#258=ORIENTED_EDGE('',*,*,#204,.F.);
#259=ORIENTED_EDGE('',*,*,#205,.F.);
#260=ORIENTED_EDGE('',*,*,#206,.F.);
#261=ORIENTED_EDGE('',*,*,#207,.T.);
#262=ORIENTED_EDGE('',*,*,#208,.T.);
#263=ORIENTED_EDGE('',*,*,#205,.T.);
#264=ORIENTED_EDGE('',*,*,#209,.T.);
#265=ORIENTED_EDGE('',*,*,#210,.F.);
#266=ORIENTED_EDGE('',*,*,#211,.F.);
#267=ORIENTED_EDGE('',*,*,#212,.F.);
#268=ORIENTED_EDGE('',*,*,#213,.T.);
#269=ORIENTED_EDGE('',*,*,#214,.T.);
#270=ORIENTED_EDGE('',*,*,#211,.T.);
#271=ORIENTED_EDGE('',*,*,#215,.T.);
#272=ORIENTED_EDGE('',*,*,#216,.T.);
#273=ORIENTED_EDGE('',*,*,#212,.T.);
#274=ORIENTED_EDGE('',*,*,#217,.T.);
#275=ORIENTED_EDGE('',*,*,#218,.T.);
#276=ORIENTED_EDGE('',*,*,#206,.T.);
#277=ORIENTED_EDGE('',*,*,#219,.T.);
#278=ORIENTED_EDGE('',*,*,#210,.T.);
#279=ORIENTED_EDGE('',*,*,#220,.T.);
#280=ORIENTED_EDGE('',*,*,#221,.T.);
#281=ORIENTED_EDGE('',*,*,#204,.T.);
#282=ORIENTED_EDGE('',*,*,#222,.T.);
#283=ORIENTED_EDGE('',*,*,#223,.T.);
#284=ORIENTED_EDGE('',*,*,#224,.T.);
#285=ORIENTED_EDGE('',*,*,#202,.T.);
#286=ORIENTED_EDGE('',*,*,#225,.T.);
#287=ORIENTED_EDGE('',*,*,#218,.F.);
#288=ORIENTED_EDGE('',*,*,#226,.T.);
#289=ORIENTED_EDGE('',*,*,#223,.F.);
#290=ORIENTED_EDGE('',*,*,#227,.T.);
#291=ORIENTED_EDGE('',*,*,#228,.T.);
#292=ORIENTED_EDGE('',*,*,#229,.T.);
#293=ORIENTED_EDGE('',*,*,#201,.T.);
#294=ORIENTED_EDGE('',*,*,#230,.T.);
#295=ORIENTED_EDGE('',*,*,#228,.F.);
#296=ORIENTED_EDGE('',*,*,#231,.T.);
#297=ORIENTED_EDGE('',*,*,#232,.T.);
#298=ORIENTED_EDGE('',*,*,#203,.T.);
#299=ORIENTED_EDGE('',*,*,#233,.T.);
#300=ORIENTED_EDGE('',*,*,#226,.F.);
#301=ORIENTED_EDGE('',*,*,#234,.T.);
#302=ORIENTED_EDGE('',*,*,#235,.T.);
#303=ORIENTED_EDGE('',*,*,#236,.F.);
#304=ORIENTED_EDGE('',*,*,#237,.T.);
#305=ORIENTED_EDGE('',*,*,#238,.T.);
#306=ORIENTED_EDGE('',*,*,#230,.F.);
#307=ORIENTED_EDGE('',*,*,#232,.F.);
#308=ORIENTED_EDGE('',*,*,#239,.F.);
#309=ORIENTED_EDGE('',*,*,#234,.F.);
#310=ORIENTED_EDGE('',*,*,#231,.F.);
#311=ORIENTED_EDGE('',*,*,#240,.F.);
#312=ORIENTED_EDGE('',*,*,#241,.T.);
#313=ORIENTED_EDGE('',*,*,#235,.F.);
#314=ORIENTED_EDGE('',*,*,#239,.T.);
#315=ORIENTED_EDGE('',*,*,#233,.F.);
#316=ORIENTED_EDGE('',*,*,#224,.F.);
#317=ORIENTED_EDGE('',*,*,#242,.T.);
#318=ORIENTED_EDGE('',*,*,#240,.T.);
#319=ORIENTED_EDGE('',*,*,#217,.F.);
#320=ORIENTED_EDGE('',*,*,#214,.F.);
#321=ORIENTED_EDGE('',*,*,#243,.T.);
#322=ORIENTED_EDGE('',*,*,#236,.T.);
#323=ORIENTED_EDGE('',*,*,#241,.F.);
#324=ORIENTED_EDGE('',*,*,#242,.F.);
#325=ORIENTED_EDGE('',*,*,#216,.F.);
#326=ORIENTED_EDGE('',*,*,#225,.F.);
#327=ORIENTED_EDGE('',*,*,#229,.F.);
#328=ORIENTED_EDGE('',*,*,#227,.F.);
#329=ORIENTED_EDGE('',*,*,#222,.F.);
#330=ORIENTED_EDGE('',*,*,#220,.F.);
#331=ORIENTED_EDGE('',*,*,#237,.F.);
#332=ORIENTED_EDGE('',*,*,#243,.F.);
#333=ORIENTED_EDGE('',*,*,#213,.F.);
#334=ORIENTED_EDGE('',*,*,#244,.F.);
#335=ORIENTED_EDGE('',*,*,#245,.T.);
#336=ORIENTED_EDGE('',*,*,#246,.T.);
#337=ORIENTED_EDGE('',*,*,#247,.T.);
#338=ORIENTED_EDGE('',*,*,#248,.T.);
#339=ORIENTED_EDGE('',*,*,#249,.T.);
#340=ORIENTED_EDGE('',*,*,#250,.T.);
#341=ORIENTED_EDGE('',*,*,#246,.F.);
#342=ORIENTED_EDGE('',*,*,#207,.F.);
#343=ORIENTED_EDGE('',*,*,#251,.T.);
#344=ORIENTED_EDGE('',*,*,#249,.F.);
#345=ORIENTED_EDGE('',*,*,#252,.F.);
#346=ORIENTED_EDGE('',*,*,#253,.T.);
#347=ORIENTED_EDGE('',*,*,#208,.F.);
#348=ORIENTED_EDGE('',*,*,#253,.F.);
#349=ORIENTED_EDGE('',*,*,#254,.T.);
#350=ORIENTED_EDGE('',*,*,#244,.T.);
#351=ORIENTED_EDGE('',*,*,#215,.F.);
#352=ORIENTED_EDGE('',*,*,#219,.F.);
#353=ORIENTED_EDGE('',*,*,#254,.F.);
#354=ORIENTED_EDGE('',*,*,#252,.T.);
#355=ORIENTED_EDGE('',*,*,#248,.F.);
#356=ORIENTED_EDGE('',*,*,#245,.F.);
#357=ORIENTED_EDGE('',*,*,#221,.F.);
#358=ORIENTED_EDGE('',*,*,#238,.F.);
#359=ORIENTED_EDGE('',*,*,#247,.F.);
#360=ORIENTED_EDGE('',*,*,#250,.F.);
#361=ORIENTED_EDGE('',*,*,#251,.F.);
#362=ORIENTED_EDGE('',*,*,#209,.F.);
#363=PLANE('',#424);
#364=PLANE('',#425);
#365=PLANE('',#426);
#366=PLANE('',#428);
#367=PLANE('',#429);
#368=PLANE('',#430);
#369=PLANE('',#431);
#370=PLANE('',#432);
#371=PLANE('',#433);
#372=PLANE('',#434);
#373=PLANE('',#435);
#374=PLANE('',#436);
#375=PLANE('',#437);
#376=PLANE('',#438);
#377=PLANE('',#439);
#378=PLANE('',#440);
#379=PLANE('',#441);
#380=PLANE('',#442);
#381=PLANE('',#443);
#382=PLANE('',#444);
#383=PLANE('',#448);
#384=PLANE('',#449);
#385=PLANE('',#450);
#386=ADVANCED_FACE('',(#19),#363,.T.);
#387=ADVANCED_FACE('',(#20),#364,.T.);
#388=ADVANCED_FACE('',(#21),#365,.T.);
#389=ADVANCED_FACE('',(#22),#366,.T.);
#390=ADVANCED_FACE('',(#23),#367,.T.);
#391=ADVANCED_FACE('',(#24),#368,.T.);
#392=ADVANCED_FACE('',(#25),#369,.T.);
#393=ADVANCED_FACE('',(#26),#370,.T.);
#394=ADVANCED_FACE('',(#27),#371,.T.);
#395=ADVANCED_FACE('',(#28),#372,.T.);
#396=ADVANCED_FACE('',(#29),#373,.T.);
#397=ADVANCED_FACE('',(#30),#374,.T.);
#398=ADVANCED_FACE('',(#31),#375,.F.);
#399=ADVANCED_FACE('',(#32),#376,.F.);
#400=ADVANCED_FACE('',(#33),#377,.F.);
#401=ADVANCED_FACE('',(#34),#378,.F.);
#402=ADVANCED_FACE('',(#35),#379,.F.);
#403=ADVANCED_FACE('',(#36),#380,.F.);
#404=ADVANCED_FACE('',(#37),#381,.F.);
#405=ADVANCED_FACE('',(#38),#382,.F.);
#406=ADVANCED_FACE('',(#39),#17,.F.);
#407=ADVANCED_FACE('',(#40),#383,.F.);
#408=ADVANCED_FACE('',(#41),#384,.F.);
#409=ADVANCED_FACE('',(#42),#385,.T.);
#410=CLOSED_SHELL('',(#386,#387,#388,#389,#390,#391,#392,#393,#394,#395,
#396,#397,#398,#399,#400,#401,#402,#403,#404,#405,#406,#407,#408,#409));
#411=DERIVED_UNIT_ELEMENT(#413,1.);
#412=DERIVED_UNIT_ELEMENT(#674,-3.);
#413=(
MASS_UNIT()
NAMED_UNIT(*)
SI_UNIT(.KILO.,.GRAM.)
);
#414=DERIVED_UNIT((#411,#412));
#415=MEASURE_REPRESENTATION_ITEM('density measure',
POSITIVE_RATIO_MEASURE(7850.),#414);
#416=PROPERTY_DEFINITION_REPRESENTATION(#421,#418);
#417=PROPERTY_DEFINITION_REPRESENTATION(#422,#419);
#418=REPRESENTATION('material name',(#420),#671);
#419=REPRESENTATION('density',(#415),#671);
#420=DESCRIPTIVE_REPRESENTATION_ITEM('Steel','Steel');
#421=PROPERTY_DEFINITION('material property','material name',#681);
#422=PROPERTY_DEFINITION('material property','density of part',#681);
#423=AXIS2_PLACEMENT_3D('',#558,#451,#452);
#424=AXIS2_PLACEMENT_3D('',#559,#453,#454);
#425=AXIS2_PLACEMENT_3D('',#566,#458,#459);
#426=AXIS2_PLACEMENT_3D('',#573,#463,#464);
#427=AXIS2_PLACEMENT_3D('',#576,#465,#466);
#428=AXIS2_PLACEMENT_3D('',#579,#469,#470);
#429=AXIS2_PLACEMENT_3D('',#586,#474,#475);
#430=AXIS2_PLACEMENT_3D('',#592,#479,#480);
#431=AXIS2_PLACEMENT_3D('',#598,#484,#485);
#432=AXIS2_PLACEMENT_3D('',#601,#488,#489);
#433=AXIS2_PLACEMENT_3D('',#607,#493,#494);
#434=AXIS2_PLACEMENT_3D('',#610,#497,#498);
#435=AXIS2_PLACEMENT_3D('',#616,#502,#503);
#436=AXIS2_PLACEMENT_3D('',#619,#506,#507);
#437=AXIS2_PLACEMENT_3D('',#625,#511,#512);
#438=AXIS2_PLACEMENT_3D('',#635,#518,#519);
#439=AXIS2_PLACEMENT_3D('',#637,#521,#522);
#440=AXIS2_PLACEMENT_3D('',#641,#525,#526);
#441=AXIS2_PLACEMENT_3D('',#643,#528,#529);
#442=AXIS2_PLACEMENT_3D('',#645,#531,#532);
#443=AXIS2_PLACEMENT_3D('',#646,#533,#534);
#444=AXIS2_PLACEMENT_3D('',#654,#539,#540);
#445=AXIS2_PLACEMENT_3D('',#660,#544,#545);
#446=AXIS2_PLACEMENT_3D('',#661,#546,#547);
#447=AXIS2_PLACEMENT_3D('',#663,#548,#549);
#448=AXIS2_PLACEMENT_3D('',#665,#551,#552);
#449=AXIS2_PLACEMENT_3D('',#667,#554,#555);
#450=AXIS2_PLACEMENT_3D('',#668,#556,#557);
#451=DIRECTION('axis',(0.,0.,1.));
#452=DIRECTION('refdir',(1.,0.,0.));
#453=DIRECTION('center_axis',(0.577350269189627,-0.577350269189624,-0.577350269189627));
#454=DIRECTION('ref_axis',(-0.707106781186547,0.,-0.707106781186547));
#455=DIRECTION('',(0.,-0.707106781186549,0.707106781186546));
#456=DIRECTION('',(-0.707106781186548,0.,-0.707106781186548));
#457=DIRECTION('',(0.707106781186546,0.707106781186549,0.));
#458=DIRECTION('center_axis',(0.577350269189623,0.577350269189626,-0.577350269189628));
#459=DIRECTION('ref_axis',(-0.707106781186551,0.,-0.707106781186544));
#460=DIRECTION('',(0.,-0.707106781186551,-0.707106781186544));
#461=DIRECTION('',(-0.707106781186549,0.707106781186546,0.));
#462=DIRECTION('',(0.707106781186548,6.28036983473512E-15,0.707106781186548));
#463=DIRECTION('center_axis',(0.707106781186546,0.707106781186549,-2.45326946668083E-18));
#464=DIRECTION('ref_axis',(-3.46944695193585E-18,0.,-1.));
#465=DIRECTION('center_axis',(-0.707106781186546,-0.707106781186549,2.45326946668083E-18));
#466=DIRECTION('ref_axis',(0.707106781186549,-0.707106781186546,5.57808895494735E-31));
#467=DIRECTION('',(8.01475746356686E-31,-3.46944695193663E-18,-1.));
#468=DIRECTION('',(-8.01475746356686E-31,3.46944695193663E-18,1.));
#469=DIRECTION('center_axis',(0.577350269189627,-0.577350269189624,-0.577350269189627));
#470=DIRECTION('ref_axis',(-0.707106781186547,0.,-0.707106781186547));
#471=DIRECTION('',(-0.707106781186548,0.,-0.707106781186548));
#472=DIRECTION('',(0.707106781186546,0.707106781186549,0.));
#473=DIRECTION('',(0.,-0.707106781186549,0.707106781186546));
#474=DIRECTION('center_axis',(0.707106781186549,-0.707106781186546,5.58013171213301E-31));
#475=DIRECTION('ref_axis',(7.89149794712668E-31,0.,-1.));
#476=DIRECTION('',(0.707106781186546,0.707106781186549,5.57808895494737E-31));
#477=DIRECTION('',(7.89149794712668E-31,0.,-1.));
#478=DIRECTION('',(-7.89149794712668E-31,0.,1.));
#479=DIRECTION('center_axis',(0.,-0.707106781186546,-0.707106781186549));
#480=DIRECTION('ref_axis',(-1.,0.,0.));
#481=DIRECTION('',(1.,0.,0.));
#482=DIRECTION('',(-1.,0.,0.));
#483=DIRECTION('',(-0.577350269189625,0.577350269189628,-0.577350269189625));
#484=DIRECTION('center_axis',(0.707106781186548,2.51214793389404E-15,-0.707106781186548));
#485=DIRECTION('ref_axis',(-0.707106781186548,0.,-0.707106781186548));
#486=DIRECTION('',(3.5527136788005E-15,-1.,0.));
#487=DIRECTION('',(-3.5527136788005E-15,1.,0.));
#488=DIRECTION('center_axis',(-2.57102640109467E-15,0.707106781186544,-0.707106781186551));
#489=DIRECTION('ref_axis',(-1.,0.,3.63598040564736E-15));
#490=DIRECTION('',(1.,3.63598040564739E-15,0.));
#491=DIRECTION('',(-1.,-3.63598040564739E-15,0.));
#492=DIRECTION('',(-0.577350269189625,0.577350269189628,0.577350269189625));
#493=DIRECTION('center_axis',(0.707106781186548,0.,-0.707106781186548));
#494=DIRECTION('ref_axis',(-0.707106781186548,0.,-0.707106781186548));
#495=DIRECTION('',(0.,-1.,0.));
#496=DIRECTION('',(0.,1.,0.));
#497=DIRECTION('center_axis',(-0.707106781186548,0.,-0.707106781186548));
#498=DIRECTION('ref_axis',(-0.707106781186548,0.,0.707106781186548));
#499=DIRECTION('',(0.,1.,0.));
#500=DIRECTION('',(0.,-1.,0.));
#501=DIRECTION('',(-0.577350269189625,-0.577350269189628,0.577350269189625));
#502=DIRECTION('center_axis',(0.,-0.707106781186546,-0.707106781186549));
#503=DIRECTION('ref_axis',(-1.,0.,0.));
#504=DIRECTION('',(1.,0.,0.));
#505=DIRECTION('',(-1.,0.,0.));
#506=DIRECTION('center_axis',(0.707106781186549,-0.707106781186546,0.));
#507=DIRECTION('ref_axis',(0.,0.,-1.));
#508=DIRECTION('',(-0.707106781186546,-0.707106781186549,-5.10169331230145E-16));
#509=DIRECTION('',(0.,0.,-1.));
#510=DIRECTION('',(0.,0.,1.));
#511=DIRECTION('center_axis',(1.,0.,0.));
#512=DIRECTION('ref_axis',(0.,-1.,2.81869698229711E-45));
#513=DIRECTION('',(0.,0.,1.));
#514=DIRECTION('',(0.,1.,0.));
#515=DIRECTION('',(0.,0.,-1.));
#516=DIRECTION('',(0.,1.,2.80259692864963E-45));
#517=DIRECTION('',(0.,0.,-1.));
#518=DIRECTION('center_axis',(0.,1.,0.));
#519=DIRECTION('ref_axis',(0.,0.,1.));
#520=DIRECTION('',(1.,0.,7.21488387332485E-16));
#521=DIRECTION('center_axis',(7.21488387332485E-16,0.,-1.));
#522=DIRECTION('ref_axis',(1.,0.,7.21488387332485E-16));
#523=DIRECTION('',(0.,-1.,0.));
#524=DIRECTION('',(-1.,0.,-7.21488387332485E-16));
#525=DIRECTION('center_axis',(-1.,0.,0.));
#526=DIRECTION('ref_axis',(0.,0.,-1.));
#527=DIRECTION('',(0.,0.,1.));
#528=DIRECTION('center_axis',(0.,1.,0.));
#529=DIRECTION('ref_axis',(1.,0.,0.));
#530=DIRECTION('',(-1.,0.,-7.88860905221012E-31));
#531=DIRECTION('center_axis',(0.,0.,1.));
#532=DIRECTION('ref_axis',(1.,0.,0.));
#533=DIRECTION('center_axis',(-7.88860905221012E-31,-2.80259692864963E-45,
1.));
#534=DIRECTION('ref_axis',(1.,3.63598040564739E-15,7.88860905221012E-31));
#535=DIRECTION('',(-3.5527136788005E-15,1.,0.));
#536=DIRECTION('',(-1.,-3.63598040564739E-15,-7.88860905221012E-31));
#537=DIRECTION('',(-3.5527136788005E-15,1.,0.));
#538=DIRECTION('',(1.,3.63598040564739E-15,7.88860905221012E-31));
#539=DIRECTION('center_axis',(1.,3.5527136788005E-15,7.89149794712668E-31));
#540=DIRECTION('ref_axis',(8.01475746356686E-31,-3.46944695193663E-18,-1.));
#541=DIRECTION('',(-8.01475746356686E-31,3.46944695193663E-18,1.));
#542=DIRECTION('',(-3.5527136788005E-15,1.,0.));
#543=DIRECTION('',(8.01475746356686E-31,-3.46944695193663E-18,-1.));
#544=DIRECTION('center_axis',(3.5527136788005E-15,-1.,0.));
#545=DIRECTION('ref_axis',(1.,3.5527136788005E-15,7.88860905221012E-31));
#546=DIRECTION('center_axis',(-3.63598040564739E-15,1.,-3.46944695193663E-18));
#547=DIRECTION('ref_axis',(1.,3.63598040564739E-15,7.88860905221012E-31));
#548=DIRECTION('center_axis',(-3.63598040564739E-15,1.,-3.46944695193663E-18));
#549=DIRECTION('ref_axis',(1.,3.63598040564739E-15,7.88860905221012E-31));
#550=DIRECTION('',(-3.5527136788005E-15,1.,0.));
#551=DIRECTION('center_axis',(-1.,-3.5527136788005E-15,-7.89149794712668E-31));
#552=DIRECTION('ref_axis',(-8.01475746356686E-31,3.46944695193663E-18,1.));
#553=DIRECTION('',(8.01475746356686E-31,-3.46944695193663E-18,-1.));
#554=DIRECTION('center_axis',(-3.63598040564739E-15,1.,-3.46944695193663E-18));
#555=DIRECTION('ref_axis',(1.,3.63598040564739E-15,7.88860905221012E-31));
#556=DIRECTION('center_axis',(-3.63598040564739E-15,1.,-3.46944695193663E-18));
#557=DIRECTION('ref_axis',(1.,3.63598040564739E-15,7.88860905221012E-31));
#558=CARTESIAN_POINT('',(0.,0.,0.));
#559=CARTESIAN_POINT('Origin',(110.5,13.8,-42.45));
#560=CARTESIAN_POINT('',(109.5,13.8,-43.45));
#561=CARTESIAN_POINT('',(109.5,12.8,-42.45));
#562=CARTESIAN_POINT('',(109.5,13.8,-43.45));
#563=CARTESIAN_POINT('',(110.5,13.8,-42.45));
#564=CARTESIAN_POINT('',(110.5,13.8,-42.45));
#565=CARTESIAN_POINT('',(109.5,12.8,-42.45));
#566=CARTESIAN_POINT('Origin',(112.498180554513,27.3750409401075,-42.45));
#567=CARTESIAN_POINT('',(111.498180554513,28.3750409401075,-42.45));
#568=CARTESIAN_POINT('',(111.498180554513,27.3750409401075,-43.45));
#569=CARTESIAN_POINT('',(111.498180554513,28.3750409401075,-42.45));
#570=CARTESIAN_POINT('',(112.498180554513,27.3750409401075,-42.45));
#571=CARTESIAN_POINT('',(112.498180554513,27.3750409401075,-42.45));
#572=CARTESIAN_POINT('',(111.498180554513,27.3750409401075,-43.45));
#573=CARTESIAN_POINT('Origin',(111.998180554513,27.8750409401075,-16.6247115213908));
#574=CARTESIAN_POINT('',(111.498180554513,28.3750409401075,-2.84222198576529));
#575=CARTESIAN_POINT('',(112.498180554513,27.3750409401075,-2.14884608556316));
#576=CARTESIAN_POINT('Origin',(104.998180554513,34.8750409401075,7.6));
#577=CARTESIAN_POINT('',(112.498180554513,27.3750409401075,-16.6247115213908));
#578=CARTESIAN_POINT('',(111.498180554513,28.3750409401075,-16.6247115213908));
#579=CARTESIAN_POINT('Origin',(111.498180554513,22.8,-42.45));
#580=CARTESIAN_POINT('',(112.498180554513,23.8,-42.45));
#581=CARTESIAN_POINT('',(111.498180554513,23.8,-43.45));
#582=CARTESIAN_POINT('',(112.498180554513,23.8,-42.45));
#583=CARTESIAN_POINT('',(111.498180554513,22.8,-42.45));
#584=CARTESIAN_POINT('',(111.498180554513,22.8,-42.45));
#585=CARTESIAN_POINT('',(111.498180554513,23.8,-43.45));
#586=CARTESIAN_POINT('Origin',(111.998180554513,23.3,-21.45));
#587=CARTESIAN_POINT('',(112.498180554513,23.8,-21.45));
#588=CARTESIAN_POINT('',(111.498180554513,22.8,-21.45));
#589=CARTESIAN_POINT('',(105.89194078954,17.1937602350269,-21.45));
#590=CARTESIAN_POINT('',(111.498180554513,22.8,-21.45));
#591=CARTESIAN_POINT('',(112.498180554513,23.8,-21.45));
#592=CARTESIAN_POINT('Origin',(103.724545138628,23.3,-42.95));
#593=CARTESIAN_POINT('',(109.5,23.8,-43.45));
#594=CARTESIAN_POINT('',(103.724545138628,23.8,-43.45));
#595=CARTESIAN_POINT('',(110.5,22.8,-42.45));
#596=CARTESIAN_POINT('',(103.724545138628,22.8,-42.45));
#597=CARTESIAN_POINT('',(110.5,22.8,-42.45));
#598=CARTESIAN_POINT('Origin',(111.998180554513,19.4812807050806,-42.95));
#599=CARTESIAN_POINT('',(112.498180554513,19.4812807050806,-42.45));
#600=CARTESIAN_POINT('',(111.498180554513,19.4812807050806,-43.45));
#601=CARTESIAN_POINT('Origin',(105.823635415885,27.8750409401075,-42.95));
#602=CARTESIAN_POINT('',(100.8,28.3750409401075,-42.45));
#603=CARTESIAN_POINT('',(105.823635415885,28.3750409401075,-42.45));
#604=CARTESIAN_POINT('',(101.8,27.3750409401075,-43.45));
#605=CARTESIAN_POINT('',(105.823635415885,27.3750409401075,-43.45));
#606=CARTESIAN_POINT('',(101.8,27.3750409401075,-43.45));
#607=CARTESIAN_POINT('Origin',(110.,24.1937602350269,-42.95));
#608=CARTESIAN_POINT('',(110.5,24.1937602350269,-42.45));
#609=CARTESIAN_POINT('',(109.5,24.1937602350269,-43.45));
#610=CARTESIAN_POINT('Origin',(101.3,26.9812807050806,-42.95));
#611=CARTESIAN_POINT('',(100.8,12.8,-42.45));
#612=CARTESIAN_POINT('',(100.8,26.9812807050806,-42.45));
#613=CARTESIAN_POINT('',(101.8,13.8,-43.45));
#614=CARTESIAN_POINT('',(101.8,26.9812807050806,-43.45));
#615=CARTESIAN_POINT('',(101.8,13.8,-43.45));
#616=CARTESIAN_POINT('Origin',(106.149545138628,13.3,-42.95));
#617=CARTESIAN_POINT('',(106.149545138628,13.8,-43.45));
#618=CARTESIAN_POINT('',(106.149545138628,12.8,-42.45));
#619=CARTESIAN_POINT('Origin',(110.,13.3,-33.5875));
#620=CARTESIAN_POINT('',(110.5,13.8,-30.3));
#621=CARTESIAN_POINT('',(109.5,12.8,-30.3));
#622=CARTESIAN_POINT('',(112.1,15.4,-30.3));
#623=CARTESIAN_POINT('',(109.5,12.8,-33.5875));
#624=CARTESIAN_POINT('',(110.5,13.8,-33.5875));
#625=CARTESIAN_POINT('Origin',(100.8,28.3750409401075,-21.45));
#626=CARTESIAN_POINT('',(100.8,12.8,-30.3));
#627=CARTESIAN_POINT('',(100.8,12.8,-40.3));
#628=CARTESIAN_POINT('',(100.8,22.8,-30.3));
#629=CARTESIAN_POINT('',(100.8,20.3,-30.3));
#630=CARTESIAN_POINT('',(100.8,22.8,-21.45));
#631=CARTESIAN_POINT('',(100.8,22.8,-21.45));
#632=CARTESIAN_POINT('',(100.8,28.3750409401075,-21.45));
#633=CARTESIAN_POINT('',(100.8,20.8750409401074,-21.45));
#634=CARTESIAN_POINT('',(100.8,28.3750409401075,-21.45));
#635=CARTESIAN_POINT('Origin',(105.65,12.8,-36.875));
#636=CARTESIAN_POINT('',(108.9,12.8,-30.3));
#637=CARTESIAN_POINT('Origin',(108.9,22.8,-30.3));
#638=CARTESIAN_POINT('',(110.5,22.8,-30.3));
#639=CARTESIAN_POINT('',(110.5,22.8,-30.3));
#640=CARTESIAN_POINT('',(104.85,22.8,-30.3));
#641=CARTESIAN_POINT('Origin',(110.5,22.8,-30.3));
#642=CARTESIAN_POINT('',(110.5,22.8,-25.875));
#643=CARTESIAN_POINT('Origin',(100.8,22.8,-21.45));
#644=CARTESIAN_POINT('',(99.1490902772566,22.8,-21.45));
#645=CARTESIAN_POINT('Origin',(106.649090277257,25.5875204700537,-43.45));
#646=CARTESIAN_POINT('Origin',(97.4981805545132,13.3750409401074,-21.45));
#647=CARTESIAN_POINT('',(112.498180554513,13.3750409401075,-21.45));
#648=CARTESIAN_POINT('',(112.498180554513,13.3750409401075,-21.45));
#649=CARTESIAN_POINT('',(97.4981805545132,13.3750409401074,-21.45));
#650=CARTESIAN_POINT('',(112.498180554513,13.3750409401075,-21.45));
#651=CARTESIAN_POINT('',(97.4981805545132,28.3750409401074,-21.45));
#652=CARTESIAN_POINT('',(97.4981805545132,13.3750409401074,-21.45));
#653=CARTESIAN_POINT('',(112.498180554513,28.3750409401075,-21.45));
#654=CARTESIAN_POINT('Origin',(97.4981805545132,13.3750409401074,-2.14884608556316));
#655=CARTESIAN_POINT('',(97.4981805545132,13.3750409401074,-2.14884608556316));
#656=CARTESIAN_POINT('',(97.4981805545132,13.3750409401074,-21.45));
#657=CARTESIAN_POINT('',(97.4981805545132,28.3750409401074,-2.14884608556316));
#658=CARTESIAN_POINT('',(97.4981805545132,13.3750409401074,-2.14884608556316));
#659=CARTESIAN_POINT('',(97.4981805545132,28.3750409401074,-21.45));
#660=CARTESIAN_POINT('Origin',(104.998180554513,13.3750409401075,7.6));
#661=CARTESIAN_POINT('Origin',(104.998180554513,28.3750409401075,7.6));
#662=CARTESIAN_POINT('',(112.498180554513,13.3750409401075,-2.14884608556316));
#663=CARTESIAN_POINT('Origin',(104.998180554513,13.3750409401075,7.6));
#664=CARTESIAN_POINT('',(112.498180554513,13.3750409401075,-2.14884608556316));
#665=CARTESIAN_POINT('Origin',(112.498180554513,13.3750409401075,-21.45));
#666=CARTESIAN_POINT('',(112.498180554513,13.3750409401075,7.6));
#667=CARTESIAN_POINT('Origin',(104.998180554513,13.3750409401075,-11.7994230427816));
#668=CARTESIAN_POINT('Origin',(104.998180554513,28.3750409401075,-11.7994230427816));
#669=UNCERTAINTY_MEASURE_WITH_UNIT(LENGTH_MEASURE(0.01),#673,
'DISTANCE_ACCURACY_VALUE',
'Maximum model space distance between geometric entities at asserted c
onnectivities');
#670=UNCERTAINTY_MEASURE_WITH_UNIT(LENGTH_MEASURE(0.01),#673,
'DISTANCE_ACCURACY_VALUE',
'Maximum model space distance between geometric entities at asserted c
onnectivities');
#671=(
GEOMETRIC_REPRESENTATION_CONTEXT(3)
GLOBAL_UNCERTAINTY_ASSIGNED_CONTEXT((#669))
GLOBAL_UNIT_ASSIGNED_CONTEXT((#673,#675,#676))
REPRESENTATION_CONTEXT('','3D')
);
#672=(
GEOMETRIC_REPRESENTATION_CONTEXT(3)
GLOBAL_UNCERTAINTY_ASSIGNED_CONTEXT((#670))
GLOBAL_UNIT_ASSIGNED_CONTEXT((#673,#675,#676))
REPRESENTATION_CONTEXT('','3D')
);
#673=(
LENGTH_UNIT()
NAMED_UNIT(*)
SI_UNIT(.MILLI.,.METRE.)
);
#674=(
LENGTH_UNIT()
NAMED_UNIT(*)
SI_UNIT($,.METRE.)
);
#675=(
NAMED_UNIT(*)
PLANE_ANGLE_UNIT()
SI_UNIT($,.RADIAN.)
);
#676=(
NAMED_UNIT(*)
SI_UNIT($,.STERADIAN.)
SOLID_ANGLE_UNIT()
);
#677=SHAPE_DEFINITION_REPRESENTATION(#678,#679);
#678=PRODUCT_DEFINITION_SHAPE('',$,#681);
#679=SHAPE_REPRESENTATION('',(#423),#671);
#680=PRODUCT_DEFINITION_CONTEXT('part definition',#685,'design');
#681=PRODUCT_DEFINITION('2026-10-01-14-40-59-594',
'PneumaticConnectorSupportLeft',#682,#680);
#682=PRODUCT_DEFINITION_FORMATION('',$,#687);
#683=PRODUCT_RELATED_PRODUCT_CATEGORY('PneumaticConnectorSupportLeft',
'PneumaticConnectorSupportLeft',(#687));
#684=APPLICATION_PROTOCOL_DEFINITION('international standard',
'automotive_design',2009,#685);
#685=APPLICATION_CONTEXT(
'Core Data for Automotive Mechanical Design Process');
#686=PRODUCT_CONTEXT('part definition',#685,'mechanical');
#687=PRODUCT('2026-10-01-14-40-59-594','PneumaticConnectorSupportLeft',
$,(#686));
#688=PRESENTATION_STYLE_ASSIGNMENT((#689));
#689=SURFACE_STYLE_USAGE(.BOTH.,#690);
#690=SURFACE_SIDE_STYLE('',(#691));
#691=SURFACE_STYLE_FILL_AREA(#692);
#692=FILL_AREA_STYLE('Steel - Satin',(#693));
#693=FILL_AREA_STYLE_COLOUR('Steel - Satin',#694);
#694=COLOUR_RGB('Steel - Satin',0.627450980392157,0.627450980392157,0.627450980392157);
ENDSEC;
END-ISO-10303-21;
