ISO-10303-21;
HEADER;
/* Generated by software containing ST-Developer
 * from STEP Tools, Inc. (www.steptools.com) 
 */

FILE_DESCRIPTION(
/* description */ (''),
/* implementation_level */ '2;1');

FILE_NAME(
/* name */ 'ThymioAdapterExtension.step',
/* time_stamp */ '2026-08-24T20:33:40+01:00',
/* author */ (''),
/* organization */ (''),
/* preprocessor_version */ 'ST-DEVELOPER v20.1',
/* originating_system */ 'Autodesk Translation Framework v15.8.0.0',
/* authorisation */ '');

FILE_SCHEMA (('AUTOMOTIVE_DESIGN { 1 0 10303 214 3 1 1 }'));
ENDSEC;

DATA;
#10=MECHANICAL_DESIGN_GEOMETRIC_PRESENTATION_REPRESENTATION('',(#13),#1150);
#11=SHAPE_REPRESENTATION_RELATIONSHIP('SRR','None',#1157,#12);
#12=ADVANCED_BREP_SHAPE_REPRESENTATION('',(#14),#1149);
#13=STYLED_ITEM('',(#1166),#14);
#14=MANIFOLD_SOLID_BREP('Body1',#664);
#15=FACE_BOUND('',#128,.T.);
#16=FACE_BOUND('',#129,.T.);
#17=FACE_BOUND('',#130,.T.);
#18=FACE_BOUND('',#154,.T.);
#19=FACE_BOUND('',#155,.T.);
#20=FACE_BOUND('',#156,.T.);
#21=CYLINDRICAL_SURFACE('',#696,9.99999999999577);
#22=CYLINDRICAL_SURFACE('',#699,9.99999999999999);
#23=CYLINDRICAL_SURFACE('',#714,6.99999999981074);
#24=CYLINDRICAL_SURFACE('',#718,3.00000000000007);
#25=CYLINDRICAL_SURFACE('',#723,3.00000000000667);
#26=CYLINDRICAL_SURFACE('',#727,7.00000000016153);
#27=CYLINDRICAL_SURFACE('',#729,81.8227040807945);
#28=CYLINDRICAL_SURFACE('',#731,1.875);
#29=CYLINDRICAL_SURFACE('',#733,81.8227040807945);
#30=CYLINDRICAL_SURFACE('',#735,1.875);
#31=CYLINDRICAL_SURFACE('',#737,81.8227040807945);
#32=CYLINDRICAL_SURFACE('',#739,1.875);
#33=CYLINDRICAL_SURFACE('',#741,1.875);
#34=CYLINDRICAL_SURFACE('',#743,9.99999999997083);
#35=CYLINDRICAL_SURFACE('',#745,84.8227040809064);
#36=CYLINDRICAL_SURFACE('',#747,10.0000000001615);
#37=CIRCLE('',#680,7.99999999999999);
#38=CIRCLE('',#681,9.99999999999999);
#39=CIRCLE('',#684,7.99999999999577);
#40=CIRCLE('',#685,9.99999999999577);
#41=CIRCLE('',#688,8.0000000001615);
#42=CIRCLE('',#689,10.0000000001615);
#43=CIRCLE('',#691,82.8227040809063);
#44=CIRCLE('',#692,84.8227040809064);
#45=CIRCLE('',#694,7.99999999997083);
#46=CIRCLE('',#695,9.99999999997083);
#47=CIRCLE('',#697,9.99999999999577);
#48=CIRCLE('',#700,9.99999999999999);
#49=CIRCLE('',#703,81.8227040807945);
#50=CIRCLE('',#704,1.875);
#51=CIRCLE('',#705,81.8227040807945);
#52=CIRCLE('',#706,1.875);
#53=CIRCLE('',#707,81.8227040807945);
#54=CIRCLE('',#708,7.00000000016153);
#55=CIRCLE('',#709,3.00000000000667);
#56=CIRCLE('',#710,3.00000000000007);
#57=CIRCLE('',#711,6.99999999981074);
#58=CIRCLE('',#712,1.875);
#59=CIRCLE('',#713,1.875);
#60=CIRCLE('',#715,6.99999999981074);
#61=CIRCLE('',#719,3.00000000000007);
#62=CIRCLE('',#724,3.00000000000667);
#63=CIRCLE('',#728,7.00000000016153);
#64=CIRCLE('',#730,81.8227040807945);
#65=CIRCLE('',#732,1.875);
#66=CIRCLE('',#734,81.8227040807945);
#67=CIRCLE('',#736,1.875);
#68=CIRCLE('',#738,81.8227040807945);
#69=CIRCLE('',#740,1.875);
#70=CIRCLE('',#742,1.875);
#71=CIRCLE('',#744,9.99999999997083);
#72=CIRCLE('',#746,84.8227040809064);
#73=CIRCLE('',#748,10.0000000001615);
#74=CONICAL_SURFACE('',#679,8.99999999999999,0.785398163397449);
#75=CONICAL_SURFACE('',#683,8.99999999999577,0.785398163397449);
#76=CONICAL_SURFACE('',#687,9.0000000001615,0.78539816339745);
#77=CONICAL_SURFACE('',#690,83.8227040809064,0.78539816339745);
#78=CONICAL_SURFACE('',#693,8.99999999997083,0.785398163397448);
#79=FACE_OUTER_BOUND('',#115,.T.);
#80=FACE_OUTER_BOUND('',#116,.T.);
#81=FACE_OUTER_BOUND('',#117,.T.);
#82=FACE_OUTER_BOUND('',#118,.T.);
#83=FACE_OUTER_BOUND('',#119,.T.);
#84=FACE_OUTER_BOUND('',#120,.T.);
#85=FACE_OUTER_BOUND('',#121,.T.);
#86=FACE_OUTER_BOUND('',#122,.T.);
#87=FACE_OUTER_BOUND('',#123,.T.);
#88=FACE_OUTER_BOUND('',#124,.T.);
#89=FACE_OUTER_BOUND('',#125,.T.);
#90=FACE_OUTER_BOUND('',#126,.T.);
#91=FACE_OUTER_BOUND('',#127,.T.);
#92=FACE_OUTER_BOUND('',#131,.T.);
#93=FACE_OUTER_BOUND('',#132,.T.);
#94=FACE_OUTER_BOUND('',#133,.T.);
#95=FACE_OUTER_BOUND('',#134,.T.);
#96=FACE_OUTER_BOUND('',#135,.T.);
#97=FACE_OUTER_BOUND('',#136,.T.);
#98=FACE_OUTER_BOUND('',#137,.T.);
#99=FACE_OUTER_BOUND('',#138,.T.);
#100=FACE_OUTER_BOUND('',#139,.T.);
#101=FACE_OUTER_BOUND('',#140,.T.);
#102=FACE_OUTER_BOUND('',#141,.T.);
#103=FACE_OUTER_BOUND('',#142,.T.);
#104=FACE_OUTER_BOUND('',#143,.T.);
#105=FACE_OUTER_BOUND('',#144,.T.);
#106=FACE_OUTER_BOUND('',#145,.T.);
#107=FACE_OUTER_BOUND('',#146,.T.);
#108=FACE_OUTER_BOUND('',#147,.T.);
#109=FACE_OUTER_BOUND('',#148,.T.);
#110=FACE_OUTER_BOUND('',#149,.T.);
#111=FACE_OUTER_BOUND('',#150,.T.);
#112=FACE_OUTER_BOUND('',#151,.T.);
#113=FACE_OUTER_BOUND('',#152,.T.);
#114=FACE_OUTER_BOUND('',#153,.T.);
#115=EDGE_LOOP('',(#425,#426,#427,#428));
#116=EDGE_LOOP('',(#429,#430,#431,#432));
#117=EDGE_LOOP('',(#433,#434,#435,#436));
#118=EDGE_LOOP('',(#437,#438,#439,#440));
#119=EDGE_LOOP('',(#441,#442,#443,#444));
#120=EDGE_LOOP('',(#445,#446,#447,#448));
#121=EDGE_LOOP('',(#449,#450,#451,#452));
#122=EDGE_LOOP('',(#453,#454,#455,#456));
#123=EDGE_LOOP('',(#457,#458,#459,#460));
#124=EDGE_LOOP('',(#461,#462,#463,#464));
#125=EDGE_LOOP('',(#465,#466,#467,#468));
#126=EDGE_LOOP('',(#469,#470,#471,#472));
#127=EDGE_LOOP('',(#473,#474,#475,#476,#477,#478,#479,#480));
#128=EDGE_LOOP('',(#481,#482,#483,#484,#485,#486,#487,#488,#489,#490,#491,
#492,#493,#494,#495,#496));
#129=EDGE_LOOP('',(#497));
#130=EDGE_LOOP('',(#498));
#131=EDGE_LOOP('',(#499,#500,#501,#502));
#132=EDGE_LOOP('',(#503,#504,#505,#506));
#133=EDGE_LOOP('',(#507,#508,#509,#510));
#134=EDGE_LOOP('',(#511,#512,#513,#514));
#135=EDGE_LOOP('',(#515,#516,#517,#518));
#136=EDGE_LOOP('',(#519,#520,#521,#522));
#137=EDGE_LOOP('',(#523,#524,#525,#526));
#138=EDGE_LOOP('',(#527,#528,#529,#530));
#139=EDGE_LOOP('',(#531,#532,#533,#534));
#140=EDGE_LOOP('',(#535,#536,#537,#538));
#141=EDGE_LOOP('',(#539,#540,#541,#542));
#142=EDGE_LOOP('',(#543,#544,#545,#546));
#143=EDGE_LOOP('',(#547,#548,#549,#550));
#144=EDGE_LOOP('',(#551,#552,#553,#554));
#145=EDGE_LOOP('',(#555,#556,#557,#558));
#146=EDGE_LOOP('',(#559,#560,#561,#562));
#147=EDGE_LOOP('',(#563,#564,#565,#566));
#148=EDGE_LOOP('',(#567,#568,#569,#570));
#149=EDGE_LOOP('',(#571,#572,#573,#574));
#150=EDGE_LOOP('',(#575,#576,#577,#578));
#151=EDGE_LOOP('',(#579,#580,#581,#582));
#152=EDGE_LOOP('',(#583,#584,#585,#586));
#153=EDGE_LOOP('',(#587,#588,#589,#590,#591,#592,#593,#594));
#154=EDGE_LOOP('',(#595));
#155=EDGE_LOOP('',(#596));
#156=EDGE_LOOP('',(#597,#598,#599,#600,#601,#602,#603,#604,#605,#606,#607,
#608,#609,#610,#611,#612));
#157=LINE('',#960,#214);
#158=LINE('',#962,#215);
#159=LINE('',#964,#216);
#160=LINE('',#965,#217);
#161=LINE('',#969,#218);
#162=LINE('',#975,#219);
#163=LINE('',#976,#220);
#164=LINE('',#977,#221);
#165=LINE('',#981,#222);
#166=LINE('',#987,#223);
#167=LINE('',#988,#224);
#168=LINE('',#989,#225);
#169=LINE('',#993,#226);
#170=LINE('',#999,#227);
#171=LINE('',#1007,#228);
#172=LINE('',#1010,#229);
#173=LINE('',#1013,#230);
#174=LINE('',#1014,#231);
#175=LINE('',#1017,#232);
#176=LINE('',#1021,#233);
#177=LINE('',#1022,#234);
#178=LINE('',#1038,#235);
#179=LINE('',#1040,#236);
#180=LINE('',#1044,#237);
#181=LINE('',#1046,#238);
#182=LINE('',#1048,#239);
#183=LINE('',#1052,#240);
#184=LINE('',#1054,#241);
#185=LINE('',#1064,#242);
#186=LINE('',#1065,#243);
#187=LINE('',#1068,#244);
#188=LINE('',#1069,#245);
#189=LINE('',#1072,#246);
#190=LINE('',#1073,#247);
#191=LINE('',#1077,#248);
#192=LINE('',#1080,#249);
#193=LINE('',#1081,#250);
#194=LINE('',#1084,#251);
#195=LINE('',#1085,#252);
#196=LINE('',#1088,#253);
#197=LINE('',#1089,#254);
#198=LINE('',#1093,#255);
#199=LINE('',#1096,#256);
#200=LINE('',#1097,#257);
#201=LINE('',#1100,#258);
#202=LINE('',#1101,#259);
#203=LINE('',#1105,#260);
#204=LINE('',#1109,#261);
#205=LINE('',#1113,#262);
#206=LINE('',#1117,#263);
#207=LINE('',#1121,#264);
#208=LINE('',#1126,#265);
#209=LINE('',#1130,#266);
#210=LINE('',#1134,#267);
#211=LINE('',#1138,#268);
#212=LINE('',#1142,#269);
#213=LINE('',#1145,#270);
#214=VECTOR('',#755,10.);
#215=VECTOR('',#756,10.);
#216=VECTOR('',#757,10.);
#217=VECTOR('',#758,10.);
#218=VECTOR('',#761,10.);
#219=VECTOR('',#768,10.);
#220=VECTOR('',#769,10.);
#221=VECTOR('',#770,10.);
#222=VECTOR('',#773,10.);
#223=VECTOR('',#780,10.);
#224=VECTOR('',#781,10.);
#225=VECTOR('',#782,10.);
#226=VECTOR('',#785,10.);
#227=VECTOR('',#792,10.);
#228=VECTOR('',#805,10.);
#229=VECTOR('',#808,10.);
#230=VECTOR('',#811,10.);
#231=VECTOR('',#812,10.);
#232=VECTOR('',#815,10.);
#233=VECTOR('',#820,10.);
#234=VECTOR('',#821,10.);
#235=VECTOR('',#836,10.);
#236=VECTOR('',#837,10.);
#237=VECTOR('',#840,10.);
#238=VECTOR('',#841,10.);
#239=VECTOR('',#842,10.);
#240=VECTOR('',#845,10.);
#241=VECTOR('',#846,10.);
#242=VECTOR('',#857,10.);
#243=VECTOR('',#858,10.);
#244=VECTOR('',#861,10.);
#245=VECTOR('',#862,10.);
#246=VECTOR('',#865,10.);
#247=VECTOR('',#866,10.);
#248=VECTOR('',#871,10.);
#249=VECTOR('',#874,10.);
#250=VECTOR('',#875,10.);
#251=VECTOR('',#878,10.);
#252=VECTOR('',#879,10.);
#253=VECTOR('',#882,10.);
#254=VECTOR('',#883,10.);
#255=VECTOR('',#888,10.);
#256=VECTOR('',#891,10.);
#257=VECTOR('',#892,10.);
#258=VECTOR('',#895,10.);
#259=VECTOR('',#896,10.);
#260=VECTOR('',#901,10.);
#261=VECTOR('',#906,10.);
#262=VECTOR('',#911,10.);
#263=VECTOR('',#916,10.);
#264=VECTOR('',#921,10.);
#265=VECTOR('',#928,1.875);
#266=VECTOR('',#933,1.875);
#267=VECTOR('',#938,10.);
#268=VECTOR('',#943,10.);
#269=VECTOR('',#948,10.);
#270=VECTOR('',#953,10.);
#271=VERTEX_POINT('',#958);
#272=VERTEX_POINT('',#959);
#273=VERTEX_POINT('',#961);
#274=VERTEX_POINT('',#963);
#275=VERTEX_POINT('',#967);
#276=VERTEX_POINT('',#968);
#277=VERTEX_POINT('',#973);
#278=VERTEX_POINT('',#974);
#279=VERTEX_POINT('',#979);
#280=VERTEX_POINT('',#980);
#281=VERTEX_POINT('',#985);
#282=VERTEX_POINT('',#986);
#283=VERTEX_POINT('',#991);
#284=VERTEX_POINT('',#992);
#285=VERTEX_POINT('',#997);
#286=VERTEX_POINT('',#998);
#287=VERTEX_POINT('',#1006);
#288=VERTEX_POINT('',#1008);
#289=VERTEX_POINT('',#1012);
#290=VERTEX_POINT('',#1016);
#291=VERTEX_POINT('',#1020);
#292=VERTEX_POINT('',#1024);
#293=VERTEX_POINT('',#1025);
#294=VERTEX_POINT('',#1027);
#295=VERTEX_POINT('',#1029);
#296=VERTEX_POINT('',#1031);
#297=VERTEX_POINT('',#1033);
#298=VERTEX_POINT('',#1035);
#299=VERTEX_POINT('',#1037);
#300=VERTEX_POINT('',#1039);
#301=VERTEX_POINT('',#1041);
#302=VERTEX_POINT('',#1043);
#303=VERTEX_POINT('',#1045);
#304=VERTEX_POINT('',#1047);
#305=VERTEX_POINT('',#1049);
#306=VERTEX_POINT('',#1051);
#307=VERTEX_POINT('',#1053);
#308=VERTEX_POINT('',#1056);
#309=VERTEX_POINT('',#1058);
#310=VERTEX_POINT('',#1061);
#311=VERTEX_POINT('',#1062);
#312=VERTEX_POINT('',#1067);
#313=VERTEX_POINT('',#1071);
#314=VERTEX_POINT('',#1075);
#315=VERTEX_POINT('',#1079);
#316=VERTEX_POINT('',#1083);
#317=VERTEX_POINT('',#1087);
#318=VERTEX_POINT('',#1091);
#319=VERTEX_POINT('',#1095);
#320=VERTEX_POINT('',#1099);
#321=VERTEX_POINT('',#1103);
#322=VERTEX_POINT('',#1107);
#323=VERTEX_POINT('',#1111);
#324=VERTEX_POINT('',#1115);
#325=VERTEX_POINT('',#1119);
#326=VERTEX_POINT('',#1125);
#327=VERTEX_POINT('',#1129);
#328=VERTEX_POINT('',#1133);
#329=VERTEX_POINT('',#1137);
#330=VERTEX_POINT('',#1141);
#331=EDGE_CURVE('',#271,#272,#157,.T.);
#332=EDGE_CURVE('',#272,#273,#158,.T.);
#333=EDGE_CURVE('',#273,#274,#159,.T.);
#334=EDGE_CURVE('',#274,#271,#160,.T.);
#335=EDGE_CURVE('',#275,#276,#161,.T.);
#336=EDGE_CURVE('',#276,#272,#37,.T.);
#337=EDGE_CURVE('',#271,#275,#38,.T.);
#338=EDGE_CURVE('',#277,#278,#162,.T.);
#339=EDGE_CURVE('',#278,#276,#163,.T.);
#340=EDGE_CURVE('',#275,#277,#164,.T.);
#341=EDGE_CURVE('',#279,#280,#165,.T.);
#342=EDGE_CURVE('',#280,#278,#39,.T.);
#343=EDGE_CURVE('',#277,#279,#40,.T.);
#344=EDGE_CURVE('',#281,#282,#166,.T.);
#345=EDGE_CURVE('',#282,#280,#167,.T.);
#346=EDGE_CURVE('',#279,#281,#168,.T.);
#347=EDGE_CURVE('',#283,#284,#169,.T.);
#348=EDGE_CURVE('',#284,#282,#41,.T.);
#349=EDGE_CURVE('',#281,#283,#42,.T.);
#350=EDGE_CURVE('',#285,#286,#170,.T.);
#351=EDGE_CURVE('',#286,#284,#43,.T.);
#352=EDGE_CURVE('',#283,#285,#44,.T.);
#353=EDGE_CURVE('',#273,#286,#45,.T.);
#354=EDGE_CURVE('',#285,#274,#46,.T.);
#355=EDGE_CURVE('',#287,#277,#171,.T.);
#356=EDGE_CURVE('',#288,#287,#47,.T.);
#357=EDGE_CURVE('',#288,#279,#172,.T.);
#358=EDGE_CURVE('',#289,#275,#173,.T.);
#359=EDGE_CURVE('',#287,#289,#174,.T.);
#360=EDGE_CURVE('',#290,#271,#175,.T.);
#361=EDGE_CURVE('',#289,#290,#48,.T.);
#362=EDGE_CURVE('',#291,#274,#176,.T.);
#363=EDGE_CURVE('',#290,#291,#177,.T.);
#364=EDGE_CURVE('',#292,#293,#49,.T.);
#365=EDGE_CURVE('',#293,#294,#50,.T.);
#366=EDGE_CURVE('',#294,#295,#51,.T.);
#367=EDGE_CURVE('',#295,#296,#52,.T.);
#368=EDGE_CURVE('',#296,#297,#53,.T.);
#369=EDGE_CURVE('',#297,#298,#54,.T.);
#370=EDGE_CURVE('',#298,#299,#178,.T.);
#371=EDGE_CURVE('',#299,#300,#179,.T.);
#372=EDGE_CURVE('',#300,#301,#55,.T.);
#373=EDGE_CURVE('',#301,#302,#180,.T.);
#374=EDGE_CURVE('',#302,#303,#181,.T.);
#375=EDGE_CURVE('',#303,#304,#182,.T.);
#376=EDGE_CURVE('',#304,#305,#56,.T.);
#377=EDGE_CURVE('',#305,#306,#183,.T.);
#378=EDGE_CURVE('',#306,#307,#184,.T.);
#379=EDGE_CURVE('',#307,#292,#57,.T.);
#380=EDGE_CURVE('',#308,#308,#58,.T.);
#381=EDGE_CURVE('',#309,#309,#59,.T.);
#382=EDGE_CURVE('',#310,#311,#60,.T.);
#383=EDGE_CURVE('',#310,#292,#185,.T.);
#384=EDGE_CURVE('',#311,#307,#186,.T.);
#385=EDGE_CURVE('',#311,#312,#187,.T.);
#386=EDGE_CURVE('',#312,#306,#188,.T.);
#387=EDGE_CURVE('',#312,#313,#189,.T.);
#388=EDGE_CURVE('',#313,#305,#190,.T.);
#389=EDGE_CURVE('',#313,#314,#61,.T.);
#390=EDGE_CURVE('',#314,#304,#191,.T.);
#391=EDGE_CURVE('',#314,#315,#192,.T.);
#392=EDGE_CURVE('',#315,#303,#193,.T.);
#393=EDGE_CURVE('',#315,#316,#194,.T.);
#394=EDGE_CURVE('',#316,#302,#195,.T.);
#395=EDGE_CURVE('',#316,#317,#196,.T.);
#396=EDGE_CURVE('',#317,#301,#197,.T.);
#397=EDGE_CURVE('',#317,#318,#62,.T.);
#398=EDGE_CURVE('',#318,#300,#198,.T.);
#399=EDGE_CURVE('',#318,#319,#199,.T.);
#400=EDGE_CURVE('',#319,#299,#200,.T.);
#401=EDGE_CURVE('',#319,#320,#201,.T.);
#402=EDGE_CURVE('',#320,#298,#202,.T.);
#403=EDGE_CURVE('',#320,#321,#63,.T.);
#404=EDGE_CURVE('',#321,#297,#203,.T.);
#405=EDGE_CURVE('',#321,#322,#64,.T.);
#406=EDGE_CURVE('',#322,#296,#204,.T.);
#407=EDGE_CURVE('',#322,#323,#65,.T.);
#408=EDGE_CURVE('',#323,#295,#205,.T.);
#409=EDGE_CURVE('',#323,#324,#66,.T.);
#410=EDGE_CURVE('',#324,#294,#206,.T.);
#411=EDGE_CURVE('',#324,#325,#67,.T.);
#412=EDGE_CURVE('',#325,#293,#207,.T.);
#413=EDGE_CURVE('',#325,#310,#68,.T.);
#414=EDGE_CURVE('',#308,#326,#208,.T.);
#415=EDGE_CURVE('',#326,#326,#69,.T.);
#416=EDGE_CURVE('',#309,#327,#209,.T.);
#417=EDGE_CURVE('',#327,#327,#70,.T.);
#418=EDGE_CURVE('',#328,#285,#210,.T.);
#419=EDGE_CURVE('',#291,#328,#71,.T.);
#420=EDGE_CURVE('',#329,#283,#211,.T.);
#421=EDGE_CURVE('',#328,#329,#72,.T.);
#422=EDGE_CURVE('',#330,#281,#212,.T.);
#423=EDGE_CURVE('',#329,#330,#73,.T.);
#424=EDGE_CURVE('',#330,#288,#213,.T.);
#425=ORIENTED_EDGE('',*,*,#331,.T.);
#426=ORIENTED_EDGE('',*,*,#332,.T.);
#427=ORIENTED_EDGE('',*,*,#333,.T.);
#428=ORIENTED_EDGE('',*,*,#334,.T.);
#429=ORIENTED_EDGE('',*,*,#335,.T.);
#430=ORIENTED_EDGE('',*,*,#336,.T.);
#431=ORIENTED_EDGE('',*,*,#331,.F.);
#432=ORIENTED_EDGE('',*,*,#337,.T.);
#433=ORIENTED_EDGE('',*,*,#338,.T.);
#434=ORIENTED_EDGE('',*,*,#339,.T.);
#435=ORIENTED_EDGE('',*,*,#335,.F.);
#436=ORIENTED_EDGE('',*,*,#340,.T.);
#437=ORIENTED_EDGE('',*,*,#341,.T.);
#438=ORIENTED_EDGE('',*,*,#342,.T.);
#439=ORIENTED_EDGE('',*,*,#338,.F.);
#440=ORIENTED_EDGE('',*,*,#343,.T.);
#441=ORIENTED_EDGE('',*,*,#344,.T.);
#442=ORIENTED_EDGE('',*,*,#345,.T.);
#443=ORIENTED_EDGE('',*,*,#341,.F.);
#444=ORIENTED_EDGE('',*,*,#346,.T.);
#445=ORIENTED_EDGE('',*,*,#347,.T.);
#446=ORIENTED_EDGE('',*,*,#348,.T.);
#447=ORIENTED_EDGE('',*,*,#344,.F.);
#448=ORIENTED_EDGE('',*,*,#349,.T.);
#449=ORIENTED_EDGE('',*,*,#350,.T.);
#450=ORIENTED_EDGE('',*,*,#351,.T.);
#451=ORIENTED_EDGE('',*,*,#347,.F.);
#452=ORIENTED_EDGE('',*,*,#352,.T.);
#453=ORIENTED_EDGE('',*,*,#333,.F.);
#454=ORIENTED_EDGE('',*,*,#353,.T.);
#455=ORIENTED_EDGE('',*,*,#350,.F.);
#456=ORIENTED_EDGE('',*,*,#354,.T.);
#457=ORIENTED_EDGE('',*,*,#343,.F.);
#458=ORIENTED_EDGE('',*,*,#355,.F.);
#459=ORIENTED_EDGE('',*,*,#356,.F.);
#460=ORIENTED_EDGE('',*,*,#357,.T.);
#461=ORIENTED_EDGE('',*,*,#340,.F.);
#462=ORIENTED_EDGE('',*,*,#358,.F.);
#463=ORIENTED_EDGE('',*,*,#359,.F.);
#464=ORIENTED_EDGE('',*,*,#355,.T.);
#465=ORIENTED_EDGE('',*,*,#337,.F.);
#466=ORIENTED_EDGE('',*,*,#360,.F.);
#467=ORIENTED_EDGE('',*,*,#361,.F.);
#468=ORIENTED_EDGE('',*,*,#358,.T.);
#469=ORIENTED_EDGE('',*,*,#334,.F.);
#470=ORIENTED_EDGE('',*,*,#362,.F.);
#471=ORIENTED_EDGE('',*,*,#363,.F.);
#472=ORIENTED_EDGE('',*,*,#360,.T.);
#473=ORIENTED_EDGE('',*,*,#332,.F.);
#474=ORIENTED_EDGE('',*,*,#336,.F.);
#475=ORIENTED_EDGE('',*,*,#339,.F.);
#476=ORIENTED_EDGE('',*,*,#342,.F.);
#477=ORIENTED_EDGE('',*,*,#345,.F.);
#478=ORIENTED_EDGE('',*,*,#348,.F.);
#479=ORIENTED_EDGE('',*,*,#351,.F.);
#480=ORIENTED_EDGE('',*,*,#353,.F.);
#481=ORIENTED_EDGE('',*,*,#364,.T.);
#482=ORIENTED_EDGE('',*,*,#365,.T.);
#483=ORIENTED_EDGE('',*,*,#366,.T.);
#484=ORIENTED_EDGE('',*,*,#367,.T.);
#485=ORIENTED_EDGE('',*,*,#368,.T.);
#486=ORIENTED_EDGE('',*,*,#369,.T.);
#487=ORIENTED_EDGE('',*,*,#370,.T.);
#488=ORIENTED_EDGE('',*,*,#371,.T.);
#489=ORIENTED_EDGE('',*,*,#372,.T.);
#490=ORIENTED_EDGE('',*,*,#373,.T.);
#491=ORIENTED_EDGE('',*,*,#374,.T.);
#492=ORIENTED_EDGE('',*,*,#375,.T.);
#493=ORIENTED_EDGE('',*,*,#376,.T.);
#494=ORIENTED_EDGE('',*,*,#377,.T.);
#495=ORIENTED_EDGE('',*,*,#378,.T.);
#496=ORIENTED_EDGE('',*,*,#379,.T.);
#497=ORIENTED_EDGE('',*,*,#380,.T.);
#498=ORIENTED_EDGE('',*,*,#381,.T.);
#499=ORIENTED_EDGE('',*,*,#382,.F.);
#500=ORIENTED_EDGE('',*,*,#383,.T.);
#501=ORIENTED_EDGE('',*,*,#379,.F.);
#502=ORIENTED_EDGE('',*,*,#384,.F.);
#503=ORIENTED_EDGE('',*,*,#385,.F.);
#504=ORIENTED_EDGE('',*,*,#384,.T.);
#505=ORIENTED_EDGE('',*,*,#378,.F.);
#506=ORIENTED_EDGE('',*,*,#386,.F.);
#507=ORIENTED_EDGE('',*,*,#387,.F.);
#508=ORIENTED_EDGE('',*,*,#386,.T.);
#509=ORIENTED_EDGE('',*,*,#377,.F.);
#510=ORIENTED_EDGE('',*,*,#388,.F.);
#511=ORIENTED_EDGE('',*,*,#389,.F.);
#512=ORIENTED_EDGE('',*,*,#388,.T.);
#513=ORIENTED_EDGE('',*,*,#376,.F.);
#514=ORIENTED_EDGE('',*,*,#390,.F.);
#515=ORIENTED_EDGE('',*,*,#391,.F.);
#516=ORIENTED_EDGE('',*,*,#390,.T.);
#517=ORIENTED_EDGE('',*,*,#375,.F.);
#518=ORIENTED_EDGE('',*,*,#392,.F.);
#519=ORIENTED_EDGE('',*,*,#393,.F.);
#520=ORIENTED_EDGE('',*,*,#392,.T.);
#521=ORIENTED_EDGE('',*,*,#374,.F.);
#522=ORIENTED_EDGE('',*,*,#394,.F.);
#523=ORIENTED_EDGE('',*,*,#395,.F.);
#524=ORIENTED_EDGE('',*,*,#394,.T.);
#525=ORIENTED_EDGE('',*,*,#373,.F.);
#526=ORIENTED_EDGE('',*,*,#396,.F.);
#527=ORIENTED_EDGE('',*,*,#397,.F.);
#528=ORIENTED_EDGE('',*,*,#396,.T.);
#529=ORIENTED_EDGE('',*,*,#372,.F.);
#530=ORIENTED_EDGE('',*,*,#398,.F.);
#531=ORIENTED_EDGE('',*,*,#399,.F.);
#532=ORIENTED_EDGE('',*,*,#398,.T.);
#533=ORIENTED_EDGE('',*,*,#371,.F.);
#534=ORIENTED_EDGE('',*,*,#400,.F.);
#535=ORIENTED_EDGE('',*,*,#401,.F.);
#536=ORIENTED_EDGE('',*,*,#400,.T.);
#537=ORIENTED_EDGE('',*,*,#370,.F.);
#538=ORIENTED_EDGE('',*,*,#402,.F.);
#539=ORIENTED_EDGE('',*,*,#403,.F.);
#540=ORIENTED_EDGE('',*,*,#402,.T.);
#541=ORIENTED_EDGE('',*,*,#369,.F.);
#542=ORIENTED_EDGE('',*,*,#404,.F.);
#543=ORIENTED_EDGE('',*,*,#405,.F.);
#544=ORIENTED_EDGE('',*,*,#404,.T.);
#545=ORIENTED_EDGE('',*,*,#368,.F.);
#546=ORIENTED_EDGE('',*,*,#406,.F.);
#547=ORIENTED_EDGE('',*,*,#407,.F.);
#548=ORIENTED_EDGE('',*,*,#406,.T.);
#549=ORIENTED_EDGE('',*,*,#367,.F.);
#550=ORIENTED_EDGE('',*,*,#408,.F.);
#551=ORIENTED_EDGE('',*,*,#409,.F.);
#552=ORIENTED_EDGE('',*,*,#408,.T.);
#553=ORIENTED_EDGE('',*,*,#366,.F.);
#554=ORIENTED_EDGE('',*,*,#410,.F.);
#555=ORIENTED_EDGE('',*,*,#411,.F.);
#556=ORIENTED_EDGE('',*,*,#410,.T.);
#557=ORIENTED_EDGE('',*,*,#365,.F.);
#558=ORIENTED_EDGE('',*,*,#412,.F.);
#559=ORIENTED_EDGE('',*,*,#413,.F.);
#560=ORIENTED_EDGE('',*,*,#412,.T.);
#561=ORIENTED_EDGE('',*,*,#364,.F.);
#562=ORIENTED_EDGE('',*,*,#383,.F.);
#563=ORIENTED_EDGE('',*,*,#380,.F.);
#564=ORIENTED_EDGE('',*,*,#414,.T.);
#565=ORIENTED_EDGE('',*,*,#415,.F.);
#566=ORIENTED_EDGE('',*,*,#414,.F.);
#567=ORIENTED_EDGE('',*,*,#381,.F.);
#568=ORIENTED_EDGE('',*,*,#416,.T.);
#569=ORIENTED_EDGE('',*,*,#417,.F.);
#570=ORIENTED_EDGE('',*,*,#416,.F.);
#571=ORIENTED_EDGE('',*,*,#354,.F.);
#572=ORIENTED_EDGE('',*,*,#418,.F.);
#573=ORIENTED_EDGE('',*,*,#419,.F.);
#574=ORIENTED_EDGE('',*,*,#362,.T.);
#575=ORIENTED_EDGE('',*,*,#352,.F.);
#576=ORIENTED_EDGE('',*,*,#420,.F.);
#577=ORIENTED_EDGE('',*,*,#421,.F.);
#578=ORIENTED_EDGE('',*,*,#418,.T.);
#579=ORIENTED_EDGE('',*,*,#349,.F.);
#580=ORIENTED_EDGE('',*,*,#422,.F.);
#581=ORIENTED_EDGE('',*,*,#423,.F.);
#582=ORIENTED_EDGE('',*,*,#420,.T.);
#583=ORIENTED_EDGE('',*,*,#346,.F.);
#584=ORIENTED_EDGE('',*,*,#357,.F.);
#585=ORIENTED_EDGE('',*,*,#424,.F.);
#586=ORIENTED_EDGE('',*,*,#422,.T.);
#587=ORIENTED_EDGE('',*,*,#359,.T.);
#588=ORIENTED_EDGE('',*,*,#361,.T.);
#589=ORIENTED_EDGE('',*,*,#363,.T.);
#590=ORIENTED_EDGE('',*,*,#419,.T.);
#591=ORIENTED_EDGE('',*,*,#421,.T.);
#592=ORIENTED_EDGE('',*,*,#423,.T.);
#593=ORIENTED_EDGE('',*,*,#424,.T.);
#594=ORIENTED_EDGE('',*,*,#356,.T.);
#595=ORIENTED_EDGE('',*,*,#417,.T.);
#596=ORIENTED_EDGE('',*,*,#415,.T.);
#597=ORIENTED_EDGE('',*,*,#413,.T.);
#598=ORIENTED_EDGE('',*,*,#382,.T.);
#599=ORIENTED_EDGE('',*,*,#385,.T.);
#600=ORIENTED_EDGE('',*,*,#387,.T.);
#601=ORIENTED_EDGE('',*,*,#389,.T.);
#602=ORIENTED_EDGE('',*,*,#391,.T.);
#603=ORIENTED_EDGE('',*,*,#393,.T.);
#604=ORIENTED_EDGE('',*,*,#395,.T.);
#605=ORIENTED_EDGE('',*,*,#397,.T.);
#606=ORIENTED_EDGE('',*,*,#399,.T.);
#607=ORIENTED_EDGE('',*,*,#401,.T.);
#608=ORIENTED_EDGE('',*,*,#403,.T.);
#609=ORIENTED_EDGE('',*,*,#405,.T.);
#610=ORIENTED_EDGE('',*,*,#407,.T.);
#611=ORIENTED_EDGE('',*,*,#409,.T.);
#612=ORIENTED_EDGE('',*,*,#411,.T.);
#613=PLANE('',#678);
#614=PLANE('',#682);
#615=PLANE('',#686);
#616=PLANE('',#698);
#617=PLANE('',#701);
#618=PLANE('',#702);
#619=PLANE('',#716);
#620=PLANE('',#717);
#621=PLANE('',#720);
#622=PLANE('',#721);
#623=PLANE('',#722);
#624=PLANE('',#725);
#625=PLANE('',#726);
#626=PLANE('',#749);
#627=PLANE('',#750);
#628=ADVANCED_FACE('',(#79),#613,.T.);
#629=ADVANCED_FACE('',(#80),#74,.T.);
#630=ADVANCED_FACE('',(#81),#614,.T.);
#631=ADVANCED_FACE('',(#82),#75,.T.);
#632=ADVANCED_FACE('',(#83),#615,.T.);
#633=ADVANCED_FACE('',(#84),#76,.T.);
#634=ADVANCED_FACE('',(#85),#77,.T.);
#635=ADVANCED_FACE('',(#86),#78,.T.);
#636=ADVANCED_FACE('',(#87),#21,.T.);
#637=ADVANCED_FACE('',(#88),#616,.T.);
#638=ADVANCED_FACE('',(#89),#22,.T.);
#639=ADVANCED_FACE('',(#90),#617,.T.);
#640=ADVANCED_FACE('',(#91,#15,#16,#17),#618,.F.);
#641=ADVANCED_FACE('',(#92),#23,.F.);
#642=ADVANCED_FACE('',(#93),#619,.T.);
#643=ADVANCED_FACE('',(#94),#620,.T.);
#644=ADVANCED_FACE('',(#95),#24,.T.);
#645=ADVANCED_FACE('',(#96),#621,.T.);
#646=ADVANCED_FACE('',(#97),#622,.T.);
#647=ADVANCED_FACE('',(#98),#623,.T.);
#648=ADVANCED_FACE('',(#99),#25,.T.);
#649=ADVANCED_FACE('',(#100),#624,.T.);
#650=ADVANCED_FACE('',(#101),#625,.T.);
#651=ADVANCED_FACE('',(#102),#26,.F.);
#652=ADVANCED_FACE('',(#103),#27,.F.);
#653=ADVANCED_FACE('',(#104),#28,.F.);
#654=ADVANCED_FACE('',(#105),#29,.F.);
#655=ADVANCED_FACE('',(#106),#30,.F.);
#656=ADVANCED_FACE('',(#107),#31,.F.);
#657=ADVANCED_FACE('',(#108),#32,.F.);
#658=ADVANCED_FACE('',(#109),#33,.F.);
#659=ADVANCED_FACE('',(#110),#34,.T.);
#660=ADVANCED_FACE('',(#111),#35,.T.);
#661=ADVANCED_FACE('',(#112),#36,.T.);
#662=ADVANCED_FACE('',(#113),#626,.T.);
#663=ADVANCED_FACE('',(#114,#18,#19,#20),#627,.T.);
#664=CLOSED_SHELL('',(#628,#629,#630,#631,#632,#633,#634,#635,#636,#637,
#638,#639,#640,#641,#642,#643,#644,#645,#646,#647,#648,#649,#650,#651,#652,
#653,#654,#655,#656,#657,#658,#659,#660,#661,#662,#663));
#665=DERIVED_UNIT_ELEMENT(#667,1.);
#666=DERIVED_UNIT_ELEMENT(#1152,-3.);
#667=(
MASS_UNIT()
NAMED_UNIT(*)
SI_UNIT(.KILO.,.GRAM.)
);
#668=DERIVED_UNIT((#665,#666));
#669=MEASURE_REPRESENTATION_ITEM('density measure',
POSITIVE_RATIO_MEASURE(7850.),#668);
#670=PROPERTY_DEFINITION_REPRESENTATION(#675,#672);
#671=PROPERTY_DEFINITION_REPRESENTATION(#676,#673);
#672=REPRESENTATION('material name',(#674),#1149);
#673=REPRESENTATION('density',(#669),#1149);
#674=DESCRIPTIVE_REPRESENTATION_ITEM('Steel','Steel');
#675=PROPERTY_DEFINITION('material property','material name',#1159);
#676=PROPERTY_DEFINITION('material property','density of part',#1159);
#677=AXIS2_PLACEMENT_3D('',#956,#751,#752);
#678=AXIS2_PLACEMENT_3D('',#957,#753,#754);
#679=AXIS2_PLACEMENT_3D('',#966,#759,#760);
#680=AXIS2_PLACEMENT_3D('',#970,#762,#763);
#681=AXIS2_PLACEMENT_3D('',#971,#764,#765);
#682=AXIS2_PLACEMENT_3D('',#972,#766,#767);
#683=AXIS2_PLACEMENT_3D('',#978,#771,#772);
#684=AXIS2_PLACEMENT_3D('',#982,#774,#775);
#685=AXIS2_PLACEMENT_3D('',#983,#776,#777);
#686=AXIS2_PLACEMENT_3D('',#984,#778,#779);
#687=AXIS2_PLACEMENT_3D('',#990,#783,#784);
#688=AXIS2_PLACEMENT_3D('',#994,#786,#787);
#689=AXIS2_PLACEMENT_3D('',#995,#788,#789);
#690=AXIS2_PLACEMENT_3D('',#996,#790,#791);
#691=AXIS2_PLACEMENT_3D('',#1000,#793,#794);
#692=AXIS2_PLACEMENT_3D('',#1001,#795,#796);
#693=AXIS2_PLACEMENT_3D('',#1002,#797,#798);
#694=AXIS2_PLACEMENT_3D('',#1003,#799,#800);
#695=AXIS2_PLACEMENT_3D('',#1004,#801,#802);
#696=AXIS2_PLACEMENT_3D('',#1005,#803,#804);
#697=AXIS2_PLACEMENT_3D('',#1009,#806,#807);
#698=AXIS2_PLACEMENT_3D('',#1011,#809,#810);
#699=AXIS2_PLACEMENT_3D('',#1015,#813,#814);
#700=AXIS2_PLACEMENT_3D('',#1018,#816,#817);
#701=AXIS2_PLACEMENT_3D('',#1019,#818,#819);
#702=AXIS2_PLACEMENT_3D('',#1023,#822,#823);
#703=AXIS2_PLACEMENT_3D('',#1026,#824,#825);
#704=AXIS2_PLACEMENT_3D('',#1028,#826,#827);
#705=AXIS2_PLACEMENT_3D('',#1030,#828,#829);
#706=AXIS2_PLACEMENT_3D('',#1032,#830,#831);
#707=AXIS2_PLACEMENT_3D('',#1034,#832,#833);
#708=AXIS2_PLACEMENT_3D('',#1036,#834,#835);
#709=AXIS2_PLACEMENT_3D('',#1042,#838,#839);
#710=AXIS2_PLACEMENT_3D('',#1050,#843,#844);
#711=AXIS2_PLACEMENT_3D('',#1055,#847,#848);
#712=AXIS2_PLACEMENT_3D('',#1057,#849,#850);
#713=AXIS2_PLACEMENT_3D('',#1059,#851,#852);
#714=AXIS2_PLACEMENT_3D('',#1060,#853,#854);
#715=AXIS2_PLACEMENT_3D('',#1063,#855,#856);
#716=AXIS2_PLACEMENT_3D('',#1066,#859,#860);
#717=AXIS2_PLACEMENT_3D('',#1070,#863,#864);
#718=AXIS2_PLACEMENT_3D('',#1074,#867,#868);
#719=AXIS2_PLACEMENT_3D('',#1076,#869,#870);
#720=AXIS2_PLACEMENT_3D('',#1078,#872,#873);
#721=AXIS2_PLACEMENT_3D('',#1082,#876,#877);
#722=AXIS2_PLACEMENT_3D('',#1086,#880,#881);
#723=AXIS2_PLACEMENT_3D('',#1090,#884,#885);
#724=AXIS2_PLACEMENT_3D('',#1092,#886,#887);
#725=AXIS2_PLACEMENT_3D('',#1094,#889,#890);
#726=AXIS2_PLACEMENT_3D('',#1098,#893,#894);
#727=AXIS2_PLACEMENT_3D('',#1102,#897,#898);
#728=AXIS2_PLACEMENT_3D('',#1104,#899,#900);
#729=AXIS2_PLACEMENT_3D('',#1106,#902,#903);
#730=AXIS2_PLACEMENT_3D('',#1108,#904,#905);
#731=AXIS2_PLACEMENT_3D('',#1110,#907,#908);
#732=AXIS2_PLACEMENT_3D('',#1112,#909,#910);
#733=AXIS2_PLACEMENT_3D('',#1114,#912,#913);
#734=AXIS2_PLACEMENT_3D('',#1116,#914,#915);
#735=AXIS2_PLACEMENT_3D('',#1118,#917,#918);
#736=AXIS2_PLACEMENT_3D('',#1120,#919,#920);
#737=AXIS2_PLACEMENT_3D('',#1122,#922,#923);
#738=AXIS2_PLACEMENT_3D('',#1123,#924,#925);
#739=AXIS2_PLACEMENT_3D('',#1124,#926,#927);
#740=AXIS2_PLACEMENT_3D('',#1127,#929,#930);
#741=AXIS2_PLACEMENT_3D('',#1128,#931,#932);
#742=AXIS2_PLACEMENT_3D('',#1131,#934,#935);
#743=AXIS2_PLACEMENT_3D('',#1132,#936,#937);
#744=AXIS2_PLACEMENT_3D('',#1135,#939,#940);
#745=AXIS2_PLACEMENT_3D('',#1136,#941,#942);
#746=AXIS2_PLACEMENT_3D('',#1139,#944,#945);
#747=AXIS2_PLACEMENT_3D('',#1140,#946,#947);
#748=AXIS2_PLACEMENT_3D('',#1143,#949,#950);
#749=AXIS2_PLACEMENT_3D('',#1144,#951,#952);
#750=AXIS2_PLACEMENT_3D('',#1146,#954,#955);
#751=DIRECTION('axis',(0.,0.,1.));
#752=DIRECTION('refdir',(1.,0.,0.));
#753=DIRECTION('center_axis',(0.707106781186547,-2.10633942149577E-13,-0.707106781186548));
#754=DIRECTION('ref_axis',(-0.707106781186548,0.,-0.707106781186547));
#755=DIRECTION('',(-0.707106781186546,2.10392389463626E-13,-0.707106781186549));
#756=DIRECTION('',(2.97881377684042E-13,1.,0.));
#757=DIRECTION('',(0.707106781176264,-2.10392389466686E-13,0.707106781196831));
#758=DIRECTION('',(-2.97881377684042E-13,-1.,0.));
#759=DIRECTION('center_axis',(0.,0.,1.));
#760=DIRECTION('ref_axis',(-7.37188088351105E-13,-1.,0.));
#761=DIRECTION('',(5.21270696283021E-13,0.707106781186537,-0.707106781186558));
#762=DIRECTION('center_axis',(0.,0.,1.));
#763=DIRECTION('ref_axis',(-7.37188088351105E-13,-1.,0.));
#764=DIRECTION('center_axis',(0.,0.,-1.));
#765=DIRECTION('ref_axis',(-7.37188088351105E-13,-1.,0.));
#766=DIRECTION('center_axis',(0.,-0.707106781186547,-0.707106781186548));
#767=DIRECTION('ref_axis',(-1.,0.,0.));
#768=DIRECTION('',(0.,0.707106781186548,-0.707106781186547));
#769=DIRECTION('',(1.,0.,0.));
#770=DIRECTION('',(-1.,0.,0.));
#771=DIRECTION('center_axis',(0.,0.,1.));
#772=DIRECTION('ref_axis',(-1.,3.82271991839096E-12,0.));
#773=DIRECTION('',(0.707106781187317,-2.70369921385052E-12,-0.707106781185778));
#774=DIRECTION('center_axis',(0.,0.,1.));
#775=DIRECTION('ref_axis',(-1.,3.82271991839096E-12,0.));
#776=DIRECTION('center_axis',(0.,0.,-1.));
#777=DIRECTION('ref_axis',(-1.,3.82271991839096E-12,0.));
#778=DIRECTION('center_axis',(-0.707106781186549,2.70289008870249E-12,-0.707106781186546));
#779=DIRECTION('ref_axis',(-0.707106781186546,0.,0.707106781186549));
#780=DIRECTION('',(0.707106781188291,-2.7036992138468E-12,-0.707106781184804));
#781=DIRECTION('',(-3.82246382104687E-12,-1.,0.));
#782=DIRECTION('',(3.82246382104687E-12,1.,0.));
#783=DIRECTION('center_axis',(0.,0.,1.));
#784=DIRECTION('ref_axis',(-0.805236869472604,0.592953273067921,0.));
#785=DIRECTION('',(0.569388450865506,-0.419281280313087,-0.707106781186546));
#786=DIRECTION('center_axis',(0.,0.,1.));
#787=DIRECTION('ref_axis',(-0.805236869472604,0.592953273067921,0.));
#788=DIRECTION('center_axis',(0.,0.,-1.));
#789=DIRECTION('ref_axis',(-0.805236869472604,0.592953273067922,0.));
#790=DIRECTION('center_axis',(0.,0.,1.));
#791=DIRECTION('ref_axis',(0.805236869477989,0.592953273060608,0.));
#792=DIRECTION('',(-0.569388450860904,-0.419281280301722,-0.707106781196991));
#793=DIRECTION('center_axis',(0.,0.,1.));
#794=DIRECTION('ref_axis',(0.805236869477989,0.592953273060608,0.));
#795=DIRECTION('center_axis',(0.,0.,-1.));
#796=DIRECTION('ref_axis',(0.805236869477989,0.592953273060608,0.));
#797=DIRECTION('center_axis',(0.,0.,1.));
#798=DIRECTION('ref_axis',(1.,1.50102152929759E-13,0.));
#799=DIRECTION('center_axis',(0.,0.,1.));
#800=DIRECTION('ref_axis',(1.,1.50102152929759E-13,0.));
#801=DIRECTION('center_axis',(0.,0.,-1.));
#802=DIRECTION('ref_axis',(1.,1.50102152929759E-13,0.));
#803=DIRECTION('center_axis',(0.,0.,-1.));
#804=DIRECTION('ref_axis',(-1.,3.82271991839096E-12,0.));
#805=DIRECTION('',(0.,0.,-1.));
#806=DIRECTION('center_axis',(0.,0.,1.));
#807=DIRECTION('ref_axis',(-1.,3.82271991839096E-12,0.));
#808=DIRECTION('',(0.,0.,-1.));
#809=DIRECTION('center_axis',(0.,-1.,0.));
#810=DIRECTION('ref_axis',(-1.,0.,0.));
#811=DIRECTION('',(0.,0.,-1.));
#812=DIRECTION('',(1.,0.,0.));
#813=DIRECTION('center_axis',(0.,0.,-1.));
#814=DIRECTION('ref_axis',(-7.37188088351105E-13,-1.,0.));
#815=DIRECTION('',(0.,0.,-1.));
#816=DIRECTION('center_axis',(0.,0.,1.));
#817=DIRECTION('ref_axis',(-7.37188088351105E-13,-1.,0.));
#818=DIRECTION('center_axis',(1.,-2.97881377684042E-13,0.));
#819=DIRECTION('ref_axis',(-2.97881377684042E-13,-1.,0.));
#820=DIRECTION('',(0.,0.,-1.));
#821=DIRECTION('',(2.97881377684042E-13,1.,0.));
#822=DIRECTION('center_axis',(0.,0.,1.));
#823=DIRECTION('ref_axis',(1.,0.,0.));
#824=DIRECTION('center_axis',(0.,0.,1.));
#825=DIRECTION('ref_axis',(0.805236869476623,0.592953273062463,0.));
#826=DIRECTION('center_axis',(0.,0.,1.));
#827=DIRECTION('ref_axis',(1.,0.,0.));
#828=DIRECTION('center_axis',(0.,0.,1.));
#829=DIRECTION('ref_axis',(0.805236869476623,0.592953273062463,0.));
#830=DIRECTION('center_axis',(0.,0.,1.));
#831=DIRECTION('ref_axis',(1.,0.,0.));
#832=DIRECTION('center_axis',(0.,0.,1.));
#833=DIRECTION('ref_axis',(0.805236869476623,0.592953273062463,0.));
#834=DIRECTION('center_axis',(0.,0.,1.));
#835=DIRECTION('ref_axis',(-0.805236869472681,0.592953273067816,0.));
#836=DIRECTION('',(-3.73860236585884E-12,-1.,0.));
#837=DIRECTION('',(1.,0.,0.));
#838=DIRECTION('center_axis',(0.,0.,-1.));
#839=DIRECTION('ref_axis',(1.,0.,0.));
#840=DIRECTION('',(-4.62474503137855E-12,-1.,0.));
#841=DIRECTION('',(1.,-9.33877154675918E-14,0.));
#842=DIRECTION('',(3.35731442646652E-13,1.,0.));
#843=DIRECTION('center_axis',(0.,0.,-1.));
#844=DIRECTION('ref_axis',(0.,1.,0.));
#845=DIRECTION('',(1.,0.,0.));
#846=DIRECTION('',(-1.75711631754409E-12,1.,0.));
#847=DIRECTION('center_axis',(0.,0.,1.));
#848=DIRECTION('ref_axis',(1.,-4.46373097227074E-12,0.));
#849=DIRECTION('center_axis',(0.,0.,1.));
#850=DIRECTION('ref_axis',(1.,0.,0.));
#851=DIRECTION('center_axis',(0.,0.,1.));
#852=DIRECTION('ref_axis',(1.,0.,0.));
#853=DIRECTION('center_axis',(0.,0.,-1.));
#854=DIRECTION('ref_axis',(1.,-4.46373097227074E-12,0.));
#855=DIRECTION('center_axis',(0.,0.,-1.));
#856=DIRECTION('ref_axis',(1.,-4.46373097227074E-12,0.));
#857=DIRECTION('',(0.,0.,-1.));
#858=DIRECTION('',(0.,0.,-1.));
#859=DIRECTION('center_axis',(-1.,-1.75711631754409E-12,0.));
#860=DIRECTION('ref_axis',(-1.75711631754409E-12,1.,0.));
#861=DIRECTION('',(1.75711631754409E-12,-1.,0.));
#862=DIRECTION('',(0.,0.,-1.));
#863=DIRECTION('center_axis',(0.,1.,0.));
#864=DIRECTION('ref_axis',(1.,0.,0.));
#865=DIRECTION('',(-1.,0.,0.));
#866=DIRECTION('',(0.,0.,-1.));
#867=DIRECTION('center_axis',(0.,0.,-1.));
#868=DIRECTION('ref_axis',(0.,1.,0.));
#869=DIRECTION('center_axis',(0.,0.,1.));
#870=DIRECTION('ref_axis',(0.,1.,0.));
#871=DIRECTION('',(0.,0.,-1.));
#872=DIRECTION('center_axis',(-1.,3.35731442646652E-13,0.));
#873=DIRECTION('ref_axis',(3.35731442646652E-13,1.,0.));
#874=DIRECTION('',(-3.35731442646652E-13,-1.,0.));
#875=DIRECTION('',(0.,0.,-1.));
#876=DIRECTION('center_axis',(9.33877154675918E-14,1.,0.));
#877=DIRECTION('ref_axis',(1.,-9.33877154675918E-14,0.));
#878=DIRECTION('',(-1.,9.33877154675918E-14,0.));
#879=DIRECTION('',(0.,0.,-1.));
#880=DIRECTION('center_axis',(1.,-4.62474503137855E-12,0.));
#881=DIRECTION('ref_axis',(-4.62474503137855E-12,-1.,0.));
#882=DIRECTION('',(4.62474503137855E-12,1.,0.));
#883=DIRECTION('',(0.,0.,-1.));
#884=DIRECTION('center_axis',(0.,0.,-1.));
#885=DIRECTION('ref_axis',(1.,0.,0.));
#886=DIRECTION('center_axis',(0.,0.,1.));
#887=DIRECTION('ref_axis',(1.,0.,0.));
#888=DIRECTION('',(0.,0.,-1.));
#889=DIRECTION('center_axis',(0.,1.,0.));
#890=DIRECTION('ref_axis',(1.,0.,0.));
#891=DIRECTION('',(-1.,0.,0.));
#892=DIRECTION('',(0.,0.,-1.));
#893=DIRECTION('center_axis',(1.,-3.73860236585884E-12,0.));
#894=DIRECTION('ref_axis',(-3.73860236585884E-12,-1.,0.));
#895=DIRECTION('',(3.73860236585884E-12,1.,0.));
#896=DIRECTION('',(0.,0.,-1.));
#897=DIRECTION('center_axis',(0.,0.,-1.));
#898=DIRECTION('ref_axis',(-0.805236869472681,0.592953273067816,0.));
#899=DIRECTION('center_axis',(0.,0.,-1.));
#900=DIRECTION('ref_axis',(-0.805236869472681,0.592953273067816,0.));
#901=DIRECTION('',(0.,0.,-1.));
#902=DIRECTION('center_axis',(0.,0.,-1.));
#903=DIRECTION('ref_axis',(0.805236869476623,0.592953273062463,0.));
#904=DIRECTION('center_axis',(0.,0.,-1.));
#905=DIRECTION('ref_axis',(0.805236869476623,0.592953273062463,0.));
#906=DIRECTION('',(0.,0.,-1.));
#907=DIRECTION('center_axis',(0.,0.,-1.));
#908=DIRECTION('ref_axis',(1.,0.,0.));
#909=DIRECTION('center_axis',(0.,0.,-1.));
#910=DIRECTION('ref_axis',(1.,0.,0.));
#911=DIRECTION('',(0.,0.,-1.));
#912=DIRECTION('center_axis',(0.,0.,-1.));
#913=DIRECTION('ref_axis',(0.805236869476623,0.592953273062463,0.));
#914=DIRECTION('center_axis',(0.,0.,-1.));
#915=DIRECTION('ref_axis',(0.805236869476623,0.592953273062463,0.));
#916=DIRECTION('',(0.,0.,-1.));
#917=DIRECTION('center_axis',(0.,0.,-1.));
#918=DIRECTION('ref_axis',(1.,0.,0.));
#919=DIRECTION('center_axis',(0.,0.,-1.));
#920=DIRECTION('ref_axis',(1.,0.,0.));
#921=DIRECTION('',(0.,0.,-1.));
#922=DIRECTION('center_axis',(0.,0.,-1.));
#923=DIRECTION('ref_axis',(0.805236869476623,0.592953273062463,0.));
#924=DIRECTION('center_axis',(0.,0.,-1.));
#925=DIRECTION('ref_axis',(0.805236869476623,0.592953273062463,0.));
#926=DIRECTION('center_axis',(0.,0.,-1.));
#927=DIRECTION('ref_axis',(1.,0.,0.));
#928=DIRECTION('',(0.,0.,1.));
#929=DIRECTION('center_axis',(0.,0.,-1.));
#930=DIRECTION('ref_axis',(1.,0.,0.));
#931=DIRECTION('center_axis',(0.,0.,-1.));
#932=DIRECTION('ref_axis',(1.,0.,0.));
#933=DIRECTION('',(0.,0.,1.));
#934=DIRECTION('center_axis',(0.,0.,-1.));
#935=DIRECTION('ref_axis',(1.,0.,0.));
#936=DIRECTION('center_axis',(0.,0.,-1.));
#937=DIRECTION('ref_axis',(1.,1.50102152929759E-13,0.));
#938=DIRECTION('',(0.,0.,-1.));
#939=DIRECTION('center_axis',(0.,0.,1.));
#940=DIRECTION('ref_axis',(1.,1.50102152929759E-13,0.));
#941=DIRECTION('center_axis',(0.,0.,-1.));
#942=DIRECTION('ref_axis',(0.805236869477989,0.592953273060608,0.));
#943=DIRECTION('',(0.,0.,-1.));
#944=DIRECTION('center_axis',(0.,0.,1.));
#945=DIRECTION('ref_axis',(0.805236869477989,0.592953273060608,0.));
#946=DIRECTION('center_axis',(0.,0.,-1.));
#947=DIRECTION('ref_axis',(-0.805236869472604,0.592953273067921,0.));
#948=DIRECTION('',(0.,0.,-1.));
#949=DIRECTION('center_axis',(0.,0.,1.));
#950=DIRECTION('ref_axis',(-0.805236869472604,0.592953273067921,0.));
#951=DIRECTION('center_axis',(-1.,3.82246382104687E-12,0.));
#952=DIRECTION('ref_axis',(3.82246382104687E-12,1.,0.));
#953=DIRECTION('',(-3.82246382104687E-12,-1.,0.));
#954=DIRECTION('center_axis',(0.,0.,1.));
#955=DIRECTION('ref_axis',(1.,0.,0.));
#956=CARTESIAN_POINT('',(0.,0.,0.));
#957=CARTESIAN_POINT('Origin',(69.250000000047,16.6468316014379,-19.));
#958=CARTESIAN_POINT('',(70.2500000000277,-47.9999999999985,-18.));
#959=CARTESIAN_POINT('',(68.2500000000278,-47.9999999999979,-20.));
#960=CARTESIAN_POINT('',(70.2500000000277,-47.9999999999985,-18.));
#961=CARTESIAN_POINT('',(68.2500000000504,28.0436632029695,-20.));
#962=CARTESIAN_POINT('',(68.250000000047,16.6468316014382,-20.));
#963=CARTESIAN_POINT('',(70.2499999999922,28.0436632029689,-18.));
#964=CARTESIAN_POINT('',(68.2500000000504,28.0436632029695,-20.));
#965=CARTESIAN_POINT('',(70.250000000047,16.6468316014376,-18.));
#966=CARTESIAN_POINT('Origin',(60.2500000000195,-48.,-19.));
#967=CARTESIAN_POINT('',(60.2500000000121,-57.9999999999999,-18.));
#968=CARTESIAN_POINT('',(60.2500000000136,-56.,-20.));
#969=CARTESIAN_POINT('',(60.2500000000121,-57.9999999999999,-18.));
#970=CARTESIAN_POINT('Origin',(60.2500000000195,-48.,-20.));
#971=CARTESIAN_POINT('Origin',(60.2500000000195,-48.,-18.));
#972=CARTESIAN_POINT('Origin',(30.1250000000246,-57.,-19.));
#973=CARTESIAN_POINT('',(-60.2499999999664,-58.,-18.));
#974=CARTESIAN_POINT('',(-60.2499999999664,-56.,-20.));
#975=CARTESIAN_POINT('',(-60.2499999999664,-58.,-18.));
#976=CARTESIAN_POINT('',(30.1250000000246,-56.,-20.));
#977=CARTESIAN_POINT('',(30.1250000000246,-58.,-18.));
#978=CARTESIAN_POINT('Origin',(-60.2499999999543,-47.9999999999943,-19.));
#979=CARTESIAN_POINT('',(-70.2499999999544,-47.9999999999561,-18.));
#980=CARTESIAN_POINT('',(-68.24999999995,-47.9999999999637,-20.));
#981=CARTESIAN_POINT('',(-70.2499999999544,-47.9999999999561,-18.));
#982=CARTESIAN_POINT('Origin',(-60.2499999999543,-47.9999999999943,-20.));
#983=CARTESIAN_POINT('Origin',(-60.2499999999543,-47.9999999999943,-18.));
#984=CARTESIAN_POINT('Origin',(-69.2499999998483,-21.3749999998841,-19.));
#985=CARTESIAN_POINT('',(-70.2499999996692,28.043663203546,-18.));
#986=CARTESIAN_POINT('',(-68.2499999996594,28.0436632035383,-20.));
#987=CARTESIAN_POINT('',(-70.2499999996692,28.043663203546,-18.));
#988=CARTESIAN_POINT('',(-68.2499999998483,-21.3749999998879,-20.));
#989=CARTESIAN_POINT('',(-70.2499999998483,-21.3749999998802,-18.));
#990=CARTESIAN_POINT('Origin',(-60.2499999995077,28.0436632035117,-19.));
#991=CARTESIAN_POINT('',(-68.3023686943638,33.9731959342867,-18.));
#992=CARTESIAN_POINT('',(-66.6918949554186,32.7872893881508,-20.));
#993=CARTESIAN_POINT('',(-68.3023686943638,33.9731959342867,-18.));
#994=CARTESIAN_POINT('Origin',(-60.2499999995077,28.0436632035117,-20.));
#995=CARTESIAN_POINT('Origin',(-60.2499999995077,28.0436632035117,-18.));
#996=CARTESIAN_POINT('Origin',(7.21556148164382E-11,-16.3227040810521,-19.));
#997=CARTESIAN_POINT('',(68.3023686947915,33.9731959335376,-18.));
#998=CARTESIAN_POINT('',(66.6918949558831,32.7872893874514,-20.));
#999=CARTESIAN_POINT('',(68.3023686947915,33.9731959335376,-18.));
#1000=CARTESIAN_POINT('Origin',(7.21556148164382E-11,-16.3227040810521,
-20.));
#1001=CARTESIAN_POINT('Origin',(7.21556148164382E-11,-16.3227040810521,
-18.));
#1002=CARTESIAN_POINT('Origin',(60.2500000000214,28.0436632029674,-19.));
#1003=CARTESIAN_POINT('Origin',(60.2500000000214,28.0436632029674,-20.));
#1004=CARTESIAN_POINT('Origin',(60.2500000000214,28.0436632029674,-18.));
#1005=CARTESIAN_POINT('Origin',(-60.2499999999543,-47.9999999999943,0.));
#1006=CARTESIAN_POINT('',(-60.2499999999664,-58.,0.));
#1007=CARTESIAN_POINT('',(-60.2499999999664,-58.,0.));
#1008=CARTESIAN_POINT('',(-70.2499999999544,-47.9999999999561,0.));
#1009=CARTESIAN_POINT('Origin',(-60.2499999999543,-47.9999999999943,0.));
#1010=CARTESIAN_POINT('',(-70.2499999999544,-47.9999999999561,0.));
#1011=CARTESIAN_POINT('Origin',(60.2500000000121,-58.,0.));
#1012=CARTESIAN_POINT('',(60.2500000000121,-57.9999999999999,0.));
#1013=CARTESIAN_POINT('',(60.2500000000121,-57.9999999999999,0.));
#1014=CARTESIAN_POINT('',(-60.2499999999664,-58.,0.));
#1015=CARTESIAN_POINT('Origin',(60.2500000000195,-48.,0.));
#1016=CARTESIAN_POINT('',(70.2500000000277,-47.9999999999985,0.));
#1017=CARTESIAN_POINT('',(70.2500000000277,-47.9999999999985,0.));
#1018=CARTESIAN_POINT('Origin',(60.2500000000195,-48.,0.));
#1019=CARTESIAN_POINT('Origin',(70.2500000000504,28.0436632029689,0.));
#1020=CARTESIAN_POINT('',(70.2499999999922,28.0436632029689,0.));
#1021=CARTESIAN_POINT('',(70.2499999999922,28.0436632029689,0.));
#1022=CARTESIAN_POINT('',(70.2500000000248,-58.,0.));
#1023=CARTESIAN_POINT('Origin',(3.71169761592682E-11,5.24999999992712,-20.));
#1024=CARTESIAN_POINT('',(65.8866580862008,32.1943361144789,-20.));
#1025=CARTESIAN_POINT('',(64.0759763647379,34.5617154990906,-20.));
#1026=CARTESIAN_POINT('Origin',(6.97664148674448E-11,-16.3227040810495,
-20.));
#1027=CARTESIAN_POINT('',(63.0446587134057,35.834039594263,-20.));
#1028=CARTESIAN_POINT('Origin',(62.2500000000025,34.1357632536128,-20.));
#1029=CARTESIAN_POINT('',(-62.9984774915485,35.8898110549916,-20.));
#1030=CARTESIAN_POINT('Origin',(6.97664148674448E-11,-16.3227040810495,
-20.));
#1031=CARTESIAN_POINT('',(-64.0022178094347,34.6544576539668,-20.));
#1032=CARTESIAN_POINT('Origin',(-62.1827376005055,34.2015594652808,-20.));
#1033=CARTESIAN_POINT('',(-65.8866580859592,32.1943361150822,-20.));
#1034=CARTESIAN_POINT('Origin',(6.97664148674448E-11,-16.3227040810495,
-20.));
#1035=CARTESIAN_POINT('',(-67.2499999996602,28.0436632035383,-20.));
#1036=CARTESIAN_POINT('Origin',(-60.2499999995204,28.0436632035117,-20.));
#1037=CARTESIAN_POINT('',(-67.2499999999333,-45.,-20.));
#1038=CARTESIAN_POINT('',(-67.2499999996602,28.0436632035383,-20.));
#1039=CARTESIAN_POINT('',(-60.2499999999601,-44.9999999999933,-20.));
#1040=CARTESIAN_POINT('',(-70.2499999999519,-45.,-20.));
#1041=CARTESIAN_POINT('',(-57.2499999999438,-48.,-20.));
#1042=CARTESIAN_POINT('Origin',(-60.2499999999504,-48.,-20.));
#1043=CARTESIAN_POINT('',(-57.2499999999761,-54.9999999999896,-20.));
#1044=CARTESIAN_POINT('',(-57.2499999999438,-48.,-20.));
#1045=CARTESIAN_POINT('',(57.2500000000175,-55.0000000000002,-20.));
#1046=CARTESIAN_POINT('',(-60.2500092496574,-54.9999999999893,-20.));
#1047=CARTESIAN_POINT('',(57.2500000000198,-48.,-20.));
#1048=CARTESIAN_POINT('',(57.2500000000198,-48.,-20.));
#1049=CARTESIAN_POINT('',(60.2500000000199,-45.,-20.));
#1050=CARTESIAN_POINT('Origin',(60.2500000000199,-48.,-20.));
#1051=CARTESIAN_POINT('',(67.2500000000025,-45.,-20.));
#1052=CARTESIAN_POINT('',(70.2500000000286,-45.,-20.));
#1053=CARTESIAN_POINT('',(67.2499999998742,28.0436632029374,-20.));
#1054=CARTESIAN_POINT('',(67.2500000000078,-47.9999999999878,-20.));
#1055=CARTESIAN_POINT('Origin',(60.2500000000634,28.0436632029687,-20.));
#1056=CARTESIAN_POINT('',(60.3750000000198,-50.,-20.));
#1057=CARTESIAN_POINT('Origin',(62.2500000000198,-50.,-20.));
#1058=CARTESIAN_POINT('',(-64.12499999999,-50.,-20.));
#1059=CARTESIAN_POINT('Origin',(-62.24999999999,-50.,-20.));
#1060=CARTESIAN_POINT('Origin',(60.2500000000634,28.0436632029687,0.));
#1061=CARTESIAN_POINT('',(65.8866580862008,32.194336114479,0.));
#1062=CARTESIAN_POINT('',(67.2499999998742,28.0436632029374,0.));
#1063=CARTESIAN_POINT('Origin',(60.2500000000634,28.0436632029687,0.));
#1064=CARTESIAN_POINT('',(65.8866580862008,32.194336114479,0.));
#1065=CARTESIAN_POINT('',(67.2499999998742,28.0436632029374,0.));
#1066=CARTESIAN_POINT('Origin',(67.2500000000025,-45.,0.));
#1067=CARTESIAN_POINT('',(67.2500000000025,-45.,0.));
#1068=CARTESIAN_POINT('',(67.2500000000078,-47.9999999999878,0.));
#1069=CARTESIAN_POINT('',(67.2500000000025,-45.,0.));
#1070=CARTESIAN_POINT('Origin',(60.2500000000199,-45.,0.));
#1071=CARTESIAN_POINT('',(60.2500000000199,-45.,0.));
#1072=CARTESIAN_POINT('',(70.2500000000286,-45.,0.));
#1073=CARTESIAN_POINT('',(60.2500000000199,-45.,0.));
#1074=CARTESIAN_POINT('Origin',(60.2500000000199,-48.,0.));
#1075=CARTESIAN_POINT('',(57.2500000000198,-48.,0.));
#1076=CARTESIAN_POINT('Origin',(60.2500000000199,-48.,0.));
#1077=CARTESIAN_POINT('',(57.2500000000198,-48.,0.));
#1078=CARTESIAN_POINT('Origin',(57.2500000000175,-55.0000000000002,0.));
#1079=CARTESIAN_POINT('',(57.2500000000175,-55.0000000000002,0.));
#1080=CARTESIAN_POINT('',(57.2500000000198,-48.,0.));
#1081=CARTESIAN_POINT('',(57.2500000000175,-55.0000000000002,0.));
#1082=CARTESIAN_POINT('Origin',(-57.2499999999761,-54.9999999999896,0.));
#1083=CARTESIAN_POINT('',(-57.2499999999761,-54.9999999999896,0.));
#1084=CARTESIAN_POINT('',(-60.2500092496574,-54.9999999999893,0.));
#1085=CARTESIAN_POINT('',(-57.2499999999761,-54.9999999999896,0.));
#1086=CARTESIAN_POINT('Origin',(-57.2499999999438,-48.,0.));
#1087=CARTESIAN_POINT('',(-57.2499999999438,-48.,0.));
#1088=CARTESIAN_POINT('',(-57.2499999999438,-48.,0.));
#1089=CARTESIAN_POINT('',(-57.2499999999438,-48.,0.));
#1090=CARTESIAN_POINT('Origin',(-60.2499999999504,-48.,0.));
#1091=CARTESIAN_POINT('',(-60.2499999999601,-44.9999999999933,0.));
#1092=CARTESIAN_POINT('Origin',(-60.2499999999504,-48.,0.));
#1093=CARTESIAN_POINT('',(-60.2499999999601,-44.9999999999933,0.));
#1094=CARTESIAN_POINT('Origin',(-67.2499999999333,-45.,0.));
#1095=CARTESIAN_POINT('',(-67.2499999999333,-45.,0.));
#1096=CARTESIAN_POINT('',(-70.2499999999519,-45.,0.));
#1097=CARTESIAN_POINT('',(-67.2499999999333,-45.,0.));
#1098=CARTESIAN_POINT('Origin',(-67.2499999996602,28.0436632035383,0.));
#1099=CARTESIAN_POINT('',(-67.2499999996602,28.0436632035383,0.));
#1100=CARTESIAN_POINT('',(-67.2499999996602,28.0436632035383,0.));
#1101=CARTESIAN_POINT('',(-67.2499999996602,28.0436632035383,0.));
#1102=CARTESIAN_POINT('Origin',(-60.2499999995204,28.0436632035117,0.));
#1103=CARTESIAN_POINT('',(-65.8866580859592,32.1943361150822,0.));
#1104=CARTESIAN_POINT('Origin',(-60.2499999995204,28.0436632035117,0.));
#1105=CARTESIAN_POINT('',(-65.8866580859592,32.1943361150822,0.));
#1106=CARTESIAN_POINT('Origin',(6.97664148674448E-11,-16.3227040810495,
0.));
#1107=CARTESIAN_POINT('',(-64.0022178094347,34.6544576539668,0.));
#1108=CARTESIAN_POINT('Origin',(6.97664148674448E-11,-16.3227040810495,
0.));
#1109=CARTESIAN_POINT('',(-64.0022178094347,34.6544576539668,0.));
#1110=CARTESIAN_POINT('Origin',(-62.1827376005055,34.2015594652808,0.));
#1111=CARTESIAN_POINT('',(-62.9984774915485,35.8898110549916,0.));
#1112=CARTESIAN_POINT('Origin',(-62.1827376005055,34.2015594652808,0.));
#1113=CARTESIAN_POINT('',(-62.9984774915485,35.8898110549916,0.));
#1114=CARTESIAN_POINT('Origin',(6.97664148674448E-11,-16.3227040810495,
0.));
#1115=CARTESIAN_POINT('',(63.0446587134057,35.834039594263,0.));
#1116=CARTESIAN_POINT('Origin',(6.97664148674448E-11,-16.3227040810495,
0.));
#1117=CARTESIAN_POINT('',(63.0446587134057,35.834039594263,0.));
#1118=CARTESIAN_POINT('Origin',(62.2500000000025,34.1357632536128,0.));
#1119=CARTESIAN_POINT('',(64.0759763647379,34.5617154990906,0.));
#1120=CARTESIAN_POINT('Origin',(62.2500000000025,34.1357632536128,0.));
#1121=CARTESIAN_POINT('',(64.0759763647379,34.5617154990906,0.));
#1122=CARTESIAN_POINT('Origin',(6.97664148674448E-11,-16.3227040810495,
0.));
#1123=CARTESIAN_POINT('Origin',(6.97664148674448E-11,-16.3227040810495,
0.));
#1124=CARTESIAN_POINT('Origin',(62.2500000000198,-50.,0.));
#1125=CARTESIAN_POINT('',(60.3750000000198,-50.,0.));
#1126=CARTESIAN_POINT('',(60.3750000000198,-50.,0.));
#1127=CARTESIAN_POINT('Origin',(62.2500000000198,-50.,0.));
#1128=CARTESIAN_POINT('Origin',(-62.24999999999,-50.,0.));
#1129=CARTESIAN_POINT('',(-64.12499999999,-50.,0.));
#1130=CARTESIAN_POINT('',(-64.12499999999,-50.,0.));
#1131=CARTESIAN_POINT('Origin',(-62.24999999999,-50.,0.));
#1132=CARTESIAN_POINT('Origin',(60.2500000000214,28.0436632029674,0.));
#1133=CARTESIAN_POINT('',(68.3023686947915,33.9731959335376,0.));
#1134=CARTESIAN_POINT('',(68.3023686947915,33.9731959335376,0.));
#1135=CARTESIAN_POINT('Origin',(60.2500000000214,28.0436632029674,0.));
#1136=CARTESIAN_POINT('Origin',(7.21556148164382E-11,-16.3227040810521,
0.));
#1137=CARTESIAN_POINT('',(-68.3023686943638,33.9731959342867,0.));
#1138=CARTESIAN_POINT('',(-68.3023686943638,33.9731959342867,0.));
#1139=CARTESIAN_POINT('Origin',(7.21556148164382E-11,-16.3227040810521,
0.));
#1140=CARTESIAN_POINT('Origin',(-60.2499999995077,28.0436632035117,0.));
#1141=CARTESIAN_POINT('',(-70.2499999996692,28.043663203546,0.));
#1142=CARTESIAN_POINT('',(-70.2499999996692,28.043663203546,0.));
#1143=CARTESIAN_POINT('Origin',(-60.2499999995077,28.0436632035117,0.));
#1144=CARTESIAN_POINT('Origin',(-70.24999999995,-47.9999999999561,0.));
#1145=CARTESIAN_POINT('',(-70.2499999996594,28.043663203546,0.));
#1146=CARTESIAN_POINT('Origin',(3.71169761592682E-11,5.24999999992712,0.));
#1147=UNCERTAINTY_MEASURE_WITH_UNIT(LENGTH_MEASURE(0.01),#1151,
'DISTANCE_ACCURACY_VALUE',
'Maximum model space distance between geometric entities at asserted c
onnectivities');
#1148=UNCERTAINTY_MEASURE_WITH_UNIT(LENGTH_MEASURE(0.01),#1151,
'DISTANCE_ACCURACY_VALUE',
'Maximum model space distance between geometric entities at asserted c
onnectivities');
#1149=(
GEOMETRIC_REPRESENTATION_CONTEXT(3)
GLOBAL_UNCERTAINTY_ASSIGNED_CONTEXT((#1147))
GLOBAL_UNIT_ASSIGNED_CONTEXT((#1151,#1153,#1154))
REPRESENTATION_CONTEXT('','3D')
);
#1150=(
GEOMETRIC_REPRESENTATION_CONTEXT(3)
GLOBAL_UNCERTAINTY_ASSIGNED_CONTEXT((#1148))
GLOBAL_UNIT_ASSIGNED_CONTEXT((#1151,#1153,#1154))
REPRESENTATION_CONTEXT('','3D')
);
#1151=(
LENGTH_UNIT()
NAMED_UNIT(*)
SI_UNIT(.MILLI.,.METRE.)
);
#1152=(
LENGTH_UNIT()
NAMED_UNIT(*)
SI_UNIT($,.METRE.)
);
#1153=(
NAMED_UNIT(*)
PLANE_ANGLE_UNIT()
SI_UNIT($,.RADIAN.)
);
#1154=(
NAMED_UNIT(*)
SI_UNIT($,.STERADIAN.)
SOLID_ANGLE_UNIT()
);
#1155=SHAPE_DEFINITION_REPRESENTATION(#1156,#1157);
#1156=PRODUCT_DEFINITION_SHAPE('',$,#1159);
#1157=SHAPE_REPRESENTATION('',(#677),#1149);
#1158=PRODUCT_DEFINITION_CONTEXT('part definition',#1163,'design');
#1159=PRODUCT_DEFINITION('2026-08-24-20-33-40-916',
'ThymioAdapterExtension',#1160,#1158);
#1160=PRODUCT_DEFINITION_FORMATION('',$,#1165);
#1161=PRODUCT_RELATED_PRODUCT_CATEGORY('ThymioAdapterExtension',
'ThymioAdapterExtension',(#1165));
#1162=APPLICATION_PROTOCOL_DEFINITION('international standard',
'automotive_design',2009,#1163);
#1163=APPLICATION_CONTEXT(
'Core Data for Automotive Mechanical Design Process');
#1164=PRODUCT_CONTEXT('part definition',#1163,'mechanical');
#1165=PRODUCT('2026-08-24-20-33-40-916','ThymioAdapterExtension',$,(#1164));
#1166=PRESENTATION_STYLE_ASSIGNMENT((#1167));
#1167=SURFACE_STYLE_USAGE(.BOTH.,#1168);
#1168=SURFACE_SIDE_STYLE('',(#1169));
#1169=SURFACE_STYLE_FILL_AREA(#1170);
#1170=FILL_AREA_STYLE('Steel - Satin',(#1171));
#1171=FILL_AREA_STYLE_COLOUR('Steel - Satin',#1172);
#1172=COLOUR_RGB('Steel - Satin',0.627450980392157,0.627450980392157,0.627450980392157);
ENDSEC;
END-ISO-10303-21;
