ISO-10303-21;
HEADER;
/* Generated by software containing ST-Developer
 * from STEP Tools, Inc. (www.steptools.com) 
 */

FILE_DESCRIPTION(
/* description */ (''),
/* implementation_level */ '2;1');

FILE_NAME(
/* name */ 'ThymioSkinCover.step',
/* time_stamp */ '2026-08-24T20:33:55+01:00',
/* author */ (''),
/* organization */ (''),
/* preprocessor_version */ 'ST-DEVELOPER v20.1',
/* originating_system */ 'Autodesk Translation Framework v15.8.0.0',
/* authorisation */ '');

FILE_SCHEMA (('AUTOMOTIVE_DESIGN { 1 0 10303 214 3 1 1 }'));
ENDSEC;

DATA;
#10=MECHANICAL_DESIGN_GEOMETRIC_PRESENTATION_REPRESENTATION('',(#13),#1223);
#11=SHAPE_REPRESENTATION_RELATIONSHIP('SRR','None',#1230,#12);
#12=ADVANCED_BREP_SHAPE_REPRESENTATION('',(#14),#1222);
#13=STYLED_ITEM('',(#1239),#14);
#14=MANIFOLD_SOLID_BREP('Body1',#699);
#15=LINE('',#1029,#65);
#16=LINE('',#1032,#66);
#17=LINE('',#1042,#67);
#18=LINE('',#1045,#68);
#19=LINE('',#1055,#69);
#20=LINE('',#1058,#70);
#21=LINE('',#1068,#71);
#22=LINE('',#1071,#72);
#23=LINE('',#1076,#73);
#24=LINE('',#1080,#74);
#25=LINE('',#1088,#75);
#26=LINE('',#1098,#76);
#27=LINE('',#1102,#77);
#28=LINE('',#1105,#78);
#29=LINE('',#1108,#79);
#30=LINE('',#1111,#80);
#31=LINE('',#1115,#81);
#32=LINE('',#1118,#82);
#33=LINE('',#1119,#83);
#34=LINE('',#1123,#84);
#35=LINE('',#1126,#85);
#36=LINE('',#1127,#86);
#37=LINE('',#1131,#87);
#38=LINE('',#1134,#88);
#39=LINE('',#1135,#89);
#40=LINE('',#1143,#90);
#41=LINE('',#1147,#91);
#42=LINE('',#1154,#92);
#43=LINE('',#1158,#93);
#44=LINE('',#1159,#94);
#45=LINE('',#1160,#95);
#46=LINE('',#1164,#96);
#47=LINE('',#1167,#97);
#48=LINE('',#1168,#98);
#49=LINE('',#1172,#99);
#50=LINE('',#1176,#100);
#51=LINE('',#1180,#101);
#52=LINE('',#1183,#102);
#53=LINE('',#1184,#103);
#54=LINE('',#1191,#104);
#55=LINE('',#1192,#105);
#56=LINE('',#1195,#106);
#57=LINE('',#1196,#107);
#58=LINE('',#1200,#108);
#59=LINE('',#1204,#109);
#60=LINE('',#1208,#110);
#61=LINE('',#1211,#111);
#62=LINE('',#1212,#112);
#63=LINE('',#1216,#113);
#64=LINE('',#1218,#114);
#65=VECTOR('',#810,2.125);
#66=VECTOR('',#813,1.25);
#67=VECTOR('',#826,2.125);
#68=VECTOR('',#829,1.25);
#69=VECTOR('',#842,2.125);
#70=VECTOR('',#845,1.25);
#71=VECTOR('',#858,2.125);
#72=VECTOR('',#861,1.25);
#73=VECTOR('',#866,10.);
#74=VECTOR('',#869,10.);
#75=VECTOR('',#876,10.);
#76=VECTOR('',#885,10.);
#77=VECTOR('',#888,10.);
#78=VECTOR('',#891,10.);
#79=VECTOR('',#894,10.);
#80=VECTOR('',#897,10.);
#81=VECTOR('',#902,10.);
#82=VECTOR('',#905,10.);
#83=VECTOR('',#906,10.);
#84=VECTOR('',#911,10.);
#85=VECTOR('',#914,10.);
#86=VECTOR('',#915,10.);
#87=VECTOR('',#920,10.);
#88=VECTOR('',#923,10.);
#89=VECTOR('',#924,10.);
#90=VECTOR('',#933,10.);
#91=VECTOR('',#936,10.);
#92=VECTOR('',#943,10.);
#93=VECTOR('',#946,10.);
#94=VECTOR('',#947,10.);
#95=VECTOR('',#948,10.);
#96=VECTOR('',#953,10.);
#97=VECTOR('',#956,10.);
#98=VECTOR('',#957,10.);
#99=VECTOR('',#962,10.);
#100=VECTOR('',#967,10.);
#101=VECTOR('',#972,10.);
#102=VECTOR('',#975,10.);
#103=VECTOR('',#976,10.);
#104=VECTOR('',#985,10.);
#105=VECTOR('',#986,10.);
#106=VECTOR('',#989,10.);
#107=VECTOR('',#990,10.);
#108=VECTOR('',#995,10.);
#109=VECTOR('',#1000,10.);
#110=VECTOR('',#1005,10.);
#111=VECTOR('',#1008,10.);
#112=VECTOR('',#1009,10.);
#113=VECTOR('',#1014,10.);
#114=VECTOR('',#1017,10.);
#115=CYLINDRICAL_SURFACE('',#716,2.125);
#116=CYLINDRICAL_SURFACE('',#718,1.25);
#117=CYLINDRICAL_SURFACE('',#723,2.125);
#118=CYLINDRICAL_SURFACE('',#725,1.25);
#119=CYLINDRICAL_SURFACE('',#730,2.125);
#120=CYLINDRICAL_SURFACE('',#732,1.25);
#121=CYLINDRICAL_SURFACE('',#737,2.125);
#122=CYLINDRICAL_SURFACE('',#739,1.25);
#123=CYLINDRICAL_SURFACE('',#752,76.8227040807222);
#124=CYLINDRICAL_SURFACE('',#754,1.99999999988604);
#125=CYLINDRICAL_SURFACE('',#757,1.9999999999877);
#126=CYLINDRICAL_SURFACE('',#760,2.00000000000055);
#127=CYLINDRICAL_SURFACE('',#763,1.99999999981074);
#128=CYLINDRICAL_SURFACE('',#772,7.00000000000054);
#129=CYLINDRICAL_SURFACE('',#775,6.99999999981074);
#130=CYLINDRICAL_SURFACE('',#777,81.8227040807222);
#131=CYLINDRICAL_SURFACE('',#779,6.99999999988604);
#132=CYLINDRICAL_SURFACE('',#782,6.99999999998609);
#133=CYLINDRICAL_SURFACE('',#784,10.0000000000001);
#134=CYLINDRICAL_SURFACE('',#787,13.9999999999455);
#135=CYLINDRICAL_SURFACE('',#789,88.8227040808472);
#136=CYLINDRICAL_SURFACE('',#791,13.9999999999708);
#137=CYLINDRICAL_SURFACE('',#794,9.99999999999996);
#138=FACE_BOUND('',#193,.T.);
#139=FACE_BOUND('',#197,.T.);
#140=FACE_BOUND('',#201,.T.);
#141=FACE_BOUND('',#205,.T.);
#142=FACE_BOUND('',#209,.T.);
#143=FACE_BOUND('',#219,.T.);
#144=FACE_BOUND('',#220,.T.);
#145=FACE_BOUND('',#221,.T.);
#146=FACE_BOUND('',#222,.T.);
#147=FACE_BOUND('',#223,.T.);
#148=FACE_BOUND('',#241,.T.);
#149=FACE_BOUND('',#242,.T.);
#150=FACE_BOUND('',#243,.T.);
#151=FACE_BOUND('',#244,.T.);
#152=FACE_BOUND('',#245,.T.);
#153=FACE_OUTER_BOUND('',#192,.T.);
#154=FACE_OUTER_BOUND('',#194,.T.);
#155=FACE_OUTER_BOUND('',#195,.T.);
#156=FACE_OUTER_BOUND('',#196,.T.);
#157=FACE_OUTER_BOUND('',#198,.T.);
#158=FACE_OUTER_BOUND('',#199,.T.);
#159=FACE_OUTER_BOUND('',#200,.T.);
#160=FACE_OUTER_BOUND('',#202,.T.);
#161=FACE_OUTER_BOUND('',#203,.T.);
#162=FACE_OUTER_BOUND('',#204,.T.);
#163=FACE_OUTER_BOUND('',#206,.T.);
#164=FACE_OUTER_BOUND('',#207,.T.);
#165=FACE_OUTER_BOUND('',#208,.T.);
#166=FACE_OUTER_BOUND('',#210,.T.);
#167=FACE_OUTER_BOUND('',#211,.T.);
#168=FACE_OUTER_BOUND('',#212,.T.);
#169=FACE_OUTER_BOUND('',#213,.T.);
#170=FACE_OUTER_BOUND('',#214,.T.);
#171=FACE_OUTER_BOUND('',#215,.T.);
#172=FACE_OUTER_BOUND('',#216,.T.);
#173=FACE_OUTER_BOUND('',#217,.T.);
#174=FACE_OUTER_BOUND('',#218,.T.);
#175=FACE_OUTER_BOUND('',#224,.T.);
#176=FACE_OUTER_BOUND('',#225,.T.);
#177=FACE_OUTER_BOUND('',#226,.T.);
#178=FACE_OUTER_BOUND('',#227,.T.);
#179=FACE_OUTER_BOUND('',#228,.T.);
#180=FACE_OUTER_BOUND('',#229,.T.);
#181=FACE_OUTER_BOUND('',#230,.T.);
#182=FACE_OUTER_BOUND('',#231,.T.);
#183=FACE_OUTER_BOUND('',#232,.T.);
#184=FACE_OUTER_BOUND('',#233,.T.);
#185=FACE_OUTER_BOUND('',#234,.T.);
#186=FACE_OUTER_BOUND('',#235,.T.);
#187=FACE_OUTER_BOUND('',#236,.T.);
#188=FACE_OUTER_BOUND('',#237,.T.);
#189=FACE_OUTER_BOUND('',#238,.T.);
#190=FACE_OUTER_BOUND('',#239,.T.);
#191=FACE_OUTER_BOUND('',#240,.T.);
#192=EDGE_LOOP('',(#452));
#193=EDGE_LOOP('',(#453));
#194=EDGE_LOOP('',(#454,#455,#456,#457));
#195=EDGE_LOOP('',(#458,#459,#460,#461));
#196=EDGE_LOOP('',(#462));
#197=EDGE_LOOP('',(#463));
#198=EDGE_LOOP('',(#464,#465,#466,#467));
#199=EDGE_LOOP('',(#468,#469,#470,#471));
#200=EDGE_LOOP('',(#472));
#201=EDGE_LOOP('',(#473));
#202=EDGE_LOOP('',(#474,#475,#476,#477));
#203=EDGE_LOOP('',(#478,#479,#480,#481));
#204=EDGE_LOOP('',(#482));
#205=EDGE_LOOP('',(#483));
#206=EDGE_LOOP('',(#484,#485,#486,#487));
#207=EDGE_LOOP('',(#488,#489,#490,#491));
#208=EDGE_LOOP('',(#492,#493,#494,#495,#496,#497,#498,#499));
#209=EDGE_LOOP('',(#500,#501,#502,#503,#504,#505,#506,#507));
#210=EDGE_LOOP('',(#508,#509,#510,#511));
#211=EDGE_LOOP('',(#512,#513,#514,#515));
#212=EDGE_LOOP('',(#516,#517,#518,#519));
#213=EDGE_LOOP('',(#520,#521,#522,#523));
#214=EDGE_LOOP('',(#524,#525,#526,#527));
#215=EDGE_LOOP('',(#528,#529,#530,#531));
#216=EDGE_LOOP('',(#532,#533,#534,#535));
#217=EDGE_LOOP('',(#536,#537,#538,#539));
#218=EDGE_LOOP('',(#540,#541,#542,#543,#544,#545,#546,#547));
#219=EDGE_LOOP('',(#548,#549,#550,#551,#552,#553,#554,#555));
#220=EDGE_LOOP('',(#556));
#221=EDGE_LOOP('',(#557));
#222=EDGE_LOOP('',(#558));
#223=EDGE_LOOP('',(#559));
#224=EDGE_LOOP('',(#560,#561,#562,#563));
#225=EDGE_LOOP('',(#564,#565,#566,#567));
#226=EDGE_LOOP('',(#568,#569,#570,#571));
#227=EDGE_LOOP('',(#572,#573,#574,#575));
#228=EDGE_LOOP('',(#576,#577,#578,#579));
#229=EDGE_LOOP('',(#580,#581,#582,#583));
#230=EDGE_LOOP('',(#584,#585,#586,#587));
#231=EDGE_LOOP('',(#588,#589,#590,#591));
#232=EDGE_LOOP('',(#592,#593,#594,#595));
#233=EDGE_LOOP('',(#596,#597,#598,#599));
#234=EDGE_LOOP('',(#600,#601,#602,#603));
#235=EDGE_LOOP('',(#604,#605,#606,#607));
#236=EDGE_LOOP('',(#608,#609,#610,#611));
#237=EDGE_LOOP('',(#612,#613,#614,#615));
#238=EDGE_LOOP('',(#616,#617,#618,#619));
#239=EDGE_LOOP('',(#620,#621,#622,#623));
#240=EDGE_LOOP('',(#624,#625,#626,#627,#628,#629,#630,#631));
#241=EDGE_LOOP('',(#632,#633,#634,#635,#636,#637,#638,#639));
#242=EDGE_LOOP('',(#640));
#243=EDGE_LOOP('',(#641));
#244=EDGE_LOOP('',(#642));
#245=EDGE_LOOP('',(#643));
#246=CIRCLE('',#714,2.125);
#247=CIRCLE('',#715,1.25);
#248=CIRCLE('',#717,2.125);
#249=CIRCLE('',#719,1.25);
#250=CIRCLE('',#721,2.125);
#251=CIRCLE('',#722,1.25);
#252=CIRCLE('',#724,2.125);
#253=CIRCLE('',#726,1.25);
#254=CIRCLE('',#728,2.125);
#255=CIRCLE('',#729,1.25);
#256=CIRCLE('',#731,2.125);
#257=CIRCLE('',#733,1.25);
#258=CIRCLE('',#735,2.125);
#259=CIRCLE('',#736,1.25);
#260=CIRCLE('',#738,2.125);
#261=CIRCLE('',#740,1.25);
#262=CIRCLE('',#742,6.99999999998609);
#263=CIRCLE('',#743,6.99999999988604);
#264=CIRCLE('',#744,81.8227040807222);
#265=CIRCLE('',#745,6.99999999981074);
#266=CIRCLE('',#746,7.00000000000054);
#267=CIRCLE('',#747,1.99999999981074);
#268=CIRCLE('',#748,76.8227040807222);
#269=CIRCLE('',#749,1.99999999988604);
#270=CIRCLE('',#750,1.9999999999877);
#271=CIRCLE('',#751,2.00000000000055);
#272=CIRCLE('',#753,76.8227040807222);
#273=CIRCLE('',#755,1.99999999988604);
#274=CIRCLE('',#758,1.9999999999877);
#275=CIRCLE('',#761,2.00000000000055);
#276=CIRCLE('',#764,1.99999999981074);
#277=CIRCLE('',#766,10.0000000000001);
#278=CIRCLE('',#767,9.99999999999996);
#279=CIRCLE('',#768,13.9999999999288);
#280=CIRCLE('',#769,88.8227040808477);
#281=CIRCLE('',#770,13.9999999999354);
#282=CIRCLE('',#773,7.00000000000054);
#283=CIRCLE('',#776,6.99999999981074);
#284=CIRCLE('',#778,81.8227040807222);
#285=CIRCLE('',#780,6.99999999988604);
#286=CIRCLE('',#783,6.99999999998609);
#287=CIRCLE('',#785,10.0000000000001);
#288=CIRCLE('',#788,13.9999999999455);
#289=CIRCLE('',#790,88.8227040808472);
#290=CIRCLE('',#792,13.9999999999708);
#291=CIRCLE('',#795,9.99999999999996);
#292=VERTEX_POINT('',#1022);
#293=VERTEX_POINT('',#1024);
#294=VERTEX_POINT('',#1027);
#295=VERTEX_POINT('',#1031);
#296=VERTEX_POINT('',#1035);
#297=VERTEX_POINT('',#1037);
#298=VERTEX_POINT('',#1040);
#299=VERTEX_POINT('',#1044);
#300=VERTEX_POINT('',#1048);
#301=VERTEX_POINT('',#1050);
#302=VERTEX_POINT('',#1053);
#303=VERTEX_POINT('',#1057);
#304=VERTEX_POINT('',#1061);
#305=VERTEX_POINT('',#1063);
#306=VERTEX_POINT('',#1066);
#307=VERTEX_POINT('',#1070);
#308=VERTEX_POINT('',#1074);
#309=VERTEX_POINT('',#1075);
#310=VERTEX_POINT('',#1077);
#311=VERTEX_POINT('',#1079);
#312=VERTEX_POINT('',#1081);
#313=VERTEX_POINT('',#1083);
#314=VERTEX_POINT('',#1085);
#315=VERTEX_POINT('',#1087);
#316=VERTEX_POINT('',#1090);
#317=VERTEX_POINT('',#1091);
#318=VERTEX_POINT('',#1093);
#319=VERTEX_POINT('',#1095);
#320=VERTEX_POINT('',#1097);
#321=VERTEX_POINT('',#1099);
#322=VERTEX_POINT('',#1101);
#323=VERTEX_POINT('',#1103);
#324=VERTEX_POINT('',#1107);
#325=VERTEX_POINT('',#1109);
#326=VERTEX_POINT('',#1113);
#327=VERTEX_POINT('',#1117);
#328=VERTEX_POINT('',#1121);
#329=VERTEX_POINT('',#1125);
#330=VERTEX_POINT('',#1129);
#331=VERTEX_POINT('',#1133);
#332=VERTEX_POINT('',#1139);
#333=VERTEX_POINT('',#1140);
#334=VERTEX_POINT('',#1142);
#335=VERTEX_POINT('',#1144);
#336=VERTEX_POINT('',#1146);
#337=VERTEX_POINT('',#1148);
#338=VERTEX_POINT('',#1150);
#339=VERTEX_POINT('',#1152);
#340=VERTEX_POINT('',#1156);
#341=VERTEX_POINT('',#1157);
#342=VERTEX_POINT('',#1162);
#343=VERTEX_POINT('',#1166);
#344=VERTEX_POINT('',#1170);
#345=VERTEX_POINT('',#1174);
#346=VERTEX_POINT('',#1178);
#347=VERTEX_POINT('',#1182);
#348=VERTEX_POINT('',#1188);
#349=VERTEX_POINT('',#1189);
#350=VERTEX_POINT('',#1194);
#351=VERTEX_POINT('',#1198);
#352=VERTEX_POINT('',#1202);
#353=VERTEX_POINT('',#1206);
#354=VERTEX_POINT('',#1210);
#355=VERTEX_POINT('',#1214);
#356=EDGE_CURVE('',#292,#292,#246,.T.);
#357=EDGE_CURVE('',#293,#293,#247,.T.);
#358=EDGE_CURVE('',#294,#294,#248,.T.);
#359=EDGE_CURVE('',#294,#292,#15,.T.);
#360=EDGE_CURVE('',#293,#295,#16,.T.);
#361=EDGE_CURVE('',#295,#295,#249,.T.);
#362=EDGE_CURVE('',#296,#296,#250,.T.);
#363=EDGE_CURVE('',#297,#297,#251,.T.);
#364=EDGE_CURVE('',#298,#298,#252,.T.);
#365=EDGE_CURVE('',#298,#296,#17,.T.);
#366=EDGE_CURVE('',#297,#299,#18,.T.);
#367=EDGE_CURVE('',#299,#299,#253,.T.);
#368=EDGE_CURVE('',#300,#300,#254,.T.);
#369=EDGE_CURVE('',#301,#301,#255,.T.);
#370=EDGE_CURVE('',#302,#302,#256,.T.);
#371=EDGE_CURVE('',#302,#300,#19,.T.);
#372=EDGE_CURVE('',#301,#303,#20,.T.);
#373=EDGE_CURVE('',#303,#303,#257,.T.);
#374=EDGE_CURVE('',#304,#304,#258,.T.);
#375=EDGE_CURVE('',#305,#305,#259,.T.);
#376=EDGE_CURVE('',#306,#306,#260,.T.);
#377=EDGE_CURVE('',#306,#304,#21,.T.);
#378=EDGE_CURVE('',#305,#307,#22,.T.);
#379=EDGE_CURVE('',#307,#307,#261,.T.);
#380=EDGE_CURVE('',#308,#309,#23,.T.);
#381=EDGE_CURVE('',#309,#310,#262,.T.);
#382=EDGE_CURVE('',#310,#311,#24,.T.);
#383=EDGE_CURVE('',#311,#312,#263,.T.);
#384=EDGE_CURVE('',#312,#313,#264,.T.);
#385=EDGE_CURVE('',#313,#314,#265,.T.);
#386=EDGE_CURVE('',#314,#315,#25,.T.);
#387=EDGE_CURVE('',#315,#308,#266,.T.);
#388=EDGE_CURVE('',#316,#317,#267,.T.);
#389=EDGE_CURVE('',#318,#316,#268,.T.);
#390=EDGE_CURVE('',#319,#318,#269,.T.);
#391=EDGE_CURVE('',#320,#319,#26,.T.);
#392=EDGE_CURVE('',#321,#320,#270,.T.);
#393=EDGE_CURVE('',#322,#321,#27,.T.);
#394=EDGE_CURVE('',#323,#322,#271,.T.);
#395=EDGE_CURVE('',#317,#323,#28,.T.);
#396=EDGE_CURVE('',#316,#324,#29,.T.);
#397=EDGE_CURVE('',#325,#324,#272,.T.);
#398=EDGE_CURVE('',#318,#325,#30,.T.);
#399=EDGE_CURVE('',#326,#325,#273,.T.);
#400=EDGE_CURVE('',#319,#326,#31,.T.);
#401=EDGE_CURVE('',#327,#326,#32,.T.);
#402=EDGE_CURVE('',#320,#327,#33,.T.);
#403=EDGE_CURVE('',#328,#327,#274,.T.);
#404=EDGE_CURVE('',#321,#328,#34,.T.);
#405=EDGE_CURVE('',#329,#328,#35,.T.);
#406=EDGE_CURVE('',#322,#329,#36,.T.);
#407=EDGE_CURVE('',#330,#329,#275,.T.);
#408=EDGE_CURVE('',#323,#330,#37,.T.);
#409=EDGE_CURVE('',#331,#330,#38,.T.);
#410=EDGE_CURVE('',#317,#331,#39,.T.);
#411=EDGE_CURVE('',#324,#331,#276,.T.);
#412=EDGE_CURVE('',#332,#333,#277,.T.);
#413=EDGE_CURVE('',#333,#334,#40,.T.);
#414=EDGE_CURVE('',#334,#335,#278,.T.);
#415=EDGE_CURVE('',#335,#336,#41,.T.);
#416=EDGE_CURVE('',#336,#337,#279,.T.);
#417=EDGE_CURVE('',#337,#338,#280,.T.);
#418=EDGE_CURVE('',#338,#339,#281,.T.);
#419=EDGE_CURVE('',#339,#332,#42,.T.);
#420=EDGE_CURVE('',#340,#341,#43,.T.);
#421=EDGE_CURVE('',#341,#309,#44,.T.);
#422=EDGE_CURVE('',#340,#308,#45,.T.);
#423=EDGE_CURVE('',#342,#340,#282,.T.);
#424=EDGE_CURVE('',#342,#315,#46,.T.);
#425=EDGE_CURVE('',#343,#342,#47,.T.);
#426=EDGE_CURVE('',#343,#314,#48,.T.);
#427=EDGE_CURVE('',#344,#343,#283,.T.);
#428=EDGE_CURVE('',#344,#313,#49,.T.);
#429=EDGE_CURVE('',#345,#344,#284,.T.);
#430=EDGE_CURVE('',#345,#312,#50,.T.);
#431=EDGE_CURVE('',#346,#345,#285,.T.);
#432=EDGE_CURVE('',#346,#311,#51,.T.);
#433=EDGE_CURVE('',#347,#346,#52,.T.);
#434=EDGE_CURVE('',#347,#310,#53,.T.);
#435=EDGE_CURVE('',#341,#347,#286,.T.);
#436=EDGE_CURVE('',#348,#349,#287,.T.);
#437=EDGE_CURVE('',#349,#333,#54,.T.);
#438=EDGE_CURVE('',#348,#332,#55,.T.);
#439=EDGE_CURVE('',#350,#348,#56,.T.);
#440=EDGE_CURVE('',#350,#339,#57,.T.);
#441=EDGE_CURVE('',#351,#350,#288,.T.);
#442=EDGE_CURVE('',#351,#338,#58,.T.);
#443=EDGE_CURVE('',#352,#351,#289,.T.);
#444=EDGE_CURVE('',#352,#337,#59,.T.);
#445=EDGE_CURVE('',#353,#352,#290,.T.);
#446=EDGE_CURVE('',#353,#336,#60,.T.);
#447=EDGE_CURVE('',#354,#353,#61,.T.);
#448=EDGE_CURVE('',#354,#335,#62,.T.);
#449=EDGE_CURVE('',#355,#354,#291,.T.);
#450=EDGE_CURVE('',#355,#334,#63,.T.);
#451=EDGE_CURVE('',#349,#355,#64,.T.);
#452=ORIENTED_EDGE('',*,*,#356,.F.);
#453=ORIENTED_EDGE('',*,*,#357,.T.);
#454=ORIENTED_EDGE('',*,*,#358,.F.);
#455=ORIENTED_EDGE('',*,*,#359,.T.);
#456=ORIENTED_EDGE('',*,*,#356,.T.);
#457=ORIENTED_EDGE('',*,*,#359,.F.);
#458=ORIENTED_EDGE('',*,*,#357,.F.);
#459=ORIENTED_EDGE('',*,*,#360,.T.);
#460=ORIENTED_EDGE('',*,*,#361,.F.);
#461=ORIENTED_EDGE('',*,*,#360,.F.);
#462=ORIENTED_EDGE('',*,*,#362,.F.);
#463=ORIENTED_EDGE('',*,*,#363,.T.);
#464=ORIENTED_EDGE('',*,*,#364,.F.);
#465=ORIENTED_EDGE('',*,*,#365,.T.);
#466=ORIENTED_EDGE('',*,*,#362,.T.);
#467=ORIENTED_EDGE('',*,*,#365,.F.);
#468=ORIENTED_EDGE('',*,*,#363,.F.);
#469=ORIENTED_EDGE('',*,*,#366,.T.);
#470=ORIENTED_EDGE('',*,*,#367,.F.);
#471=ORIENTED_EDGE('',*,*,#366,.F.);
#472=ORIENTED_EDGE('',*,*,#368,.F.);
#473=ORIENTED_EDGE('',*,*,#369,.T.);
#474=ORIENTED_EDGE('',*,*,#370,.F.);
#475=ORIENTED_EDGE('',*,*,#371,.T.);
#476=ORIENTED_EDGE('',*,*,#368,.T.);
#477=ORIENTED_EDGE('',*,*,#371,.F.);
#478=ORIENTED_EDGE('',*,*,#369,.F.);
#479=ORIENTED_EDGE('',*,*,#372,.T.);
#480=ORIENTED_EDGE('',*,*,#373,.F.);
#481=ORIENTED_EDGE('',*,*,#372,.F.);
#482=ORIENTED_EDGE('',*,*,#374,.F.);
#483=ORIENTED_EDGE('',*,*,#375,.T.);
#484=ORIENTED_EDGE('',*,*,#376,.F.);
#485=ORIENTED_EDGE('',*,*,#377,.T.);
#486=ORIENTED_EDGE('',*,*,#374,.T.);
#487=ORIENTED_EDGE('',*,*,#377,.F.);
#488=ORIENTED_EDGE('',*,*,#375,.F.);
#489=ORIENTED_EDGE('',*,*,#378,.T.);
#490=ORIENTED_EDGE('',*,*,#379,.F.);
#491=ORIENTED_EDGE('',*,*,#378,.F.);
#492=ORIENTED_EDGE('',*,*,#380,.T.);
#493=ORIENTED_EDGE('',*,*,#381,.T.);
#494=ORIENTED_EDGE('',*,*,#382,.T.);
#495=ORIENTED_EDGE('',*,*,#383,.T.);
#496=ORIENTED_EDGE('',*,*,#384,.T.);
#497=ORIENTED_EDGE('',*,*,#385,.T.);
#498=ORIENTED_EDGE('',*,*,#386,.T.);
#499=ORIENTED_EDGE('',*,*,#387,.T.);
#500=ORIENTED_EDGE('',*,*,#388,.F.);
#501=ORIENTED_EDGE('',*,*,#389,.F.);
#502=ORIENTED_EDGE('',*,*,#390,.F.);
#503=ORIENTED_EDGE('',*,*,#391,.F.);
#504=ORIENTED_EDGE('',*,*,#392,.F.);
#505=ORIENTED_EDGE('',*,*,#393,.F.);
#506=ORIENTED_EDGE('',*,*,#394,.F.);
#507=ORIENTED_EDGE('',*,*,#395,.F.);
#508=ORIENTED_EDGE('',*,*,#389,.T.);
#509=ORIENTED_EDGE('',*,*,#396,.T.);
#510=ORIENTED_EDGE('',*,*,#397,.F.);
#511=ORIENTED_EDGE('',*,*,#398,.F.);
#512=ORIENTED_EDGE('',*,*,#390,.T.);
#513=ORIENTED_EDGE('',*,*,#398,.T.);
#514=ORIENTED_EDGE('',*,*,#399,.F.);
#515=ORIENTED_EDGE('',*,*,#400,.F.);
#516=ORIENTED_EDGE('',*,*,#391,.T.);
#517=ORIENTED_EDGE('',*,*,#400,.T.);
#518=ORIENTED_EDGE('',*,*,#401,.F.);
#519=ORIENTED_EDGE('',*,*,#402,.F.);
#520=ORIENTED_EDGE('',*,*,#392,.T.);
#521=ORIENTED_EDGE('',*,*,#402,.T.);
#522=ORIENTED_EDGE('',*,*,#403,.F.);
#523=ORIENTED_EDGE('',*,*,#404,.F.);
#524=ORIENTED_EDGE('',*,*,#393,.T.);
#525=ORIENTED_EDGE('',*,*,#404,.T.);
#526=ORIENTED_EDGE('',*,*,#405,.F.);
#527=ORIENTED_EDGE('',*,*,#406,.F.);
#528=ORIENTED_EDGE('',*,*,#394,.T.);
#529=ORIENTED_EDGE('',*,*,#406,.T.);
#530=ORIENTED_EDGE('',*,*,#407,.F.);
#531=ORIENTED_EDGE('',*,*,#408,.F.);
#532=ORIENTED_EDGE('',*,*,#395,.T.);
#533=ORIENTED_EDGE('',*,*,#408,.T.);
#534=ORIENTED_EDGE('',*,*,#409,.F.);
#535=ORIENTED_EDGE('',*,*,#410,.F.);
#536=ORIENTED_EDGE('',*,*,#388,.T.);
#537=ORIENTED_EDGE('',*,*,#410,.T.);
#538=ORIENTED_EDGE('',*,*,#411,.F.);
#539=ORIENTED_EDGE('',*,*,#396,.F.);
#540=ORIENTED_EDGE('',*,*,#412,.T.);
#541=ORIENTED_EDGE('',*,*,#413,.T.);
#542=ORIENTED_EDGE('',*,*,#414,.T.);
#543=ORIENTED_EDGE('',*,*,#415,.T.);
#544=ORIENTED_EDGE('',*,*,#416,.T.);
#545=ORIENTED_EDGE('',*,*,#417,.T.);
#546=ORIENTED_EDGE('',*,*,#418,.T.);
#547=ORIENTED_EDGE('',*,*,#419,.T.);
#548=ORIENTED_EDGE('',*,*,#411,.T.);
#549=ORIENTED_EDGE('',*,*,#409,.T.);
#550=ORIENTED_EDGE('',*,*,#407,.T.);
#551=ORIENTED_EDGE('',*,*,#405,.T.);
#552=ORIENTED_EDGE('',*,*,#403,.T.);
#553=ORIENTED_EDGE('',*,*,#401,.T.);
#554=ORIENTED_EDGE('',*,*,#399,.T.);
#555=ORIENTED_EDGE('',*,*,#397,.T.);
#556=ORIENTED_EDGE('',*,*,#376,.T.);
#557=ORIENTED_EDGE('',*,*,#370,.T.);
#558=ORIENTED_EDGE('',*,*,#364,.T.);
#559=ORIENTED_EDGE('',*,*,#358,.T.);
#560=ORIENTED_EDGE('',*,*,#420,.T.);
#561=ORIENTED_EDGE('',*,*,#421,.T.);
#562=ORIENTED_EDGE('',*,*,#380,.F.);
#563=ORIENTED_EDGE('',*,*,#422,.F.);
#564=ORIENTED_EDGE('',*,*,#423,.T.);
#565=ORIENTED_EDGE('',*,*,#422,.T.);
#566=ORIENTED_EDGE('',*,*,#387,.F.);
#567=ORIENTED_EDGE('',*,*,#424,.F.);
#568=ORIENTED_EDGE('',*,*,#425,.T.);
#569=ORIENTED_EDGE('',*,*,#424,.T.);
#570=ORIENTED_EDGE('',*,*,#386,.F.);
#571=ORIENTED_EDGE('',*,*,#426,.F.);
#572=ORIENTED_EDGE('',*,*,#427,.T.);
#573=ORIENTED_EDGE('',*,*,#426,.T.);
#574=ORIENTED_EDGE('',*,*,#385,.F.);
#575=ORIENTED_EDGE('',*,*,#428,.F.);
#576=ORIENTED_EDGE('',*,*,#429,.T.);
#577=ORIENTED_EDGE('',*,*,#428,.T.);
#578=ORIENTED_EDGE('',*,*,#384,.F.);
#579=ORIENTED_EDGE('',*,*,#430,.F.);
#580=ORIENTED_EDGE('',*,*,#431,.T.);
#581=ORIENTED_EDGE('',*,*,#430,.T.);
#582=ORIENTED_EDGE('',*,*,#383,.F.);
#583=ORIENTED_EDGE('',*,*,#432,.F.);
#584=ORIENTED_EDGE('',*,*,#433,.T.);
#585=ORIENTED_EDGE('',*,*,#432,.T.);
#586=ORIENTED_EDGE('',*,*,#382,.F.);
#587=ORIENTED_EDGE('',*,*,#434,.F.);
#588=ORIENTED_EDGE('',*,*,#435,.T.);
#589=ORIENTED_EDGE('',*,*,#434,.T.);
#590=ORIENTED_EDGE('',*,*,#381,.F.);
#591=ORIENTED_EDGE('',*,*,#421,.F.);
#592=ORIENTED_EDGE('',*,*,#436,.T.);
#593=ORIENTED_EDGE('',*,*,#437,.T.);
#594=ORIENTED_EDGE('',*,*,#412,.F.);
#595=ORIENTED_EDGE('',*,*,#438,.F.);
#596=ORIENTED_EDGE('',*,*,#439,.T.);
#597=ORIENTED_EDGE('',*,*,#438,.T.);
#598=ORIENTED_EDGE('',*,*,#419,.F.);
#599=ORIENTED_EDGE('',*,*,#440,.F.);
#600=ORIENTED_EDGE('',*,*,#441,.T.);
#601=ORIENTED_EDGE('',*,*,#440,.T.);
#602=ORIENTED_EDGE('',*,*,#418,.F.);
#603=ORIENTED_EDGE('',*,*,#442,.F.);
#604=ORIENTED_EDGE('',*,*,#443,.T.);
#605=ORIENTED_EDGE('',*,*,#442,.T.);
#606=ORIENTED_EDGE('',*,*,#417,.F.);
#607=ORIENTED_EDGE('',*,*,#444,.F.);
#608=ORIENTED_EDGE('',*,*,#445,.T.);
#609=ORIENTED_EDGE('',*,*,#444,.T.);
#610=ORIENTED_EDGE('',*,*,#416,.F.);
#611=ORIENTED_EDGE('',*,*,#446,.F.);
#612=ORIENTED_EDGE('',*,*,#447,.T.);
#613=ORIENTED_EDGE('',*,*,#446,.T.);
#614=ORIENTED_EDGE('',*,*,#415,.F.);
#615=ORIENTED_EDGE('',*,*,#448,.F.);
#616=ORIENTED_EDGE('',*,*,#449,.T.);
#617=ORIENTED_EDGE('',*,*,#448,.T.);
#618=ORIENTED_EDGE('',*,*,#414,.F.);
#619=ORIENTED_EDGE('',*,*,#450,.F.);
#620=ORIENTED_EDGE('',*,*,#451,.T.);
#621=ORIENTED_EDGE('',*,*,#450,.T.);
#622=ORIENTED_EDGE('',*,*,#413,.F.);
#623=ORIENTED_EDGE('',*,*,#437,.F.);
#624=ORIENTED_EDGE('',*,*,#451,.F.);
#625=ORIENTED_EDGE('',*,*,#436,.F.);
#626=ORIENTED_EDGE('',*,*,#439,.F.);
#627=ORIENTED_EDGE('',*,*,#441,.F.);
#628=ORIENTED_EDGE('',*,*,#443,.F.);
#629=ORIENTED_EDGE('',*,*,#445,.F.);
#630=ORIENTED_EDGE('',*,*,#447,.F.);
#631=ORIENTED_EDGE('',*,*,#449,.F.);
#632=ORIENTED_EDGE('',*,*,#435,.F.);
#633=ORIENTED_EDGE('',*,*,#420,.F.);
#634=ORIENTED_EDGE('',*,*,#423,.F.);
#635=ORIENTED_EDGE('',*,*,#425,.F.);
#636=ORIENTED_EDGE('',*,*,#427,.F.);
#637=ORIENTED_EDGE('',*,*,#429,.F.);
#638=ORIENTED_EDGE('',*,*,#431,.F.);
#639=ORIENTED_EDGE('',*,*,#433,.F.);
#640=ORIENTED_EDGE('',*,*,#379,.T.);
#641=ORIENTED_EDGE('',*,*,#373,.T.);
#642=ORIENTED_EDGE('',*,*,#367,.T.);
#643=ORIENTED_EDGE('',*,*,#361,.T.);
#644=PLANE('',#713);
#645=PLANE('',#720);
#646=PLANE('',#727);
#647=PLANE('',#734);
#648=PLANE('',#741);
#649=PLANE('',#756);
#650=PLANE('',#759);
#651=PLANE('',#762);
#652=PLANE('',#765);
#653=PLANE('',#771);
#654=PLANE('',#774);
#655=PLANE('',#781);
#656=PLANE('',#786);
#657=PLANE('',#793);
#658=PLANE('',#796);
#659=PLANE('',#797);
#660=ADVANCED_FACE('',(#153,#138),#644,.F.);
#661=ADVANCED_FACE('',(#154),#115,.F.);
#662=ADVANCED_FACE('',(#155),#116,.F.);
#663=ADVANCED_FACE('',(#156,#139),#645,.F.);
#664=ADVANCED_FACE('',(#157),#117,.F.);
#665=ADVANCED_FACE('',(#158),#118,.F.);
#666=ADVANCED_FACE('',(#159,#140),#646,.F.);
#667=ADVANCED_FACE('',(#160),#119,.F.);
#668=ADVANCED_FACE('',(#161),#120,.F.);
#669=ADVANCED_FACE('',(#162,#141),#647,.F.);
#670=ADVANCED_FACE('',(#163),#121,.F.);
#671=ADVANCED_FACE('',(#164),#122,.F.);
#672=ADVANCED_FACE('',(#165,#142),#648,.F.);
#673=ADVANCED_FACE('',(#166),#123,.F.);
#674=ADVANCED_FACE('',(#167),#124,.F.);
#675=ADVANCED_FACE('',(#168),#649,.T.);
#676=ADVANCED_FACE('',(#169),#125,.F.);
#677=ADVANCED_FACE('',(#170),#650,.T.);
#678=ADVANCED_FACE('',(#171),#126,.F.);
#679=ADVANCED_FACE('',(#172),#651,.T.);
#680=ADVANCED_FACE('',(#173),#127,.F.);
#681=ADVANCED_FACE('',(#174,#143,#144,#145,#146,#147),#652,.T.);
#682=ADVANCED_FACE('',(#175),#653,.T.);
#683=ADVANCED_FACE('',(#176),#128,.F.);
#684=ADVANCED_FACE('',(#177),#654,.T.);
#685=ADVANCED_FACE('',(#178),#129,.F.);
#686=ADVANCED_FACE('',(#179),#130,.F.);
#687=ADVANCED_FACE('',(#180),#131,.F.);
#688=ADVANCED_FACE('',(#181),#655,.T.);
#689=ADVANCED_FACE('',(#182),#132,.F.);
#690=ADVANCED_FACE('',(#183),#133,.T.);
#691=ADVANCED_FACE('',(#184),#656,.T.);
#692=ADVANCED_FACE('',(#185),#134,.T.);
#693=ADVANCED_FACE('',(#186),#135,.T.);
#694=ADVANCED_FACE('',(#187),#136,.T.);
#695=ADVANCED_FACE('',(#188),#657,.T.);
#696=ADVANCED_FACE('',(#189),#137,.T.);
#697=ADVANCED_FACE('',(#190),#658,.T.);
#698=ADVANCED_FACE('',(#191,#148,#149,#150,#151,#152),#659,.F.);
#699=CLOSED_SHELL('',(#660,#661,#662,#663,#664,#665,#666,#667,#668,#669,
#670,#671,#672,#673,#674,#675,#676,#677,#678,#679,#680,#681,#682,#683,#684,
#685,#686,#687,#688,#689,#690,#691,#692,#693,#694,#695,#696,#697,#698));
#700=DERIVED_UNIT_ELEMENT(#702,1.);
#701=DERIVED_UNIT_ELEMENT(#1225,-3.);
#702=(
MASS_UNIT()
NAMED_UNIT(*)
SI_UNIT(.KILO.,.GRAM.)
);
#703=DERIVED_UNIT((#700,#701));
#704=MEASURE_REPRESENTATION_ITEM('density measure',
POSITIVE_RATIO_MEASURE(7850.),#703);
#705=PROPERTY_DEFINITION_REPRESENTATION(#710,#707);
#706=PROPERTY_DEFINITION_REPRESENTATION(#711,#708);
#707=REPRESENTATION('material name',(#709),#1222);
#708=REPRESENTATION('density',(#704),#1222);
#709=DESCRIPTIVE_REPRESENTATION_ITEM('Steel','Steel');
#710=PROPERTY_DEFINITION('material property','material name',#1232);
#711=PROPERTY_DEFINITION('material property','density of part',#1232);
#712=AXIS2_PLACEMENT_3D('',#1020,#798,#799);
#713=AXIS2_PLACEMENT_3D('',#1021,#800,#801);
#714=AXIS2_PLACEMENT_3D('',#1023,#802,#803);
#715=AXIS2_PLACEMENT_3D('',#1025,#804,#805);
#716=AXIS2_PLACEMENT_3D('',#1026,#806,#807);
#717=AXIS2_PLACEMENT_3D('',#1028,#808,#809);
#718=AXIS2_PLACEMENT_3D('',#1030,#811,#812);
#719=AXIS2_PLACEMENT_3D('',#1033,#814,#815);
#720=AXIS2_PLACEMENT_3D('',#1034,#816,#817);
#721=AXIS2_PLACEMENT_3D('',#1036,#818,#819);
#722=AXIS2_PLACEMENT_3D('',#1038,#820,#821);
#723=AXIS2_PLACEMENT_3D('',#1039,#822,#823);
#724=AXIS2_PLACEMENT_3D('',#1041,#824,#825);
#725=AXIS2_PLACEMENT_3D('',#1043,#827,#828);
#726=AXIS2_PLACEMENT_3D('',#1046,#830,#831);
#727=AXIS2_PLACEMENT_3D('',#1047,#832,#833);
#728=AXIS2_PLACEMENT_3D('',#1049,#834,#835);
#729=AXIS2_PLACEMENT_3D('',#1051,#836,#837);
#730=AXIS2_PLACEMENT_3D('',#1052,#838,#839);
#731=AXIS2_PLACEMENT_3D('',#1054,#840,#841);
#732=AXIS2_PLACEMENT_3D('',#1056,#843,#844);
#733=AXIS2_PLACEMENT_3D('',#1059,#846,#847);
#734=AXIS2_PLACEMENT_3D('',#1060,#848,#849);
#735=AXIS2_PLACEMENT_3D('',#1062,#850,#851);
#736=AXIS2_PLACEMENT_3D('',#1064,#852,#853);
#737=AXIS2_PLACEMENT_3D('',#1065,#854,#855);
#738=AXIS2_PLACEMENT_3D('',#1067,#856,#857);
#739=AXIS2_PLACEMENT_3D('',#1069,#859,#860);
#740=AXIS2_PLACEMENT_3D('',#1072,#862,#863);
#741=AXIS2_PLACEMENT_3D('',#1073,#864,#865);
#742=AXIS2_PLACEMENT_3D('',#1078,#867,#868);
#743=AXIS2_PLACEMENT_3D('',#1082,#870,#871);
#744=AXIS2_PLACEMENT_3D('',#1084,#872,#873);
#745=AXIS2_PLACEMENT_3D('',#1086,#874,#875);
#746=AXIS2_PLACEMENT_3D('',#1089,#877,#878);
#747=AXIS2_PLACEMENT_3D('',#1092,#879,#880);
#748=AXIS2_PLACEMENT_3D('',#1094,#881,#882);
#749=AXIS2_PLACEMENT_3D('',#1096,#883,#884);
#750=AXIS2_PLACEMENT_3D('',#1100,#886,#887);
#751=AXIS2_PLACEMENT_3D('',#1104,#889,#890);
#752=AXIS2_PLACEMENT_3D('',#1106,#892,#893);
#753=AXIS2_PLACEMENT_3D('',#1110,#895,#896);
#754=AXIS2_PLACEMENT_3D('',#1112,#898,#899);
#755=AXIS2_PLACEMENT_3D('',#1114,#900,#901);
#756=AXIS2_PLACEMENT_3D('',#1116,#903,#904);
#757=AXIS2_PLACEMENT_3D('',#1120,#907,#908);
#758=AXIS2_PLACEMENT_3D('',#1122,#909,#910);
#759=AXIS2_PLACEMENT_3D('',#1124,#912,#913);
#760=AXIS2_PLACEMENT_3D('',#1128,#916,#917);
#761=AXIS2_PLACEMENT_3D('',#1130,#918,#919);
#762=AXIS2_PLACEMENT_3D('',#1132,#921,#922);
#763=AXIS2_PLACEMENT_3D('',#1136,#925,#926);
#764=AXIS2_PLACEMENT_3D('',#1137,#927,#928);
#765=AXIS2_PLACEMENT_3D('',#1138,#929,#930);
#766=AXIS2_PLACEMENT_3D('',#1141,#931,#932);
#767=AXIS2_PLACEMENT_3D('',#1145,#934,#935);
#768=AXIS2_PLACEMENT_3D('',#1149,#937,#938);
#769=AXIS2_PLACEMENT_3D('',#1151,#939,#940);
#770=AXIS2_PLACEMENT_3D('',#1153,#941,#942);
#771=AXIS2_PLACEMENT_3D('',#1155,#944,#945);
#772=AXIS2_PLACEMENT_3D('',#1161,#949,#950);
#773=AXIS2_PLACEMENT_3D('',#1163,#951,#952);
#774=AXIS2_PLACEMENT_3D('',#1165,#954,#955);
#775=AXIS2_PLACEMENT_3D('',#1169,#958,#959);
#776=AXIS2_PLACEMENT_3D('',#1171,#960,#961);
#777=AXIS2_PLACEMENT_3D('',#1173,#963,#964);
#778=AXIS2_PLACEMENT_3D('',#1175,#965,#966);
#779=AXIS2_PLACEMENT_3D('',#1177,#968,#969);
#780=AXIS2_PLACEMENT_3D('',#1179,#970,#971);
#781=AXIS2_PLACEMENT_3D('',#1181,#973,#974);
#782=AXIS2_PLACEMENT_3D('',#1185,#977,#978);
#783=AXIS2_PLACEMENT_3D('',#1186,#979,#980);
#784=AXIS2_PLACEMENT_3D('',#1187,#981,#982);
#785=AXIS2_PLACEMENT_3D('',#1190,#983,#984);
#786=AXIS2_PLACEMENT_3D('',#1193,#987,#988);
#787=AXIS2_PLACEMENT_3D('',#1197,#991,#992);
#788=AXIS2_PLACEMENT_3D('',#1199,#993,#994);
#789=AXIS2_PLACEMENT_3D('',#1201,#996,#997);
#790=AXIS2_PLACEMENT_3D('',#1203,#998,#999);
#791=AXIS2_PLACEMENT_3D('',#1205,#1001,#1002);
#792=AXIS2_PLACEMENT_3D('',#1207,#1003,#1004);
#793=AXIS2_PLACEMENT_3D('',#1209,#1006,#1007);
#794=AXIS2_PLACEMENT_3D('',#1213,#1010,#1011);
#795=AXIS2_PLACEMENT_3D('',#1215,#1012,#1013);
#796=AXIS2_PLACEMENT_3D('',#1217,#1015,#1016);
#797=AXIS2_PLACEMENT_3D('',#1219,#1018,#1019);
#798=DIRECTION('axis',(0.,0.,1.));
#799=DIRECTION('refdir',(1.,0.,0.));
#800=DIRECTION('center_axis',(0.,0.,-1.));
#801=DIRECTION('ref_axis',(1.,0.,0.));
#802=DIRECTION('center_axis',(0.,0.,-1.));
#803=DIRECTION('ref_axis',(1.,0.,0.));
#804=DIRECTION('center_axis',(0.,0.,-1.));
#805=DIRECTION('ref_axis',(1.,0.,0.));
#806=DIRECTION('center_axis',(0.,0.,-1.));
#807=DIRECTION('ref_axis',(1.,0.,0.));
#808=DIRECTION('center_axis',(0.,0.,-1.));
#809=DIRECTION('ref_axis',(1.,0.,0.));
#810=DIRECTION('',(0.,0.,-1.));
#811=DIRECTION('center_axis',(0.,0.,-1.));
#812=DIRECTION('ref_axis',(1.,0.,0.));
#813=DIRECTION('',(0.,0.,-1.));
#814=DIRECTION('center_axis',(0.,0.,1.));
#815=DIRECTION('ref_axis',(1.,0.,0.));
#816=DIRECTION('center_axis',(0.,0.,-1.));
#817=DIRECTION('ref_axis',(1.,0.,0.));
#818=DIRECTION('center_axis',(0.,0.,-1.));
#819=DIRECTION('ref_axis',(1.,0.,0.));
#820=DIRECTION('center_axis',(0.,0.,-1.));
#821=DIRECTION('ref_axis',(1.,0.,0.));
#822=DIRECTION('center_axis',(0.,0.,-1.));
#823=DIRECTION('ref_axis',(1.,0.,0.));
#824=DIRECTION('center_axis',(0.,0.,-1.));
#825=DIRECTION('ref_axis',(1.,0.,0.));
#826=DIRECTION('',(0.,0.,-1.));
#827=DIRECTION('center_axis',(0.,0.,-1.));
#828=DIRECTION('ref_axis',(1.,0.,0.));
#829=DIRECTION('',(0.,0.,-1.));
#830=DIRECTION('center_axis',(0.,0.,1.));
#831=DIRECTION('ref_axis',(1.,0.,0.));
#832=DIRECTION('center_axis',(0.,0.,-1.));
#833=DIRECTION('ref_axis',(1.,0.,0.));
#834=DIRECTION('center_axis',(0.,0.,-1.));
#835=DIRECTION('ref_axis',(1.,0.,0.));
#836=DIRECTION('center_axis',(0.,0.,-1.));
#837=DIRECTION('ref_axis',(1.,0.,0.));
#838=DIRECTION('center_axis',(0.,0.,-1.));
#839=DIRECTION('ref_axis',(1.,0.,0.));
#840=DIRECTION('center_axis',(0.,0.,-1.));
#841=DIRECTION('ref_axis',(1.,0.,0.));
#842=DIRECTION('',(0.,0.,-1.));
#843=DIRECTION('center_axis',(0.,0.,-1.));
#844=DIRECTION('ref_axis',(1.,0.,0.));
#845=DIRECTION('',(0.,0.,-1.));
#846=DIRECTION('center_axis',(0.,0.,1.));
#847=DIRECTION('ref_axis',(1.,0.,0.));
#848=DIRECTION('center_axis',(0.,0.,-1.));
#849=DIRECTION('ref_axis',(1.,0.,0.));
#850=DIRECTION('center_axis',(0.,0.,-1.));
#851=DIRECTION('ref_axis',(1.,0.,0.));
#852=DIRECTION('center_axis',(0.,0.,-1.));
#853=DIRECTION('ref_axis',(1.,0.,0.));
#854=DIRECTION('center_axis',(0.,0.,-1.));
#855=DIRECTION('ref_axis',(1.,0.,0.));
#856=DIRECTION('center_axis',(0.,0.,-1.));
#857=DIRECTION('ref_axis',(1.,0.,0.));
#858=DIRECTION('',(0.,0.,-1.));
#859=DIRECTION('center_axis',(0.,0.,-1.));
#860=DIRECTION('ref_axis',(1.,0.,0.));
#861=DIRECTION('',(0.,0.,-1.));
#862=DIRECTION('center_axis',(0.,0.,1.));
#863=DIRECTION('ref_axis',(1.,0.,0.));
#864=DIRECTION('center_axis',(0.,0.,1.));
#865=DIRECTION('ref_axis',(-1.,0.,0.));
#866=DIRECTION('',(-1.,9.33877154675918E-14,0.));
#867=DIRECTION('center_axis',(0.,0.,-1.));
#868=DIRECTION('ref_axis',(-0.999999999999908,-4.27987035019318E-7,0.));
#869=DIRECTION('',(3.4537308868895E-12,1.,0.));
#870=DIRECTION('center_axis',(0.,0.,-1.));
#871=DIRECTION('ref_axis',(-0.805236869472681,0.592953273067816,0.));
#872=DIRECTION('center_axis',(0.,0.,-1.));
#873=DIRECTION('ref_axis',(0.805236869476623,0.592953273062463,0.));
#874=DIRECTION('center_axis',(0.,0.,-1.));
#875=DIRECTION('ref_axis',(1.,-4.46373097227074E-12,0.));
#876=DIRECTION('',(1.84378078893585E-12,-1.,0.));
#877=DIRECTION('center_axis',(0.,0.,-1.));
#878=DIRECTION('ref_axis',(-7.63173651258843E-11,-1.,0.));
#879=DIRECTION('center_axis',(0.,0.,-1.));
#880=DIRECTION('ref_axis',(1.,-2.02327044026835E-11,0.));
#881=DIRECTION('center_axis',(0.,0.,-1.));
#882=DIRECTION('ref_axis',(0.805236869477597,0.59295327306114,0.));
#883=DIRECTION('center_axis',(0.,0.,-1.));
#884=DIRECTION('ref_axis',(-0.805236869472727,0.592953273067754,0.));
#885=DIRECTION('',(7.07646916618122E-12,1.,0.));
#886=DIRECTION('center_axis',(0.,0.,-1.));
#887=DIRECTION('ref_axis',(-0.999999999998878,-1.49796326010898E-6,0.));
#888=DIRECTION('',(-1.,1.8146848309991E-13,0.));
#889=DIRECTION('center_axis',(0.,0.,-1.));
#890=DIRECTION('ref_axis',(-2.66560107320328E-10,-1.,0.));
#891=DIRECTION('',(1.84378078893586E-12,-1.,0.));
#892=DIRECTION('center_axis',(0.,0.,1.));
#893=DIRECTION('ref_axis',(0.805236869477597,0.59295327306114,0.));
#894=DIRECTION('',(0.,0.,1.));
#895=DIRECTION('center_axis',(0.,0.,-1.));
#896=DIRECTION('ref_axis',(0.805236869477597,0.59295327306114,0.));
#897=DIRECTION('',(0.,0.,1.));
#898=DIRECTION('center_axis',(0.,0.,1.));
#899=DIRECTION('ref_axis',(-0.805236869472727,0.592953273067754,0.));
#900=DIRECTION('center_axis',(0.,0.,-1.));
#901=DIRECTION('ref_axis',(-0.805236869472727,0.592953273067754,0.));
#902=DIRECTION('',(0.,0.,1.));
#903=DIRECTION('center_axis',(1.,-7.07646916618122E-12,0.));
#904=DIRECTION('ref_axis',(7.07646916618122E-12,1.,0.));
#905=DIRECTION('',(7.07646916618122E-12,1.,0.));
#906=DIRECTION('',(0.,0.,1.));
#907=DIRECTION('center_axis',(0.,0.,1.));
#908=DIRECTION('ref_axis',(-0.999999999998878,-1.49796326010898E-6,0.));
#909=DIRECTION('center_axis',(0.,0.,-1.));
#910=DIRECTION('ref_axis',(-0.999999999998878,-1.49796326010898E-6,0.));
#911=DIRECTION('',(0.,0.,1.));
#912=DIRECTION('center_axis',(1.8146848309991E-13,1.,0.));
#913=DIRECTION('ref_axis',(-1.,1.8146848309991E-13,0.));
#914=DIRECTION('',(-1.,1.8146848309991E-13,0.));
#915=DIRECTION('',(0.,0.,1.));
#916=DIRECTION('center_axis',(0.,0.,1.));
#917=DIRECTION('ref_axis',(-2.66560107320328E-10,-1.,0.));
#918=DIRECTION('center_axis',(0.,0.,-1.));
#919=DIRECTION('ref_axis',(-2.66560107320328E-10,-1.,0.));
#920=DIRECTION('',(0.,0.,1.));
#921=DIRECTION('center_axis',(-1.,-1.84378078893586E-12,0.));
#922=DIRECTION('ref_axis',(1.84378078893586E-12,-1.,0.));
#923=DIRECTION('',(1.84378078893586E-12,-1.,0.));
#924=DIRECTION('',(0.,0.,1.));
#925=DIRECTION('center_axis',(0.,0.,1.));
#926=DIRECTION('ref_axis',(1.,-2.02327044026835E-11,0.));
#927=DIRECTION('center_axis',(0.,0.,-1.));
#928=DIRECTION('ref_axis',(1.,-2.02327044026835E-11,0.));
#929=DIRECTION('center_axis',(0.,0.,1.));
#930=DIRECTION('ref_axis',(-1.,0.,0.));
#931=DIRECTION('center_axis',(0.,0.,1.));
#932=DIRECTION('ref_axis',(-1.,5.75184344597795E-12,0.));
#933=DIRECTION('',(1.,-5.49495598179369E-14,0.));
#934=DIRECTION('center_axis',(0.,0.,1.));
#935=DIRECTION('ref_axis',(-2.66453525910039E-15,-1.,0.));
#936=DIRECTION('',(-3.58921725858152E-13,1.,0.));
#937=DIRECTION('center_axis',(0.,0.,1.));
#938=DIRECTION('ref_axis',(1.,1.19269673503195E-13,0.));
#939=DIRECTION('center_axis',(0.,0.,1.));
#940=DIRECTION('ref_axis',(0.805236869478075,0.592953273060492,0.));
#941=DIRECTION('center_axis',(0.,0.,1.));
#942=DIRECTION('ref_axis',(-0.805236869472283,0.592953273068357,0.));
#943=DIRECTION('',(-9.68142592130671E-12,-1.,0.));
#944=DIRECTION('center_axis',(9.33877154675918E-14,1.,0.));
#945=DIRECTION('ref_axis',(-1.,9.33877154675918E-14,0.));
#946=DIRECTION('',(-1.,9.33877154675918E-14,0.));
#947=DIRECTION('',(0.,0.,1.));
#948=DIRECTION('',(0.,0.,1.));
#949=DIRECTION('center_axis',(0.,0.,1.));
#950=DIRECTION('ref_axis',(-7.63173651258843E-11,-1.,0.));
#951=DIRECTION('center_axis',(0.,0.,-1.));
#952=DIRECTION('ref_axis',(-7.63173651258843E-11,-1.,0.));
#953=DIRECTION('',(0.,0.,1.));
#954=DIRECTION('center_axis',(-1.,-1.84378078893585E-12,0.));
#955=DIRECTION('ref_axis',(1.84378078893585E-12,-1.,0.));
#956=DIRECTION('',(1.84378078893585E-12,-1.,0.));
#957=DIRECTION('',(0.,0.,1.));
#958=DIRECTION('center_axis',(0.,0.,1.));
#959=DIRECTION('ref_axis',(1.,-4.46373097227074E-12,0.));
#960=DIRECTION('center_axis',(0.,0.,-1.));
#961=DIRECTION('ref_axis',(1.,-4.46373097227074E-12,0.));
#962=DIRECTION('',(0.,0.,1.));
#963=DIRECTION('center_axis',(0.,0.,1.));
#964=DIRECTION('ref_axis',(0.805236869476623,0.592953273062463,0.));
#965=DIRECTION('center_axis',(0.,0.,-1.));
#966=DIRECTION('ref_axis',(0.805236869476623,0.592953273062463,0.));
#967=DIRECTION('',(0.,0.,1.));
#968=DIRECTION('center_axis',(0.,0.,1.));
#969=DIRECTION('ref_axis',(-0.805236869472681,0.592953273067816,0.));
#970=DIRECTION('center_axis',(0.,0.,-1.));
#971=DIRECTION('ref_axis',(-0.805236869472681,0.592953273067816,0.));
#972=DIRECTION('',(0.,0.,1.));
#973=DIRECTION('center_axis',(1.,-3.4537308868895E-12,0.));
#974=DIRECTION('ref_axis',(3.4537308868895E-12,1.,0.));
#975=DIRECTION('',(3.4537308868895E-12,1.,0.));
#976=DIRECTION('',(0.,0.,1.));
#977=DIRECTION('center_axis',(0.,0.,1.));
#978=DIRECTION('ref_axis',(-0.999999999999908,-4.27987035019318E-7,0.));
#979=DIRECTION('center_axis',(0.,0.,-1.));
#980=DIRECTION('ref_axis',(-0.999999999999908,-4.27987035019318E-7,0.));
#981=DIRECTION('center_axis',(0.,0.,1.));
#982=DIRECTION('ref_axis',(-1.,5.75184344597795E-12,0.));
#983=DIRECTION('center_axis',(0.,0.,1.));
#984=DIRECTION('ref_axis',(-1.,5.75184344597795E-12,0.));
#985=DIRECTION('',(0.,0.,1.));
#986=DIRECTION('',(0.,0.,1.));
#987=DIRECTION('center_axis',(-1.,9.68142592130671E-12,0.));
#988=DIRECTION('ref_axis',(-9.68142592130671E-12,-1.,0.));
#989=DIRECTION('',(-9.68142592130671E-12,-1.,0.));
#990=DIRECTION('',(0.,0.,1.));
#991=DIRECTION('center_axis',(0.,0.,1.));
#992=DIRECTION('ref_axis',(-0.805236869472601,0.592953273067925,0.));
#993=DIRECTION('center_axis',(0.,0.,1.));
#994=DIRECTION('ref_axis',(-0.805236869472601,0.592953273067925,0.));
#995=DIRECTION('',(0.,0.,1.));
#996=DIRECTION('center_axis',(0.,0.,1.));
#997=DIRECTION('ref_axis',(0.805236869478052,0.592953273060523,0.));
#998=DIRECTION('center_axis',(0.,0.,1.));
#999=DIRECTION('ref_axis',(0.805236869478052,0.592953273060523,0.));
#1000=DIRECTION('',(0.,0.,1.));
#1001=DIRECTION('center_axis',(0.,0.,1.));
#1002=DIRECTION('ref_axis',(1.,2.09990754943824E-13,0.));
#1003=DIRECTION('center_axis',(0.,0.,1.));
#1004=DIRECTION('ref_axis',(1.,2.09990754943824E-13,0.));
#1005=DIRECTION('',(0.,0.,1.));
#1006=DIRECTION('center_axis',(1.,3.58804927379187E-13,0.));
#1007=DIRECTION('ref_axis',(-3.58804927379187E-13,1.,0.));
#1008=DIRECTION('',(-3.58804927379187E-13,1.,0.));
#1009=DIRECTION('',(0.,0.,1.));
#1010=DIRECTION('center_axis',(0.,0.,1.));
#1011=DIRECTION('ref_axis',(-2.66453525910039E-15,-1.,0.));
#1012=DIRECTION('center_axis',(0.,0.,1.));
#1013=DIRECTION('ref_axis',(-2.66453525910039E-15,-1.,0.));
#1014=DIRECTION('',(0.,0.,1.));
#1015=DIRECTION('center_axis',(-5.49495598179369E-14,-1.,0.));
#1016=DIRECTION('ref_axis',(1.,-5.49495598179369E-14,0.));
#1017=DIRECTION('',(1.,-5.49495598179369E-14,0.));
#1018=DIRECTION('center_axis',(0.,0.,1.));
#1019=DIRECTION('ref_axis',(-1.,0.,0.));
#1020=CARTESIAN_POINT('',(0.,0.,0.));
#1021=CARTESIAN_POINT('Origin',(-71.2499999994558,-42.9999999999159,28.2));
#1022=CARTESIAN_POINT('',(-73.3749999994558,-42.9999999999159,28.2));
#1023=CARTESIAN_POINT('Origin',(-71.2499999994558,-42.9999999999159,28.2));
#1024=CARTESIAN_POINT('',(-72.4999999994558,-42.9999999999159,28.2));
#1025=CARTESIAN_POINT('Origin',(-71.2499999994558,-42.9999999999159,28.2));
#1026=CARTESIAN_POINT('Origin',(-71.2499999994558,-42.9999999999159,34.7));
#1027=CARTESIAN_POINT('',(-73.3749999994558,-42.9999999999159,41.2));
#1028=CARTESIAN_POINT('Origin',(-71.2499999994558,-42.9999999999159,41.2));
#1029=CARTESIAN_POINT('',(-73.3749999994558,-42.9999999999159,34.7));
#1030=CARTESIAN_POINT('Origin',(-71.2499999994558,-42.9999999999159,29.7));
#1031=CARTESIAN_POINT('',(-72.4999999994558,-42.9999999999159,20.2));
#1032=CARTESIAN_POINT('',(-72.4999999994558,-42.9999999999159,29.7));
#1033=CARTESIAN_POINT('Origin',(-71.2499999994558,-42.9999999999159,20.2));
#1034=CARTESIAN_POINT('Origin',(71.2499999999922,28.0436632029598,28.2));
#1035=CARTESIAN_POINT('',(69.1249999999922,28.0436632029598,28.2));
#1036=CARTESIAN_POINT('Origin',(71.2499999999922,28.0436632029598,28.2));
#1037=CARTESIAN_POINT('',(69.9999999999922,28.0436632029598,28.2));
#1038=CARTESIAN_POINT('Origin',(71.2499999999922,28.0436632029598,28.2));
#1039=CARTESIAN_POINT('Origin',(71.2499999999922,28.0436632029598,34.7));
#1040=CARTESIAN_POINT('',(69.1249999999922,28.0436632029598,41.2));
#1041=CARTESIAN_POINT('Origin',(71.2499999999922,28.0436632029598,41.2));
#1042=CARTESIAN_POINT('',(69.1249999999922,28.0436632029598,34.7));
#1043=CARTESIAN_POINT('Origin',(71.2499999999922,28.0436632029598,29.7));
#1044=CARTESIAN_POINT('',(69.9999999999922,28.0436632029598,20.2));
#1045=CARTESIAN_POINT('',(69.9999999999922,28.0436632029598,29.7));
#1046=CARTESIAN_POINT('Origin',(71.2499999999922,28.0436632029598,20.2));
#1047=CARTESIAN_POINT('Origin',(71.2499999999922,-42.9999999999994,28.2));
#1048=CARTESIAN_POINT('',(69.1249999999922,-42.9999999999994,28.2));
#1049=CARTESIAN_POINT('Origin',(71.2499999999922,-42.9999999999994,28.2));
#1050=CARTESIAN_POINT('',(69.9999999999922,-42.9999999999994,28.2));
#1051=CARTESIAN_POINT('Origin',(71.2499999999922,-42.9999999999994,28.2));
#1052=CARTESIAN_POINT('Origin',(71.2499999999922,-42.9999999999994,34.7));
#1053=CARTESIAN_POINT('',(69.1249999999922,-42.9999999999994,41.2));
#1054=CARTESIAN_POINT('Origin',(71.2499999999922,-42.9999999999994,41.2));
#1055=CARTESIAN_POINT('',(69.1249999999922,-42.9999999999994,34.7));
#1056=CARTESIAN_POINT('Origin',(71.2499999999922,-42.9999999999994,29.7));
#1057=CARTESIAN_POINT('',(69.9999999999922,-42.9999999999994,20.2));
#1058=CARTESIAN_POINT('',(69.9999999999922,-42.9999999999994,29.7));
#1059=CARTESIAN_POINT('Origin',(71.2499999999922,-42.9999999999994,20.2));
#1060=CARTESIAN_POINT('Origin',(-71.2499999994558,28.0436632035496,28.2));
#1061=CARTESIAN_POINT('',(-73.3749999994558,28.0436632035496,28.2));
#1062=CARTESIAN_POINT('Origin',(-71.2499999994558,28.0436632035496,28.2));
#1063=CARTESIAN_POINT('',(-72.4999999994558,28.0436632035496,28.2));
#1064=CARTESIAN_POINT('Origin',(-71.2499999994558,28.0436632035496,28.2));
#1065=CARTESIAN_POINT('Origin',(-71.2499999994558,28.0436632035496,34.7));
#1066=CARTESIAN_POINT('',(-73.3749999994558,28.0436632035496,41.2));
#1067=CARTESIAN_POINT('Origin',(-71.2499999994558,28.0436632035496,41.2));
#1068=CARTESIAN_POINT('',(-73.3749999994558,28.0436632035496,34.7));
#1069=CARTESIAN_POINT('Origin',(-71.2499999994558,28.0436632035496,29.7));
#1070=CARTESIAN_POINT('',(-72.4999999994558,28.0436632035496,20.2));
#1071=CARTESIAN_POINT('',(-72.4999999994558,28.0436632035496,29.7));
#1072=CARTESIAN_POINT('Origin',(-71.2499999994558,28.0436632035496,20.2));
#1073=CARTESIAN_POINT('Origin',(-8.4980911196908E-11,7.24999999989908,40.2));
#1074=CARTESIAN_POINT('',(60.2499999994796,-55.0000000000005,40.2));
#1075=CARTESIAN_POINT('',(-60.2500092496574,-54.9999999999743,40.2));
#1076=CARTESIAN_POINT('',(-60.2500092496574,-54.9999999999893,40.2));
#1077=CARTESIAN_POINT('',(-67.2499999999445,-48.0000029959036,40.2));
#1078=CARTESIAN_POINT('Origin',(-60.2499999999591,-47.9999999999943,40.2));
#1079=CARTESIAN_POINT('',(-67.2499999996819,28.0436632035383,40.2));
#1080=CARTESIAN_POINT('',(-67.2499999996819,28.0436632035383,40.2));
#1081=CARTESIAN_POINT('',(-65.8866580857374,32.1943361149188,40.2));
#1082=CARTESIAN_POINT('Origin',(-60.2499999995204,28.0436632035117,40.2));
#1083=CARTESIAN_POINT('',(65.8866580861426,32.1943361144361,40.2));
#1084=CARTESIAN_POINT('Origin',(6.97664148674448E-11,-16.3227040810495,
40.2));
#1085=CARTESIAN_POINT('',(67.2499999998742,28.0436632029374,40.2));
#1086=CARTESIAN_POINT('Origin',(60.2500000000634,28.0436632029687,40.2));
#1087=CARTESIAN_POINT('',(67.2500000000144,-47.9999999999878,40.2));
#1088=CARTESIAN_POINT('',(67.2500000000144,-47.9999999999878,40.2));
#1089=CARTESIAN_POINT('Origin',(60.2500000000138,-48.,40.2));
#1090=CARTESIAN_POINT('',(61.8604737388343,29.2295697490221,40.2));
#1091=CARTESIAN_POINT('',(62.2499999998742,28.0436632029282,40.2));
#1092=CARTESIAN_POINT('Origin',(60.2500000000634,28.0436632029687,40.2));
#1093=CARTESIAN_POINT('',(-61.8604737383158,29.2295697495367,40.2));
#1094=CARTESIAN_POINT('Origin',(6.97708557595433E-11,-16.3227040810495,
40.2));
#1095=CARTESIAN_POINT('',(-62.2499999994064,28.0436632035193,40.2));
#1096=CARTESIAN_POINT('Origin',(-60.2499999995204,28.0436632035117,40.2));
#1097=CARTESIAN_POINT('',(-62.2499999999445,-48.0000029959208,40.2));
#1098=CARTESIAN_POINT('',(-62.2499999999445,-48.0000029959208,40.2));
#1099=CARTESIAN_POINT('',(-60.25000264273,-49.9999999999787,40.2));
#1100=CARTESIAN_POINT('Origin',(-60.2499999999591,-47.9999999999943,40.2));
#1101=CARTESIAN_POINT('',(60.2499999994807,-50.0000000000005,40.2));
#1102=CARTESIAN_POINT('',(60.2499999994807,-50.0000000000005,40.2));
#1103=CARTESIAN_POINT('',(62.2500000000144,-47.9999999999965,40.2));
#1104=CARTESIAN_POINT('Origin',(60.2500000000138,-48.,40.2));
#1105=CARTESIAN_POINT('',(62.2499999998742,28.0436632029282,40.2));
#1106=CARTESIAN_POINT('Origin',(6.97708557595433E-11,-16.3227040810495,
40.2));
#1107=CARTESIAN_POINT('',(61.8604737388343,29.2295697490221,41.2));
#1108=CARTESIAN_POINT('',(61.8604737388343,29.2295697490221,40.2));
#1109=CARTESIAN_POINT('',(-61.8604737383158,29.2295697495367,41.2));
#1110=CARTESIAN_POINT('Origin',(6.97708557595433E-11,-16.3227040810495,
41.2));
#1111=CARTESIAN_POINT('',(-61.8604737383158,29.2295697495367,40.2));
#1112=CARTESIAN_POINT('Origin',(-60.2499999995204,28.0436632035117,40.2));
#1113=CARTESIAN_POINT('',(-62.2499999994064,28.0436632035193,41.2));
#1114=CARTESIAN_POINT('Origin',(-60.2499999995204,28.0436632035117,41.2));
#1115=CARTESIAN_POINT('',(-62.2499999994064,28.0436632035193,40.2));
#1116=CARTESIAN_POINT('Origin',(-62.2499999999445,-48.0000029959208,40.2));
#1117=CARTESIAN_POINT('',(-62.2499999999445,-48.0000029959208,41.2));
#1118=CARTESIAN_POINT('',(-62.2499999999445,-48.0000029959208,41.2));
#1119=CARTESIAN_POINT('',(-62.2499999999445,-48.0000029959208,40.2));
#1120=CARTESIAN_POINT('Origin',(-60.2499999999591,-47.9999999999943,40.2));
#1121=CARTESIAN_POINT('',(-60.25000264273,-49.9999999999787,41.2));
#1122=CARTESIAN_POINT('Origin',(-60.2499999999591,-47.9999999999943,41.2));
#1123=CARTESIAN_POINT('',(-60.25000264273,-49.9999999999787,40.2));
#1124=CARTESIAN_POINT('Origin',(60.2499999994807,-50.0000000000005,40.2));
#1125=CARTESIAN_POINT('',(60.2499999994807,-50.0000000000005,41.2));
#1126=CARTESIAN_POINT('',(60.2499999994807,-50.0000000000005,41.2));
#1127=CARTESIAN_POINT('',(60.2499999994807,-50.0000000000005,40.2));
#1128=CARTESIAN_POINT('Origin',(60.2500000000138,-48.,40.2));
#1129=CARTESIAN_POINT('',(62.2500000000144,-47.9999999999965,41.2));
#1130=CARTESIAN_POINT('Origin',(60.2500000000138,-48.,41.2));
#1131=CARTESIAN_POINT('',(62.2500000000144,-47.9999999999965,40.2));
#1132=CARTESIAN_POINT('Origin',(62.2499999998742,28.0436632029282,40.2));
#1133=CARTESIAN_POINT('',(62.2499999998742,28.0436632029282,41.2));
#1134=CARTESIAN_POINT('',(62.2499999998742,28.0436632029282,41.2));
#1135=CARTESIAN_POINT('',(62.2499999998742,28.0436632029282,40.2));
#1136=CARTESIAN_POINT('Origin',(60.2500000000634,28.0436632029687,40.2));
#1137=CARTESIAN_POINT('Origin',(60.2500000000634,28.0436632029687,41.2));
#1138=CARTESIAN_POINT('Origin',(-8.4980911196908E-11,7.24999999989908,41.2));
#1139=CARTESIAN_POINT('',(-74.2500000001895,-47.9999999999353,41.2));
#1140=CARTESIAN_POINT('',(-64.2500000001825,-57.9999999999929,41.2));
#1141=CARTESIAN_POINT('Origin',(-64.2500000001894,-47.9999999999928,41.2));
#1142=CARTESIAN_POINT('',(64.2500000000195,-58.,41.2));
#1143=CARTESIAN_POINT('',(-64.2500000001825,-57.9999999999929,41.2));
#1144=CARTESIAN_POINT('',(74.2500000000195,-47.9999999999964,41.2));
#1145=CARTESIAN_POINT('Origin',(64.2500000000196,-48.,41.2));
#1146=CARTESIAN_POINT('',(74.2499999999922,28.0436632029704,41.2));
#1147=CARTESIAN_POINT('',(74.2500000000195,-47.9999999999964,41.2));
#1148=CARTESIAN_POINT('',(71.5233161727089,36.3450090257726,41.2));
#1149=CARTESIAN_POINT('Origin',(60.2500000000634,28.0436632029687,41.2));
#1150=CARTESIAN_POINT('',(-71.5233161720803,36.3450090264304,41.2));
#1151=CARTESIAN_POINT('Origin',(6.97708557595433E-11,-16.3227040810495,
41.2));
#1152=CARTESIAN_POINT('',(-74.2499999994533,28.0436632035597,41.2));
#1153=CARTESIAN_POINT('Origin',(-60.2499999995204,28.0436632035117,41.2));
#1154=CARTESIAN_POINT('',(-74.2499999994533,28.0436632035597,41.2));
#1155=CARTESIAN_POINT('Origin',(60.2499999994796,-55.0000000000005,20.2));
#1156=CARTESIAN_POINT('',(60.2499999994796,-55.0000000000005,20.2));
#1157=CARTESIAN_POINT('',(-60.2500092496574,-54.9999999999743,20.2));
#1158=CARTESIAN_POINT('',(-60.2500092496574,-54.9999999999893,20.2));
#1159=CARTESIAN_POINT('',(-60.2500092496574,-54.9999999999743,20.2));
#1160=CARTESIAN_POINT('',(60.2499999994796,-55.0000000000005,20.2));
#1161=CARTESIAN_POINT('Origin',(60.2500000000138,-48.,20.2));
#1162=CARTESIAN_POINT('',(67.2500000000144,-47.9999999999878,20.2));
#1163=CARTESIAN_POINT('Origin',(60.2500000000138,-48.,20.2));
#1164=CARTESIAN_POINT('',(67.2500000000144,-47.9999999999878,20.2));
#1165=CARTESIAN_POINT('Origin',(67.2499999998742,28.0436632029374,20.2));
#1166=CARTESIAN_POINT('',(67.2499999998742,28.0436632029374,20.2));
#1167=CARTESIAN_POINT('',(67.2500000000144,-47.9999999999878,20.2));
#1168=CARTESIAN_POINT('',(67.2499999998742,28.0436632029374,20.2));
#1169=CARTESIAN_POINT('Origin',(60.2500000000634,28.0436632029687,20.2));
#1170=CARTESIAN_POINT('',(65.8866580861426,32.1943361144361,20.2));
#1171=CARTESIAN_POINT('Origin',(60.2500000000634,28.0436632029687,20.2));
#1172=CARTESIAN_POINT('',(65.8866580861426,32.1943361144361,20.2));
#1173=CARTESIAN_POINT('Origin',(6.97664148674448E-11,-16.3227040810495,
20.2));
#1174=CARTESIAN_POINT('',(-65.8866580857374,32.1943361149188,20.2));
#1175=CARTESIAN_POINT('Origin',(6.97664148674448E-11,-16.3227040810495,
20.2));
#1176=CARTESIAN_POINT('',(-65.8866580857374,32.1943361149188,20.2));
#1177=CARTESIAN_POINT('Origin',(-60.2499999995204,28.0436632035117,20.2));
#1178=CARTESIAN_POINT('',(-67.2499999996819,28.0436632035383,20.2));
#1179=CARTESIAN_POINT('Origin',(-60.2499999995204,28.0436632035117,20.2));
#1180=CARTESIAN_POINT('',(-67.2499999996819,28.0436632035383,20.2));
#1181=CARTESIAN_POINT('Origin',(-67.2499999999445,-48.0000029959036,20.2));
#1182=CARTESIAN_POINT('',(-67.2499999999445,-48.0000029959036,20.2));
#1183=CARTESIAN_POINT('',(-67.2499999996819,28.0436632035383,20.2));
#1184=CARTESIAN_POINT('',(-67.2499999999445,-48.0000029959036,20.2));
#1185=CARTESIAN_POINT('Origin',(-60.2499999999591,-47.9999999999943,20.2));
#1186=CARTESIAN_POINT('Origin',(-60.2499999999591,-47.9999999999943,20.2));
#1187=CARTESIAN_POINT('Origin',(-64.2500000001894,-47.9999999999928,20.2));
#1188=CARTESIAN_POINT('',(-74.2500000001895,-47.9999999999353,20.2));
#1189=CARTESIAN_POINT('',(-64.2500000001825,-57.9999999999929,20.2));
#1190=CARTESIAN_POINT('Origin',(-64.2500000001894,-47.9999999999928,20.2));
#1191=CARTESIAN_POINT('',(-64.2500000001825,-57.9999999999929,20.2));
#1192=CARTESIAN_POINT('',(-74.2500000001895,-47.9999999999353,20.2));
#1193=CARTESIAN_POINT('Origin',(-74.2499999994533,28.0436632035597,20.2));
#1194=CARTESIAN_POINT('',(-74.2499999994533,28.0436632035597,20.2));
#1195=CARTESIAN_POINT('',(-74.2499999994533,28.0436632035597,20.2));
#1196=CARTESIAN_POINT('',(-74.2499999994533,28.0436632035597,20.2));
#1197=CARTESIAN_POINT('Origin',(-60.2499999995077,28.0436632035117,20.2));
#1198=CARTESIAN_POINT('',(-71.5233161720803,36.3450090264303,20.2));
#1199=CARTESIAN_POINT('Origin',(-60.2499999995077,28.0436632035117,20.2));
#1200=CARTESIAN_POINT('',(-71.5233161720803,36.3450090264303,20.2));
#1201=CARTESIAN_POINT('Origin',(7.2141181917118E-11,-16.322704081052,20.2));
#1202=CARTESIAN_POINT('',(71.5233161727089,36.3450090257726,20.2));
#1203=CARTESIAN_POINT('Origin',(7.2141181917118E-11,-16.322704081052,20.2));
#1204=CARTESIAN_POINT('',(71.5233161727089,36.3450090257726,20.2));
#1205=CARTESIAN_POINT('Origin',(60.2500000000214,28.0436632029674,20.2));
#1206=CARTESIAN_POINT('',(74.2499999999922,28.0436632029704,20.2));
#1207=CARTESIAN_POINT('Origin',(60.2500000000214,28.0436632029674,20.2));
#1208=CARTESIAN_POINT('',(74.2499999999922,28.0436632029704,20.2));
#1209=CARTESIAN_POINT('Origin',(74.2500000000195,-47.9999999999964,20.2));
#1210=CARTESIAN_POINT('',(74.2500000000195,-47.9999999999964,20.2));
#1211=CARTESIAN_POINT('',(74.2500000000195,-47.9999999999964,20.2));
#1212=CARTESIAN_POINT('',(74.2500000000195,-47.9999999999964,20.2));
#1213=CARTESIAN_POINT('Origin',(64.2500000000196,-48.,20.2));
#1214=CARTESIAN_POINT('',(64.2500000000195,-58.,20.2));
#1215=CARTESIAN_POINT('Origin',(64.2500000000196,-48.,20.2));
#1216=CARTESIAN_POINT('',(64.2500000000195,-58.,20.2));
#1217=CARTESIAN_POINT('Origin',(-64.2500000001825,-57.9999999999929,20.2));
#1218=CARTESIAN_POINT('',(-64.2500000001825,-57.9999999999929,20.2));
#1219=CARTESIAN_POINT('Origin',(-8.4980911196908E-11,7.24999999989761,20.2));
#1220=UNCERTAINTY_MEASURE_WITH_UNIT(LENGTH_MEASURE(0.01),#1224,
'DISTANCE_ACCURACY_VALUE',
'Maximum model space distance between geometric entities at asserted c
onnectivities');
#1221=UNCERTAINTY_MEASURE_WITH_UNIT(LENGTH_MEASURE(0.01),#1224,
'DISTANCE_ACCURACY_VALUE',
'Maximum model space distance between geometric entities at asserted c
onnectivities');
#1222=(
GEOMETRIC_REPRESENTATION_CONTEXT(3)
GLOBAL_UNCERTAINTY_ASSIGNED_CONTEXT((#1220))
GLOBAL_UNIT_ASSIGNED_CONTEXT((#1224,#1226,#1227))
REPRESENTATION_CONTEXT('','3D')
);
#1223=(
GEOMETRIC_REPRESENTATION_CONTEXT(3)
GLOBAL_UNCERTAINTY_ASSIGNED_CONTEXT((#1221))
GLOBAL_UNIT_ASSIGNED_CONTEXT((#1224,#1226,#1227))
REPRESENTATION_CONTEXT('','3D')
);
#1224=(
LENGTH_UNIT()
NAMED_UNIT(*)
SI_UNIT(.MILLI.,.METRE.)
);
#1225=(
LENGTH_UNIT()
NAMED_UNIT(*)
SI_UNIT($,.METRE.)
);
#1226=(
NAMED_UNIT(*)
PLANE_ANGLE_UNIT()
SI_UNIT($,.RADIAN.)
);
#1227=(
NAMED_UNIT(*)
SI_UNIT($,.STERADIAN.)
SOLID_ANGLE_UNIT()
);
#1228=SHAPE_DEFINITION_REPRESENTATION(#1229,#1230);
#1229=PRODUCT_DEFINITION_SHAPE('',$,#1232);
#1230=SHAPE_REPRESENTATION('',(#712),#1222);
#1231=PRODUCT_DEFINITION_CONTEXT('part definition',#1236,'design');
#1232=PRODUCT_DEFINITION('2026-08-24-20-33-55-157','ThymioSkinCover',#1233,
#1231);
#1233=PRODUCT_DEFINITION_FORMATION('',$,#1238);
#1234=PRODUCT_RELATED_PRODUCT_CATEGORY('ThymioSkinCover',
'ThymioSkinCover',(#1238));
#1235=APPLICATION_PROTOCOL_DEFINITION('international standard',
'automotive_design',2009,#1236);
#1236=APPLICATION_CONTEXT(
'Core Data for Automotive Mechanical Design Process');
#1237=PRODUCT_CONTEXT('part definition',#1236,'mechanical');
#1238=PRODUCT('2026-08-24-20-33-55-157','ThymioSkinCover',$,(#1237));
#1239=PRESENTATION_STYLE_ASSIGNMENT((#1240));
#1240=SURFACE_STYLE_USAGE(.BOTH.,#1241);
#1241=SURFACE_SIDE_STYLE('',(#1242));
#1242=SURFACE_STYLE_FILL_AREA(#1243);
#1243=FILL_AREA_STYLE('Steel - Satin',(#1244));
#1244=FILL_AREA_STYLE_COLOUR('Steel - Satin',#1245);
#1245=COLOUR_RGB('Steel - Satin',0.627450980392157,0.627450980392157,0.627450980392157);
ENDSEC;
END-ISO-10303-21;
