ISO-10303-21;
HEADER;
/* Generated by software containing ST-Developer
 * from STEP Tools, Inc. (www.steptools.com) 
 */

FILE_DESCRIPTION(
/* description */ (''),
/* implementation_level */ '2;1');

FILE_NAME(
/* name */ 'ThymioPCBHolder.step',
/* time_stamp */ '2026-08-24T20:30:29+01:00',
/* author */ (''),
/* organization */ (''),
/* preprocessor_version */ 'ST-DEVELOPER v20.1',
/* originating_system */ 'Autodesk Translation Framework v15.8.0.0',
/* authorisation */ '');

FILE_SCHEMA (('AUTOMOTIVE_DESIGN { 1 0 10303 214 3 1 1 }'));
ENDSEC;

DATA;
#10=MECHANICAL_DESIGN_GEOMETRIC_PRESENTATION_REPRESENTATION('',(#13),#1697);
#11=SHAPE_REPRESENTATION_RELATIONSHIP('SRR','None',#1704,#12);
#12=ADVANCED_BREP_SHAPE_REPRESENTATION('',(#14),#1696);
#13=STYLED_ITEM('',(#1713),#14);
#14=MANIFOLD_SOLID_BREP('Body1',#1043);
#15=CYLINDRICAL_SURFACE('',#1093,2.15000410095903);
#16=CYLINDRICAL_SURFACE('',#1095,5.);
#17=CYLINDRICAL_SURFACE('',#1101,1.49999999999999);
#18=CYLINDRICAL_SURFACE('',#1110,1.74999999999999);
#19=CYLINDRICAL_SURFACE('',#1112,1.75);
#20=CYLINDRICAL_SURFACE('',#1114,1.74999999999999);
#21=CYLINDRICAL_SURFACE('',#1116,1.74999999999999);
#22=CYLINDRICAL_SURFACE('',#1118,1.75000000000001);
#23=CYLINDRICAL_SURFACE('',#1125,81.4227040809025);
#24=LINE('',#1415,#146);
#25=LINE('',#1417,#147);
#26=LINE('',#1419,#148);
#27=LINE('',#1421,#149);
#28=LINE('',#1423,#150);
#29=LINE('',#1425,#151);
#30=LINE('',#1426,#152);
#31=LINE('',#1429,#153);
#32=LINE('',#1431,#154);
#33=LINE('',#1432,#155);
#34=LINE('',#1436,#156);
#35=LINE('',#1438,#157);
#36=LINE('',#1439,#158);
#37=LINE('',#1441,#159);
#38=LINE('',#1443,#160);
#39=LINE('',#1444,#161);
#40=LINE('',#1447,#162);
#41=LINE('',#1449,#163);
#42=LINE('',#1451,#164);
#43=LINE('',#1453,#165);
#44=LINE('',#1454,#166);
#45=LINE('',#1457,#167);
#46=LINE('',#1459,#168);
#47=LINE('',#1461,#169);
#48=LINE('',#1463,#170);
#49=LINE('',#1464,#171);
#50=LINE('',#1467,#172);
#51=LINE('',#1468,#173);
#52=LINE('',#1471,#174);
#53=LINE('',#1472,#175);
#54=LINE('',#1475,#176);
#55=LINE('',#1476,#177);
#56=LINE('',#1479,#178);
#57=LINE('',#1481,#179);
#58=LINE('',#1482,#180);
#59=LINE('',#1485,#181);
#60=LINE('',#1487,#182);
#61=LINE('',#1488,#183);
#62=LINE('',#1491,#184);
#63=LINE('',#1493,#185);
#64=LINE('',#1495,#186);
#65=LINE('',#1497,#187);
#66=LINE('',#1498,#188);
#67=LINE('',#1502,#189);
#68=LINE('',#1504,#190);
#69=LINE('',#1506,#191);
#70=LINE('',#1507,#192);
#71=LINE('',#1510,#193);
#72=LINE('',#1512,#194);
#73=LINE('',#1513,#195);
#74=LINE('',#1516,#196);
#75=LINE('',#1518,#197);
#76=LINE('',#1519,#198);
#77=LINE('',#1522,#199);
#78=LINE('',#1524,#200);
#79=LINE('',#1525,#201);
#80=LINE('',#1528,#202);
#81=LINE('',#1530,#203);
#82=LINE('',#1531,#204);
#83=LINE('',#1533,#205);
#84=LINE('',#1534,#206);
#85=LINE('',#1540,#207);
#86=LINE('',#1541,#208);
#87=LINE('',#1543,#209);
#88=LINE('',#1546,#210);
#89=LINE('',#1548,#211);
#90=LINE('',#1549,#212);
#91=LINE('',#1551,#213);
#92=LINE('',#1554,#214);
#93=LINE('',#1556,#215);
#94=LINE('',#1558,#216);
#95=LINE('',#1560,#217);
#96=LINE('',#1562,#218);
#97=LINE('',#1563,#219);
#98=LINE('',#1566,#220);
#99=LINE('',#1567,#221);
#100=LINE('',#1570,#222);
#101=LINE('',#1572,#223);
#102=LINE('',#1574,#224);
#103=LINE('',#1576,#225);
#104=LINE('',#1580,#226);
#105=LINE('',#1582,#227);
#106=LINE('',#1584,#228);
#107=LINE('',#1588,#229);
#108=LINE('',#1590,#230);
#109=LINE('',#1591,#231);
#110=LINE('',#1601,#232);
#111=LINE('',#1605,#233);
#112=LINE('',#1608,#234);
#113=LINE('',#1610,#235);
#114=LINE('',#1614,#236);
#115=LINE('',#1617,#237);
#116=LINE('',#1618,#238);
#117=LINE('',#1623,#239);
#118=LINE('',#1625,#240);
#119=LINE('',#1626,#241);
#120=LINE('',#1629,#242);
#121=LINE('',#1630,#243);
#122=LINE('',#1633,#244);
#123=LINE('',#1634,#245);
#124=LINE('',#1642,#246);
#125=LINE('',#1646,#247);
#126=LINE('',#1650,#248);
#127=LINE('',#1654,#249);
#128=LINE('',#1656,#250);
#129=LINE('',#1658,#251);
#130=LINE('',#1661,#252);
#131=LINE('',#1662,#253);
#132=LINE('',#1665,#254);
#133=LINE('',#1666,#255);
#134=LINE('',#1669,#256);
#135=LINE('',#1670,#257);
#136=LINE('',#1673,#258);
#137=LINE('',#1674,#259);
#138=LINE('',#1677,#260);
#139=LINE('',#1678,#261);
#140=LINE('',#1682,#262);
#141=LINE('',#1685,#263);
#142=LINE('',#1686,#264);
#143=LINE('',#1689,#265);
#144=LINE('',#1690,#266);
#145=LINE('',#1692,#267);
#146=VECTOR('',#1145,10.);
#147=VECTOR('',#1146,10.);
#148=VECTOR('',#1147,10.);
#149=VECTOR('',#1148,10.);
#150=VECTOR('',#1149,10.);
#151=VECTOR('',#1150,10.);
#152=VECTOR('',#1151,10.);
#153=VECTOR('',#1154,10.);
#154=VECTOR('',#1155,10.);
#155=VECTOR('',#1156,10.);
#156=VECTOR('',#1159,10.);
#157=VECTOR('',#1160,10.);
#158=VECTOR('',#1161,10.);
#159=VECTOR('',#1162,10.);
#160=VECTOR('',#1163,10.);
#161=VECTOR('',#1164,10.);
#162=VECTOR('',#1167,10.);
#163=VECTOR('',#1168,10.);
#164=VECTOR('',#1169,10.);
#165=VECTOR('',#1170,10.);
#166=VECTOR('',#1171,10.);
#167=VECTOR('',#1174,10.);
#168=VECTOR('',#1175,10.);
#169=VECTOR('',#1176,10.);
#170=VECTOR('',#1177,10.);
#171=VECTOR('',#1178,10.);
#172=VECTOR('',#1181,10.);
#173=VECTOR('',#1182,10.);
#174=VECTOR('',#1185,10.);
#175=VECTOR('',#1186,10.);
#176=VECTOR('',#1189,10.);
#177=VECTOR('',#1190,10.);
#178=VECTOR('',#1193,10.);
#179=VECTOR('',#1194,10.);
#180=VECTOR('',#1195,10.);
#181=VECTOR('',#1198,10.);
#182=VECTOR('',#1199,10.);
#183=VECTOR('',#1200,10.);
#184=VECTOR('',#1203,10.);
#185=VECTOR('',#1204,10.);
#186=VECTOR('',#1205,10.);
#187=VECTOR('',#1206,10.);
#188=VECTOR('',#1207,10.);
#189=VECTOR('',#1210,10.);
#190=VECTOR('',#1211,10.);
#191=VECTOR('',#1212,10.);
#192=VECTOR('',#1213,10.);
#193=VECTOR('',#1216,10.);
#194=VECTOR('',#1217,10.);
#195=VECTOR('',#1218,10.);
#196=VECTOR('',#1221,10.);
#197=VECTOR('',#1222,10.);
#198=VECTOR('',#1223,10.);
#199=VECTOR('',#1226,10.);
#200=VECTOR('',#1227,10.);
#201=VECTOR('',#1228,10.);
#202=VECTOR('',#1231,10.);
#203=VECTOR('',#1232,10.);
#204=VECTOR('',#1233,10.);
#205=VECTOR('',#1236,10.);
#206=VECTOR('',#1237,10.);
#207=VECTOR('',#1244,10.);
#208=VECTOR('',#1245,10.);
#209=VECTOR('',#1248,10.);
#210=VECTOR('',#1251,10.);
#211=VECTOR('',#1252,10.);
#212=VECTOR('',#1253,10.);
#213=VECTOR('',#1256,10.);
#214=VECTOR('',#1259,10.);
#215=VECTOR('',#1260,10.);
#216=VECTOR('',#1261,10.);
#217=VECTOR('',#1262,10.);
#218=VECTOR('',#1263,10.);
#219=VECTOR('',#1264,10.);
#220=VECTOR('',#1267,10.);
#221=VECTOR('',#1268,10.);
#222=VECTOR('',#1271,10.);
#223=VECTOR('',#1272,10.);
#224=VECTOR('',#1273,10.);
#225=VECTOR('',#1274,10.);
#226=VECTOR('',#1277,10.);
#227=VECTOR('',#1278,10.);
#228=VECTOR('',#1279,10.);
#229=VECTOR('',#1282,10.);
#230=VECTOR('',#1283,10.);
#231=VECTOR('',#1284,10.);
#232=VECTOR('',#1295,2.15000410095903);
#233=VECTOR('',#1300,5.);
#234=VECTOR('',#1305,10.);
#235=VECTOR('',#1308,10.);
#236=VECTOR('',#1313,1.49999999999999);
#237=VECTOR('',#1316,10.);
#238=VECTOR('',#1317,10.);
#239=VECTOR('',#1322,10.);
#240=VECTOR('',#1323,10.);
#241=VECTOR('',#1324,10.);
#242=VECTOR('',#1327,10.);
#243=VECTOR('',#1328,10.);
#244=VECTOR('',#1331,10.);
#245=VECTOR('',#1332,10.);
#246=VECTOR('',#1343,1.74999999999999);
#247=VECTOR('',#1348,1.75);
#248=VECTOR('',#1353,1.74999999999999);
#249=VECTOR('',#1358,1.74999999999999);
#250=VECTOR('',#1361,1.75000000000001);
#251=VECTOR('',#1364,10.);
#252=VECTOR('',#1367,10.);
#253=VECTOR('',#1368,10.);
#254=VECTOR('',#1371,10.);
#255=VECTOR('',#1372,10.);
#256=VECTOR('',#1375,10.);
#257=VECTOR('',#1376,10.);
#258=VECTOR('',#1379,10.);
#259=VECTOR('',#1380,10.);
#260=VECTOR('',#1383,10.);
#261=VECTOR('',#1384,10.);
#262=VECTOR('',#1389,10.);
#263=VECTOR('',#1392,10.);
#264=VECTOR('',#1393,10.);
#265=VECTOR('',#1396,10.);
#266=VECTOR('',#1397,10.);
#267=VECTOR('',#1400,10.);
#268=FACE_BOUND('',#337,.T.);
#269=FACE_BOUND('',#357,.T.);
#270=FACE_BOUND('',#365,.T.);
#271=FACE_BOUND('',#366,.T.);
#272=FACE_BOUND('',#367,.T.);
#273=FACE_BOUND('',#371,.T.);
#274=FACE_BOUND('',#374,.T.);
#275=FACE_BOUND('',#377,.T.);
#276=FACE_BOUND('',#382,.T.);
#277=FACE_BOUND('',#399,.T.);
#278=FACE_BOUND('',#400,.T.);
#279=FACE_BOUND('',#401,.T.);
#280=FACE_BOUND('',#402,.T.);
#281=FACE_BOUND('',#403,.T.);
#282=FACE_OUTER_BOUND('',#336,.T.);
#283=FACE_OUTER_BOUND('',#338,.T.);
#284=FACE_OUTER_BOUND('',#339,.T.);
#285=FACE_OUTER_BOUND('',#340,.T.);
#286=FACE_OUTER_BOUND('',#341,.T.);
#287=FACE_OUTER_BOUND('',#342,.T.);
#288=FACE_OUTER_BOUND('',#343,.T.);
#289=FACE_OUTER_BOUND('',#344,.T.);
#290=FACE_OUTER_BOUND('',#345,.T.);
#291=FACE_OUTER_BOUND('',#346,.T.);
#292=FACE_OUTER_BOUND('',#347,.T.);
#293=FACE_OUTER_BOUND('',#348,.T.);
#294=FACE_OUTER_BOUND('',#349,.T.);
#295=FACE_OUTER_BOUND('',#350,.T.);
#296=FACE_OUTER_BOUND('',#351,.T.);
#297=FACE_OUTER_BOUND('',#352,.T.);
#298=FACE_OUTER_BOUND('',#353,.T.);
#299=FACE_OUTER_BOUND('',#354,.T.);
#300=FACE_OUTER_BOUND('',#355,.T.);
#301=FACE_OUTER_BOUND('',#356,.T.);
#302=FACE_OUTER_BOUND('',#358,.T.);
#303=FACE_OUTER_BOUND('',#359,.T.);
#304=FACE_OUTER_BOUND('',#360,.T.);
#305=FACE_OUTER_BOUND('',#361,.T.);
#306=FACE_OUTER_BOUND('',#362,.T.);
#307=FACE_OUTER_BOUND('',#363,.T.);
#308=FACE_OUTER_BOUND('',#364,.T.);
#309=FACE_OUTER_BOUND('',#368,.T.);
#310=FACE_OUTER_BOUND('',#369,.T.);
#311=FACE_OUTER_BOUND('',#370,.T.);
#312=FACE_OUTER_BOUND('',#372,.T.);
#313=FACE_OUTER_BOUND('',#373,.T.);
#314=FACE_OUTER_BOUND('',#375,.T.);
#315=FACE_OUTER_BOUND('',#376,.T.);
#316=FACE_OUTER_BOUND('',#378,.T.);
#317=FACE_OUTER_BOUND('',#379,.T.);
#318=FACE_OUTER_BOUND('',#380,.T.);
#319=FACE_OUTER_BOUND('',#381,.T.);
#320=FACE_OUTER_BOUND('',#383,.T.);
#321=FACE_OUTER_BOUND('',#384,.T.);
#322=FACE_OUTER_BOUND('',#385,.T.);
#323=FACE_OUTER_BOUND('',#386,.T.);
#324=FACE_OUTER_BOUND('',#387,.T.);
#325=FACE_OUTER_BOUND('',#388,.T.);
#326=FACE_OUTER_BOUND('',#389,.T.);
#327=FACE_OUTER_BOUND('',#390,.T.);
#328=FACE_OUTER_BOUND('',#391,.T.);
#329=FACE_OUTER_BOUND('',#392,.T.);
#330=FACE_OUTER_BOUND('',#393,.T.);
#331=FACE_OUTER_BOUND('',#394,.T.);
#332=FACE_OUTER_BOUND('',#395,.T.);
#333=FACE_OUTER_BOUND('',#396,.T.);
#334=FACE_OUTER_BOUND('',#397,.T.);
#335=FACE_OUTER_BOUND('',#398,.T.);
#336=EDGE_LOOP('',(#660));
#337=EDGE_LOOP('',(#661));
#338=EDGE_LOOP('',(#662));
#339=EDGE_LOOP('',(#663,#664,#665,#666,#667,#668,#669));
#340=EDGE_LOOP('',(#670,#671,#672,#673));
#341=EDGE_LOOP('',(#674,#675,#676,#677,#678,#679,#680));
#342=EDGE_LOOP('',(#681,#682,#683,#684,#685,#686));
#343=EDGE_LOOP('',(#687,#688,#689,#690,#691,#692));
#344=EDGE_LOOP('',(#693,#694,#695,#696));
#345=EDGE_LOOP('',(#697,#698,#699,#700));
#346=EDGE_LOOP('',(#701,#702,#703,#704));
#347=EDGE_LOOP('',(#705,#706,#707,#708));
#348=EDGE_LOOP('',(#709,#710,#711,#712,#713,#714));
#349=EDGE_LOOP('',(#715,#716,#717,#718,#719,#720));
#350=EDGE_LOOP('',(#721,#722,#723,#724));
#351=EDGE_LOOP('',(#725,#726,#727,#728));
#352=EDGE_LOOP('',(#729,#730,#731,#732));
#353=EDGE_LOOP('',(#733,#734,#735,#736));
#354=EDGE_LOOP('',(#737,#738,#739,#740));
#355=EDGE_LOOP('',(#741,#742,#743,#744));
#356=EDGE_LOOP('',(#745,#746,#747,#748,#749,#750));
#357=EDGE_LOOP('',(#751));
#358=EDGE_LOOP('',(#752,#753,#754,#755));
#359=EDGE_LOOP('',(#756,#757,#758,#759));
#360=EDGE_LOOP('',(#760,#761,#762,#763));
#361=EDGE_LOOP('',(#764,#765,#766,#767));
#362=EDGE_LOOP('',(#768,#769,#770,#771,#772,#773,#774,#775));
#363=EDGE_LOOP('',(#776,#777,#778,#779,#780,#781));
#364=EDGE_LOOP('',(#782,#783,#784,#785,#786,#787,#788,#789,#790,#791,#792,
#793,#794,#795,#796,#797,#798,#799));
#365=EDGE_LOOP('',(#800));
#366=EDGE_LOOP('',(#801));
#367=EDGE_LOOP('',(#802));
#368=EDGE_LOOP('',(#803,#804,#805,#806));
#369=EDGE_LOOP('',(#807,#808,#809,#810));
#370=EDGE_LOOP('',(#811));
#371=EDGE_LOOP('',(#812));
#372=EDGE_LOOP('',(#813,#814,#815,#816,#817,#818));
#373=EDGE_LOOP('',(#819,#820,#821,#822));
#374=EDGE_LOOP('',(#823));
#375=EDGE_LOOP('',(#824,#825,#826,#827));
#376=EDGE_LOOP('',(#828,#829,#830,#831));
#377=EDGE_LOOP('',(#832));
#378=EDGE_LOOP('',(#833,#834,#835,#836));
#379=EDGE_LOOP('',(#837,#838,#839,#840));
#380=EDGE_LOOP('',(#841,#842,#843,#844));
#381=EDGE_LOOP('',(#845,#846,#847,#848));
#382=EDGE_LOOP('',(#849));
#383=EDGE_LOOP('',(#850,#851,#852,#853));
#384=EDGE_LOOP('',(#854,#855,#856,#857));
#385=EDGE_LOOP('',(#858,#859,#860,#861));
#386=EDGE_LOOP('',(#862,#863,#864,#865));
#387=EDGE_LOOP('',(#866,#867,#868,#869));
#388=EDGE_LOOP('',(#870,#871,#872,#873));
#389=EDGE_LOOP('',(#874,#875,#876,#877));
#390=EDGE_LOOP('',(#878,#879,#880,#881,#882,#883,#884,#885));
#391=EDGE_LOOP('',(#886,#887,#888,#889));
#392=EDGE_LOOP('',(#890,#891,#892,#893));
#393=EDGE_LOOP('',(#894,#895,#896,#897));
#394=EDGE_LOOP('',(#898,#899,#900,#901,#902,#903,#904,#905));
#395=EDGE_LOOP('',(#906,#907,#908,#909));
#396=EDGE_LOOP('',(#910,#911,#912,#913));
#397=EDGE_LOOP('',(#914,#915,#916,#917));
#398=EDGE_LOOP('',(#918,#919,#920,#921,#922,#923,#924,#925,#926,#927,#928,
#929,#930,#931,#932,#933));
#399=EDGE_LOOP('',(#934,#935,#936,#937,#938,#939));
#400=EDGE_LOOP('',(#940));
#401=EDGE_LOOP('',(#941));
#402=EDGE_LOOP('',(#942));
#403=EDGE_LOOP('',(#943));
#404=CIRCLE('',#1058,2.15000410095903);
#405=CIRCLE('',#1059,1.49999999999999);
#406=CIRCLE('',#1061,1.49999999999999);
#407=CIRCLE('',#1080,1.75000000000001);
#408=CIRCLE('',#1088,81.4227040809025);
#409=CIRCLE('',#1089,81.4227040809025);
#410=CIRCLE('',#1090,5.);
#411=CIRCLE('',#1091,1.74999999999999);
#412=CIRCLE('',#1092,1.74999999999999);
#413=CIRCLE('',#1094,2.15000410095903);
#414=CIRCLE('',#1096,5.);
#415=CIRCLE('',#1100,1.75);
#416=CIRCLE('',#1103,1.74999999999999);
#417=CIRCLE('',#1108,81.4227040809025);
#418=CIRCLE('',#1109,1.75000000000001);
#419=CIRCLE('',#1111,1.74999999999999);
#420=CIRCLE('',#1113,1.75);
#421=CIRCLE('',#1115,1.74999999999999);
#422=CIRCLE('',#1117,1.74999999999999);
#423=CIRCLE('',#1126,81.4227040809025);
#424=VERTEX_POINT('',#1405);
#425=VERTEX_POINT('',#1407);
#426=VERTEX_POINT('',#1410);
#427=VERTEX_POINT('',#1413);
#428=VERTEX_POINT('',#1414);
#429=VERTEX_POINT('',#1416);
#430=VERTEX_POINT('',#1418);
#431=VERTEX_POINT('',#1420);
#432=VERTEX_POINT('',#1422);
#433=VERTEX_POINT('',#1424);
#434=VERTEX_POINT('',#1428);
#435=VERTEX_POINT('',#1430);
#436=VERTEX_POINT('',#1434);
#437=VERTEX_POINT('',#1435);
#438=VERTEX_POINT('',#1437);
#439=VERTEX_POINT('',#1440);
#440=VERTEX_POINT('',#1442);
#441=VERTEX_POINT('',#1446);
#442=VERTEX_POINT('',#1448);
#443=VERTEX_POINT('',#1450);
#444=VERTEX_POINT('',#1452);
#445=VERTEX_POINT('',#1456);
#446=VERTEX_POINT('',#1458);
#447=VERTEX_POINT('',#1460);
#448=VERTEX_POINT('',#1462);
#449=VERTEX_POINT('',#1466);
#450=VERTEX_POINT('',#1470);
#451=VERTEX_POINT('',#1474);
#452=VERTEX_POINT('',#1478);
#453=VERTEX_POINT('',#1480);
#454=VERTEX_POINT('',#1484);
#455=VERTEX_POINT('',#1486);
#456=VERTEX_POINT('',#1490);
#457=VERTEX_POINT('',#1492);
#458=VERTEX_POINT('',#1494);
#459=VERTEX_POINT('',#1496);
#460=VERTEX_POINT('',#1500);
#461=VERTEX_POINT('',#1501);
#462=VERTEX_POINT('',#1503);
#463=VERTEX_POINT('',#1505);
#464=VERTEX_POINT('',#1509);
#465=VERTEX_POINT('',#1511);
#466=VERTEX_POINT('',#1515);
#467=VERTEX_POINT('',#1517);
#468=VERTEX_POINT('',#1521);
#469=VERTEX_POINT('',#1523);
#470=VERTEX_POINT('',#1527);
#471=VERTEX_POINT('',#1529);
#472=VERTEX_POINT('',#1536);
#473=VERTEX_POINT('',#1539);
#474=VERTEX_POINT('',#1545);
#475=VERTEX_POINT('',#1547);
#476=VERTEX_POINT('',#1553);
#477=VERTEX_POINT('',#1555);
#478=VERTEX_POINT('',#1557);
#479=VERTEX_POINT('',#1559);
#480=VERTEX_POINT('',#1561);
#481=VERTEX_POINT('',#1565);
#482=VERTEX_POINT('',#1569);
#483=VERTEX_POINT('',#1571);
#484=VERTEX_POINT('',#1573);
#485=VERTEX_POINT('',#1575);
#486=VERTEX_POINT('',#1577);
#487=VERTEX_POINT('',#1579);
#488=VERTEX_POINT('',#1581);
#489=VERTEX_POINT('',#1583);
#490=VERTEX_POINT('',#1585);
#491=VERTEX_POINT('',#1587);
#492=VERTEX_POINT('',#1589);
#493=VERTEX_POINT('',#1592);
#494=VERTEX_POINT('',#1594);
#495=VERTEX_POINT('',#1596);
#496=VERTEX_POINT('',#1599);
#497=VERTEX_POINT('',#1603);
#498=VERTEX_POINT('',#1611);
#499=VERTEX_POINT('',#1616);
#500=VERTEX_POINT('',#1619);
#501=VERTEX_POINT('',#1622);
#502=VERTEX_POINT('',#1624);
#503=VERTEX_POINT('',#1628);
#504=VERTEX_POINT('',#1632);
#505=VERTEX_POINT('',#1637);
#506=VERTEX_POINT('',#1640);
#507=VERTEX_POINT('',#1644);
#508=VERTEX_POINT('',#1648);
#509=VERTEX_POINT('',#1652);
#510=VERTEX_POINT('',#1660);
#511=VERTEX_POINT('',#1664);
#512=VERTEX_POINT('',#1668);
#513=VERTEX_POINT('',#1672);
#514=VERTEX_POINT('',#1676);
#515=VERTEX_POINT('',#1680);
#516=VERTEX_POINT('',#1684);
#517=VERTEX_POINT('',#1688);
#518=EDGE_CURVE('',#424,#424,#404,.T.);
#519=EDGE_CURVE('',#425,#425,#405,.T.);
#520=EDGE_CURVE('',#426,#426,#406,.T.);
#521=EDGE_CURVE('',#427,#428,#24,.T.);
#522=EDGE_CURVE('',#429,#427,#25,.T.);
#523=EDGE_CURVE('',#430,#429,#26,.F.);
#524=EDGE_CURVE('',#431,#430,#27,.T.);
#525=EDGE_CURVE('',#432,#431,#28,.T.);
#526=EDGE_CURVE('',#433,#432,#29,.T.);
#527=EDGE_CURVE('',#428,#433,#30,.T.);
#528=EDGE_CURVE('',#432,#434,#31,.T.);
#529=EDGE_CURVE('',#435,#431,#32,.T.);
#530=EDGE_CURVE('',#435,#434,#33,.T.);
#531=EDGE_CURVE('',#436,#437,#34,.T.);
#532=EDGE_CURVE('',#438,#436,#35,.T.);
#533=EDGE_CURVE('',#434,#438,#36,.T.);
#534=EDGE_CURVE('',#439,#435,#37,.T.);
#535=EDGE_CURVE('',#440,#439,#38,.F.);
#536=EDGE_CURVE('',#437,#440,#39,.T.);
#537=EDGE_CURVE('',#441,#439,#40,.F.);
#538=EDGE_CURVE('',#442,#441,#41,.F.);
#539=EDGE_CURVE('',#443,#442,#42,.F.);
#540=EDGE_CURVE('',#444,#443,#43,.F.);
#541=EDGE_CURVE('',#440,#444,#44,.F.);
#542=EDGE_CURVE('',#445,#429,#45,.F.);
#543=EDGE_CURVE('',#445,#446,#46,.T.);
#544=EDGE_CURVE('',#447,#446,#47,.T.);
#545=EDGE_CURVE('',#447,#448,#48,.T.);
#546=EDGE_CURVE('',#430,#448,#49,.F.);
#547=EDGE_CURVE('',#449,#444,#50,.T.);
#548=EDGE_CURVE('',#449,#437,#51,.T.);
#549=EDGE_CURVE('',#427,#450,#52,.T.);
#550=EDGE_CURVE('',#445,#450,#53,.T.);
#551=EDGE_CURVE('',#451,#449,#54,.T.);
#552=EDGE_CURVE('',#451,#436,#55,.T.);
#553=EDGE_CURVE('',#438,#452,#56,.T.);
#554=EDGE_CURVE('',#453,#452,#57,.T.);
#555=EDGE_CURVE('',#434,#453,#58,.T.);
#556=EDGE_CURVE('',#454,#451,#59,.T.);
#557=EDGE_CURVE('',#455,#454,#60,.T.);
#558=EDGE_CURVE('',#452,#455,#61,.T.);
#559=EDGE_CURVE('',#456,#433,#62,.T.);
#560=EDGE_CURVE('',#457,#456,#63,.T.);
#561=EDGE_CURVE('',#458,#457,#64,.T.);
#562=EDGE_CURVE('',#459,#458,#65,.T.);
#563=EDGE_CURVE('',#428,#459,#66,.T.);
#564=EDGE_CURVE('',#460,#461,#67,.T.);
#565=EDGE_CURVE('',#460,#462,#68,.T.);
#566=EDGE_CURVE('',#462,#463,#69,.T.);
#567=EDGE_CURVE('',#461,#463,#70,.T.);
#568=EDGE_CURVE('',#464,#460,#71,.T.);
#569=EDGE_CURVE('',#464,#465,#72,.T.);
#570=EDGE_CURVE('',#465,#462,#73,.T.);
#571=EDGE_CURVE('',#466,#464,#74,.T.);
#572=EDGE_CURVE('',#466,#467,#75,.T.);
#573=EDGE_CURVE('',#467,#465,#76,.T.);
#574=EDGE_CURVE('',#468,#466,#77,.T.);
#575=EDGE_CURVE('',#468,#469,#78,.T.);
#576=EDGE_CURVE('',#469,#467,#79,.T.);
#577=EDGE_CURVE('',#470,#468,#80,.T.);
#578=EDGE_CURVE('',#470,#471,#81,.T.);
#579=EDGE_CURVE('',#471,#469,#82,.T.);
#580=EDGE_CURVE('',#461,#470,#83,.T.);
#581=EDGE_CURVE('',#463,#471,#84,.T.);
#582=EDGE_CURVE('',#472,#472,#407,.T.);
#583=EDGE_CURVE('',#473,#455,#85,.T.);
#584=EDGE_CURVE('',#453,#473,#86,.T.);
#585=EDGE_CURVE('',#450,#459,#87,.T.);
#586=EDGE_CURVE('',#457,#474,#88,.T.);
#587=EDGE_CURVE('',#475,#456,#89,.T.);
#588=EDGE_CURVE('',#474,#475,#90,.T.);
#589=EDGE_CURVE('',#475,#432,#91,.T.);
#590=EDGE_CURVE('',#476,#474,#92,.T.);
#591=EDGE_CURVE('',#476,#477,#93,.T.);
#592=EDGE_CURVE('',#478,#477,#94,.T.);
#593=EDGE_CURVE('',#479,#478,#95,.T.);
#594=EDGE_CURVE('',#480,#479,#96,.T.);
#595=EDGE_CURVE('',#458,#480,#97,.T.);
#596=EDGE_CURVE('',#481,#443,#98,.T.);
#597=EDGE_CURVE('',#454,#481,#99,.T.);
#598=EDGE_CURVE('',#473,#482,#100,.T.);
#599=EDGE_CURVE('',#483,#482,#101,.T.);
#600=EDGE_CURVE('',#484,#483,#102,.T.);
#601=EDGE_CURVE('',#485,#484,#103,.T.);
#602=EDGE_CURVE('',#486,#485,#408,.F.);
#603=EDGE_CURVE('',#486,#487,#104,.T.);
#604=EDGE_CURVE('',#487,#488,#105,.T.);
#605=EDGE_CURVE('',#488,#489,#106,.T.);
#606=EDGE_CURVE('',#490,#489,#409,.F.);
#607=EDGE_CURVE('',#491,#490,#107,.T.);
#608=EDGE_CURVE('',#492,#491,#108,.T.);
#609=EDGE_CURVE('',#476,#492,#109,.T.);
#610=EDGE_CURVE('',#493,#493,#410,.T.);
#611=EDGE_CURVE('',#494,#494,#411,.T.);
#612=EDGE_CURVE('',#495,#495,#412,.T.);
#613=EDGE_CURVE('',#496,#496,#413,.T.);
#614=EDGE_CURVE('',#496,#424,#110,.T.);
#615=EDGE_CURVE('',#497,#497,#414,.T.);
#616=EDGE_CURVE('',#497,#493,#111,.T.);
#617=EDGE_CURVE('',#446,#480,#112,.T.);
#618=EDGE_CURVE('',#479,#447,#113,.T.);
#619=EDGE_CURVE('',#498,#498,#415,.T.);
#620=EDGE_CURVE('',#426,#425,#114,.T.);
#621=EDGE_CURVE('',#442,#499,#115,.T.);
#622=EDGE_CURVE('',#499,#481,#116,.T.);
#623=EDGE_CURVE('',#500,#500,#416,.T.);
#624=EDGE_CURVE('',#486,#501,#117,.F.);
#625=EDGE_CURVE('',#502,#501,#118,.T.);
#626=EDGE_CURVE('',#487,#502,#119,.T.);
#627=EDGE_CURVE('',#503,#502,#120,.T.);
#628=EDGE_CURVE('',#488,#503,#121,.T.);
#629=EDGE_CURVE('',#504,#503,#122,.T.);
#630=EDGE_CURVE('',#489,#504,#123,.T.);
#631=EDGE_CURVE('',#501,#504,#417,.T.);
#632=EDGE_CURVE('',#505,#505,#418,.T.);
#633=EDGE_CURVE('',#506,#506,#419,.T.);
#634=EDGE_CURVE('',#506,#500,#124,.T.);
#635=EDGE_CURVE('',#507,#507,#420,.T.);
#636=EDGE_CURVE('',#507,#498,#125,.T.);
#637=EDGE_CURVE('',#508,#508,#421,.T.);
#638=EDGE_CURVE('',#508,#495,#126,.T.);
#639=EDGE_CURVE('',#509,#509,#422,.T.);
#640=EDGE_CURVE('',#509,#494,#127,.T.);
#641=EDGE_CURVE('',#472,#505,#128,.T.);
#642=EDGE_CURVE('',#448,#478,#129,.T.);
#643=EDGE_CURVE('',#510,#441,#130,.T.);
#644=EDGE_CURVE('',#499,#510,#131,.T.);
#645=EDGE_CURVE('',#511,#510,#132,.T.);
#646=EDGE_CURVE('',#482,#511,#133,.T.);
#647=EDGE_CURVE('',#512,#511,#134,.T.);
#648=EDGE_CURVE('',#483,#512,#135,.T.);
#649=EDGE_CURVE('',#513,#512,#136,.T.);
#650=EDGE_CURVE('',#484,#513,#137,.T.);
#651=EDGE_CURVE('',#514,#513,#138,.T.);
#652=EDGE_CURVE('',#485,#514,#139,.T.);
#653=EDGE_CURVE('',#515,#514,#423,.F.);
#654=EDGE_CURVE('',#490,#515,#140,.F.);
#655=EDGE_CURVE('',#516,#515,#141,.T.);
#656=EDGE_CURVE('',#491,#516,#142,.T.);
#657=EDGE_CURVE('',#517,#516,#143,.T.);
#658=EDGE_CURVE('',#492,#517,#144,.T.);
#659=EDGE_CURVE('',#477,#517,#145,.T.);
#660=ORIENTED_EDGE('',*,*,#518,.F.);
#661=ORIENTED_EDGE('',*,*,#519,.F.);
#662=ORIENTED_EDGE('',*,*,#520,.T.);
#663=ORIENTED_EDGE('',*,*,#521,.F.);
#664=ORIENTED_EDGE('',*,*,#522,.F.);
#665=ORIENTED_EDGE('',*,*,#523,.F.);
#666=ORIENTED_EDGE('',*,*,#524,.F.);
#667=ORIENTED_EDGE('',*,*,#525,.F.);
#668=ORIENTED_EDGE('',*,*,#526,.F.);
#669=ORIENTED_EDGE('',*,*,#527,.F.);
#670=ORIENTED_EDGE('',*,*,#528,.F.);
#671=ORIENTED_EDGE('',*,*,#525,.T.);
#672=ORIENTED_EDGE('',*,*,#529,.F.);
#673=ORIENTED_EDGE('',*,*,#530,.T.);
#674=ORIENTED_EDGE('',*,*,#531,.F.);
#675=ORIENTED_EDGE('',*,*,#532,.F.);
#676=ORIENTED_EDGE('',*,*,#533,.F.);
#677=ORIENTED_EDGE('',*,*,#530,.F.);
#678=ORIENTED_EDGE('',*,*,#534,.F.);
#679=ORIENTED_EDGE('',*,*,#535,.F.);
#680=ORIENTED_EDGE('',*,*,#536,.F.);
#681=ORIENTED_EDGE('',*,*,#535,.T.);
#682=ORIENTED_EDGE('',*,*,#537,.F.);
#683=ORIENTED_EDGE('',*,*,#538,.F.);
#684=ORIENTED_EDGE('',*,*,#539,.F.);
#685=ORIENTED_EDGE('',*,*,#540,.F.);
#686=ORIENTED_EDGE('',*,*,#541,.F.);
#687=ORIENTED_EDGE('',*,*,#523,.T.);
#688=ORIENTED_EDGE('',*,*,#542,.F.);
#689=ORIENTED_EDGE('',*,*,#543,.T.);
#690=ORIENTED_EDGE('',*,*,#544,.F.);
#691=ORIENTED_EDGE('',*,*,#545,.T.);
#692=ORIENTED_EDGE('',*,*,#546,.F.);
#693=ORIENTED_EDGE('',*,*,#536,.T.);
#694=ORIENTED_EDGE('',*,*,#541,.T.);
#695=ORIENTED_EDGE('',*,*,#547,.F.);
#696=ORIENTED_EDGE('',*,*,#548,.T.);
#697=ORIENTED_EDGE('',*,*,#522,.T.);
#698=ORIENTED_EDGE('',*,*,#549,.T.);
#699=ORIENTED_EDGE('',*,*,#550,.F.);
#700=ORIENTED_EDGE('',*,*,#542,.T.);
#701=ORIENTED_EDGE('',*,*,#531,.T.);
#702=ORIENTED_EDGE('',*,*,#548,.F.);
#703=ORIENTED_EDGE('',*,*,#551,.F.);
#704=ORIENTED_EDGE('',*,*,#552,.T.);
#705=ORIENTED_EDGE('',*,*,#533,.T.);
#706=ORIENTED_EDGE('',*,*,#553,.T.);
#707=ORIENTED_EDGE('',*,*,#554,.F.);
#708=ORIENTED_EDGE('',*,*,#555,.F.);
#709=ORIENTED_EDGE('',*,*,#532,.T.);
#710=ORIENTED_EDGE('',*,*,#552,.F.);
#711=ORIENTED_EDGE('',*,*,#556,.F.);
#712=ORIENTED_EDGE('',*,*,#557,.F.);
#713=ORIENTED_EDGE('',*,*,#558,.F.);
#714=ORIENTED_EDGE('',*,*,#553,.F.);
#715=ORIENTED_EDGE('',*,*,#527,.T.);
#716=ORIENTED_EDGE('',*,*,#559,.F.);
#717=ORIENTED_EDGE('',*,*,#560,.F.);
#718=ORIENTED_EDGE('',*,*,#561,.F.);
#719=ORIENTED_EDGE('',*,*,#562,.F.);
#720=ORIENTED_EDGE('',*,*,#563,.F.);
#721=ORIENTED_EDGE('',*,*,#564,.F.);
#722=ORIENTED_EDGE('',*,*,#565,.T.);
#723=ORIENTED_EDGE('',*,*,#566,.T.);
#724=ORIENTED_EDGE('',*,*,#567,.F.);
#725=ORIENTED_EDGE('',*,*,#568,.F.);
#726=ORIENTED_EDGE('',*,*,#569,.T.);
#727=ORIENTED_EDGE('',*,*,#570,.T.);
#728=ORIENTED_EDGE('',*,*,#565,.F.);
#729=ORIENTED_EDGE('',*,*,#571,.F.);
#730=ORIENTED_EDGE('',*,*,#572,.T.);
#731=ORIENTED_EDGE('',*,*,#573,.T.);
#732=ORIENTED_EDGE('',*,*,#569,.F.);
#733=ORIENTED_EDGE('',*,*,#574,.F.);
#734=ORIENTED_EDGE('',*,*,#575,.T.);
#735=ORIENTED_EDGE('',*,*,#576,.T.);
#736=ORIENTED_EDGE('',*,*,#572,.F.);
#737=ORIENTED_EDGE('',*,*,#577,.F.);
#738=ORIENTED_EDGE('',*,*,#578,.T.);
#739=ORIENTED_EDGE('',*,*,#579,.T.);
#740=ORIENTED_EDGE('',*,*,#575,.F.);
#741=ORIENTED_EDGE('',*,*,#580,.F.);
#742=ORIENTED_EDGE('',*,*,#567,.T.);
#743=ORIENTED_EDGE('',*,*,#581,.T.);
#744=ORIENTED_EDGE('',*,*,#578,.F.);
#745=ORIENTED_EDGE('',*,*,#581,.F.);
#746=ORIENTED_EDGE('',*,*,#566,.F.);
#747=ORIENTED_EDGE('',*,*,#570,.F.);
#748=ORIENTED_EDGE('',*,*,#573,.F.);
#749=ORIENTED_EDGE('',*,*,#576,.F.);
#750=ORIENTED_EDGE('',*,*,#579,.F.);
#751=ORIENTED_EDGE('',*,*,#582,.F.);
#752=ORIENTED_EDGE('',*,*,#583,.F.);
#753=ORIENTED_EDGE('',*,*,#584,.F.);
#754=ORIENTED_EDGE('',*,*,#554,.T.);
#755=ORIENTED_EDGE('',*,*,#558,.T.);
#756=ORIENTED_EDGE('',*,*,#521,.T.);
#757=ORIENTED_EDGE('',*,*,#563,.T.);
#758=ORIENTED_EDGE('',*,*,#585,.F.);
#759=ORIENTED_EDGE('',*,*,#549,.F.);
#760=ORIENTED_EDGE('',*,*,#586,.F.);
#761=ORIENTED_EDGE('',*,*,#560,.T.);
#762=ORIENTED_EDGE('',*,*,#587,.F.);
#763=ORIENTED_EDGE('',*,*,#588,.F.);
#764=ORIENTED_EDGE('',*,*,#526,.T.);
#765=ORIENTED_EDGE('',*,*,#589,.F.);
#766=ORIENTED_EDGE('',*,*,#587,.T.);
#767=ORIENTED_EDGE('',*,*,#559,.T.);
#768=ORIENTED_EDGE('',*,*,#561,.T.);
#769=ORIENTED_EDGE('',*,*,#586,.T.);
#770=ORIENTED_EDGE('',*,*,#590,.F.);
#771=ORIENTED_EDGE('',*,*,#591,.T.);
#772=ORIENTED_EDGE('',*,*,#592,.F.);
#773=ORIENTED_EDGE('',*,*,#593,.F.);
#774=ORIENTED_EDGE('',*,*,#594,.F.);
#775=ORIENTED_EDGE('',*,*,#595,.F.);
#776=ORIENTED_EDGE('',*,*,#556,.T.);
#777=ORIENTED_EDGE('',*,*,#551,.T.);
#778=ORIENTED_EDGE('',*,*,#547,.T.);
#779=ORIENTED_EDGE('',*,*,#540,.T.);
#780=ORIENTED_EDGE('',*,*,#596,.F.);
#781=ORIENTED_EDGE('',*,*,#597,.F.);
#782=ORIENTED_EDGE('',*,*,#588,.T.);
#783=ORIENTED_EDGE('',*,*,#589,.T.);
#784=ORIENTED_EDGE('',*,*,#528,.T.);
#785=ORIENTED_EDGE('',*,*,#555,.T.);
#786=ORIENTED_EDGE('',*,*,#584,.T.);
#787=ORIENTED_EDGE('',*,*,#598,.T.);
#788=ORIENTED_EDGE('',*,*,#599,.F.);
#789=ORIENTED_EDGE('',*,*,#600,.F.);
#790=ORIENTED_EDGE('',*,*,#601,.F.);
#791=ORIENTED_EDGE('',*,*,#602,.F.);
#792=ORIENTED_EDGE('',*,*,#603,.T.);
#793=ORIENTED_EDGE('',*,*,#604,.T.);
#794=ORIENTED_EDGE('',*,*,#605,.T.);
#795=ORIENTED_EDGE('',*,*,#606,.F.);
#796=ORIENTED_EDGE('',*,*,#607,.F.);
#797=ORIENTED_EDGE('',*,*,#608,.F.);
#798=ORIENTED_EDGE('',*,*,#609,.F.);
#799=ORIENTED_EDGE('',*,*,#590,.T.);
#800=ORIENTED_EDGE('',*,*,#610,.T.);
#801=ORIENTED_EDGE('',*,*,#611,.F.);
#802=ORIENTED_EDGE('',*,*,#612,.F.);
#803=ORIENTED_EDGE('',*,*,#613,.F.);
#804=ORIENTED_EDGE('',*,*,#614,.T.);
#805=ORIENTED_EDGE('',*,*,#518,.T.);
#806=ORIENTED_EDGE('',*,*,#614,.F.);
#807=ORIENTED_EDGE('',*,*,#615,.F.);
#808=ORIENTED_EDGE('',*,*,#616,.T.);
#809=ORIENTED_EDGE('',*,*,#610,.F.);
#810=ORIENTED_EDGE('',*,*,#616,.F.);
#811=ORIENTED_EDGE('',*,*,#615,.T.);
#812=ORIENTED_EDGE('',*,*,#613,.T.);
#813=ORIENTED_EDGE('',*,*,#562,.T.);
#814=ORIENTED_EDGE('',*,*,#595,.T.);
#815=ORIENTED_EDGE('',*,*,#617,.F.);
#816=ORIENTED_EDGE('',*,*,#543,.F.);
#817=ORIENTED_EDGE('',*,*,#550,.T.);
#818=ORIENTED_EDGE('',*,*,#585,.T.);
#819=ORIENTED_EDGE('',*,*,#594,.T.);
#820=ORIENTED_EDGE('',*,*,#618,.T.);
#821=ORIENTED_EDGE('',*,*,#544,.T.);
#822=ORIENTED_EDGE('',*,*,#617,.T.);
#823=ORIENTED_EDGE('',*,*,#619,.T.);
#824=ORIENTED_EDGE('',*,*,#520,.F.);
#825=ORIENTED_EDGE('',*,*,#620,.T.);
#826=ORIENTED_EDGE('',*,*,#519,.T.);
#827=ORIENTED_EDGE('',*,*,#620,.F.);
#828=ORIENTED_EDGE('',*,*,#621,.T.);
#829=ORIENTED_EDGE('',*,*,#622,.T.);
#830=ORIENTED_EDGE('',*,*,#596,.T.);
#831=ORIENTED_EDGE('',*,*,#539,.T.);
#832=ORIENTED_EDGE('',*,*,#623,.T.);
#833=ORIENTED_EDGE('',*,*,#603,.F.);
#834=ORIENTED_EDGE('',*,*,#624,.T.);
#835=ORIENTED_EDGE('',*,*,#625,.F.);
#836=ORIENTED_EDGE('',*,*,#626,.F.);
#837=ORIENTED_EDGE('',*,*,#604,.F.);
#838=ORIENTED_EDGE('',*,*,#626,.T.);
#839=ORIENTED_EDGE('',*,*,#627,.F.);
#840=ORIENTED_EDGE('',*,*,#628,.F.);
#841=ORIENTED_EDGE('',*,*,#605,.F.);
#842=ORIENTED_EDGE('',*,*,#628,.T.);
#843=ORIENTED_EDGE('',*,*,#629,.F.);
#844=ORIENTED_EDGE('',*,*,#630,.F.);
#845=ORIENTED_EDGE('',*,*,#629,.T.);
#846=ORIENTED_EDGE('',*,*,#627,.T.);
#847=ORIENTED_EDGE('',*,*,#625,.T.);
#848=ORIENTED_EDGE('',*,*,#631,.T.);
#849=ORIENTED_EDGE('',*,*,#632,.T.);
#850=ORIENTED_EDGE('',*,*,#633,.F.);
#851=ORIENTED_EDGE('',*,*,#634,.T.);
#852=ORIENTED_EDGE('',*,*,#623,.F.);
#853=ORIENTED_EDGE('',*,*,#634,.F.);
#854=ORIENTED_EDGE('',*,*,#635,.F.);
#855=ORIENTED_EDGE('',*,*,#636,.T.);
#856=ORIENTED_EDGE('',*,*,#619,.F.);
#857=ORIENTED_EDGE('',*,*,#636,.F.);
#858=ORIENTED_EDGE('',*,*,#637,.F.);
#859=ORIENTED_EDGE('',*,*,#638,.T.);
#860=ORIENTED_EDGE('',*,*,#612,.T.);
#861=ORIENTED_EDGE('',*,*,#638,.F.);
#862=ORIENTED_EDGE('',*,*,#639,.F.);
#863=ORIENTED_EDGE('',*,*,#640,.T.);
#864=ORIENTED_EDGE('',*,*,#611,.T.);
#865=ORIENTED_EDGE('',*,*,#640,.F.);
#866=ORIENTED_EDGE('',*,*,#582,.T.);
#867=ORIENTED_EDGE('',*,*,#641,.T.);
#868=ORIENTED_EDGE('',*,*,#632,.F.);
#869=ORIENTED_EDGE('',*,*,#641,.F.);
#870=ORIENTED_EDGE('',*,*,#593,.T.);
#871=ORIENTED_EDGE('',*,*,#642,.F.);
#872=ORIENTED_EDGE('',*,*,#545,.F.);
#873=ORIENTED_EDGE('',*,*,#618,.F.);
#874=ORIENTED_EDGE('',*,*,#538,.T.);
#875=ORIENTED_EDGE('',*,*,#643,.F.);
#876=ORIENTED_EDGE('',*,*,#644,.F.);
#877=ORIENTED_EDGE('',*,*,#621,.F.);
#878=ORIENTED_EDGE('',*,*,#557,.T.);
#879=ORIENTED_EDGE('',*,*,#597,.T.);
#880=ORIENTED_EDGE('',*,*,#622,.F.);
#881=ORIENTED_EDGE('',*,*,#644,.T.);
#882=ORIENTED_EDGE('',*,*,#645,.F.);
#883=ORIENTED_EDGE('',*,*,#646,.F.);
#884=ORIENTED_EDGE('',*,*,#598,.F.);
#885=ORIENTED_EDGE('',*,*,#583,.T.);
#886=ORIENTED_EDGE('',*,*,#599,.T.);
#887=ORIENTED_EDGE('',*,*,#646,.T.);
#888=ORIENTED_EDGE('',*,*,#647,.F.);
#889=ORIENTED_EDGE('',*,*,#648,.F.);
#890=ORIENTED_EDGE('',*,*,#600,.T.);
#891=ORIENTED_EDGE('',*,*,#648,.T.);
#892=ORIENTED_EDGE('',*,*,#649,.F.);
#893=ORIENTED_EDGE('',*,*,#650,.F.);
#894=ORIENTED_EDGE('',*,*,#601,.T.);
#895=ORIENTED_EDGE('',*,*,#650,.T.);
#896=ORIENTED_EDGE('',*,*,#651,.F.);
#897=ORIENTED_EDGE('',*,*,#652,.F.);
#898=ORIENTED_EDGE('',*,*,#606,.T.);
#899=ORIENTED_EDGE('',*,*,#630,.T.);
#900=ORIENTED_EDGE('',*,*,#631,.F.);
#901=ORIENTED_EDGE('',*,*,#624,.F.);
#902=ORIENTED_EDGE('',*,*,#602,.T.);
#903=ORIENTED_EDGE('',*,*,#652,.T.);
#904=ORIENTED_EDGE('',*,*,#653,.F.);
#905=ORIENTED_EDGE('',*,*,#654,.F.);
#906=ORIENTED_EDGE('',*,*,#607,.T.);
#907=ORIENTED_EDGE('',*,*,#654,.T.);
#908=ORIENTED_EDGE('',*,*,#655,.F.);
#909=ORIENTED_EDGE('',*,*,#656,.F.);
#910=ORIENTED_EDGE('',*,*,#608,.T.);
#911=ORIENTED_EDGE('',*,*,#656,.T.);
#912=ORIENTED_EDGE('',*,*,#657,.F.);
#913=ORIENTED_EDGE('',*,*,#658,.F.);
#914=ORIENTED_EDGE('',*,*,#609,.T.);
#915=ORIENTED_EDGE('',*,*,#658,.T.);
#916=ORIENTED_EDGE('',*,*,#659,.F.);
#917=ORIENTED_EDGE('',*,*,#591,.F.);
#918=ORIENTED_EDGE('',*,*,#524,.T.);
#919=ORIENTED_EDGE('',*,*,#546,.T.);
#920=ORIENTED_EDGE('',*,*,#642,.T.);
#921=ORIENTED_EDGE('',*,*,#592,.T.);
#922=ORIENTED_EDGE('',*,*,#659,.T.);
#923=ORIENTED_EDGE('',*,*,#657,.T.);
#924=ORIENTED_EDGE('',*,*,#655,.T.);
#925=ORIENTED_EDGE('',*,*,#653,.T.);
#926=ORIENTED_EDGE('',*,*,#651,.T.);
#927=ORIENTED_EDGE('',*,*,#649,.T.);
#928=ORIENTED_EDGE('',*,*,#647,.T.);
#929=ORIENTED_EDGE('',*,*,#645,.T.);
#930=ORIENTED_EDGE('',*,*,#643,.T.);
#931=ORIENTED_EDGE('',*,*,#537,.T.);
#932=ORIENTED_EDGE('',*,*,#534,.T.);
#933=ORIENTED_EDGE('',*,*,#529,.T.);
#934=ORIENTED_EDGE('',*,*,#564,.T.);
#935=ORIENTED_EDGE('',*,*,#580,.T.);
#936=ORIENTED_EDGE('',*,*,#577,.T.);
#937=ORIENTED_EDGE('',*,*,#574,.T.);
#938=ORIENTED_EDGE('',*,*,#571,.T.);
#939=ORIENTED_EDGE('',*,*,#568,.T.);
#940=ORIENTED_EDGE('',*,*,#639,.T.);
#941=ORIENTED_EDGE('',*,*,#637,.T.);
#942=ORIENTED_EDGE('',*,*,#635,.T.);
#943=ORIENTED_EDGE('',*,*,#633,.T.);
#944=PLANE('',#1057);
#945=PLANE('',#1060);
#946=PLANE('',#1062);
#947=PLANE('',#1063);
#948=PLANE('',#1064);
#949=PLANE('',#1065);
#950=PLANE('',#1066);
#951=PLANE('',#1067);
#952=PLANE('',#1068);
#953=PLANE('',#1069);
#954=PLANE('',#1070);
#955=PLANE('',#1071);
#956=PLANE('',#1072);
#957=PLANE('',#1073);
#958=PLANE('',#1074);
#959=PLANE('',#1075);
#960=PLANE('',#1076);
#961=PLANE('',#1077);
#962=PLANE('',#1078);
#963=PLANE('',#1079);
#964=PLANE('',#1081);
#965=PLANE('',#1082);
#966=PLANE('',#1083);
#967=PLANE('',#1084);
#968=PLANE('',#1085);
#969=PLANE('',#1086);
#970=PLANE('',#1087);
#971=PLANE('',#1097);
#972=PLANE('',#1098);
#973=PLANE('',#1099);
#974=PLANE('',#1102);
#975=PLANE('',#1104);
#976=PLANE('',#1105);
#977=PLANE('',#1106);
#978=PLANE('',#1107);
#979=PLANE('',#1119);
#980=PLANE('',#1120);
#981=PLANE('',#1121);
#982=PLANE('',#1122);
#983=PLANE('',#1123);
#984=PLANE('',#1124);
#985=PLANE('',#1127);
#986=PLANE('',#1128);
#987=PLANE('',#1129);
#988=PLANE('',#1130);
#989=ADVANCED_FACE('',(#282,#268),#944,.F.);
#990=ADVANCED_FACE('',(#283),#945,.T.);
#991=ADVANCED_FACE('',(#284),#946,.F.);
#992=ADVANCED_FACE('',(#285),#947,.F.);
#993=ADVANCED_FACE('',(#286),#948,.F.);
#994=ADVANCED_FACE('',(#287),#949,.T.);
#995=ADVANCED_FACE('',(#288),#950,.T.);
#996=ADVANCED_FACE('',(#289),#951,.T.);
#997=ADVANCED_FACE('',(#290),#952,.T.);
#998=ADVANCED_FACE('',(#291),#953,.F.);
#999=ADVANCED_FACE('',(#292),#954,.T.);
#1000=ADVANCED_FACE('',(#293),#955,.F.);
#1001=ADVANCED_FACE('',(#294),#956,.F.);
#1002=ADVANCED_FACE('',(#295),#957,.F.);
#1003=ADVANCED_FACE('',(#296),#958,.F.);
#1004=ADVANCED_FACE('',(#297),#959,.F.);
#1005=ADVANCED_FACE('',(#298),#960,.F.);
#1006=ADVANCED_FACE('',(#299),#961,.F.);
#1007=ADVANCED_FACE('',(#300),#962,.F.);
#1008=ADVANCED_FACE('',(#301,#269),#963,.T.);
#1009=ADVANCED_FACE('',(#302),#964,.T.);
#1010=ADVANCED_FACE('',(#303),#965,.F.);
#1011=ADVANCED_FACE('',(#304),#966,.T.);
#1012=ADVANCED_FACE('',(#305),#967,.T.);
#1013=ADVANCED_FACE('',(#306),#968,.T.);
#1014=ADVANCED_FACE('',(#307),#969,.T.);
#1015=ADVANCED_FACE('',(#308,#270,#271,#272),#970,.F.);
#1016=ADVANCED_FACE('',(#309),#15,.F.);
#1017=ADVANCED_FACE('',(#310),#16,.T.);
#1018=ADVANCED_FACE('',(#311,#273),#971,.T.);
#1019=ADVANCED_FACE('',(#312),#972,.T.);
#1020=ADVANCED_FACE('',(#313,#274),#973,.F.);
#1021=ADVANCED_FACE('',(#314),#17,.T.);
#1022=ADVANCED_FACE('',(#315,#275),#974,.T.);
#1023=ADVANCED_FACE('',(#316),#975,.T.);
#1024=ADVANCED_FACE('',(#317),#976,.T.);
#1025=ADVANCED_FACE('',(#318),#977,.T.);
#1026=ADVANCED_FACE('',(#319,#276),#978,.F.);
#1027=ADVANCED_FACE('',(#320),#18,.F.);
#1028=ADVANCED_FACE('',(#321),#19,.F.);
#1029=ADVANCED_FACE('',(#322),#20,.F.);
#1030=ADVANCED_FACE('',(#323),#21,.F.);
#1031=ADVANCED_FACE('',(#324),#22,.F.);
#1032=ADVANCED_FACE('',(#325),#979,.T.);
#1033=ADVANCED_FACE('',(#326),#980,.T.);
#1034=ADVANCED_FACE('',(#327),#981,.T.);
#1035=ADVANCED_FACE('',(#328),#982,.T.);
#1036=ADVANCED_FACE('',(#329),#983,.T.);
#1037=ADVANCED_FACE('',(#330),#984,.T.);
#1038=ADVANCED_FACE('',(#331),#23,.T.);
#1039=ADVANCED_FACE('',(#332),#985,.T.);
#1040=ADVANCED_FACE('',(#333),#986,.T.);
#1041=ADVANCED_FACE('',(#334),#987,.T.);
#1042=ADVANCED_FACE('',(#335,#277,#278,#279,#280,#281),#988,.T.);
#1043=CLOSED_SHELL('',(#989,#990,#991,#992,#993,#994,#995,#996,#997,#998,
#999,#1000,#1001,#1002,#1003,#1004,#1005,#1006,#1007,#1008,#1009,#1010,
#1011,#1012,#1013,#1014,#1015,#1016,#1017,#1018,#1019,#1020,#1021,#1022,
#1023,#1024,#1025,#1026,#1027,#1028,#1029,#1030,#1031,#1032,#1033,#1034,
#1035,#1036,#1037,#1038,#1039,#1040,#1041,#1042));
#1044=DERIVED_UNIT_ELEMENT(#1046,1.);
#1045=DERIVED_UNIT_ELEMENT(#1699,-3.);
#1046=(
MASS_UNIT()
NAMED_UNIT(*)
SI_UNIT(.KILO.,.GRAM.)
);
#1047=DERIVED_UNIT((#1044,#1045));
#1048=MEASURE_REPRESENTATION_ITEM('density measure',
POSITIVE_RATIO_MEASURE(7850.),#1047);
#1049=PROPERTY_DEFINITION_REPRESENTATION(#1054,#1051);
#1050=PROPERTY_DEFINITION_REPRESENTATION(#1055,#1052);
#1051=REPRESENTATION('material name',(#1053),#1696);
#1052=REPRESENTATION('density',(#1048),#1696);
#1053=DESCRIPTIVE_REPRESENTATION_ITEM('Steel','Steel');
#1054=PROPERTY_DEFINITION('material property','material name',#1706);
#1055=PROPERTY_DEFINITION('material property','density of part',#1706);
#1056=AXIS2_PLACEMENT_3D('',#1403,#1131,#1132);
#1057=AXIS2_PLACEMENT_3D('',#1404,#1133,#1134);
#1058=AXIS2_PLACEMENT_3D('',#1406,#1135,#1136);
#1059=AXIS2_PLACEMENT_3D('',#1408,#1137,#1138);
#1060=AXIS2_PLACEMENT_3D('',#1409,#1139,#1140);
#1061=AXIS2_PLACEMENT_3D('',#1411,#1141,#1142);
#1062=AXIS2_PLACEMENT_3D('',#1412,#1143,#1144);
#1063=AXIS2_PLACEMENT_3D('',#1427,#1152,#1153);
#1064=AXIS2_PLACEMENT_3D('',#1433,#1157,#1158);
#1065=AXIS2_PLACEMENT_3D('',#1445,#1165,#1166);
#1066=AXIS2_PLACEMENT_3D('',#1455,#1172,#1173);
#1067=AXIS2_PLACEMENT_3D('',#1465,#1179,#1180);
#1068=AXIS2_PLACEMENT_3D('',#1469,#1183,#1184);
#1069=AXIS2_PLACEMENT_3D('',#1473,#1187,#1188);
#1070=AXIS2_PLACEMENT_3D('',#1477,#1191,#1192);
#1071=AXIS2_PLACEMENT_3D('',#1483,#1196,#1197);
#1072=AXIS2_PLACEMENT_3D('',#1489,#1201,#1202);
#1073=AXIS2_PLACEMENT_3D('',#1499,#1208,#1209);
#1074=AXIS2_PLACEMENT_3D('',#1508,#1214,#1215);
#1075=AXIS2_PLACEMENT_3D('',#1514,#1219,#1220);
#1076=AXIS2_PLACEMENT_3D('',#1520,#1224,#1225);
#1077=AXIS2_PLACEMENT_3D('',#1526,#1229,#1230);
#1078=AXIS2_PLACEMENT_3D('',#1532,#1234,#1235);
#1079=AXIS2_PLACEMENT_3D('',#1535,#1238,#1239);
#1080=AXIS2_PLACEMENT_3D('',#1537,#1240,#1241);
#1081=AXIS2_PLACEMENT_3D('',#1538,#1242,#1243);
#1082=AXIS2_PLACEMENT_3D('',#1542,#1246,#1247);
#1083=AXIS2_PLACEMENT_3D('',#1544,#1249,#1250);
#1084=AXIS2_PLACEMENT_3D('',#1550,#1254,#1255);
#1085=AXIS2_PLACEMENT_3D('',#1552,#1257,#1258);
#1086=AXIS2_PLACEMENT_3D('',#1564,#1265,#1266);
#1087=AXIS2_PLACEMENT_3D('',#1568,#1269,#1270);
#1088=AXIS2_PLACEMENT_3D('',#1578,#1275,#1276);
#1089=AXIS2_PLACEMENT_3D('',#1586,#1280,#1281);
#1090=AXIS2_PLACEMENT_3D('',#1593,#1285,#1286);
#1091=AXIS2_PLACEMENT_3D('',#1595,#1287,#1288);
#1092=AXIS2_PLACEMENT_3D('',#1597,#1289,#1290);
#1093=AXIS2_PLACEMENT_3D('',#1598,#1291,#1292);
#1094=AXIS2_PLACEMENT_3D('',#1600,#1293,#1294);
#1095=AXIS2_PLACEMENT_3D('',#1602,#1296,#1297);
#1096=AXIS2_PLACEMENT_3D('',#1604,#1298,#1299);
#1097=AXIS2_PLACEMENT_3D('',#1606,#1301,#1302);
#1098=AXIS2_PLACEMENT_3D('',#1607,#1303,#1304);
#1099=AXIS2_PLACEMENT_3D('',#1609,#1306,#1307);
#1100=AXIS2_PLACEMENT_3D('',#1612,#1309,#1310);
#1101=AXIS2_PLACEMENT_3D('',#1613,#1311,#1312);
#1102=AXIS2_PLACEMENT_3D('',#1615,#1314,#1315);
#1103=AXIS2_PLACEMENT_3D('',#1620,#1318,#1319);
#1104=AXIS2_PLACEMENT_3D('',#1621,#1320,#1321);
#1105=AXIS2_PLACEMENT_3D('',#1627,#1325,#1326);
#1106=AXIS2_PLACEMENT_3D('',#1631,#1329,#1330);
#1107=AXIS2_PLACEMENT_3D('',#1635,#1333,#1334);
#1108=AXIS2_PLACEMENT_3D('',#1636,#1335,#1336);
#1109=AXIS2_PLACEMENT_3D('',#1638,#1337,#1338);
#1110=AXIS2_PLACEMENT_3D('',#1639,#1339,#1340);
#1111=AXIS2_PLACEMENT_3D('',#1641,#1341,#1342);
#1112=AXIS2_PLACEMENT_3D('',#1643,#1344,#1345);
#1113=AXIS2_PLACEMENT_3D('',#1645,#1346,#1347);
#1114=AXIS2_PLACEMENT_3D('',#1647,#1349,#1350);
#1115=AXIS2_PLACEMENT_3D('',#1649,#1351,#1352);
#1116=AXIS2_PLACEMENT_3D('',#1651,#1354,#1355);
#1117=AXIS2_PLACEMENT_3D('',#1653,#1356,#1357);
#1118=AXIS2_PLACEMENT_3D('',#1655,#1359,#1360);
#1119=AXIS2_PLACEMENT_3D('',#1657,#1362,#1363);
#1120=AXIS2_PLACEMENT_3D('',#1659,#1365,#1366);
#1121=AXIS2_PLACEMENT_3D('',#1663,#1369,#1370);
#1122=AXIS2_PLACEMENT_3D('',#1667,#1373,#1374);
#1123=AXIS2_PLACEMENT_3D('',#1671,#1377,#1378);
#1124=AXIS2_PLACEMENT_3D('',#1675,#1381,#1382);
#1125=AXIS2_PLACEMENT_3D('',#1679,#1385,#1386);
#1126=AXIS2_PLACEMENT_3D('',#1681,#1387,#1388);
#1127=AXIS2_PLACEMENT_3D('',#1683,#1390,#1391);
#1128=AXIS2_PLACEMENT_3D('',#1687,#1394,#1395);
#1129=AXIS2_PLACEMENT_3D('',#1691,#1398,#1399);
#1130=AXIS2_PLACEMENT_3D('',#1693,#1401,#1402);
#1131=DIRECTION('axis',(0.,0.,1.));
#1132=DIRECTION('refdir',(1.,0.,0.));
#1133=DIRECTION('center_axis',(0.,0.,-1.));
#1134=DIRECTION('ref_axis',(-1.,0.,0.));
#1135=DIRECTION('center_axis',(0.,0.,-1.));
#1136=DIRECTION('ref_axis',(-1.,0.,0.));
#1137=DIRECTION('center_axis',(0.,0.,1.));
#1138=DIRECTION('ref_axis',(-1.,0.,0.));
#1139=DIRECTION('center_axis',(0.,0.,1.));
#1140=DIRECTION('ref_axis',(-1.,1.83697019872103E-16,0.));
#1141=DIRECTION('center_axis',(0.,0.,1.));
#1142=DIRECTION('ref_axis',(-1.,0.,0.));
#1143=DIRECTION('center_axis',(-1.,0.,1.65629816524654E-78));
#1144=DIRECTION('ref_axis',(1.65629816524654E-78,-3.17346063905483E-55,
1.));
#1145=DIRECTION('',(-1.65629816524654E-78,0.,-1.));
#1146=DIRECTION('',(1.83886035870111E-93,1.,1.11022302462516E-15));
#1147=DIRECTION('',(-1.65629816524654E-78,0.,-1.));
#1148=DIRECTION('',(0.,-1.,0.));
#1149=DIRECTION('',(-1.65629816524654E-78,1.11022302462516E-15,-1.));
#1150=DIRECTION('',(-1.65629816524654E-78,1.11022302462516E-15,-1.));
#1151=DIRECTION('',(0.,1.,0.));
#1152=DIRECTION('center_axis',(-9.71040546319381E-17,1.,1.11022302462516E-15));
#1153=DIRECTION('ref_axis',(0.,-1.11022302462516E-15,1.));
#1154=DIRECTION('',(1.,9.71040546319381E-17,0.));
#1155=DIRECTION('',(-1.,-9.71040546319381E-17,0.));
#1156=DIRECTION('',(0.,-1.11022302462516E-15,1.));
#1157=DIRECTION('center_axis',(1.,0.,0.));
#1158=DIRECTION('ref_axis',(0.,0.,-1.));
#1159=DIRECTION('',(0.,0.,1.));
#1160=DIRECTION('',(0.,-1.,0.));
#1161=DIRECTION('',(0.,-1.11022302462516E-15,1.));
#1162=DIRECTION('',(0.,1.,0.));
#1163=DIRECTION('',(0.,0.,1.));
#1164=DIRECTION('',(0.,-1.,-1.11022302462516E-15));
#1165=DIRECTION('center_axis',(0.,-1.,0.));
#1166=DIRECTION('ref_axis',(-1.,0.,0.));
#1167=DIRECTION('',(1.,0.,0.));
#1168=DIRECTION('',(0.,0.,1.));
#1169=DIRECTION('',(-1.,0.,0.));
#1170=DIRECTION('',(0.,0.,-1.));
#1171=DIRECTION('',(-1.,0.,0.));
#1172=DIRECTION('center_axis',(0.,-1.,0.));
#1173=DIRECTION('ref_axis',(-1.,0.,0.));
#1174=DIRECTION('',(-1.,0.,0.));
#1175=DIRECTION('',(0.,0.,1.));
#1176=DIRECTION('',(1.,0.,0.));
#1177=DIRECTION('',(0.,0.,-1.));
#1178=DIRECTION('',(1.,0.,0.));
#1179=DIRECTION('center_axis',(0.,-1.11022302462516E-15,1.));
#1180=DIRECTION('ref_axis',(1.,0.,0.));
#1181=DIRECTION('',(0.,-1.,-1.11022302462516E-15));
#1182=DIRECTION('',(-1.,0.,0.));
#1183=DIRECTION('center_axis',(0.,-1.11022302462516E-15,1.));
#1184=DIRECTION('ref_axis',(1.,0.,0.));
#1185=DIRECTION('',(-1.,0.,0.));
#1186=DIRECTION('',(0.,1.,1.11022302462516E-15));
#1187=DIRECTION('center_axis',(0.,-1.,0.));
#1188=DIRECTION('ref_axis',(-1.,0.,0.));
#1189=DIRECTION('',(0.,0.,1.));
#1190=DIRECTION('',(-1.,0.,0.));
#1191=DIRECTION('center_axis',(-9.71040546319381E-17,1.,1.11022302462516E-15));
#1192=DIRECTION('ref_axis',(-1.,-9.7104054631938E-17,-3.2368018210646E-17));
#1193=DIRECTION('',(1.,9.71040546319381E-17,0.));
#1194=DIRECTION('',(0.,-1.11022302462516E-15,1.));
#1195=DIRECTION('',(1.,9.71040546319381E-17,0.));
#1196=DIRECTION('center_axis',(0.,0.,-1.));
#1197=DIRECTION('ref_axis',(-1.,0.,0.));
#1198=DIRECTION('',(0.,-1.,0.));
#1199=DIRECTION('',(-1.,0.,0.));
#1200=DIRECTION('',(0.,-1.,0.));
#1201=DIRECTION('center_axis',(0.,0.,-1.));
#1202=DIRECTION('ref_axis',(-1.,0.,0.));
#1203=DIRECTION('',(1.,9.71040546319381E-17,0.));
#1204=DIRECTION('',(0.,1.,0.));
#1205=DIRECTION('',(-1.,0.,0.));
#1206=DIRECTION('',(0.,1.,0.));
#1207=DIRECTION('',(-1.,0.,0.));
#1208=DIRECTION('center_axis',(-0.866025403784439,0.499999999999999,0.));
#1209=DIRECTION('ref_axis',(-0.499999999999999,-0.866025403784439,0.));
#1210=DIRECTION('',(-0.499999999999999,-0.866025403784439,0.));
#1211=DIRECTION('',(0.,0.,1.));
#1212=DIRECTION('',(-0.499999999999999,-0.866025403784439,0.));
#1213=DIRECTION('',(0.,0.,1.));
#1214=DIRECTION('center_axis',(1.11720552277783E-14,1.,0.));
#1215=DIRECTION('ref_axis',(-1.,1.11720552277783E-14,0.));
#1216=DIRECTION('',(-1.,1.11720552277783E-14,0.));
#1217=DIRECTION('',(0.,0.,1.));
#1218=DIRECTION('',(-1.,1.11720552277783E-14,0.));
#1219=DIRECTION('center_axis',(0.866025403784445,0.499999999999989,0.));
#1220=DIRECTION('ref_axis',(-0.499999999999989,0.866025403784445,0.));
#1221=DIRECTION('',(-0.499999999999989,0.866025403784445,0.));
#1222=DIRECTION('',(0.,0.,1.));
#1223=DIRECTION('',(-0.499999999999989,0.866025403784445,0.));
#1224=DIRECTION('center_axis',(0.866025403784435,-0.500000000000006,0.));
#1225=DIRECTION('ref_axis',(0.500000000000006,0.866025403784435,0.));
#1226=DIRECTION('',(0.500000000000006,0.866025403784435,0.));
#1227=DIRECTION('',(0.,0.,1.));
#1228=DIRECTION('',(0.500000000000006,0.866025403784435,0.));
#1229=DIRECTION('center_axis',(-1.83697019872103E-16,-1.,0.));
#1230=DIRECTION('ref_axis',(1.,-1.83697019872103E-16,0.));
#1231=DIRECTION('',(1.,-1.83697019872103E-16,0.));
#1232=DIRECTION('',(0.,0.,1.));
#1233=DIRECTION('',(1.,-1.83697019872103E-16,0.));
#1234=DIRECTION('center_axis',(-0.866025403784444,-0.499999999999991,0.));
#1235=DIRECTION('ref_axis',(0.499999999999991,-0.866025403784444,0.));
#1236=DIRECTION('',(0.499999999999991,-0.866025403784444,0.));
#1237=DIRECTION('',(0.499999999999991,-0.866025403784444,0.));
#1238=DIRECTION('center_axis',(0.,0.,-1.));
#1239=DIRECTION('ref_axis',(1.,-1.83697019872103E-16,0.));
#1240=DIRECTION('center_axis',(0.,0.,-1.));
#1241=DIRECTION('ref_axis',(-1.,0.,0.));
#1242=DIRECTION('center_axis',(1.,0.,0.));
#1243=DIRECTION('ref_axis',(0.,1.,1.0547118733939E-15));
#1244=DIRECTION('',(0.,0.,1.));
#1245=DIRECTION('',(0.,-1.,0.));
#1246=DIRECTION('center_axis',(0.,-1.,0.));
#1247=DIRECTION('ref_axis',(-1.,0.,0.));
#1248=DIRECTION('',(0.,0.,-1.));
#1249=DIRECTION('center_axis',(-1.,0.,0.));
#1250=DIRECTION('ref_axis',(0.,-1.,0.));
#1251=DIRECTION('',(0.,0.,-1.));
#1252=DIRECTION('',(0.,-1.11022302462516E-15,1.));
#1253=DIRECTION('',(0.,1.,0.));
#1254=DIRECTION('center_axis',(-9.71040546319381E-17,1.,1.11022302462516E-15));
#1255=DIRECTION('ref_axis',(-1.,-9.7104054631938E-17,-3.2368018210646E-17));
#1256=DIRECTION('',(1.,9.71040546319381E-17,0.));
#1257=DIRECTION('center_axis',(0.,1.,0.));
#1258=DIRECTION('ref_axis',(1.,0.,0.));
#1259=DIRECTION('',(1.,0.,0.));
#1260=DIRECTION('',(0.,0.,-1.));
#1261=DIRECTION('',(1.,0.,0.));
#1262=DIRECTION('',(0.,0.,-1.));
#1263=DIRECTION('',(-1.,0.,0.));
#1264=DIRECTION('',(0.,0.,1.));
#1265=DIRECTION('center_axis',(-1.,0.,0.));
#1266=DIRECTION('ref_axis',(0.,-1.,0.));
#1267=DIRECTION('',(0.,-1.,0.));
#1268=DIRECTION('',(0.,0.,1.));
#1269=DIRECTION('center_axis',(0.,0.,-1.));
#1270=DIRECTION('ref_axis',(-1.,0.,0.));
#1271=DIRECTION('',(1.,0.,0.));
#1272=DIRECTION('',(-1.66140642844789E-13,-1.,0.));
#1273=DIRECTION('',(-1.,0.,0.));
#1274=DIRECTION('',(0.,-1.,0.));
#1275=DIRECTION('center_axis',(0.,0.,1.));
#1276=DIRECTION('ref_axis',(-0.661331966173201,0.750093347869109,0.));
#1277=DIRECTION('',(0.,-1.,0.));
#1278=DIRECTION('',(-1.,0.,0.));
#1279=DIRECTION('',(-1.97372982155583E-15,1.,0.));
#1280=DIRECTION('center_axis',(0.,0.,1.));
#1281=DIRECTION('ref_axis',(-0.661331966173201,0.750093347869109,0.));
#1282=DIRECTION('',(-8.09039826550306E-16,1.,0.));
#1283=DIRECTION('',(-1.,0.,0.));
#1284=DIRECTION('',(-2.00431298781166E-14,1.,0.));
#1285=DIRECTION('center_axis',(0.,0.,-1.));
#1286=DIRECTION('ref_axis',(-1.,0.,0.));
#1287=DIRECTION('center_axis',(0.,0.,1.));
#1288=DIRECTION('ref_axis',(-1.,0.,0.));
#1289=DIRECTION('center_axis',(0.,0.,1.));
#1290=DIRECTION('ref_axis',(-1.,0.,0.));
#1291=DIRECTION('center_axis',(0.,0.,1.));
#1292=DIRECTION('ref_axis',(-1.,0.,0.));
#1293=DIRECTION('center_axis',(0.,0.,-1.));
#1294=DIRECTION('ref_axis',(-1.,0.,0.));
#1295=DIRECTION('',(0.,0.,-1.));
#1296=DIRECTION('center_axis',(0.,0.,1.));
#1297=DIRECTION('ref_axis',(-1.,0.,0.));
#1298=DIRECTION('center_axis',(0.,0.,1.));
#1299=DIRECTION('ref_axis',(-1.,0.,0.));
#1300=DIRECTION('',(0.,0.,-1.));
#1301=DIRECTION('center_axis',(0.,0.,1.));
#1302=DIRECTION('ref_axis',(-1.,0.,0.));
#1303=DIRECTION('center_axis',(1.,0.,0.));
#1304=DIRECTION('ref_axis',(0.,1.,0.));
#1305=DIRECTION('',(0.,1.,0.));
#1306=DIRECTION('center_axis',(0.,0.,-1.));
#1307=DIRECTION('ref_axis',(-1.,0.,0.));
#1308=DIRECTION('',(0.,-1.,0.));
#1309=DIRECTION('center_axis',(0.,0.,-1.));
#1310=DIRECTION('ref_axis',(-1.,0.,0.));
#1311=DIRECTION('center_axis',(0.,0.,1.));
#1312=DIRECTION('ref_axis',(-1.,0.,0.));
#1313=DIRECTION('',(0.,0.,-1.));
#1314=DIRECTION('center_axis',(0.,0.,1.));
#1315=DIRECTION('ref_axis',(-1.,0.,0.));
#1316=DIRECTION('',(0.,1.,0.));
#1317=DIRECTION('',(-1.,0.,0.));
#1318=DIRECTION('center_axis',(0.,0.,-1.));
#1319=DIRECTION('ref_axis',(-1.,0.,0.));
#1320=DIRECTION('center_axis',(1.,0.,0.));
#1321=DIRECTION('ref_axis',(0.,1.,0.));
#1322=DIRECTION('',(0.,0.,-1.));
#1323=DIRECTION('',(0.,1.,0.));
#1324=DIRECTION('',(0.,0.,1.));
#1325=DIRECTION('center_axis',(0.,-1.,0.));
#1326=DIRECTION('ref_axis',(1.,0.,0.));
#1327=DIRECTION('',(1.,0.,0.));
#1328=DIRECTION('',(0.,0.,1.));
#1329=DIRECTION('center_axis',(-1.,-1.97372982155583E-15,0.));
#1330=DIRECTION('ref_axis',(1.97372982155583E-15,-1.,0.));
#1331=DIRECTION('',(1.97372982155583E-15,-1.,0.));
#1332=DIRECTION('',(0.,0.,1.));
#1333=DIRECTION('center_axis',(0.,0.,-1.));
#1334=DIRECTION('ref_axis',(-1.,0.,0.));
#1335=DIRECTION('center_axis',(0.,0.,1.));
#1336=DIRECTION('ref_axis',(-0.661331966173201,0.750093347869109,0.));
#1337=DIRECTION('center_axis',(0.,0.,-1.));
#1338=DIRECTION('ref_axis',(-1.,0.,0.));
#1339=DIRECTION('center_axis',(0.,0.,-1.));
#1340=DIRECTION('ref_axis',(-1.,0.,0.));
#1341=DIRECTION('center_axis',(0.,0.,1.));
#1342=DIRECTION('ref_axis',(-1.,0.,0.));
#1343=DIRECTION('',(0.,0.,1.));
#1344=DIRECTION('center_axis',(0.,0.,-1.));
#1345=DIRECTION('ref_axis',(-1.,0.,0.));
#1346=DIRECTION('center_axis',(0.,0.,1.));
#1347=DIRECTION('ref_axis',(-1.,0.,0.));
#1348=DIRECTION('',(0.,0.,1.));
#1349=DIRECTION('center_axis',(0.,0.,-1.));
#1350=DIRECTION('ref_axis',(-1.,0.,0.));
#1351=DIRECTION('center_axis',(0.,0.,1.));
#1352=DIRECTION('ref_axis',(-1.,0.,0.));
#1353=DIRECTION('',(0.,0.,1.));
#1354=DIRECTION('center_axis',(0.,0.,-1.));
#1355=DIRECTION('ref_axis',(-1.,0.,0.));
#1356=DIRECTION('center_axis',(0.,0.,1.));
#1357=DIRECTION('ref_axis',(-1.,0.,0.));
#1358=DIRECTION('',(0.,0.,1.));
#1359=DIRECTION('center_axis',(0.,0.,-1.));
#1360=DIRECTION('ref_axis',(-1.,0.,0.));
#1361=DIRECTION('',(0.,0.,1.));
#1362=DIRECTION('center_axis',(-1.,0.,0.));
#1363=DIRECTION('ref_axis',(0.,1.,0.));
#1364=DIRECTION('',(0.,1.,0.));
#1365=DIRECTION('center_axis',(1.,0.,0.));
#1366=DIRECTION('ref_axis',(0.,-1.,0.));
#1367=DIRECTION('',(0.,-1.,0.));
#1368=DIRECTION('',(0.,0.,-1.));
#1369=DIRECTION('center_axis',(0.,1.,0.));
#1370=DIRECTION('ref_axis',(1.,0.,0.));
#1371=DIRECTION('',(1.,0.,0.));
#1372=DIRECTION('',(0.,0.,-1.));
#1373=DIRECTION('center_axis',(1.,-1.66140642844789E-13,0.));
#1374=DIRECTION('ref_axis',(-1.66140642844789E-13,-1.,0.));
#1375=DIRECTION('',(-1.66140642844789E-13,-1.,0.));
#1376=DIRECTION('',(0.,0.,-1.));
#1377=DIRECTION('center_axis',(0.,-1.,0.));
#1378=DIRECTION('ref_axis',(-1.,0.,0.));
#1379=DIRECTION('',(-1.,0.,0.));
#1380=DIRECTION('',(0.,0.,-1.));
#1381=DIRECTION('center_axis',(1.,0.,0.));
#1382=DIRECTION('ref_axis',(0.,-1.,0.));
#1383=DIRECTION('',(0.,-1.,0.));
#1384=DIRECTION('',(0.,0.,-1.));
#1385=DIRECTION('center_axis',(0.,0.,-1.));
#1386=DIRECTION('ref_axis',(-0.661331966173201,0.750093347869109,0.));
#1387=DIRECTION('center_axis',(0.,0.,1.));
#1388=DIRECTION('ref_axis',(-0.661331966173201,0.750093347869109,0.));
#1389=DIRECTION('',(0.,0.,1.));
#1390=DIRECTION('center_axis',(-1.,-8.09039826550306E-16,0.));
#1391=DIRECTION('ref_axis',(-8.09039826550306E-16,1.,0.));
#1392=DIRECTION('',(-8.09039826550306E-16,1.,0.));
#1393=DIRECTION('',(0.,0.,-1.));
#1394=DIRECTION('center_axis',(0.,-1.,0.));
#1395=DIRECTION('ref_axis',(-1.,0.,0.));
#1396=DIRECTION('',(-1.,0.,0.));
#1397=DIRECTION('',(0.,0.,-1.));
#1398=DIRECTION('center_axis',(-1.,-2.00431298781166E-14,0.));
#1399=DIRECTION('ref_axis',(-2.00431298781166E-14,1.,0.));
#1400=DIRECTION('',(-2.00431298781166E-14,1.,0.));
#1401=DIRECTION('center_axis',(0.,0.,-1.));
#1402=DIRECTION('ref_axis',(-1.,0.,0.));
#1403=CARTESIAN_POINT('',(0.,0.,0.));
#1404=CARTESIAN_POINT('Origin',(56.2499999998125,55.249999999998,5.));
#1405=CARTESIAN_POINT('',(63.0625204089319,77.5349894330232,5.));
#1406=CARTESIAN_POINT('Origin',(60.9125163079728,77.5349894330232,5.));
#1407=CARTESIAN_POINT('',(62.4125163079728,77.5349894330232,5.));
#1408=CARTESIAN_POINT('Origin',(60.9125163079728,77.5349894330232,5.));
#1409=CARTESIAN_POINT('Origin',(60.9125163079729,77.5349894330232,25.7));
#1410=CARTESIAN_POINT('',(62.4125163079728,77.5349894330232,25.7));
#1411=CARTESIAN_POINT('Origin',(60.9125163079728,77.5349894330232,25.7));
#1412=CARTESIAN_POINT('Origin',(65.5499999998124,-4.8,3.5));
#1413=CARTESIAN_POINT('',(65.5499999998124,3.13272827289312,14.));
#1414=CARTESIAN_POINT('',(65.5499999998124,3.13272827289312,10.));
#1415=CARTESIAN_POINT('',(65.5499999998124,3.13272827289312,8.75));
#1416=CARTESIAN_POINT('',(65.5499999998124,-4.6,14.));
#1417=CARTESIAN_POINT('',(65.5499999998124,-2.30000000000001,14.));
#1418=CARTESIAN_POINT('',(65.5499999998124,-4.6,3.5));
#1419=CARTESIAN_POINT('',(65.5499999998124,-4.6,4.75));
#1420=CARTESIAN_POINT('',(65.5499999998124,5.2,3.5));
#1421=CARTESIAN_POINT('',(65.5499999998124,25.224999999999,3.5));
#1422=CARTESIAN_POINT('',(65.5499999998124,5.2,6.));
#1423=CARTESIAN_POINT('',(65.5499999998124,5.2,6.12500000000001));
#1424=CARTESIAN_POINT('',(65.5499999998124,5.2,10.));
#1425=CARTESIAN_POINT('',(65.5499999998124,5.2,4.75000000000001));
#1426=CARTESIAN_POINT('',(65.5499999998124,-0.31681793177672,10.));
#1427=CARTESIAN_POINT('Origin',(75.5499999998124,5.2,8.75));
#1428=CARTESIAN_POINT('',(85.5499999998124,5.20000000000001,6.));
#1429=CARTESIAN_POINT('',(73.3999999998124,5.2,6.));
#1430=CARTESIAN_POINT('',(85.5499999998124,5.20000000000001,3.5));
#1431=CARTESIAN_POINT('',(65.8999999998125,5.2,3.5));
#1432=CARTESIAN_POINT('',(85.5499999998124,5.2,11.375));
#1433=CARTESIAN_POINT('Origin',(85.5499999998124,-4.8,14.));
#1434=CARTESIAN_POINT('',(85.5499999998124,3.13272827289312,10.));
#1435=CARTESIAN_POINT('',(85.5499999998124,3.13272827289312,14.));
#1436=CARTESIAN_POINT('',(85.5499999998124,3.13272827289312,14.));
#1437=CARTESIAN_POINT('',(85.5499999998124,5.2,10.));
#1438=CARTESIAN_POINT('',(85.5499999998124,-0.31681793177672,10.));
#1439=CARTESIAN_POINT('',(85.5499999998124,5.2,10.));
#1440=CARTESIAN_POINT('',(85.5499999998124,-4.6,3.5));
#1441=CARTESIAN_POINT('',(85.5499999998124,25.224999999999,3.5));
#1442=CARTESIAN_POINT('',(85.5499999998124,-4.6,14.));
#1443=CARTESIAN_POINT('',(85.5499999998124,-4.6,10.));
#1444=CARTESIAN_POINT('',(85.5499999998124,-2.30000000000001,14.));
#1445=CARTESIAN_POINT('Origin',(98.5499999998123,-4.6,6.));
#1446=CARTESIAN_POINT('',(98.5499999998123,-4.6,3.5));
#1447=CARTESIAN_POINT('',(77.3999999998124,-4.6,3.5));
#1448=CARTESIAN_POINT('',(98.5499999998123,-4.6,25.));
#1449=CARTESIAN_POINT('',(98.5499999998123,-4.6,6.));
#1450=CARTESIAN_POINT('',(89.5499999998124,-4.6,25.));
#1451=CARTESIAN_POINT('',(96.2749999998084,-4.6,25.));
#1452=CARTESIAN_POINT('',(89.5499999998124,-4.6,14.));
#1453=CARTESIAN_POINT('',(89.5499999998124,-4.6,6.));
#1454=CARTESIAN_POINT('',(77.3999999998124,-4.6,14.));
#1455=CARTESIAN_POINT('Origin',(98.5499999998123,-4.6,6.));
#1456=CARTESIAN_POINT('',(22.9499999998125,-4.6,14.));
#1457=CARTESIAN_POINT('',(77.3999999998124,-4.6,14.));
#1458=CARTESIAN_POINT('',(22.9499999998125,-4.6,25.));
#1459=CARTESIAN_POINT('',(22.9499999998125,-4.6,6.));
#1460=CARTESIAN_POINT('',(13.9499999998125,-4.6,25.));
#1461=CARTESIAN_POINT('',(58.4999999998124,-4.6,25.));
#1462=CARTESIAN_POINT('',(13.9499999998125,-4.6,3.5));
#1463=CARTESIAN_POINT('',(13.9499999998125,-4.6,6.));
#1464=CARTESIAN_POINT('',(77.3999999998124,-4.6,3.5));
#1465=CARTESIAN_POINT('Origin',(56.2499999998124,0.19999999999999,14.));
#1466=CARTESIAN_POINT('',(89.5499999998124,3.13272827289312,14.));
#1467=CARTESIAN_POINT('',(89.5499999998124,1.99999999999999,14.));
#1468=CARTESIAN_POINT('',(73.3999999998124,3.13272827289312,14.));
#1469=CARTESIAN_POINT('Origin',(56.2499999998124,0.19999999999999,14.));
#1470=CARTESIAN_POINT('',(22.9499999998125,3.13272827289312,14.));
#1471=CARTESIAN_POINT('',(73.3999999998124,3.13272827289312,14.));
#1472=CARTESIAN_POINT('',(22.9499999998125,-2.30000000000001,14.));
#1473=CARTESIAN_POINT('Origin',(90.5499999998123,3.13272827289312,14.));
#1474=CARTESIAN_POINT('',(89.5499999998124,3.13272827289312,10.));
#1475=CARTESIAN_POINT('',(89.5499999998124,3.13272827289312,10.));
#1476=CARTESIAN_POINT('',(90.5499999998123,3.13272827289312,10.));
#1477=CARTESIAN_POINT('Origin',(90.5499999998123,5.2,6.00000000000001));
#1478=CARTESIAN_POINT('',(90.5499999998123,5.2,10.));
#1479=CARTESIAN_POINT('',(73.3999999998124,5.2,10.));
#1480=CARTESIAN_POINT('',(90.5499999998123,5.2,6.00000000000001));
#1481=CARTESIAN_POINT('',(90.5499999998123,5.2,6.00000000000001));
#1482=CARTESIAN_POINT('',(73.3999999998124,5.2,6.));
#1483=CARTESIAN_POINT('Origin',(56.2499999998124,4.16636413644656,10.));
#1484=CARTESIAN_POINT('',(89.5499999998124,3.80000000000001,10.));
#1485=CARTESIAN_POINT('',(89.5499999998124,3.98318206822328,10.));
#1486=CARTESIAN_POINT('',(90.5499999998123,3.80000000000001,10.));
#1487=CARTESIAN_POINT('',(74.1499999998048,3.80000000000001,10.));
#1488=CARTESIAN_POINT('',(90.5499999998123,-0.31681793177672,10.));
#1489=CARTESIAN_POINT('Origin',(56.2499999998124,4.16636413644656,10.));
#1490=CARTESIAN_POINT('',(21.9499999998125,5.2,10.));
#1491=CARTESIAN_POINT('',(73.3999999998124,5.2,10.));
#1492=CARTESIAN_POINT('',(21.9499999998125,3.79999999999999,10.));
#1493=CARTESIAN_POINT('',(21.9499999998125,4.68318206822328,10.));
#1494=CARTESIAN_POINT('',(22.9499999998125,3.79999999999999,10.));
#1495=CARTESIAN_POINT('',(35.0999999998124,3.79999999999999,10.));
#1496=CARTESIAN_POINT('',(22.9499999998125,3.13272827289312,10.));
#1497=CARTESIAN_POINT('',(22.9499999998125,-0.31681793177672,10.));
#1498=CARTESIAN_POINT('',(90.5499999998123,3.13272827289312,10.));
#1499=CARTESIAN_POINT('Origin',(54.6334192460807,113.599999999996,3.5));
#1500=CARTESIAN_POINT('',(54.6334192460807,113.599999999996,3.5));
#1501=CARTESIAN_POINT('',(53.0168384923498,110.799999999996,3.5));
#1502=CARTESIAN_POINT('',(42.2023462625922,92.0687499999969,3.5));
#1503=CARTESIAN_POINT('',(54.6334192460807,113.599999999996,7.));
#1504=CARTESIAN_POINT('',(54.6334192460807,113.599999999996,3.5));
#1505=CARTESIAN_POINT('',(53.0168384923498,110.799999999996,7.));
#1506=CARTESIAN_POINT('',(53.0168384923498,110.799999999996,7.));
#1507=CARTESIAN_POINT('',(53.0168384923498,110.799999999996,3.5));
#1508=CARTESIAN_POINT('Origin',(57.8665807535426,113.599999999996,3.5));
#1509=CARTESIAN_POINT('',(57.8665807535426,113.599999999996,3.5));
#1510=CARTESIAN_POINT('',(57.0582903766779,113.599999999996,3.5));
#1511=CARTESIAN_POINT('',(57.8665807535426,113.599999999996,7.));
#1512=CARTESIAN_POINT('',(57.8665807535426,113.599999999996,3.5));
#1513=CARTESIAN_POINT('',(54.6334192460807,113.599999999996,7.));
#1514=CARTESIAN_POINT('Origin',(59.4831615072735,110.799999999996,3.5));
#1515=CARTESIAN_POINT('',(59.4831615072735,110.799999999996,3.5));
#1516=CARTESIAN_POINT('',(71.1059441138967,90.6687499999963,3.5));
#1517=CARTESIAN_POINT('',(59.4831615072735,110.799999999996,7.));
#1518=CARTESIAN_POINT('',(59.4831615072735,110.799999999996,3.5));
#1519=CARTESIAN_POINT('',(57.8665807535426,113.599999999996,7.));
#1520=CARTESIAN_POINT('Origin',(57.8665807535426,107.999999999996,3.5));
#1521=CARTESIAN_POINT('',(57.8665807535426,107.999999999996,3.5));
#1522=CARTESIAN_POINT('',(46.2437981469194,87.8687499999971,3.5));
#1523=CARTESIAN_POINT('',(57.8665807535426,107.999999999996,7.));
#1524=CARTESIAN_POINT('',(57.8665807535426,107.999999999996,3.5));
#1525=CARTESIAN_POINT('',(59.4831615072735,110.799999999996,7.));
#1526=CARTESIAN_POINT('Origin',(54.6334192460807,107.999999999996,3.5));
#1527=CARTESIAN_POINT('',(54.6334192460807,107.999999999996,3.5));
#1528=CARTESIAN_POINT('',(55.4417096229466,107.999999999996,3.5));
#1529=CARTESIAN_POINT('',(54.6334192460807,107.999999999996,7.));
#1530=CARTESIAN_POINT('',(54.6334192460807,107.999999999996,3.5));
#1531=CARTESIAN_POINT('',(57.8665807535426,107.999999999996,7.));
#1532=CARTESIAN_POINT('Origin',(53.0168384923498,110.799999999996,3.5));
#1533=CARTESIAN_POINT('',(65.4479114758384,89.2687499999964,3.5));
#1534=CARTESIAN_POINT('',(54.6334192460807,107.999999999996,7.));
#1535=CARTESIAN_POINT('Origin',(56.2499999998117,110.799999999996,7.));
#1536=CARTESIAN_POINT('',(57.9999999998117,110.799999999996,7.));
#1537=CARTESIAN_POINT('Origin',(56.2499999998117,110.799999999996,7.));
#1538=CARTESIAN_POINT('Origin',(90.5499999998123,-4.8,6.));
#1539=CARTESIAN_POINT('',(90.5499999998123,3.80000000000001,6.));
#1540=CARTESIAN_POINT('',(90.5499999998123,3.80000000000001,6.));
#1541=CARTESIAN_POINT('',(90.5499999998123,25.224999999999,6.));
#1542=CARTESIAN_POINT('Origin',(90.5499999998123,3.13272827289312,14.));
#1543=CARTESIAN_POINT('',(22.9499999998125,3.13272827289312,10.));
#1544=CARTESIAN_POINT('Origin',(21.9499999998125,5.2,6.00000000000001));
#1545=CARTESIAN_POINT('',(21.9499999998125,3.79999999999999,6.));
#1546=CARTESIAN_POINT('',(21.9499999998125,3.79999999999999,6.));
#1547=CARTESIAN_POINT('',(21.9499999998125,5.2,6.00000000000001));
#1548=CARTESIAN_POINT('',(21.9499999998125,5.2,6.00000000000001));
#1549=CARTESIAN_POINT('',(21.9499999998125,30.224999999999,6.));
#1550=CARTESIAN_POINT('Origin',(90.5499999998123,5.2,6.00000000000001));
#1551=CARTESIAN_POINT('',(73.3999999998124,5.2,6.));
#1552=CARTESIAN_POINT('Origin',(13.9499999998125,3.79999999999999,6.));
#1553=CARTESIAN_POINT('',(20.4499999998126,3.79999999999999,6.));
#1554=CARTESIAN_POINT('',(39.5999999998125,3.79999999999999,6.));
#1555=CARTESIAN_POINT('',(20.4499999998126,3.79999999999999,3.5));
#1556=CARTESIAN_POINT('',(20.4499999998126,3.79999999999999,6.));
#1557=CARTESIAN_POINT('',(13.9499999998125,3.79999999999999,3.5));
#1558=CARTESIAN_POINT('',(22.9499999998125,3.79999999999999,3.5));
#1559=CARTESIAN_POINT('',(13.9499999998125,3.79999999999999,25.));
#1560=CARTESIAN_POINT('',(13.9499999998125,3.79999999999999,6.));
#1561=CARTESIAN_POINT('',(22.9499999998125,3.79999999999999,25.));
#1562=CARTESIAN_POINT('',(22.9499999998125,3.79999999999999,25.));
#1563=CARTESIAN_POINT('',(22.9499999998125,3.79999999999999,6.));
#1564=CARTESIAN_POINT('Origin',(89.5499999998124,3.80000000000001,6.));
#1565=CARTESIAN_POINT('',(89.5499999998124,3.80000000000001,25.));
#1566=CARTESIAN_POINT('',(89.5499999998124,-4.8,25.));
#1567=CARTESIAN_POINT('',(89.5499999998124,3.80000000000001,6.));
#1568=CARTESIAN_POINT('Origin',(56.2499999998125,55.249999999998,6.));
#1569=CARTESIAN_POINT('',(92.0499999997973,3.80000000000001,6.));
#1570=CARTESIAN_POINT('',(77.3999999998124,3.80000000000001,6.));
#1571=CARTESIAN_POINT('',(92.0499999998126,95.7502209529419,6.));
#1572=CARTESIAN_POINT('',(92.0499999998126,95.7502209529419,6.));
#1573=CARTESIAN_POINT('',(102.049999999812,95.7502209529419,6.));
#1574=CARTESIAN_POINT('',(102.049999999812,95.7502209529419,6.));
#1575=CARTESIAN_POINT('',(102.049999999802,100.99755096814,6.));
#1576=CARTESIAN_POINT('',(102.049999999812,101.239310553776,6.));
#1577=CARTESIAN_POINT('',(60.7499999998116,114.975553833074,6.));
#1578=CARTESIAN_POINT('Origin',(56.2500000000147,33.6772959190936,6.));
#1579=CARTESIAN_POINT('',(60.7499999998117,106.299999999996,6.));
#1580=CARTESIAN_POINT('',(60.7499999998117,80.774999999997,6.));
#1581=CARTESIAN_POINT('',(51.7499999998117,106.299999999996,6.));
#1582=CARTESIAN_POINT('',(53.9999999998121,106.299999999996,6.));
#1583=CARTESIAN_POINT('',(51.7499999998116,114.975553833051,6.));
#1584=CARTESIAN_POINT('',(51.7499999998117,85.2129296141859,6.));
#1585=CARTESIAN_POINT('',(10.4499999998226,100.997550967864,6.));
#1586=CARTESIAN_POINT('Origin',(56.2500000000147,33.6772959190936,6.));
#1587=CARTESIAN_POINT('',(10.4499999998125,95.7502209527636,6.));
#1588=CARTESIAN_POINT('',(10.4499999998125,95.7502209527636,6.));
#1589=CARTESIAN_POINT('',(20.4499999998108,95.7502209527636,6.));
#1590=CARTESIAN_POINT('',(20.4499999998108,95.7502209527636,6.));
#1591=CARTESIAN_POINT('',(20.4499999998126,3.79999999999999,6.));
#1592=CARTESIAN_POINT('',(65.9125163079729,77.5349894330232,6.));
#1593=CARTESIAN_POINT('Origin',(60.9125163079728,77.5349894330232,6.));
#1594=CARTESIAN_POINT('',(17.2505244524748,99.5355041328202,6.));
#1595=CARTESIAN_POINT('Origin',(15.5005244524748,99.5355041328202,6.));
#1596=CARTESIAN_POINT('',(98.7494755471502,99.5355041329985,6.));
#1597=CARTESIAN_POINT('Origin',(96.9994755471502,99.5355041329985,6.));
#1598=CARTESIAN_POINT('Origin',(60.9125163079728,77.5349894330232,6.));
#1599=CARTESIAN_POINT('',(63.0625204089319,77.5349894330232,10.));
#1600=CARTESIAN_POINT('Origin',(60.9125163079728,77.5349894330232,10.));
#1601=CARTESIAN_POINT('',(63.0625204089319,77.5349894330232,6.));
#1602=CARTESIAN_POINT('Origin',(60.9125163079728,77.5349894330232,6.));
#1603=CARTESIAN_POINT('',(65.9125163079729,77.5349894330232,10.));
#1604=CARTESIAN_POINT('Origin',(60.9125163079728,77.5349894330232,10.));
#1605=CARTESIAN_POINT('',(65.9125163079729,77.5349894330232,6.));
#1606=CARTESIAN_POINT('Origin',(60.9125163079728,77.5349894330232,10.));
#1607=CARTESIAN_POINT('Origin',(22.9499999998125,-4.8,6.));
#1608=CARTESIAN_POINT('',(22.9499999998125,-4.8,25.));
#1609=CARTESIAN_POINT('Origin',(18.4499999998125,-0.500000000000004,25.));
#1610=CARTESIAN_POINT('',(13.9499999998125,3.79999999999999,25.));
#1611=CARTESIAN_POINT('',(20.2499999998044,-0.5,25.));
#1612=CARTESIAN_POINT('Origin',(18.4999999998044,-0.5,25.));
#1613=CARTESIAN_POINT('Origin',(60.9125163079728,77.5349894330232,6.));
#1614=CARTESIAN_POINT('',(62.4125163079728,77.5349894330232,6.));
#1615=CARTESIAN_POINT('Origin',(93.9999999998044,-0.5,25.));
#1616=CARTESIAN_POINT('',(98.5499999998123,3.80000000000001,25.));
#1617=CARTESIAN_POINT('',(98.5499999998123,3.80000000000001,25.));
#1618=CARTESIAN_POINT('',(89.5499999998124,3.80000000000001,25.));
#1619=CARTESIAN_POINT('',(95.7499999998044,-0.5,25.));
#1620=CARTESIAN_POINT('Origin',(93.9999999998044,-0.5,25.));
#1621=CARTESIAN_POINT('Origin',(60.7499999998117,106.299999999996,6.));
#1622=CARTESIAN_POINT('',(60.7499999998116,114.975553833074,25.));
#1623=CARTESIAN_POINT('',(60.7499999998117,114.975553833074,6.));
#1624=CARTESIAN_POINT('',(60.7499999998117,106.299999999996,25.));
#1625=CARTESIAN_POINT('',(60.7499999998117,106.299999999996,25.));
#1626=CARTESIAN_POINT('',(60.7499999998117,106.299999999996,6.));
#1627=CARTESIAN_POINT('Origin',(51.7499999998117,106.299999999996,6.));
#1628=CARTESIAN_POINT('',(51.7499999998117,106.299999999996,25.));
#1629=CARTESIAN_POINT('',(51.7499999998117,106.299999999996,25.));
#1630=CARTESIAN_POINT('',(51.7499999998117,106.299999999996,6.));
#1631=CARTESIAN_POINT('Origin',(51.7499999998116,115.175859228374,6.));
#1632=CARTESIAN_POINT('',(51.7499999998116,114.975553833051,25.));
#1633=CARTESIAN_POINT('',(51.7499999998116,115.299999999996,25.));
#1634=CARTESIAN_POINT('',(51.7499999998116,114.975553833051,6.));
#1635=CARTESIAN_POINT('Origin',(56.2499999998116,110.799999999996,25.));
#1636=CARTESIAN_POINT('Origin',(56.2500000000147,33.6772959190936,25.));
#1637=CARTESIAN_POINT('',(57.9999999998117,110.799999999996,25.));
#1638=CARTESIAN_POINT('Origin',(56.2499999998117,110.799999999996,25.));
#1639=CARTESIAN_POINT('Origin',(93.9999999998044,-0.5,6.));
#1640=CARTESIAN_POINT('',(95.7499999998044,-0.500000000000007,3.5));
#1641=CARTESIAN_POINT('Origin',(93.9999999998044,-0.5,3.5));
#1642=CARTESIAN_POINT('',(95.7499999998044,-0.5,6.));
#1643=CARTESIAN_POINT('Origin',(18.4999999998044,-0.5,6.));
#1644=CARTESIAN_POINT('',(20.2499999998044,-0.500000000000007,3.5));
#1645=CARTESIAN_POINT('Origin',(18.4999999998044,-0.5,3.5));
#1646=CARTESIAN_POINT('',(20.2499999998044,-0.5,6.));
#1647=CARTESIAN_POINT('Origin',(96.9994755471502,99.5355041329985,6.));
#1648=CARTESIAN_POINT('',(98.7494755471502,99.5355041329985,3.5));
#1649=CARTESIAN_POINT('Origin',(96.9994755471502,99.5355041329985,3.5));
#1650=CARTESIAN_POINT('',(98.7494755471502,99.5355041329985,6.));
#1651=CARTESIAN_POINT('Origin',(15.5005244524748,99.5355041328202,6.));
#1652=CARTESIAN_POINT('',(17.2505244524748,99.5355041328202,3.5));
#1653=CARTESIAN_POINT('Origin',(15.5005244524748,99.5355041328202,3.5));
#1654=CARTESIAN_POINT('',(17.2505244524748,99.5355041328202,6.));
#1655=CARTESIAN_POINT('Origin',(56.2499999998117,110.799999999996,6.));
#1656=CARTESIAN_POINT('',(57.9999999998117,110.799999999996,6.));
#1657=CARTESIAN_POINT('Origin',(13.9499999998125,-4.8,6.));
#1658=CARTESIAN_POINT('',(13.9499999998125,3.79999999999999,3.5));
#1659=CARTESIAN_POINT('Origin',(98.5499999998123,3.80000000000001,6.));
#1660=CARTESIAN_POINT('',(98.5499999998123,3.80000000000001,3.5));
#1661=CARTESIAN_POINT('',(98.5499999998123,3.80000000000001,3.5));
#1662=CARTESIAN_POINT('',(98.5499999998123,3.80000000000001,6.));
#1663=CARTESIAN_POINT('Origin',(92.0499999997973,3.80000000000001,6.));
#1664=CARTESIAN_POINT('',(92.0499999997973,3.80000000000001,3.5));
#1665=CARTESIAN_POINT('',(89.5499999998124,3.80000000000001,3.5));
#1666=CARTESIAN_POINT('',(92.0499999997973,3.80000000000001,6.));
#1667=CARTESIAN_POINT('Origin',(92.0499999998126,95.7502209529419,6.));
#1668=CARTESIAN_POINT('',(92.0499999998126,95.7502209529419,3.5));
#1669=CARTESIAN_POINT('',(92.0499999998126,95.7502209529419,3.5));
#1670=CARTESIAN_POINT('',(92.0499999998126,95.7502209529419,6.));
#1671=CARTESIAN_POINT('Origin',(102.049999999812,95.7502209529419,6.));
#1672=CARTESIAN_POINT('',(102.049999999812,95.7502209529419,3.5));
#1673=CARTESIAN_POINT('',(102.049999999812,95.7502209529419,3.5));
#1674=CARTESIAN_POINT('',(102.049999999812,95.7502209529419,6.));
#1675=CARTESIAN_POINT('Origin',(102.049999999812,101.239310553776,6.));
#1676=CARTESIAN_POINT('',(102.049999999802,100.99755096814,3.5));
#1677=CARTESIAN_POINT('',(102.049999999812,101.239310553776,3.5));
#1678=CARTESIAN_POINT('',(102.049999999812,100.997550968111,6.));
#1679=CARTESIAN_POINT('Origin',(56.2500000000147,33.6772959190936,6.));
#1680=CARTESIAN_POINT('',(10.4499999998226,100.997550967864,3.5));
#1681=CARTESIAN_POINT('Origin',(56.2500000000147,33.6772959190936,3.5));
#1682=CARTESIAN_POINT('',(10.4499999998125,100.997550967836,6.));
#1683=CARTESIAN_POINT('Origin',(10.4499999998125,95.7502209527636,6.));
#1684=CARTESIAN_POINT('',(10.4499999998125,95.7502209527636,3.5));
#1685=CARTESIAN_POINT('',(10.4499999998125,95.7502209527636,3.5));
#1686=CARTESIAN_POINT('',(10.4499999998125,95.7502209527636,6.));
#1687=CARTESIAN_POINT('Origin',(20.4499999998108,95.7502209527636,6.));
#1688=CARTESIAN_POINT('',(20.4499999998108,95.7502209527636,3.5));
#1689=CARTESIAN_POINT('',(20.4499999998108,95.7502209527636,3.5));
#1690=CARTESIAN_POINT('',(20.4499999998108,95.7502209527636,6.));
#1691=CARTESIAN_POINT('Origin',(20.4499999998126,3.79999999999999,6.));
#1692=CARTESIAN_POINT('',(20.4499999998126,3.79999999999999,3.5));
#1693=CARTESIAN_POINT('Origin',(56.2499999998125,55.249999999998,3.5));
#1694=UNCERTAINTY_MEASURE_WITH_UNIT(LENGTH_MEASURE(0.01),#1698,
'DISTANCE_ACCURACY_VALUE',
'Maximum model space distance between geometric entities at asserted c
onnectivities');
#1695=UNCERTAINTY_MEASURE_WITH_UNIT(LENGTH_MEASURE(0.01),#1698,
'DISTANCE_ACCURACY_VALUE',
'Maximum model space distance between geometric entities at asserted c
onnectivities');
#1696=(
GEOMETRIC_REPRESENTATION_CONTEXT(3)
GLOBAL_UNCERTAINTY_ASSIGNED_CONTEXT((#1694))
GLOBAL_UNIT_ASSIGNED_CONTEXT((#1698,#1700,#1701))
REPRESENTATION_CONTEXT('','3D')
);
#1697=(
GEOMETRIC_REPRESENTATION_CONTEXT(3)
GLOBAL_UNCERTAINTY_ASSIGNED_CONTEXT((#1695))
GLOBAL_UNIT_ASSIGNED_CONTEXT((#1698,#1700,#1701))
REPRESENTATION_CONTEXT('','3D')
);
#1698=(
LENGTH_UNIT()
NAMED_UNIT(*)
SI_UNIT(.MILLI.,.METRE.)
);
#1699=(
LENGTH_UNIT()
NAMED_UNIT(*)
SI_UNIT($,.METRE.)
);
#1700=(
NAMED_UNIT(*)
PLANE_ANGLE_UNIT()
SI_UNIT($,.RADIAN.)
);
#1701=(
NAMED_UNIT(*)
SI_UNIT($,.STERADIAN.)
SOLID_ANGLE_UNIT()
);
#1702=SHAPE_DEFINITION_REPRESENTATION(#1703,#1704);
#1703=PRODUCT_DEFINITION_SHAPE('',$,#1706);
#1704=SHAPE_REPRESENTATION('',(#1056),#1696);
#1705=PRODUCT_DEFINITION_CONTEXT('part definition',#1710,'design');
#1706=PRODUCT_DEFINITION('2026-08-24-20-30-29-777','ThymioPCBHolder',#1707,
#1705);
#1707=PRODUCT_DEFINITION_FORMATION('',$,#1712);
#1708=PRODUCT_RELATED_PRODUCT_CATEGORY('ThymioPCBHolder',
'ThymioPCBHolder',(#1712));
#1709=APPLICATION_PROTOCOL_DEFINITION('international standard',
'automotive_design',2009,#1710);
#1710=APPLICATION_CONTEXT(
'Core Data for Automotive Mechanical Design Process');
#1711=PRODUCT_CONTEXT('part definition',#1710,'mechanical');
#1712=PRODUCT('2026-08-24-20-30-29-777','ThymioPCBHolder',$,(#1711));
#1713=PRESENTATION_STYLE_ASSIGNMENT((#1714));
#1714=SURFACE_STYLE_USAGE(.BOTH.,#1715);
#1715=SURFACE_SIDE_STYLE('',(#1716));
#1716=SURFACE_STYLE_FILL_AREA(#1717);
#1717=FILL_AREA_STYLE('Steel - Satin',(#1718));
#1718=FILL_AREA_STYLE_COLOUR('Steel - Satin',#1719);
#1719=COLOUR_RGB('Steel - Satin',0.627450980392157,0.627450980392157,0.627450980392157);
ENDSEC;
END-ISO-10303-21;
