ISO-10303-21;
HEADER;
/* Generated by software containing ST-Developer
 * from STEP Tools, Inc. (www.steptools.com) 
 */

FILE_DESCRIPTION(
/* description */ (''),
/* implementation_level */ '2;1');

FILE_NAME(
/* name */ 'TreeSkinCover.step',
/* time_stamp */ '2026-09-30T11:44:11+01:00',
/* author */ (''),
/* organization */ (''),
/* preprocessor_version */ 'ST-DEVELOPER v20.2',
/* originating_system */ 'Autodesk Translation Framework v15.15.0.0',
/* authorisation */ '');

FILE_SCHEMA (('AUTOMOTIVE_DESIGN { 1 0 10303 214 3 1 1 }'));
ENDSEC;

DATA;
#10=MECHANICAL_DESIGN_GEOMETRIC_PRESENTATION_REPRESENTATION('',(#13),#555);
#11=SHAPE_REPRESENTATION_RELATIONSHIP('SRR','None',#562,#12);
#12=ADVANCED_BREP_SHAPE_REPRESENTATION('',(#14),#554);
#13=STYLED_ITEM('',(#571),#14);
#14=MANIFOLD_SOLID_BREP('Body1',#234);
#15=B_SPLINE_CURVE_WITH_KNOTS('',3,(#503,#504,#505,#506,#507,#508,#509,
#510,#511,#512,#513,#514,#515,#516,#517,#518,#519,#520,#521,#522,#523,#524,
#525,#526,#527,#528,#529,#530,#531,#532,#533,#534,#535,#536,#537,#538,#539,
#540,#541),.UNSPECIFIED.,.T.,.F.,(4,2,2,2,2,2,2,2,2,2,2,2,2,2,2,2,3,2,4),
(-31.8972144975689,-31.6409387632603,-29.5315428457096,-27.422146928159,
-25.3127510106083,-23.2033550930576,-21.0939591755069,-18.9845632579562,
-16.8751673404055,-14.7657714228548,-12.6563755053041,-10.5469795877534,
-8.43758367020276,-6.32818775265207,-4.21879183510138,-2.10939591755069,
0.,1.19432203567673,2.13236833704495),.UNSPECIFIED.);
#16=(
BOUNDED_CURVE()
B_SPLINE_CURVE(5,(#493,#494,#495,#496,#497,#498,#499,#500,#501,#502),
 .UNSPECIFIED.,.F.,.F.)
B_SPLINE_CURVE_WITH_KNOTS((6,1,1,1,1,6),(0.,0.2,0.4,0.6,0.8,0.970917531644846),
 .UNSPECIFIED.)
CURVE()
GEOMETRIC_REPRESENTATION_ITEM()
RATIONAL_B_SPLINE_CURVE((1.,1.,1.,1.,1.,1.,1.,1.,1.,1.))
REPRESENTATION_ITEM('')
);
#17=(
BOUNDED_SURFACE()
B_SPLINE_SURFACE(5,2,((#402,#403,#404,#405,#406,#407,#408,#409,#410),(#411,
#412,#413,#414,#415,#416,#417,#418,#419),(#420,#421,#422,#423,#424,#425,
#426,#427,#428),(#429,#430,#431,#432,#433,#434,#435,#436,#437),(#438,#439,
#440,#441,#442,#443,#444,#445,#446),(#447,#448,#449,#450,#451,#452,#453,
#454,#455),(#456,#457,#458,#459,#460,#461,#462,#463,#464),(#465,#466,#467,
#468,#469,#470,#471,#472,#473),(#474,#475,#476,#477,#478,#479,#480,#481,
#482),(#483,#484,#485,#486,#487,#488,#489,#490,#491)),.UNSPECIFIED.,.F.,
 .T.,.F.)
B_SPLINE_SURFACE_WITH_KNOTS((6,1,1,1,1,6),(3,2,2,2,3),(-1.,-0.8,-0.6,-0.4,
-0.2,0.),(0.,1.5707963267949,3.14159265358979,4.71238898038469,6.28318530717959),
 .UNSPECIFIED.)
GEOMETRIC_REPRESENTATION_ITEM()
RATIONAL_B_SPLINE_SURFACE(((1.,0.707106781186548,1.,0.707106781186548,1.,
0.707106781186548,1.,0.707106781186548,1.),(1.,0.707106781186548,1.,0.707106781186548,
1.,0.707106781186548,1.,0.707106781186548,1.),(1.,0.707106781186548,1.,
0.707106781186548,1.,0.707106781186548,1.,0.707106781186548,1.),(1.,0.707106781186548,
1.,0.707106781186548,1.,0.707106781186548,1.,0.707106781186548,1.),(1.,
0.707106781186548,1.,0.707106781186548,1.,0.707106781186548,1.,0.707106781186548,
1.),(1.,0.707106781186548,1.,0.707106781186548,1.,0.707106781186548,1.,
0.707106781186548,1.),(1.,0.707106781186548,1.,0.707106781186548,1.,0.707106781186548,
1.,0.707106781186548,1.),(1.,0.707106781186548,1.,0.707106781186548,1.,
0.707106781186548,1.,0.707106781186548,1.),(1.,0.707106781186548,1.,0.707106781186548,
1.,0.707106781186548,1.,0.707106781186548,1.),(1.,0.707106781186548,1.,
0.707106781186548,1.,0.707106781186548,1.,0.707106781186548,1.)))
REPRESENTATION_ITEM('')
SURFACE()
);
#18=FACE_BOUND('',#51,.T.);
#19=FACE_BOUND('',#61,.T.);
#20=FACE_BOUND('',#62,.T.);
#21=FACE_BOUND('',#63,.T.);
#22=FACE_BOUND('',#64,.T.);
#23=FACE_BOUND('',#67,.T.);
#24=PLANE('',#254);
#25=PLANE('',#272);
#26=PLANE('',#276);
#27=CYLINDRICAL_SURFACE('',#252,46.5);
#28=CYLINDRICAL_SURFACE('',#258,0.85);
#29=CYLINDRICAL_SURFACE('',#262,0.85);
#30=CYLINDRICAL_SURFACE('',#266,0.85);
#31=CYLINDRICAL_SURFACE('',#268,53.);
#32=CYLINDRICAL_SURFACE('',#274,50.);
#33=FACE_OUTER_BOUND('',#48,.T.);
#34=FACE_OUTER_BOUND('',#49,.T.);
#35=FACE_OUTER_BOUND('',#50,.T.);
#36=FACE_OUTER_BOUND('',#52,.T.);
#37=FACE_OUTER_BOUND('',#53,.T.);
#38=FACE_OUTER_BOUND('',#54,.T.);
#39=FACE_OUTER_BOUND('',#55,.T.);
#40=FACE_OUTER_BOUND('',#56,.T.);
#41=FACE_OUTER_BOUND('',#57,.T.);
#42=FACE_OUTER_BOUND('',#58,.T.);
#43=FACE_OUTER_BOUND('',#59,.T.);
#44=FACE_OUTER_BOUND('',#60,.T.);
#45=FACE_OUTER_BOUND('',#65,.T.);
#46=FACE_OUTER_BOUND('',#66,.T.);
#47=FACE_OUTER_BOUND('',#68,.T.);
#48=EDGE_LOOP('',(#156,#157,#158,#159,#160));
#49=EDGE_LOOP('',(#161,#162,#163,#164,#165));
#50=EDGE_LOOP('',(#166));
#51=EDGE_LOOP('',(#167));
#52=EDGE_LOOP('',(#168,#169,#170));
#53=EDGE_LOOP('',(#171,#172,#173,#174));
#54=EDGE_LOOP('',(#175,#176,#177));
#55=EDGE_LOOP('',(#178,#179,#180,#181));
#56=EDGE_LOOP('',(#182,#183,#184));
#57=EDGE_LOOP('',(#185,#186,#187,#188));
#58=EDGE_LOOP('',(#189,#190,#191,#192,#193));
#59=EDGE_LOOP('',(#194,#195,#196,#197,#198));
#60=EDGE_LOOP('',(#199));
#61=EDGE_LOOP('',(#200));
#62=EDGE_LOOP('',(#201));
#63=EDGE_LOOP('',(#202));
#64=EDGE_LOOP('',(#203));
#65=EDGE_LOOP('',(#204,#205,#206,#207));
#66=EDGE_LOOP('',(#208));
#67=EDGE_LOOP('',(#209));
#68=EDGE_LOOP('',(#210,#211,#212,#213));
#69=LINE('',#356,#80);
#70=LINE('',#363,#81);
#71=LINE('',#371,#82);
#72=LINE('',#375,#83);
#73=LINE('',#380,#84);
#74=LINE('',#384,#85);
#75=LINE('',#389,#86);
#76=LINE('',#393,#87);
#77=LINE('',#400,#88);
#78=LINE('',#547,#89);
#79=LINE('',#551,#90);
#80=VECTOR('',#284,47.);
#81=VECTOR('',#293,46.5);
#82=VECTOR('',#302,0.425);
#83=VECTOR('',#307,0.85);
#84=VECTOR('',#312,0.425);
#85=VECTOR('',#317,0.85);
#86=VECTOR('',#322,0.425);
#87=VECTOR('',#327,0.85);
#88=VECTOR('',#334,53.);
#89=VECTOR('',#343,50.);
#90=VECTOR('',#350,52.0669872981078);
#91=CIRCLE('',#249,47.5);
#92=CIRCLE('',#250,46.5);
#93=CIRCLE('',#251,46.5);
#94=CIRCLE('',#253,46.5);
#95=CIRCLE('',#255,51.1339745962156);
#96=CIRCLE('',#257,0.85);
#97=CIRCLE('',#259,0.85);
#98=CIRCLE('',#261,0.85);
#99=CIRCLE('',#263,0.85);
#100=CIRCLE('',#265,0.85);
#101=CIRCLE('',#267,0.85);
#102=CIRCLE('',#269,53.);
#103=CIRCLE('',#270,53.);
#104=CIRCLE('',#271,53.);
#105=CIRCLE('',#273,50.);
#106=CIRCLE('',#275,50.);
#107=VERTEX_POINT('',#353);
#108=VERTEX_POINT('',#355);
#109=VERTEX_POINT('',#357);
#110=VERTEX_POINT('',#361);
#111=VERTEX_POINT('',#365);
#112=VERTEX_POINT('',#368);
#113=VERTEX_POINT('',#370);
#114=VERTEX_POINT('',#373);
#115=VERTEX_POINT('',#377);
#116=VERTEX_POINT('',#379);
#117=VERTEX_POINT('',#382);
#118=VERTEX_POINT('',#386);
#119=VERTEX_POINT('',#388);
#120=VERTEX_POINT('',#391);
#121=VERTEX_POINT('',#395);
#122=VERTEX_POINT('',#396);
#123=VERTEX_POINT('',#399);
#124=VERTEX_POINT('',#492);
#125=VERTEX_POINT('',#543);
#126=VERTEX_POINT('',#546);
#127=EDGE_CURVE('',#107,#107,#91,.T.);
#128=EDGE_CURVE('',#107,#108,#69,.T.);
#129=EDGE_CURVE('',#108,#109,#92,.T.);
#130=EDGE_CURVE('',#109,#108,#93,.T.);
#131=EDGE_CURVE('',#110,#110,#94,.T.);
#132=EDGE_CURVE('',#110,#109,#70,.T.);
#133=EDGE_CURVE('',#111,#111,#95,.T.);
#134=EDGE_CURVE('',#112,#112,#96,.T.);
#135=EDGE_CURVE('',#112,#113,#71,.T.);
#136=EDGE_CURVE('',#114,#114,#97,.F.);
#137=EDGE_CURVE('',#114,#112,#72,.T.);
#138=EDGE_CURVE('',#115,#115,#98,.T.);
#139=EDGE_CURVE('',#115,#116,#73,.T.);
#140=EDGE_CURVE('',#117,#117,#99,.F.);
#141=EDGE_CURVE('',#117,#115,#74,.T.);
#142=EDGE_CURVE('',#118,#118,#100,.T.);
#143=EDGE_CURVE('',#118,#119,#75,.T.);
#144=EDGE_CURVE('',#120,#120,#101,.F.);
#145=EDGE_CURVE('',#120,#118,#76,.T.);
#146=EDGE_CURVE('',#121,#122,#102,.T.);
#147=EDGE_CURVE('',#122,#121,#103,.T.);
#148=EDGE_CURVE('',#122,#123,#77,.T.);
#149=EDGE_CURVE('',#123,#123,#104,.T.);
#150=EDGE_CURVE('',#121,#124,#16,.T.);
#151=EDGE_CURVE('',#124,#124,#15,.T.);
#152=EDGE_CURVE('',#125,#125,#105,.F.);
#153=EDGE_CURVE('',#125,#126,#78,.T.);
#154=EDGE_CURVE('',#126,#126,#106,.T.);
#155=EDGE_CURVE('',#123,#111,#79,.T.);
#156=ORIENTED_EDGE('',*,*,#127,.T.);
#157=ORIENTED_EDGE('',*,*,#128,.T.);
#158=ORIENTED_EDGE('',*,*,#129,.T.);
#159=ORIENTED_EDGE('',*,*,#130,.T.);
#160=ORIENTED_EDGE('',*,*,#128,.F.);
#161=ORIENTED_EDGE('',*,*,#131,.T.);
#162=ORIENTED_EDGE('',*,*,#132,.T.);
#163=ORIENTED_EDGE('',*,*,#129,.F.);
#164=ORIENTED_EDGE('',*,*,#130,.F.);
#165=ORIENTED_EDGE('',*,*,#132,.F.);
#166=ORIENTED_EDGE('',*,*,#133,.F.);
#167=ORIENTED_EDGE('',*,*,#127,.F.);
#168=ORIENTED_EDGE('',*,*,#134,.F.);
#169=ORIENTED_EDGE('',*,*,#135,.T.);
#170=ORIENTED_EDGE('',*,*,#135,.F.);
#171=ORIENTED_EDGE('',*,*,#136,.F.);
#172=ORIENTED_EDGE('',*,*,#137,.T.);
#173=ORIENTED_EDGE('',*,*,#134,.T.);
#174=ORIENTED_EDGE('',*,*,#137,.F.);
#175=ORIENTED_EDGE('',*,*,#138,.F.);
#176=ORIENTED_EDGE('',*,*,#139,.T.);
#177=ORIENTED_EDGE('',*,*,#139,.F.);
#178=ORIENTED_EDGE('',*,*,#140,.F.);
#179=ORIENTED_EDGE('',*,*,#141,.T.);
#180=ORIENTED_EDGE('',*,*,#138,.T.);
#181=ORIENTED_EDGE('',*,*,#141,.F.);
#182=ORIENTED_EDGE('',*,*,#142,.F.);
#183=ORIENTED_EDGE('',*,*,#143,.T.);
#184=ORIENTED_EDGE('',*,*,#143,.F.);
#185=ORIENTED_EDGE('',*,*,#144,.F.);
#186=ORIENTED_EDGE('',*,*,#145,.T.);
#187=ORIENTED_EDGE('',*,*,#142,.T.);
#188=ORIENTED_EDGE('',*,*,#145,.F.);
#189=ORIENTED_EDGE('',*,*,#146,.F.);
#190=ORIENTED_EDGE('',*,*,#147,.F.);
#191=ORIENTED_EDGE('',*,*,#148,.T.);
#192=ORIENTED_EDGE('',*,*,#149,.T.);
#193=ORIENTED_EDGE('',*,*,#148,.F.);
#194=ORIENTED_EDGE('',*,*,#150,.F.);
#195=ORIENTED_EDGE('',*,*,#146,.T.);
#196=ORIENTED_EDGE('',*,*,#147,.T.);
#197=ORIENTED_EDGE('',*,*,#150,.T.);
#198=ORIENTED_EDGE('',*,*,#151,.F.);
#199=ORIENTED_EDGE('',*,*,#151,.T.);
#200=ORIENTED_EDGE('',*,*,#136,.T.);
#201=ORIENTED_EDGE('',*,*,#140,.T.);
#202=ORIENTED_EDGE('',*,*,#144,.T.);
#203=ORIENTED_EDGE('',*,*,#152,.F.);
#204=ORIENTED_EDGE('',*,*,#152,.T.);
#205=ORIENTED_EDGE('',*,*,#153,.T.);
#206=ORIENTED_EDGE('',*,*,#154,.F.);
#207=ORIENTED_EDGE('',*,*,#153,.F.);
#208=ORIENTED_EDGE('',*,*,#154,.T.);
#209=ORIENTED_EDGE('',*,*,#131,.F.);
#210=ORIENTED_EDGE('',*,*,#149,.F.);
#211=ORIENTED_EDGE('',*,*,#155,.T.);
#212=ORIENTED_EDGE('',*,*,#133,.T.);
#213=ORIENTED_EDGE('',*,*,#155,.F.);
#214=CONICAL_SURFACE('',#248,47.,0.785398163397448);
#215=CONICAL_SURFACE('',#256,0.425,1.02974425867665);
#216=CONICAL_SURFACE('',#260,0.425,1.02974425867665);
#217=CONICAL_SURFACE('',#264,0.425,1.02974425867665);
#218=CONICAL_SURFACE('',#277,52.0669872981078,0.523598775598296);
#219=ADVANCED_FACE('',(#33),#214,.F.);
#220=ADVANCED_FACE('',(#34),#27,.F.);
#221=ADVANCED_FACE('',(#35,#18),#24,.T.);
#222=ADVANCED_FACE('',(#36),#215,.F.);
#223=ADVANCED_FACE('',(#37),#28,.F.);
#224=ADVANCED_FACE('',(#38),#216,.F.);
#225=ADVANCED_FACE('',(#39),#29,.F.);
#226=ADVANCED_FACE('',(#40),#217,.F.);
#227=ADVANCED_FACE('',(#41),#30,.F.);
#228=ADVANCED_FACE('',(#42),#31,.T.);
#229=ADVANCED_FACE('',(#43),#17,.T.);
#230=ADVANCED_FACE('',(#44,#19,#20,#21,#22),#25,.T.);
#231=ADVANCED_FACE('',(#45),#32,.F.);
#232=ADVANCED_FACE('',(#46,#23),#26,.T.);
#233=ADVANCED_FACE('',(#47),#218,.T.);
#234=CLOSED_SHELL('',(#219,#220,#221,#222,#223,#224,#225,#226,#227,#228,
#229,#230,#231,#232,#233));
#235=DERIVED_UNIT_ELEMENT(#237,1.);
#236=DERIVED_UNIT_ELEMENT(#557,-3.);
#237=(
MASS_UNIT()
NAMED_UNIT(*)
SI_UNIT(.KILO.,.GRAM.)
);
#238=DERIVED_UNIT((#235,#236));
#239=MEASURE_REPRESENTATION_ITEM('density measure',
POSITIVE_RATIO_MEASURE(7850.),#238);
#240=PROPERTY_DEFINITION_REPRESENTATION(#245,#242);
#241=PROPERTY_DEFINITION_REPRESENTATION(#246,#243);
#242=REPRESENTATION('material name',(#244),#554);
#243=REPRESENTATION('density',(#239),#554);
#244=DESCRIPTIVE_REPRESENTATION_ITEM('Steel','Steel');
#245=PROPERTY_DEFINITION('material property','material name',#564);
#246=PROPERTY_DEFINITION('material property','density of part',#564);
#247=AXIS2_PLACEMENT_3D('',#351,#278,#279);
#248=AXIS2_PLACEMENT_3D('',#352,#280,#281);
#249=AXIS2_PLACEMENT_3D('',#354,#282,#283);
#250=AXIS2_PLACEMENT_3D('',#358,#285,#286);
#251=AXIS2_PLACEMENT_3D('',#359,#287,#288);
#252=AXIS2_PLACEMENT_3D('',#360,#289,#290);
#253=AXIS2_PLACEMENT_3D('',#362,#291,#292);
#254=AXIS2_PLACEMENT_3D('',#364,#294,#295);
#255=AXIS2_PLACEMENT_3D('',#366,#296,#297);
#256=AXIS2_PLACEMENT_3D('',#367,#298,#299);
#257=AXIS2_PLACEMENT_3D('',#369,#300,#301);
#258=AXIS2_PLACEMENT_3D('',#372,#303,#304);
#259=AXIS2_PLACEMENT_3D('',#374,#305,#306);
#260=AXIS2_PLACEMENT_3D('',#376,#308,#309);
#261=AXIS2_PLACEMENT_3D('',#378,#310,#311);
#262=AXIS2_PLACEMENT_3D('',#381,#313,#314);
#263=AXIS2_PLACEMENT_3D('',#383,#315,#316);
#264=AXIS2_PLACEMENT_3D('',#385,#318,#319);
#265=AXIS2_PLACEMENT_3D('',#387,#320,#321);
#266=AXIS2_PLACEMENT_3D('',#390,#323,#324);
#267=AXIS2_PLACEMENT_3D('',#392,#325,#326);
#268=AXIS2_PLACEMENT_3D('',#394,#328,#329);
#269=AXIS2_PLACEMENT_3D('',#397,#330,#331);
#270=AXIS2_PLACEMENT_3D('',#398,#332,#333);
#271=AXIS2_PLACEMENT_3D('',#401,#335,#336);
#272=AXIS2_PLACEMENT_3D('',#542,#337,#338);
#273=AXIS2_PLACEMENT_3D('',#544,#339,#340);
#274=AXIS2_PLACEMENT_3D('',#545,#341,#342);
#275=AXIS2_PLACEMENT_3D('',#548,#344,#345);
#276=AXIS2_PLACEMENT_3D('',#549,#346,#347);
#277=AXIS2_PLACEMENT_3D('',#550,#348,#349);
#278=DIRECTION('axis',(0.,0.,1.));
#279=DIRECTION('refdir',(1.,0.,0.));
#280=DIRECTION('center_axis',(0.,0.,1.));
#281=DIRECTION('ref_axis',(1.,0.,0.));
#282=DIRECTION('center_axis',(0.,0.,1.));
#283=DIRECTION('ref_axis',(1.,0.,0.));
#284=DIRECTION('',(0.707106781186547,8.65956056235493E-17,-0.707106781186547));
#285=DIRECTION('center_axis',(0.,0.,-1.));
#286=DIRECTION('ref_axis',(1.,0.,0.));
#287=DIRECTION('center_axis',(0.,0.,-1.));
#288=DIRECTION('ref_axis',(1.,0.,0.));
#289=DIRECTION('center_axis',(0.,0.,-1.));
#290=DIRECTION('ref_axis',(-1.,0.,0.));
#291=DIRECTION('center_axis',(0.,0.,-1.));
#292=DIRECTION('ref_axis',(1.,0.,0.));
#293=DIRECTION('',(0.,0.,1.));
#294=DIRECTION('center_axis',(0.,0.,1.));
#295=DIRECTION('ref_axis',(1.,0.,0.));
#296=DIRECTION('center_axis',(0.,0.,-1.));
#297=DIRECTION('ref_axis',(1.,0.,0.));
#298=DIRECTION('center_axis',(0.,0.,-1.));
#299=DIRECTION('ref_axis',(-1.,0.,0.));
#300=DIRECTION('center_axis',(0.,0.,1.));
#301=DIRECTION('ref_axis',(-1.,0.,0.));
#302=DIRECTION('',(-0.857167300702112,-1.04972719113862E-16,0.515038074910054));
#303=DIRECTION('center_axis',(0.,0.,1.));
#304=DIRECTION('ref_axis',(-1.,0.,0.));
#305=DIRECTION('center_axis',(0.,0.,-1.));
#306=DIRECTION('ref_axis',(-1.,0.,0.));
#307=DIRECTION('',(0.,0.,1.));
#308=DIRECTION('center_axis',(0.,0.,-1.));
#309=DIRECTION('ref_axis',(-1.,0.,0.));
#310=DIRECTION('center_axis',(0.,0.,1.));
#311=DIRECTION('ref_axis',(-1.,0.,0.));
#312=DIRECTION('',(-0.857167300702112,-1.04972719113862E-16,0.515038074910054));
#313=DIRECTION('center_axis',(0.,0.,1.));
#314=DIRECTION('ref_axis',(-1.,0.,0.));
#315=DIRECTION('center_axis',(0.,0.,-1.));
#316=DIRECTION('ref_axis',(-1.,0.,0.));
#317=DIRECTION('',(0.,0.,1.));
#318=DIRECTION('center_axis',(0.,0.,-1.));
#319=DIRECTION('ref_axis',(-1.,0.,0.));
#320=DIRECTION('center_axis',(0.,0.,1.));
#321=DIRECTION('ref_axis',(-1.,0.,0.));
#322=DIRECTION('',(-0.857167300702112,-1.04972719113862E-16,0.515038074910054));
#323=DIRECTION('center_axis',(0.,0.,1.));
#324=DIRECTION('ref_axis',(-1.,0.,0.));
#325=DIRECTION('center_axis',(0.,0.,-1.));
#326=DIRECTION('ref_axis',(-1.,0.,0.));
#327=DIRECTION('',(0.,0.,1.));
#328=DIRECTION('center_axis',(0.,0.,-1.));
#329=DIRECTION('ref_axis',(-1.,0.,0.));
#330=DIRECTION('center_axis',(0.,0.,-1.));
#331=DIRECTION('ref_axis',(1.,0.,0.));
#332=DIRECTION('center_axis',(0.,0.,-1.));
#333=DIRECTION('ref_axis',(1.,0.,0.));
#334=DIRECTION('',(0.,0.,1.));
#335=DIRECTION('center_axis',(0.,0.,-1.));
#336=DIRECTION('ref_axis',(1.,0.,0.));
#337=DIRECTION('center_axis',(0.,0.,-1.));
#338=DIRECTION('ref_axis',(-1.,0.,0.));
#339=DIRECTION('center_axis',(0.,0.,1.));
#340=DIRECTION('ref_axis',(-1.,0.,0.));
#341=DIRECTION('center_axis',(0.,0.,-1.));
#342=DIRECTION('ref_axis',(-1.,0.,0.));
#343=DIRECTION('',(0.,0.,1.));
#344=DIRECTION('center_axis',(0.,0.,-1.));
#345=DIRECTION('ref_axis',(1.,0.,0.));
#346=DIRECTION('center_axis',(0.,0.,-1.));
#347=DIRECTION('ref_axis',(-1.,0.,0.));
#348=DIRECTION('center_axis',(0.,0.,-1.));
#349=DIRECTION('ref_axis',(-1.,0.,0.));
#350=DIRECTION('',(-0.499999999999997,6.12323399573673E-17,0.86602540378444));
#351=CARTESIAN_POINT('',(0.,0.,0.));
#352=CARTESIAN_POINT('Origin',(0.,0.,61.));
#353=CARTESIAN_POINT('',(-47.5,-5.81707229594993E-15,61.5));
#354=CARTESIAN_POINT('Origin',(0.,0.,61.5));
#355=CARTESIAN_POINT('',(-46.5,5.69460761603519E-15,60.5));
#356=CARTESIAN_POINT('',(-47.,-5.75583995599256E-15,61.));
#357=CARTESIAN_POINT('',(46.5,-5.69460761603519E-15,60.5));
#358=CARTESIAN_POINT('Origin',(0.,0.,60.5));
#359=CARTESIAN_POINT('Origin',(0.,0.,60.5));
#360=CARTESIAN_POINT('Origin',(0.,0.,60.75));
#361=CARTESIAN_POINT('',(46.5,-5.69460761603519E-15,60.));
#362=CARTESIAN_POINT('Origin',(0.,0.,60.));
#363=CARTESIAN_POINT('',(46.5,-5.69460761603519E-15,60.75));
#364=CARTESIAN_POINT('Origin',(-51.1339745962156,0.,61.5));
#365=CARTESIAN_POINT('',(51.1339745962156,-6.26210583169375E-15,61.5));
#366=CARTESIAN_POINT('Origin',(0.,0.,61.5));
#367=CARTESIAN_POINT('Origin',(46.286229482117,-23.8051390386567,47.2553657630867));
#368=CARTESIAN_POINT('',(47.136229482117,-23.8051390386567,47.));
#369=CARTESIAN_POINT('Origin',(46.286229482117,-23.8051390386567,47.));
#370=CARTESIAN_POINT('',(46.286229482117,-23.8051390386567,47.5107315261734));
#371=CARTESIAN_POINT('',(46.711229482117,-23.8051390386567,47.2553657630867));
#372=CARTESIAN_POINT('Origin',(46.286229482117,-23.8051390386567,42.));
#373=CARTESIAN_POINT('',(47.136229482117,-23.8051390386567,40.15));
#374=CARTESIAN_POINT('Origin',(46.286229482117,-23.8051390386567,40.15));
#375=CARTESIAN_POINT('',(47.136229482117,-23.8051390386567,42.));
#376=CARTESIAN_POINT('Origin',(-2.9127284653278,51.3078372784896,47.2553657630867));
#377=CARTESIAN_POINT('',(-2.06272846532779,51.3078372784896,47.));
#378=CARTESIAN_POINT('Origin',(-2.9127284653278,51.3078372784896,47.));
#379=CARTESIAN_POINT('',(-2.9127284653278,51.3078372784896,47.5107315261734));
#380=CARTESIAN_POINT('',(-2.4877284653278,51.3078372784896,47.2553657630867));
#381=CARTESIAN_POINT('Origin',(-2.9127284653278,51.3078372784896,42.));
#382=CARTESIAN_POINT('',(-2.06272846532779,51.3078372784896,40.15));
#383=CARTESIAN_POINT('Origin',(-2.9127284653278,51.3078372784896,40.15));
#384=CARTESIAN_POINT('',(-2.06272846532779,51.3078372784896,42.));
#385=CARTESIAN_POINT('Origin',(-43.5226411981837,-28.0432315610179,47.2553657630867));
#386=CARTESIAN_POINT('',(-42.6726411981837,-28.0432315610179,47.));
#387=CARTESIAN_POINT('Origin',(-43.5226411981837,-28.0432315610179,47.));
#388=CARTESIAN_POINT('',(-43.5226411981837,-28.0432315610179,47.5107315261734));
#389=CARTESIAN_POINT('',(-43.0976411981837,-28.0432315610179,47.2553657630867));
#390=CARTESIAN_POINT('Origin',(-43.5226411981837,-28.0432315610179,42.));
#391=CARTESIAN_POINT('',(-42.6726411981837,-28.0432315610179,40.15));
#392=CARTESIAN_POINT('Origin',(-43.5226411981837,-28.0432315610179,40.15));
#393=CARTESIAN_POINT('',(-42.6726411981837,-28.0432315610179,42.));
#394=CARTESIAN_POINT('Origin',(0.,0.,51.6339745962156));
#395=CARTESIAN_POINT('',(-53.,0.,45.));
#396=CARTESIAN_POINT('',(53.,-6.49062803548097E-15,45.));
#397=CARTESIAN_POINT('Origin',(0.,0.,45.));
#398=CARTESIAN_POINT('Origin',(0.,0.,45.));
#399=CARTESIAN_POINT('',(53.,-6.49062803548097E-15,58.2679491924311));
#400=CARTESIAN_POINT('',(53.,-6.49062803548097E-15,51.6339745962156));
#401=CARTESIAN_POINT('Origin',(0.,0.,58.2679491924311));
#402=CARTESIAN_POINT('Ctrl Pts',(-54.,0.,40.));
#403=CARTESIAN_POINT('Ctrl Pts',(-54.,54.,40.));
#404=CARTESIAN_POINT('Ctrl Pts',(0.,54.,40.));
#405=CARTESIAN_POINT('Ctrl Pts',(54.,54.,40.));
#406=CARTESIAN_POINT('Ctrl Pts',(54.,0.,40.));
#407=CARTESIAN_POINT('Ctrl Pts',(54.,-54.,40.));
#408=CARTESIAN_POINT('Ctrl Pts',(0.,-54.,40.));
#409=CARTESIAN_POINT('Ctrl Pts',(-54.,-54.,40.));
#410=CARTESIAN_POINT('Ctrl Pts',(-54.,0.,40.));
#411=CARTESIAN_POINT('Ctrl Pts',(-54.,0.,40.2068151931891));
#412=CARTESIAN_POINT('Ctrl Pts',(-54.,54.,40.2068151931891));
#413=CARTESIAN_POINT('Ctrl Pts',(0.,54.,40.2068151931891));
#414=CARTESIAN_POINT('Ctrl Pts',(54.,54.,40.2068151931891));
#415=CARTESIAN_POINT('Ctrl Pts',(54.,0.,40.2068151931891));
#416=CARTESIAN_POINT('Ctrl Pts',(54.,-54.,40.2068151931891));
#417=CARTESIAN_POINT('Ctrl Pts',(0.,-54.,40.2068151931891));
#418=CARTESIAN_POINT('Ctrl Pts',(-54.,-54.,40.2068151931891));
#419=CARTESIAN_POINT('Ctrl Pts',(-54.,0.,40.2068151931891));
#420=CARTESIAN_POINT('Ctrl Pts',(-53.9795797111665,0.,40.616966374233));
#421=CARTESIAN_POINT('Ctrl Pts',(-53.9795797111665,53.9795797111665,40.616966374233));
#422=CARTESIAN_POINT('Ctrl Pts',(0.,53.9795797111665,40.616966374233));
#423=CARTESIAN_POINT('Ctrl Pts',(53.9795797111665,53.9795797111665,40.616966374233));
#424=CARTESIAN_POINT('Ctrl Pts',(53.9795797111665,0.,40.616966374233));
#425=CARTESIAN_POINT('Ctrl Pts',(53.9795797111665,-53.9795797111665,40.616966374233));
#426=CARTESIAN_POINT('Ctrl Pts',(0.,-53.9795797111665,40.616966374233));
#427=CARTESIAN_POINT('Ctrl Pts',(-53.9795797111665,-53.9795797111665,40.616966374233));
#428=CARTESIAN_POINT('Ctrl Pts',(-53.9795797111665,0.,40.616966374233));
#429=CARTESIAN_POINT('Ctrl Pts',(-53.8877518439385,0.,41.2217663374179));
#430=CARTESIAN_POINT('Ctrl Pts',(-53.8877518439385,53.8877518439385,41.2217663374179));
#431=CARTESIAN_POINT('Ctrl Pts',(0.,53.8877518439385,41.2217663374179));
#432=CARTESIAN_POINT('Ctrl Pts',(53.8877518439385,53.8877518439385,41.2217663374179));
#433=CARTESIAN_POINT('Ctrl Pts',(53.8877518439385,0.,41.2217663374179));
#434=CARTESIAN_POINT('Ctrl Pts',(53.8877518439385,-53.8877518439385,41.2217663374179));
#435=CARTESIAN_POINT('Ctrl Pts',(0.,-53.8877518439385,41.2217663374179));
#436=CARTESIAN_POINT('Ctrl Pts',(-53.8877518439385,-53.8877518439385,41.2217663374179));
#437=CARTESIAN_POINT('Ctrl Pts',(-53.8877518439385,0.,41.2217663374179));
#438=CARTESIAN_POINT('Ctrl Pts',(-53.6670075910108,0.,42.0114167419474));
#439=CARTESIAN_POINT('Ctrl Pts',(-53.6670075910108,53.6670075910108,42.0114167419474));
#440=CARTESIAN_POINT('Ctrl Pts',(0.,53.6670075910108,42.0114167419474));
#441=CARTESIAN_POINT('Ctrl Pts',(53.6670075910108,53.6670075910108,42.0114167419474));
#442=CARTESIAN_POINT('Ctrl Pts',(53.6670075910108,0.,42.0114167419474));
#443=CARTESIAN_POINT('Ctrl Pts',(53.6670075910108,-53.6670075910108,42.0114167419474));
#444=CARTESIAN_POINT('Ctrl Pts',(0.,-53.6670075910108,42.0114167419474));
#445=CARTESIAN_POINT('Ctrl Pts',(-53.6670075910108,-53.6670075910108,42.0114167419474));
#446=CARTESIAN_POINT('Ctrl Pts',(-53.6670075910108,0.,42.0114167419474));
#447=CARTESIAN_POINT('Ctrl Pts',(-53.3329924089899,0.,42.9885832580538));
#448=CARTESIAN_POINT('Ctrl Pts',(-53.3329924089899,53.3329924089899,42.9885832580538));
#449=CARTESIAN_POINT('Ctrl Pts',(0.,53.3329924089899,42.9885832580538));
#450=CARTESIAN_POINT('Ctrl Pts',(53.3329924089899,53.3329924089899,42.9885832580538));
#451=CARTESIAN_POINT('Ctrl Pts',(53.3329924089899,0.,42.9885832580538));
#452=CARTESIAN_POINT('Ctrl Pts',(53.3329924089899,-53.3329924089899,42.9885832580538));
#453=CARTESIAN_POINT('Ctrl Pts',(0.,-53.3329924089899,42.9885832580538));
#454=CARTESIAN_POINT('Ctrl Pts',(-53.3329924089899,-53.3329924089899,42.9885832580538));
#455=CARTESIAN_POINT('Ctrl Pts',(-53.3329924089899,0.,42.9885832580538));
#456=CARTESIAN_POINT('Ctrl Pts',(-53.1122481560619,0.,43.7782336625828));
#457=CARTESIAN_POINT('Ctrl Pts',(-53.1122481560619,53.1122481560619,43.7782336625828));
#458=CARTESIAN_POINT('Ctrl Pts',(0.,53.1122481560619,43.7782336625828));
#459=CARTESIAN_POINT('Ctrl Pts',(53.1122481560619,53.1122481560619,43.7782336625828));
#460=CARTESIAN_POINT('Ctrl Pts',(53.1122481560619,0.,43.7782336625828));
#461=CARTESIAN_POINT('Ctrl Pts',(53.1122481560619,-53.1122481560619,43.7782336625828));
#462=CARTESIAN_POINT('Ctrl Pts',(0.,-53.1122481560619,43.7782336625828));
#463=CARTESIAN_POINT('Ctrl Pts',(-53.1122481560619,-53.1122481560619,43.7782336625828));
#464=CARTESIAN_POINT('Ctrl Pts',(-53.1122481560619,0.,43.7782336625828));
#465=CARTESIAN_POINT('Ctrl Pts',(-53.0204202888335,0.,44.3830336257671));
#466=CARTESIAN_POINT('Ctrl Pts',(-53.0204202888335,53.0204202888335,44.3830336257671));
#467=CARTESIAN_POINT('Ctrl Pts',(0.,53.0204202888335,44.3830336257671));
#468=CARTESIAN_POINT('Ctrl Pts',(53.0204202888335,53.0204202888335,44.3830336257671));
#469=CARTESIAN_POINT('Ctrl Pts',(53.0204202888335,0.,44.3830336257671));
#470=CARTESIAN_POINT('Ctrl Pts',(53.0204202888335,-53.0204202888335,44.3830336257671));
#471=CARTESIAN_POINT('Ctrl Pts',(0.,-53.0204202888335,44.3830336257671));
#472=CARTESIAN_POINT('Ctrl Pts',(-53.0204202888335,-53.0204202888335,44.3830336257671));
#473=CARTESIAN_POINT('Ctrl Pts',(-53.0204202888335,0.,44.3830336257671));
#474=CARTESIAN_POINT('Ctrl Pts',(-53.,0.,44.7931848068109));
#475=CARTESIAN_POINT('Ctrl Pts',(-53.,53.,44.7931848068109));
#476=CARTESIAN_POINT('Ctrl Pts',(0.,53.,44.7931848068109));
#477=CARTESIAN_POINT('Ctrl Pts',(53.,53.,44.7931848068109));
#478=CARTESIAN_POINT('Ctrl Pts',(53.,0.,44.7931848068109));
#479=CARTESIAN_POINT('Ctrl Pts',(53.,-53.,44.7931848068109));
#480=CARTESIAN_POINT('Ctrl Pts',(0.,-53.,44.7931848068109));
#481=CARTESIAN_POINT('Ctrl Pts',(-53.,-53.,44.7931848068109));
#482=CARTESIAN_POINT('Ctrl Pts',(-53.,0.,44.7931848068109));
#483=CARTESIAN_POINT('Ctrl Pts',(-53.,0.,45.));
#484=CARTESIAN_POINT('Ctrl Pts',(-53.,53.,45.));
#485=CARTESIAN_POINT('Ctrl Pts',(0.,53.,45.));
#486=CARTESIAN_POINT('Ctrl Pts',(53.,53.,45.));
#487=CARTESIAN_POINT('Ctrl Pts',(53.,0.,45.));
#488=CARTESIAN_POINT('Ctrl Pts',(53.,-53.,45.));
#489=CARTESIAN_POINT('Ctrl Pts',(0.,-53.,45.));
#490=CARTESIAN_POINT('Ctrl Pts',(-53.,-53.,45.));
#491=CARTESIAN_POINT('Ctrl Pts',(-53.,0.,45.));
#492=CARTESIAN_POINT('',(-53.9978435957896,0.,40.15));
#493=CARTESIAN_POINT('Ctrl Pts',(-53.,0.,45.));
#494=CARTESIAN_POINT('Ctrl Pts',(-53.,0.,44.7931848068109));
#495=CARTESIAN_POINT('Ctrl Pts',(-53.0204202888335,0.,44.3830336257671));
#496=CARTESIAN_POINT('Ctrl Pts',(-53.1122481560619,0.,43.7782336625828));
#497=CARTESIAN_POINT('Ctrl Pts',(-53.3329924089899,0.,42.9885832580538));
#498=CARTESIAN_POINT('Ctrl Pts',(-53.6572936050496,0.,42.0398351562298));
#499=CARTESIAN_POINT('Ctrl Pts',(-53.8716409650667,0.,41.2791683317318));
#500=CARTESIAN_POINT('Ctrl Pts',(-53.9657125559279,0.,40.704824135354));
#501=CARTESIAN_POINT('Ctrl Pts',(-53.9927797850588,0.,40.3258789404226));
#502=CARTESIAN_POINT('Ctrl Pts',(-53.9978435957896,0.,40.15));
#503=CARTESIAN_POINT('Ctrl Pts',(-53.9978435957895,1.27675647831893E-14,
40.15));
#504=CARTESIAN_POINT('Ctrl Pts',(-53.9978435957895,0.853374997279209,40.15));
#505=CARTESIAN_POINT('Ctrl Pts',(-53.9776136988611,1.70706754882827,40.15));
#506=CARTESIAN_POINT('Ctrl Pts',(-53.6037117872234,9.58377027610705,40.15));
#507=CARTESIAN_POINT('Ctrl Pts',(-51.9016741545739,16.4749139610907,40.15));
#508=CARTESIAN_POINT('Ctrl Pts',(-45.9519222504588,29.2169028399777,40.15));
#509=CARTESIAN_POINT('Ctrl Pts',(-41.7610908500618,34.9459276752783,40.15));
#510=CARTESIAN_POINT('Ctrl Pts',(-31.4192958186247,44.4750988794252,40.15));
#511=CARTESIAN_POINT('Ctrl Pts',(-25.3672053847988,48.1841411777603,40.15));
#512=CARTESIAN_POINT('Ctrl Pts',(-12.1819467267122,53.0735974286692,40.15));
#513=CARTESIAN_POINT('Ctrl Pts',(-5.17483676174399,54.2072655145249,40.15));
#514=CARTESIAN_POINT('Ctrl Pts',(8.87952602283669,53.7248600527043,40.15));
#515=CARTESIAN_POINT('Ctrl Pts',(15.792411474009,52.1133985641744,40.15));
#516=CARTESIAN_POINT('Ctrl Pts',(28.611379307597,46.3313667420864,40.15));
#517=CARTESIAN_POINT('Ctrl Pts',(34.3949053706463,42.2160757841985,40.15));
#518=CARTESIAN_POINT('Ctrl Pts',(44.0589671097185,32.0002185507794,40.15));
#519=CARTESIAN_POINT('Ctrl Pts',(47.8471090881953,25.9973214384722,40.15));
#520=CARTESIAN_POINT('Ctrl Pts',(52.9091689571278,12.8773603793248,40.15));
#521=CARTESIAN_POINT('Ctrl Pts',(54.1346907962008,5.88573041114142,40.15));
#522=CARTESIAN_POINT('Ctrl Pts',(53.8367563845488,-8.17375263044138,40.15));
#523=CARTESIAN_POINT('Ctrl Pts',(52.316148549186,-15.1071893829529,40.15));
#524=CARTESIAN_POINT('Ctrl Pts',(46.7028325301872,-28.0009286226402,40.15));
#525=CARTESIAN_POINT('Ctrl Pts',(42.6637907071864,-33.8379599350537,40.15));
#526=CARTESIAN_POINT('Ctrl Pts',(32.5756305398983,-43.6352479653886,40.15));
#527=CARTESIAN_POINT('Ctrl Pts',(26.6229605052824,-47.5018372698054,40.15));
#528=CARTESIAN_POINT('Ctrl Pts',(13.570556427582,-52.7356290217412,40.15));
#529=CARTESIAN_POINT('Ctrl Pts',(6.59561048159016,-54.0527935674747,40.15));
#530=CARTESIAN_POINT('Ctrl Pts',(-7.4665716398351,-53.9393815131404,40.15));
#531=CARTESIAN_POINT('Ctrl Pts',(-14.4193656897063,-52.5098891941263,40.15));
#532=CARTESIAN_POINT('Ctrl Pts',(-27.3856559105415,-47.066255644807,40.15));
#533=CARTESIAN_POINT('Ctrl Pts',(-33.2751872798201,-43.1041585182428,40.15));
#534=CARTESIAN_POINT('Ctrl Pts',(-43.2040144149161,-33.1454326945451,40.15));
#535=CARTESIAN_POINT('Ctrl Pts',(-47.1483851816931,-27.2440148442112,40.15));
#536=CARTESIAN_POINT('Ctrl Pts',(-49.8506963447178,-20.7527151703599,40.15));
#537=CARTESIAN_POINT('Ctrl Pts',(-51.3807219517661,-17.0773964802281,40.15));
#538=CARTESIAN_POINT('Ctrl Pts',(-52.4996131635609,-13.2441185627459,40.15));
#539=CARTESIAN_POINT('Ctrl Pts',(-53.7268045104365,-6.24296401457339,40.15));
#540=CARTESIAN_POINT('Ctrl Pts',(-53.9978435957895,-3.12360927201231,40.15));
#541=CARTESIAN_POINT('Ctrl Pts',(-53.9978435957895,1.27675647831893E-14,
40.15));
#542=CARTESIAN_POINT('Origin',(-50.,0.,40.15));
#543=CARTESIAN_POINT('',(50.,6.12323399573677E-15,40.15));
#544=CARTESIAN_POINT('Origin',(0.,0.,40.15));
#545=CARTESIAN_POINT('Origin',(0.,0.,50.));
#546=CARTESIAN_POINT('',(50.,-6.12323399573677E-15,60.));
#547=CARTESIAN_POINT('',(50.,-6.12323399573677E-15,50.));
#548=CARTESIAN_POINT('Origin',(0.,0.,60.));
#549=CARTESIAN_POINT('Origin',(-46.5,0.,60.));
#550=CARTESIAN_POINT('Origin',(0.,0.,59.8839745962156));
#551=CARTESIAN_POINT('',(52.0669872981078,-6.37636693358736E-15,59.8839745962156));
#552=UNCERTAINTY_MEASURE_WITH_UNIT(LENGTH_MEASURE(0.01),#556,
'DISTANCE_ACCURACY_VALUE',
'Maximum model space distance between geometric entities at asserted c
onnectivities');
#553=UNCERTAINTY_MEASURE_WITH_UNIT(LENGTH_MEASURE(0.01),#556,
'DISTANCE_ACCURACY_VALUE',
'Maximum model space distance between geometric entities at asserted c
onnectivities');
#554=(
GEOMETRIC_REPRESENTATION_CONTEXT(3)
GLOBAL_UNCERTAINTY_ASSIGNED_CONTEXT((#552))
GLOBAL_UNIT_ASSIGNED_CONTEXT((#556,#558,#559))
REPRESENTATION_CONTEXT('','3D')
);
#555=(
GEOMETRIC_REPRESENTATION_CONTEXT(3)
GLOBAL_UNCERTAINTY_ASSIGNED_CONTEXT((#553))
GLOBAL_UNIT_ASSIGNED_CONTEXT((#556,#558,#559))
REPRESENTATION_CONTEXT('','3D')
);
#556=(
LENGTH_UNIT()
NAMED_UNIT(*)
SI_UNIT(.MILLI.,.METRE.)
);
#557=(
LENGTH_UNIT()
NAMED_UNIT(*)
SI_UNIT($,.METRE.)
);
#558=(
NAMED_UNIT(*)
PLANE_ANGLE_UNIT()
SI_UNIT($,.RADIAN.)
);
#559=(
NAMED_UNIT(*)
SI_UNIT($,.STERADIAN.)
SOLID_ANGLE_UNIT()
);
#560=SHAPE_DEFINITION_REPRESENTATION(#561,#562);
#561=PRODUCT_DEFINITION_SHAPE('',$,#564);
#562=SHAPE_REPRESENTATION('',(#247),#554);
#563=PRODUCT_DEFINITION_CONTEXT('part definition',#568,'design');
#564=PRODUCT_DEFINITION('2026-09-30-11-44-11-882','TreeSkinCover',#565,
#563);
#565=PRODUCT_DEFINITION_FORMATION('',$,#570);
#566=PRODUCT_RELATED_PRODUCT_CATEGORY('TreeSkinCover','TreeSkinCover',(#570));
#567=APPLICATION_PROTOCOL_DEFINITION('international standard',
'automotive_design',2009,#568);
#568=APPLICATION_CONTEXT(
'Core Data for Automotive Mechanical Design Process');
#569=PRODUCT_CONTEXT('part definition',#568,'mechanical');
#570=PRODUCT('2026-09-30-11-44-11-882','TreeSkinCover',$,(#569));
#571=PRESENTATION_STYLE_ASSIGNMENT((#572));
#572=SURFACE_STYLE_USAGE(.BOTH.,#573);
#573=SURFACE_SIDE_STYLE('',(#574));
#574=SURFACE_STYLE_FILL_AREA(#575);
#575=FILL_AREA_STYLE('Steel - Satin',(#576));
#576=FILL_AREA_STYLE_COLOUR('Steel - Satin',#577);
#577=COLOUR_RGB('Steel - Satin',0.627450980392157,0.627450980392157,0.627450980392157);
ENDSEC;
END-ISO-10303-21;
