ISO-10303-21;
HEADER;
/* Generated by software containing ST-Developer
 * from STEP Tools, Inc. (www.steptools.com) 
 */

FILE_DESCRIPTION(
/* description */ (''),
/* implementation_level */ '2;1');

FILE_NAME(
/* name */ 'TreeLEDCover.step',
/* time_stamp */ '2026-08-24T20:16:43+01:00',
/* author */ (''),
/* organization */ (''),
/* preprocessor_version */ 'ST-DEVELOPER v20.1',
/* originating_system */ 'Autodesk Translation Framework v15.8.0.0',
/* authorisation */ '');

FILE_SCHEMA (('AUTOMOTIVE_DESIGN { 1 0 10303 214 3 1 1 }'));
ENDSEC;

DATA;
#10=MECHANICAL_DESIGN_GEOMETRIC_PRESENTATION_REPRESENTATION('',(#13),#804);
#11=SHAPE_REPRESENTATION_RELATIONSHIP('SRR','None',#811,#12);
#12=ADVANCED_BREP_SHAPE_REPRESENTATION('',(#14),#803);
#13=STYLED_ITEM('',(#820),#14);
#14=MANIFOLD_SOLID_BREP('Body1',#466);
#15=FACE_BOUND('',#85,.T.);
#16=FACE_BOUND('',#87,.T.);
#17=CYLINDRICAL_SURFACE('',#492,35.15);
#18=CYLINDRICAL_SURFACE('',#495,37.);
#19=CYLINDRICAL_SURFACE('',#499,35.);
#20=CYLINDRICAL_SURFACE('',#502,35.);
#21=CYLINDRICAL_SURFACE('',#505,35.15);
#22=CYLINDRICAL_SURFACE('',#508,37.);
#23=CYLINDRICAL_SURFACE('',#512,35.);
#24=CYLINDRICAL_SURFACE('',#515,35.15);
#25=CYLINDRICAL_SURFACE('',#518,37.);
#26=CYLINDRICAL_SURFACE('',#522,31.5);
#27=PLANE('',#483);
#28=PLANE('',#487);
#29=PLANE('',#491);
#30=PLANE('',#494);
#31=PLANE('',#498);
#32=PLANE('',#507);
#33=PLANE('',#511);
#34=PLANE('',#517);
#35=PLANE('',#521);
#36=PLANE('',#525);
#37=PLANE('',#526);
#38=FACE_OUTER_BOUND('',#62,.T.);
#39=FACE_OUTER_BOUND('',#63,.T.);
#40=FACE_OUTER_BOUND('',#64,.T.);
#41=FACE_OUTER_BOUND('',#65,.T.);
#42=FACE_OUTER_BOUND('',#66,.T.);
#43=FACE_OUTER_BOUND('',#67,.T.);
#44=FACE_OUTER_BOUND('',#68,.T.);
#45=FACE_OUTER_BOUND('',#69,.T.);
#46=FACE_OUTER_BOUND('',#70,.T.);
#47=FACE_OUTER_BOUND('',#71,.T.);
#48=FACE_OUTER_BOUND('',#72,.T.);
#49=FACE_OUTER_BOUND('',#73,.T.);
#50=FACE_OUTER_BOUND('',#74,.T.);
#51=FACE_OUTER_BOUND('',#75,.T.);
#52=FACE_OUTER_BOUND('',#76,.T.);
#53=FACE_OUTER_BOUND('',#77,.T.);
#54=FACE_OUTER_BOUND('',#78,.T.);
#55=FACE_OUTER_BOUND('',#79,.T.);
#56=FACE_OUTER_BOUND('',#80,.T.);
#57=FACE_OUTER_BOUND('',#81,.T.);
#58=FACE_OUTER_BOUND('',#82,.T.);
#59=FACE_OUTER_BOUND('',#83,.T.);
#60=FACE_OUTER_BOUND('',#84,.T.);
#61=FACE_OUTER_BOUND('',#86,.T.);
#62=EDGE_LOOP('',(#307,#308,#309,#310));
#63=EDGE_LOOP('',(#311,#312,#313,#314,#315,#316,#317));
#64=EDGE_LOOP('',(#318,#319,#320,#321));
#65=EDGE_LOOP('',(#322,#323,#324,#325,#326,#327,#328));
#66=EDGE_LOOP('',(#329,#330,#331,#332));
#67=EDGE_LOOP('',(#333,#334,#335,#336,#337,#338,#339));
#68=EDGE_LOOP('',(#340,#341,#342,#343));
#69=EDGE_LOOP('',(#344,#345,#346,#347,#348,#349,#350));
#70=EDGE_LOOP('',(#351,#352,#353,#354));
#71=EDGE_LOOP('',(#355,#356,#357,#358));
#72=EDGE_LOOP('',(#359,#360,#361,#362));
#73=EDGE_LOOP('',(#363,#364,#365,#366));
#74=EDGE_LOOP('',(#367,#368,#369,#370));
#75=EDGE_LOOP('',(#371,#372,#373,#374,#375,#376,#377));
#76=EDGE_LOOP('',(#378,#379,#380,#381));
#77=EDGE_LOOP('',(#382,#383,#384,#385));
#78=EDGE_LOOP('',(#386,#387,#388,#389));
#79=EDGE_LOOP('',(#390,#391,#392,#393));
#80=EDGE_LOOP('',(#394,#395,#396,#397,#398,#399,#400));
#81=EDGE_LOOP('',(#401,#402,#403,#404));
#82=EDGE_LOOP('',(#405,#406,#407,#408));
#83=EDGE_LOOP('',(#409,#410,#411,#412));
#84=EDGE_LOOP('',(#413,#414,#415,#416,#417,#418,#419,#420,#421,#422,#423,
#424));
#85=EDGE_LOOP('',(#425));
#86=EDGE_LOOP('',(#426,#427,#428,#429,#430,#431,#432,#433,#434,#435,#436,
#437));
#87=EDGE_LOOP('',(#438));
#88=CIRCLE('',#481,35.15);
#89=CIRCLE('',#482,34.);
#90=CIRCLE('',#485,35.15);
#91=CIRCLE('',#486,34.);
#92=CIRCLE('',#489,35.15);
#93=CIRCLE('',#490,34.);
#94=CIRCLE('',#493,35.15);
#95=CIRCLE('',#496,37.);
#96=CIRCLE('',#497,37.);
#97=CIRCLE('',#500,35.);
#98=CIRCLE('',#501,35.);
#99=CIRCLE('',#503,35.);
#100=CIRCLE('',#504,35.);
#101=CIRCLE('',#506,35.15);
#102=CIRCLE('',#509,37.);
#103=CIRCLE('',#510,37.);
#104=CIRCLE('',#513,35.);
#105=CIRCLE('',#514,35.);
#106=CIRCLE('',#516,35.15);
#107=CIRCLE('',#519,37.);
#108=CIRCLE('',#520,37.);
#109=CIRCLE('',#523,31.5);
#110=CIRCLE('',#524,31.5);
#111=LINE('',#670,#154);
#112=LINE('',#674,#155);
#113=LINE('',#678,#156);
#114=LINE('',#680,#157);
#115=LINE('',#682,#158);
#116=LINE('',#684,#159);
#117=LINE('',#686,#160);
#118=LINE('',#687,#161);
#119=LINE('',#691,#162);
#120=LINE('',#695,#163);
#121=LINE('',#699,#164);
#122=LINE('',#701,#165);
#123=LINE('',#703,#166);
#124=LINE('',#705,#167);
#125=LINE('',#707,#168);
#126=LINE('',#708,#169);
#127=LINE('',#712,#170);
#128=LINE('',#716,#171);
#129=LINE('',#720,#172);
#130=LINE('',#722,#173);
#131=LINE('',#724,#174);
#132=LINE('',#726,#175);
#133=LINE('',#728,#176);
#134=LINE('',#729,#177);
#135=LINE('',#732,#178);
#136=LINE('',#736,#179);
#137=LINE('',#738,#180);
#138=LINE('',#740,#181);
#139=LINE('',#742,#182);
#140=LINE('',#743,#183);
#141=LINE('',#752,#184);
#142=LINE('',#759,#185);
#143=LINE('',#763,#186);
#144=LINE('',#765,#187);
#145=LINE('',#767,#188);
#146=LINE('',#769,#189);
#147=LINE('',#770,#190);
#148=LINE('',#780,#191);
#149=LINE('',#784,#192);
#150=LINE('',#786,#193);
#151=LINE('',#787,#194);
#152=LINE('',#788,#195);
#153=LINE('',#797,#196);
#154=VECTOR('',#531,10.);
#155=VECTOR('',#534,10.);
#156=VECTOR('',#539,10.);
#157=VECTOR('',#540,10.);
#158=VECTOR('',#541,10.);
#159=VECTOR('',#542,10.);
#160=VECTOR('',#543,10.);
#161=VECTOR('',#544,10.);
#162=VECTOR('',#547,10.);
#163=VECTOR('',#550,10.);
#164=VECTOR('',#555,10.);
#165=VECTOR('',#556,10.);
#166=VECTOR('',#557,10.);
#167=VECTOR('',#558,10.);
#168=VECTOR('',#559,10.);
#169=VECTOR('',#560,10.);
#170=VECTOR('',#563,10.);
#171=VECTOR('',#566,10.);
#172=VECTOR('',#571,10.);
#173=VECTOR('',#572,10.);
#174=VECTOR('',#573,10.);
#175=VECTOR('',#574,10.);
#176=VECTOR('',#575,10.);
#177=VECTOR('',#576,10.);
#178=VECTOR('',#579,10.);
#179=VECTOR('',#584,10.);
#180=VECTOR('',#585,10.);
#181=VECTOR('',#586,10.);
#182=VECTOR('',#587,10.);
#183=VECTOR('',#588,10.);
#184=VECTOR('',#601,10.);
#185=VECTOR('',#612,10.);
#186=VECTOR('',#617,10.);
#187=VECTOR('',#618,10.);
#188=VECTOR('',#619,10.);
#189=VECTOR('',#620,10.);
#190=VECTOR('',#621,10.);
#191=VECTOR('',#638,10.);
#192=VECTOR('',#643,10.);
#193=VECTOR('',#644,10.);
#194=VECTOR('',#645,10.);
#195=VECTOR('',#646,10.);
#196=VECTOR('',#659,31.5);
#197=VERTEX_POINT('',#668);
#198=VERTEX_POINT('',#669);
#199=VERTEX_POINT('',#671);
#200=VERTEX_POINT('',#673);
#201=VERTEX_POINT('',#677);
#202=VERTEX_POINT('',#679);
#203=VERTEX_POINT('',#681);
#204=VERTEX_POINT('',#683);
#205=VERTEX_POINT('',#685);
#206=VERTEX_POINT('',#689);
#207=VERTEX_POINT('',#690);
#208=VERTEX_POINT('',#692);
#209=VERTEX_POINT('',#694);
#210=VERTEX_POINT('',#698);
#211=VERTEX_POINT('',#700);
#212=VERTEX_POINT('',#702);
#213=VERTEX_POINT('',#704);
#214=VERTEX_POINT('',#706);
#215=VERTEX_POINT('',#710);
#216=VERTEX_POINT('',#711);
#217=VERTEX_POINT('',#713);
#218=VERTEX_POINT('',#715);
#219=VERTEX_POINT('',#719);
#220=VERTEX_POINT('',#721);
#221=VERTEX_POINT('',#723);
#222=VERTEX_POINT('',#725);
#223=VERTEX_POINT('',#727);
#224=VERTEX_POINT('',#731);
#225=VERTEX_POINT('',#735);
#226=VERTEX_POINT('',#737);
#227=VERTEX_POINT('',#739);
#228=VERTEX_POINT('',#741);
#229=VERTEX_POINT('',#749);
#230=VERTEX_POINT('',#751);
#231=VERTEX_POINT('',#758);
#232=VERTEX_POINT('',#762);
#233=VERTEX_POINT('',#764);
#234=VERTEX_POINT('',#766);
#235=VERTEX_POINT('',#768);
#236=VERTEX_POINT('',#779);
#237=VERTEX_POINT('',#783);
#238=VERTEX_POINT('',#785);
#239=VERTEX_POINT('',#794);
#240=VERTEX_POINT('',#796);
#241=EDGE_CURVE('',#197,#198,#111,.T.);
#242=EDGE_CURVE('',#199,#198,#88,.T.);
#243=EDGE_CURVE('',#199,#200,#112,.T.);
#244=EDGE_CURVE('',#200,#197,#89,.T.);
#245=EDGE_CURVE('',#201,#199,#113,.T.);
#246=EDGE_CURVE('',#202,#201,#114,.T.);
#247=EDGE_CURVE('',#203,#202,#115,.T.);
#248=EDGE_CURVE('',#203,#204,#116,.F.);
#249=EDGE_CURVE('',#204,#205,#117,.T.);
#250=EDGE_CURVE('',#205,#200,#118,.T.);
#251=EDGE_CURVE('',#206,#207,#119,.T.);
#252=EDGE_CURVE('',#208,#207,#90,.T.);
#253=EDGE_CURVE('',#208,#209,#120,.T.);
#254=EDGE_CURVE('',#209,#206,#91,.T.);
#255=EDGE_CURVE('',#210,#208,#121,.T.);
#256=EDGE_CURVE('',#211,#210,#122,.T.);
#257=EDGE_CURVE('',#212,#211,#123,.T.);
#258=EDGE_CURVE('',#212,#213,#124,.F.);
#259=EDGE_CURVE('',#213,#214,#125,.T.);
#260=EDGE_CURVE('',#214,#209,#126,.T.);
#261=EDGE_CURVE('',#215,#216,#127,.T.);
#262=EDGE_CURVE('',#217,#216,#92,.T.);
#263=EDGE_CURVE('',#217,#218,#128,.T.);
#264=EDGE_CURVE('',#218,#215,#93,.T.);
#265=EDGE_CURVE('',#219,#217,#129,.T.);
#266=EDGE_CURVE('',#220,#219,#130,.T.);
#267=EDGE_CURVE('',#221,#220,#131,.T.);
#268=EDGE_CURVE('',#221,#222,#132,.F.);
#269=EDGE_CURVE('',#222,#223,#133,.T.);
#270=EDGE_CURVE('',#223,#218,#134,.T.);
#271=EDGE_CURVE('',#224,#216,#135,.F.);
#272=EDGE_CURVE('',#219,#224,#94,.F.);
#273=EDGE_CURVE('',#225,#215,#136,.T.);
#274=EDGE_CURVE('',#226,#225,#137,.T.);
#275=EDGE_CURVE('',#227,#226,#138,.T.);
#276=EDGE_CURVE('',#228,#227,#139,.T.);
#277=EDGE_CURVE('',#228,#224,#140,.T.);
#278=EDGE_CURVE('',#226,#222,#95,.T.);
#279=EDGE_CURVE('',#223,#225,#96,.T.);
#280=EDGE_CURVE('',#229,#220,#97,.T.);
#281=EDGE_CURVE('',#229,#230,#141,.T.);
#282=EDGE_CURVE('',#221,#230,#98,.T.);
#283=EDGE_CURVE('',#212,#227,#99,.T.);
#284=EDGE_CURVE('',#228,#211,#100,.T.);
#285=EDGE_CURVE('',#231,#207,#142,.F.);
#286=EDGE_CURVE('',#210,#231,#101,.F.);
#287=EDGE_CURVE('',#232,#206,#143,.T.);
#288=EDGE_CURVE('',#233,#232,#144,.T.);
#289=EDGE_CURVE('',#234,#233,#145,.T.);
#290=EDGE_CURVE('',#235,#234,#146,.T.);
#291=EDGE_CURVE('',#235,#231,#147,.T.);
#292=EDGE_CURVE('',#233,#213,#102,.T.);
#293=EDGE_CURVE('',#214,#232,#103,.T.);
#294=EDGE_CURVE('',#203,#234,#104,.T.);
#295=EDGE_CURVE('',#235,#202,#105,.T.);
#296=EDGE_CURVE('',#236,#198,#148,.F.);
#297=EDGE_CURVE('',#201,#236,#106,.F.);
#298=EDGE_CURVE('',#237,#197,#149,.T.);
#299=EDGE_CURVE('',#238,#237,#150,.T.);
#300=EDGE_CURVE('',#230,#238,#151,.T.);
#301=EDGE_CURVE('',#229,#236,#152,.T.);
#302=EDGE_CURVE('',#238,#204,#107,.T.);
#303=EDGE_CURVE('',#205,#237,#108,.T.);
#304=EDGE_CURVE('',#239,#239,#109,.T.);
#305=EDGE_CURVE('',#239,#240,#153,.T.);
#306=EDGE_CURVE('',#240,#240,#110,.T.);
#307=ORIENTED_EDGE('',*,*,#241,.T.);
#308=ORIENTED_EDGE('',*,*,#242,.F.);
#309=ORIENTED_EDGE('',*,*,#243,.T.);
#310=ORIENTED_EDGE('',*,*,#244,.T.);
#311=ORIENTED_EDGE('',*,*,#243,.F.);
#312=ORIENTED_EDGE('',*,*,#245,.F.);
#313=ORIENTED_EDGE('',*,*,#246,.F.);
#314=ORIENTED_EDGE('',*,*,#247,.F.);
#315=ORIENTED_EDGE('',*,*,#248,.T.);
#316=ORIENTED_EDGE('',*,*,#249,.T.);
#317=ORIENTED_EDGE('',*,*,#250,.T.);
#318=ORIENTED_EDGE('',*,*,#251,.T.);
#319=ORIENTED_EDGE('',*,*,#252,.F.);
#320=ORIENTED_EDGE('',*,*,#253,.T.);
#321=ORIENTED_EDGE('',*,*,#254,.T.);
#322=ORIENTED_EDGE('',*,*,#253,.F.);
#323=ORIENTED_EDGE('',*,*,#255,.F.);
#324=ORIENTED_EDGE('',*,*,#256,.F.);
#325=ORIENTED_EDGE('',*,*,#257,.F.);
#326=ORIENTED_EDGE('',*,*,#258,.T.);
#327=ORIENTED_EDGE('',*,*,#259,.T.);
#328=ORIENTED_EDGE('',*,*,#260,.T.);
#329=ORIENTED_EDGE('',*,*,#261,.T.);
#330=ORIENTED_EDGE('',*,*,#262,.F.);
#331=ORIENTED_EDGE('',*,*,#263,.T.);
#332=ORIENTED_EDGE('',*,*,#264,.T.);
#333=ORIENTED_EDGE('',*,*,#263,.F.);
#334=ORIENTED_EDGE('',*,*,#265,.F.);
#335=ORIENTED_EDGE('',*,*,#266,.F.);
#336=ORIENTED_EDGE('',*,*,#267,.F.);
#337=ORIENTED_EDGE('',*,*,#268,.T.);
#338=ORIENTED_EDGE('',*,*,#269,.T.);
#339=ORIENTED_EDGE('',*,*,#270,.T.);
#340=ORIENTED_EDGE('',*,*,#262,.T.);
#341=ORIENTED_EDGE('',*,*,#271,.F.);
#342=ORIENTED_EDGE('',*,*,#272,.F.);
#343=ORIENTED_EDGE('',*,*,#265,.T.);
#344=ORIENTED_EDGE('',*,*,#261,.F.);
#345=ORIENTED_EDGE('',*,*,#273,.F.);
#346=ORIENTED_EDGE('',*,*,#274,.F.);
#347=ORIENTED_EDGE('',*,*,#275,.F.);
#348=ORIENTED_EDGE('',*,*,#276,.F.);
#349=ORIENTED_EDGE('',*,*,#277,.T.);
#350=ORIENTED_EDGE('',*,*,#271,.T.);
#351=ORIENTED_EDGE('',*,*,#278,.F.);
#352=ORIENTED_EDGE('',*,*,#274,.T.);
#353=ORIENTED_EDGE('',*,*,#279,.F.);
#354=ORIENTED_EDGE('',*,*,#269,.F.);
#355=ORIENTED_EDGE('',*,*,#279,.T.);
#356=ORIENTED_EDGE('',*,*,#273,.T.);
#357=ORIENTED_EDGE('',*,*,#264,.F.);
#358=ORIENTED_EDGE('',*,*,#270,.F.);
#359=ORIENTED_EDGE('',*,*,#267,.T.);
#360=ORIENTED_EDGE('',*,*,#280,.F.);
#361=ORIENTED_EDGE('',*,*,#281,.T.);
#362=ORIENTED_EDGE('',*,*,#282,.F.);
#363=ORIENTED_EDGE('',*,*,#276,.T.);
#364=ORIENTED_EDGE('',*,*,#283,.F.);
#365=ORIENTED_EDGE('',*,*,#257,.T.);
#366=ORIENTED_EDGE('',*,*,#284,.F.);
#367=ORIENTED_EDGE('',*,*,#252,.T.);
#368=ORIENTED_EDGE('',*,*,#285,.F.);
#369=ORIENTED_EDGE('',*,*,#286,.F.);
#370=ORIENTED_EDGE('',*,*,#255,.T.);
#371=ORIENTED_EDGE('',*,*,#251,.F.);
#372=ORIENTED_EDGE('',*,*,#287,.F.);
#373=ORIENTED_EDGE('',*,*,#288,.F.);
#374=ORIENTED_EDGE('',*,*,#289,.F.);
#375=ORIENTED_EDGE('',*,*,#290,.F.);
#376=ORIENTED_EDGE('',*,*,#291,.T.);
#377=ORIENTED_EDGE('',*,*,#285,.T.);
#378=ORIENTED_EDGE('',*,*,#292,.F.);
#379=ORIENTED_EDGE('',*,*,#288,.T.);
#380=ORIENTED_EDGE('',*,*,#293,.F.);
#381=ORIENTED_EDGE('',*,*,#259,.F.);
#382=ORIENTED_EDGE('',*,*,#293,.T.);
#383=ORIENTED_EDGE('',*,*,#287,.T.);
#384=ORIENTED_EDGE('',*,*,#254,.F.);
#385=ORIENTED_EDGE('',*,*,#260,.F.);
#386=ORIENTED_EDGE('',*,*,#290,.T.);
#387=ORIENTED_EDGE('',*,*,#294,.F.);
#388=ORIENTED_EDGE('',*,*,#247,.T.);
#389=ORIENTED_EDGE('',*,*,#295,.F.);
#390=ORIENTED_EDGE('',*,*,#242,.T.);
#391=ORIENTED_EDGE('',*,*,#296,.F.);
#392=ORIENTED_EDGE('',*,*,#297,.F.);
#393=ORIENTED_EDGE('',*,*,#245,.T.);
#394=ORIENTED_EDGE('',*,*,#241,.F.);
#395=ORIENTED_EDGE('',*,*,#298,.F.);
#396=ORIENTED_EDGE('',*,*,#299,.F.);
#397=ORIENTED_EDGE('',*,*,#300,.F.);
#398=ORIENTED_EDGE('',*,*,#281,.F.);
#399=ORIENTED_EDGE('',*,*,#301,.T.);
#400=ORIENTED_EDGE('',*,*,#296,.T.);
#401=ORIENTED_EDGE('',*,*,#302,.F.);
#402=ORIENTED_EDGE('',*,*,#299,.T.);
#403=ORIENTED_EDGE('',*,*,#303,.F.);
#404=ORIENTED_EDGE('',*,*,#249,.F.);
#405=ORIENTED_EDGE('',*,*,#303,.T.);
#406=ORIENTED_EDGE('',*,*,#298,.T.);
#407=ORIENTED_EDGE('',*,*,#244,.F.);
#408=ORIENTED_EDGE('',*,*,#250,.F.);
#409=ORIENTED_EDGE('',*,*,#304,.F.);
#410=ORIENTED_EDGE('',*,*,#305,.T.);
#411=ORIENTED_EDGE('',*,*,#306,.F.);
#412=ORIENTED_EDGE('',*,*,#305,.F.);
#413=ORIENTED_EDGE('',*,*,#294,.T.);
#414=ORIENTED_EDGE('',*,*,#289,.T.);
#415=ORIENTED_EDGE('',*,*,#292,.T.);
#416=ORIENTED_EDGE('',*,*,#258,.F.);
#417=ORIENTED_EDGE('',*,*,#283,.T.);
#418=ORIENTED_EDGE('',*,*,#275,.T.);
#419=ORIENTED_EDGE('',*,*,#278,.T.);
#420=ORIENTED_EDGE('',*,*,#268,.F.);
#421=ORIENTED_EDGE('',*,*,#282,.T.);
#422=ORIENTED_EDGE('',*,*,#300,.T.);
#423=ORIENTED_EDGE('',*,*,#302,.T.);
#424=ORIENTED_EDGE('',*,*,#248,.F.);
#425=ORIENTED_EDGE('',*,*,#306,.T.);
#426=ORIENTED_EDGE('',*,*,#280,.T.);
#427=ORIENTED_EDGE('',*,*,#266,.T.);
#428=ORIENTED_EDGE('',*,*,#272,.T.);
#429=ORIENTED_EDGE('',*,*,#277,.F.);
#430=ORIENTED_EDGE('',*,*,#284,.T.);
#431=ORIENTED_EDGE('',*,*,#256,.T.);
#432=ORIENTED_EDGE('',*,*,#286,.T.);
#433=ORIENTED_EDGE('',*,*,#291,.F.);
#434=ORIENTED_EDGE('',*,*,#295,.T.);
#435=ORIENTED_EDGE('',*,*,#246,.T.);
#436=ORIENTED_EDGE('',*,*,#297,.T.);
#437=ORIENTED_EDGE('',*,*,#301,.F.);
#438=ORIENTED_EDGE('',*,*,#304,.T.);
#439=CONICAL_SURFACE('',#480,34.575,0.855052737126014);
#440=CONICAL_SURFACE('',#484,34.575,0.855052737126019);
#441=CONICAL_SURFACE('',#488,34.575,0.855052737126017);
#442=ADVANCED_FACE('',(#38),#439,.F.);
#443=ADVANCED_FACE('',(#39),#27,.T.);
#444=ADVANCED_FACE('',(#40),#440,.F.);
#445=ADVANCED_FACE('',(#41),#28,.T.);
#446=ADVANCED_FACE('',(#42),#441,.F.);
#447=ADVANCED_FACE('',(#43),#29,.T.);
#448=ADVANCED_FACE('',(#44),#17,.F.);
#449=ADVANCED_FACE('',(#45),#30,.T.);
#450=ADVANCED_FACE('',(#46),#18,.T.);
#451=ADVANCED_FACE('',(#47),#31,.F.);
#452=ADVANCED_FACE('',(#48),#19,.T.);
#453=ADVANCED_FACE('',(#49),#20,.T.);
#454=ADVANCED_FACE('',(#50),#21,.F.);
#455=ADVANCED_FACE('',(#51),#32,.T.);
#456=ADVANCED_FACE('',(#52),#22,.T.);
#457=ADVANCED_FACE('',(#53),#33,.F.);
#458=ADVANCED_FACE('',(#54),#23,.T.);
#459=ADVANCED_FACE('',(#55),#24,.F.);
#460=ADVANCED_FACE('',(#56),#34,.T.);
#461=ADVANCED_FACE('',(#57),#25,.T.);
#462=ADVANCED_FACE('',(#58),#35,.F.);
#463=ADVANCED_FACE('',(#59),#26,.F.);
#464=ADVANCED_FACE('',(#60,#15),#36,.T.);
#465=ADVANCED_FACE('',(#61,#16),#37,.F.);
#466=CLOSED_SHELL('',(#442,#443,#444,#445,#446,#447,#448,#449,#450,#451,
#452,#453,#454,#455,#456,#457,#458,#459,#460,#461,#462,#463,#464,#465));
#467=DERIVED_UNIT_ELEMENT(#469,1.);
#468=DERIVED_UNIT_ELEMENT(#806,-3.);
#469=(
MASS_UNIT()
NAMED_UNIT(*)
SI_UNIT(.KILO.,.GRAM.)
);
#470=DERIVED_UNIT((#467,#468));
#471=MEASURE_REPRESENTATION_ITEM('density measure',
POSITIVE_RATIO_MEASURE(7850.),#470);
#472=PROPERTY_DEFINITION_REPRESENTATION(#477,#474);
#473=PROPERTY_DEFINITION_REPRESENTATION(#478,#475);
#474=REPRESENTATION('material name',(#476),#803);
#475=REPRESENTATION('density',(#471),#803);
#476=DESCRIPTIVE_REPRESENTATION_ITEM('Steel','Steel');
#477=PROPERTY_DEFINITION('material property','material name',#813);
#478=PROPERTY_DEFINITION('material property','density of part',#813);
#479=AXIS2_PLACEMENT_3D('',#666,#527,#528);
#480=AXIS2_PLACEMENT_3D('',#667,#529,#530);
#481=AXIS2_PLACEMENT_3D('',#672,#532,#533);
#482=AXIS2_PLACEMENT_3D('',#675,#535,#536);
#483=AXIS2_PLACEMENT_3D('',#676,#537,#538);
#484=AXIS2_PLACEMENT_3D('',#688,#545,#546);
#485=AXIS2_PLACEMENT_3D('',#693,#548,#549);
#486=AXIS2_PLACEMENT_3D('',#696,#551,#552);
#487=AXIS2_PLACEMENT_3D('',#697,#553,#554);
#488=AXIS2_PLACEMENT_3D('',#709,#561,#562);
#489=AXIS2_PLACEMENT_3D('',#714,#564,#565);
#490=AXIS2_PLACEMENT_3D('',#717,#567,#568);
#491=AXIS2_PLACEMENT_3D('',#718,#569,#570);
#492=AXIS2_PLACEMENT_3D('',#730,#577,#578);
#493=AXIS2_PLACEMENT_3D('',#733,#580,#581);
#494=AXIS2_PLACEMENT_3D('',#734,#582,#583);
#495=AXIS2_PLACEMENT_3D('',#744,#589,#590);
#496=AXIS2_PLACEMENT_3D('',#745,#591,#592);
#497=AXIS2_PLACEMENT_3D('',#746,#593,#594);
#498=AXIS2_PLACEMENT_3D('',#747,#595,#596);
#499=AXIS2_PLACEMENT_3D('',#748,#597,#598);
#500=AXIS2_PLACEMENT_3D('',#750,#599,#600);
#501=AXIS2_PLACEMENT_3D('',#753,#602,#603);
#502=AXIS2_PLACEMENT_3D('',#754,#604,#605);
#503=AXIS2_PLACEMENT_3D('',#755,#606,#607);
#504=AXIS2_PLACEMENT_3D('',#756,#608,#609);
#505=AXIS2_PLACEMENT_3D('',#757,#610,#611);
#506=AXIS2_PLACEMENT_3D('',#760,#613,#614);
#507=AXIS2_PLACEMENT_3D('',#761,#615,#616);
#508=AXIS2_PLACEMENT_3D('',#771,#622,#623);
#509=AXIS2_PLACEMENT_3D('',#772,#624,#625);
#510=AXIS2_PLACEMENT_3D('',#773,#626,#627);
#511=AXIS2_PLACEMENT_3D('',#774,#628,#629);
#512=AXIS2_PLACEMENT_3D('',#775,#630,#631);
#513=AXIS2_PLACEMENT_3D('',#776,#632,#633);
#514=AXIS2_PLACEMENT_3D('',#777,#634,#635);
#515=AXIS2_PLACEMENT_3D('',#778,#636,#637);
#516=AXIS2_PLACEMENT_3D('',#781,#639,#640);
#517=AXIS2_PLACEMENT_3D('',#782,#641,#642);
#518=AXIS2_PLACEMENT_3D('',#789,#647,#648);
#519=AXIS2_PLACEMENT_3D('',#790,#649,#650);
#520=AXIS2_PLACEMENT_3D('',#791,#651,#652);
#521=AXIS2_PLACEMENT_3D('',#792,#653,#654);
#522=AXIS2_PLACEMENT_3D('',#793,#655,#656);
#523=AXIS2_PLACEMENT_3D('',#795,#657,#658);
#524=AXIS2_PLACEMENT_3D('',#798,#660,#661);
#525=AXIS2_PLACEMENT_3D('',#799,#662,#663);
#526=AXIS2_PLACEMENT_3D('',#800,#664,#665);
#527=DIRECTION('axis',(0.,0.,1.));
#528=DIRECTION('refdir',(1.,0.,0.));
#529=DIRECTION('center_axis',(0.,0.,1.));
#530=DIRECTION('ref_axis',(-0.984807753012208,-0.17364817766693,0.));
#531=DIRECTION('',(-0.258090288844702,0.709097240781341,0.656178714924788));
#532=DIRECTION('center_axis',(0.,0.,-1.));
#533=DIRECTION('ref_axis',(-1.,0.,0.));
#534=DIRECTION('',(0.743141368692444,0.131035873781095,-0.656178714924788));
#535=DIRECTION('center_axis',(0.,0.,-1.));
#536=DIRECTION('ref_axis',(-0.984807753012208,-0.17364817766693,0.));
#537=DIRECTION('center_axis',(0.17364817766693,-0.984807753012208,0.));
#538=DIRECTION('ref_axis',(-0.984807753012208,-0.17364817766693,0.));
#539=DIRECTION('',(0.,0.,-1.));
#540=DIRECTION('',(-0.984807753012208,-0.17364817766693,0.));
#541=DIRECTION('',(0.,0.,-1.));
#542=DIRECTION('',(0.984807753012208,0.17364817766693,0.));
#543=DIRECTION('',(0.,0.,-1.));
#544=DIRECTION('',(0.984807753012208,0.17364817766693,0.));
#545=DIRECTION('center_axis',(0.,0.,1.));
#546=DIRECTION('ref_axis',(0.642787609686539,-0.766044443118978,0.));
#547=DIRECTION('',(-0.485051079847743,-0.578061367000249,0.656178714924785));
#548=DIRECTION('center_axis',(0.,0.,-1.));
#549=DIRECTION('ref_axis',(-1.,0.,0.));
#550=DIRECTION('',(-0.485051079847743,0.578061367000249,-0.656178714924785));
#551=DIRECTION('center_axis',(0.,0.,-1.));
#552=DIRECTION('ref_axis',(0.642787609686539,-0.766044443118978,0.));
#553=DIRECTION('center_axis',(0.766044443118978,0.64278760968654,0.));
#554=DIRECTION('ref_axis',(0.64278760968654,-0.766044443118978,0.));
#555=DIRECTION('',(0.,0.,-1.));
#556=DIRECTION('',(0.64278760968654,-0.766044443118978,0.));
#557=DIRECTION('',(0.,0.,-1.));
#558=DIRECTION('',(-0.64278760968654,0.766044443118978,0.));
#559=DIRECTION('',(0.,0.,-1.));
#560=DIRECTION('',(-0.64278760968654,0.766044443118978,0.));
#561=DIRECTION('center_axis',(0.,0.,1.));
#562=DIRECTION('ref_axis',(0.342020143325669,0.939692620785908,0.));
#563=DIRECTION('',(0.743141368692445,-0.131035873781095,0.656178714924787));
#564=DIRECTION('center_axis',(0.,0.,-1.));
#565=DIRECTION('ref_axis',(-1.,0.,0.));
#566=DIRECTION('',(-0.258090288844703,-0.709097240781343,-0.656178714924787));
#567=DIRECTION('center_axis',(0.,0.,-1.));
#568=DIRECTION('ref_axis',(0.342020143325669,0.939692620785908,0.));
#569=DIRECTION('center_axis',(-0.939692620785908,0.342020143325669,0.));
#570=DIRECTION('ref_axis',(0.342020143325669,0.939692620785908,0.));
#571=DIRECTION('',(0.,0.,-1.));
#572=DIRECTION('',(0.342020143325669,0.939692620785908,0.));
#573=DIRECTION('',(0.,0.,-1.));
#574=DIRECTION('',(-0.342020143325669,-0.939692620785908,0.));
#575=DIRECTION('',(0.,0.,-1.));
#576=DIRECTION('',(-0.342020143325669,-0.939692620785908,0.));
#577=DIRECTION('center_axis',(0.,0.,-1.));
#578=DIRECTION('ref_axis',(0.866025403784438,0.5,0.));
#579=DIRECTION('',(0.,0.,1.));
#580=DIRECTION('center_axis',(0.,0.,1.));
#581=DIRECTION('ref_axis',(-1.,0.,0.));
#582=DIRECTION('center_axis',(-0.17364817766693,-0.984807753012208,0.));
#583=DIRECTION('ref_axis',(-0.984807753012208,0.17364817766693,0.));
#584=DIRECTION('',(-0.984807753012208,0.17364817766693,0.));
#585=DIRECTION('',(0.,0.,-1.));
#586=DIRECTION('',(0.984807753012208,-0.17364817766693,0.));
#587=DIRECTION('',(0.,0.,1.));
#588=DIRECTION('',(0.984807753012208,-0.17364817766693,0.));
#589=DIRECTION('center_axis',(0.,0.,-1.));
#590=DIRECTION('ref_axis',(0.866025403784439,0.5,0.));
#591=DIRECTION('center_axis',(0.,0.,1.));
#592=DIRECTION('ref_axis',(-1.,0.,0.));
#593=DIRECTION('center_axis',(0.,0.,-1.));
#594=DIRECTION('ref_axis',(-1.,0.,0.));
#595=DIRECTION('center_axis',(0.,0.,1.));
#596=DIRECTION('ref_axis',(-1.,0.,0.));
#597=DIRECTION('center_axis',(0.,0.,-1.));
#598=DIRECTION('ref_axis',(-1.,0.,0.));
#599=DIRECTION('center_axis',(0.,0.,-1.));
#600=DIRECTION('ref_axis',(-1.,0.,0.));
#601=DIRECTION('',(0.,0.,1.));
#602=DIRECTION('center_axis',(0.,0.,1.));
#603=DIRECTION('ref_axis',(-1.,0.,0.));
#604=DIRECTION('center_axis',(0.,0.,-1.));
#605=DIRECTION('ref_axis',(-1.,0.,0.));
#606=DIRECTION('center_axis',(0.,0.,1.));
#607=DIRECTION('ref_axis',(-1.,0.,0.));
#608=DIRECTION('center_axis',(0.,0.,-1.));
#609=DIRECTION('ref_axis',(-1.,0.,0.));
#610=DIRECTION('center_axis',(0.,0.,-1.));
#611=DIRECTION('ref_axis',(-1.,0.,0.));
#612=DIRECTION('',(0.,0.,1.));
#613=DIRECTION('center_axis',(0.,0.,1.));
#614=DIRECTION('ref_axis',(-1.,0.,0.));
#615=DIRECTION('center_axis',(-0.766044443118978,0.64278760968654,0.));
#616=DIRECTION('ref_axis',(0.64278760968654,0.766044443118978,0.));
#617=DIRECTION('',(0.64278760968654,0.766044443118978,0.));
#618=DIRECTION('',(0.,0.,-1.));
#619=DIRECTION('',(-0.64278760968654,-0.766044443118978,0.));
#620=DIRECTION('',(0.,0.,1.));
#621=DIRECTION('',(-0.64278760968654,-0.766044443118978,0.));
#622=DIRECTION('center_axis',(0.,0.,-1.));
#623=DIRECTION('ref_axis',(-1.,0.,0.));
#624=DIRECTION('center_axis',(0.,0.,1.));
#625=DIRECTION('ref_axis',(-1.,0.,0.));
#626=DIRECTION('center_axis',(0.,0.,-1.));
#627=DIRECTION('ref_axis',(-1.,0.,0.));
#628=DIRECTION('center_axis',(0.,0.,1.));
#629=DIRECTION('ref_axis',(-1.,0.,0.));
#630=DIRECTION('center_axis',(0.,0.,-1.));
#631=DIRECTION('ref_axis',(-1.,0.,0.));
#632=DIRECTION('center_axis',(0.,0.,1.));
#633=DIRECTION('ref_axis',(-1.,0.,0.));
#634=DIRECTION('center_axis',(0.,0.,-1.));
#635=DIRECTION('ref_axis',(-1.,0.,0.));
#636=DIRECTION('center_axis',(0.,0.,-1.));
#637=DIRECTION('ref_axis',(-1.,0.,0.));
#638=DIRECTION('',(0.,0.,1.));
#639=DIRECTION('center_axis',(0.,0.,1.));
#640=DIRECTION('ref_axis',(-1.,0.,0.));
#641=DIRECTION('center_axis',(0.939692620785908,0.342020143325669,0.));
#642=DIRECTION('ref_axis',(0.342020143325669,-0.939692620785909,0.));
#643=DIRECTION('',(0.342020143325669,-0.939692620785909,0.));
#644=DIRECTION('',(0.,0.,-1.));
#645=DIRECTION('',(-0.342020143325669,0.939692620785909,0.));
#646=DIRECTION('',(-0.342020143325669,0.939692620785909,0.));
#647=DIRECTION('center_axis',(0.,0.,-1.));
#648=DIRECTION('ref_axis',(-1.,0.,0.));
#649=DIRECTION('center_axis',(0.,0.,1.));
#650=DIRECTION('ref_axis',(-1.,0.,0.));
#651=DIRECTION('center_axis',(0.,0.,-1.));
#652=DIRECTION('ref_axis',(-1.,0.,0.));
#653=DIRECTION('center_axis',(0.,0.,1.));
#654=DIRECTION('ref_axis',(-1.,0.,0.));
#655=DIRECTION('center_axis',(0.,0.,-1.));
#656=DIRECTION('ref_axis',(-1.,0.,0.));
#657=DIRECTION('center_axis',(0.,0.,1.));
#658=DIRECTION('ref_axis',(-1.,0.,0.));
#659=DIRECTION('',(0.,0.,1.));
#660=DIRECTION('center_axis',(0.,0.,-1.));
#661=DIRECTION('ref_axis',(-1.,0.,0.));
#662=DIRECTION('center_axis',(0.,0.,1.));
#663=DIRECTION('ref_axis',(-1.,0.,0.));
#664=DIRECTION('center_axis',(0.,0.,1.));
#665=DIRECTION('ref_axis',(-1.,0.,0.));
#666=CARTESIAN_POINT('',(0.,0.,0.));
#667=CARTESIAN_POINT('Origin',(-4.44089209850063E-15,0.,29.5));
#668=CARTESIAN_POINT('',(-11.6286848730727,31.9495491067209,29.));
#669=CARTESIAN_POINT('',(-12.0220080378972,33.0301956206247,30.));
#670=CARTESIAN_POINT('',(-11.825346455485,32.4898723636728,29.5));
#671=CARTESIAN_POINT('',(-34.6159925183791,-6.1037334449926,30.));
#672=CARTESIAN_POINT('Origin',(0.,0.,30.));
#673=CARTESIAN_POINT('',(-33.4834636024151,-5.90403804067563,29.));
#674=CARTESIAN_POINT('',(-34.0497280603971,-6.00388574283411,29.5));
#675=CARTESIAN_POINT('Origin',(-4.44089209850063E-15,0.,29.));
#676=CARTESIAN_POINT('Origin',(-34.4682713554273,-6.07768621834255,37.));
#677=CARTESIAN_POINT('',(-34.6159925183791,-6.10373344499259,35.5));
#678=CARTESIAN_POINT('',(-34.6159925183791,-6.10373344499259,37.));
#679=CARTESIAN_POINT('',(-34.4682713554273,-6.07768621834255,35.5));
#680=CARTESIAN_POINT('',(-17.2341356777136,-3.03884310917128,35.5));
#681=CARTESIAN_POINT('',(-34.4682713554273,-6.07768621834255,36.85));
#682=CARTESIAN_POINT('',(-34.4682713554273,-6.07768621834255,37.));
#683=CARTESIAN_POINT('',(-36.4378868614517,-6.42498257367641,36.85));
#684=CARTESIAN_POINT('',(-17.2341356777136,-3.03884310917128,36.85));
#685=CARTESIAN_POINT('',(-36.4378868614517,-6.42498257367641,29.));
#686=CARTESIAN_POINT('',(-36.4378868614517,-6.42498257367641,37.));
#687=CARTESIAN_POINT('',(-16.831972032068,-2.96793080778388,29.));
#688=CARTESIAN_POINT('Origin',(2.22044604925031E-15,2.22044604925031E-14,
29.5));
#689=CARTESIAN_POINT('',(-21.8547787293424,-26.0455110660452,29.));
#690=CARTESIAN_POINT('',(-22.5939844804819,-26.9264621756321,30.));
#691=CARTESIAN_POINT('',(-22.2243816049121,-26.4859866208387,29.5));
#692=CARTESIAN_POINT('',(22.5939844804819,-26.9264621756321,30.));
#693=CARTESIAN_POINT('Origin',(0.,0.,30.));
#694=CARTESIAN_POINT('',(21.8547787293424,-26.0455110660452,29.));
#695=CARTESIAN_POINT('',(22.2243816049121,-26.4859866208387,29.5));
#696=CARTESIAN_POINT('Origin',(2.22044604925031E-15,2.22044604925031E-14,
29.));
#697=CARTESIAN_POINT('Origin',(22.4975663390289,-26.8115555091642,37.));
#698=CARTESIAN_POINT('',(22.5939844804819,-26.9264621756321,35.5));
#699=CARTESIAN_POINT('',(22.5939844804819,-26.9264621756321,37.));
#700=CARTESIAN_POINT('',(22.4975663390289,-26.8115555091642,35.5));
#701=CARTESIAN_POINT('',(11.2487831695144,-13.4057777545821,35.5));
#702=CARTESIAN_POINT('',(22.4975663390289,-26.8115555091642,36.85));
#703=CARTESIAN_POINT('',(22.4975663390289,-26.8115555091642,37.));
#704=CARTESIAN_POINT('',(23.783141558402,-28.3436443954022,36.85));
#705=CARTESIAN_POINT('',(11.2487831695144,-13.4057777545821,36.85));
#706=CARTESIAN_POINT('',(23.783141558402,-28.3436443954022,29.));
#707=CARTESIAN_POINT('',(23.783141558402,-28.3436443954022,37.));
#708=CARTESIAN_POINT('',(11.1872257536069,-13.3324164830235,29.));
#709=CARTESIAN_POINT('Origin',(0.,0.,29.5));
#710=CARTESIAN_POINT('',(33.4834636024151,-5.90403804067564,29.));
#711=CARTESIAN_POINT('',(34.6159925183791,-6.1037334449926,30.));
#712=CARTESIAN_POINT('',(34.0497280603971,-6.00388574283411,29.5));
#713=CARTESIAN_POINT('',(12.0220080378973,33.0301956206247,30.));
#714=CARTESIAN_POINT('Origin',(0.,0.,30.));
#715=CARTESIAN_POINT('',(11.6286848730727,31.9495491067209,29.));
#716=CARTESIAN_POINT('',(11.825346455485,32.4898723636728,29.5));
#717=CARTESIAN_POINT('Origin',(0.,0.,29.));
#718=CARTESIAN_POINT('Origin',(11.9707050163984,32.8892417275068,37.));
#719=CARTESIAN_POINT('',(12.0220080378973,33.0301956206247,35.5));
#720=CARTESIAN_POINT('',(12.0220080378973,33.0301956206247,37.));
#721=CARTESIAN_POINT('',(11.9707050163984,32.8892417275068,35.5));
#722=CARTESIAN_POINT('',(5.9853525081992,16.4446208637534,35.5));
#723=CARTESIAN_POINT('',(11.9707050163984,32.8892417275068,36.85));
#724=CARTESIAN_POINT('',(11.9707050163984,32.8892417275068,37.));
#725=CARTESIAN_POINT('',(12.6547453030497,34.7686269690786,36.85));
#726=CARTESIAN_POINT('',(5.9853525081992,16.4446208637534,36.85));
#727=CARTESIAN_POINT('',(12.6547453030497,34.7686269690786,29.));
#728=CARTESIAN_POINT('',(12.6547453030497,34.7686269690786,37.));
#729=CARTESIAN_POINT('',(5.64474627846112,15.5088129386224,29.));
#730=CARTESIAN_POINT('Origin',(0.,0.,37.));
#731=CARTESIAN_POINT('',(34.6159925183791,-6.10373344499259,35.5));
#732=CARTESIAN_POINT('',(34.6159925183791,-6.10373344499259,37.));
#733=CARTESIAN_POINT('Origin',(0.,0.,35.5));
#734=CARTESIAN_POINT('Origin',(36.4378868614517,-6.42498257367641,37.));
#735=CARTESIAN_POINT('',(36.4378868614517,-6.42498257367641,29.));
#736=CARTESIAN_POINT('',(0.,0.,29.));
#737=CARTESIAN_POINT('',(36.4378868614517,-6.42498257367641,36.85));
#738=CARTESIAN_POINT('',(36.4378868614517,-6.42498257367641,37.));
#739=CARTESIAN_POINT('',(34.4682713554273,-6.07768621834255,36.85));
#740=CARTESIAN_POINT('',(18.2189434307258,-3.21249128683821,36.85));
#741=CARTESIAN_POINT('',(34.4682713554273,-6.07768621834255,35.5));
#742=CARTESIAN_POINT('',(34.4682713554273,-6.07768621834255,37.));
#743=CARTESIAN_POINT('',(18.2189434307258,-3.21249128683821,35.5));
#744=CARTESIAN_POINT('Origin',(0.,0.,37.));
#745=CARTESIAN_POINT('Origin',(0.,0.,36.85));
#746=CARTESIAN_POINT('Origin',(0.,0.,29.));
#747=CARTESIAN_POINT('Origin',(24.4853525081992,14.1718221977011,29.));
#748=CARTESIAN_POINT('Origin',(0.,0.,37.));
#749=CARTESIAN_POINT('',(-11.9707050163984,32.8892417275068,35.5));
#750=CARTESIAN_POINT('Origin',(0.,0.,35.5));
#751=CARTESIAN_POINT('',(-11.9707050163984,32.8892417275068,36.85));
#752=CARTESIAN_POINT('',(-11.9707050163984,32.8892417275068,37.));
#753=CARTESIAN_POINT('Origin',(0.,0.,36.85));
#754=CARTESIAN_POINT('Origin',(0.,0.,37.));
#755=CARTESIAN_POINT('Origin',(0.,0.,36.85));
#756=CARTESIAN_POINT('Origin',(0.,0.,35.5));
#757=CARTESIAN_POINT('Origin',(0.,0.,37.));
#758=CARTESIAN_POINT('',(-22.5939844804819,-26.9264621756321,35.5));
#759=CARTESIAN_POINT('',(-22.5939844804819,-26.9264621756321,37.));
#760=CARTESIAN_POINT('Origin',(0.,0.,35.5));
#761=CARTESIAN_POINT('Origin',(-23.783141558402,-28.3436443954022,37.));
#762=CARTESIAN_POINT('',(-23.783141558402,-28.3436443954022,29.));
#763=CARTESIAN_POINT('',(0.,0.,29.));
#764=CARTESIAN_POINT('',(-23.783141558402,-28.3436443954022,36.85));
#765=CARTESIAN_POINT('',(-23.783141558402,-28.3436443954022,37.));
#766=CARTESIAN_POINT('',(-22.4975663390289,-26.8115555091642,36.85));
#767=CARTESIAN_POINT('',(-11.891570779201,-14.1718221977011,36.85));
#768=CARTESIAN_POINT('',(-22.4975663390289,-26.8115555091642,35.5));
#769=CARTESIAN_POINT('',(-22.4975663390289,-26.8115555091642,37.));
#770=CARTESIAN_POINT('',(-11.891570779201,-14.1718221977011,35.5));
#771=CARTESIAN_POINT('Origin',(0.,0.,37.));
#772=CARTESIAN_POINT('Origin',(0.,0.,36.85));
#773=CARTESIAN_POINT('Origin',(0.,0.,29.));
#774=CARTESIAN_POINT('Origin',(0.,-31.9057777545821,29.));
#775=CARTESIAN_POINT('Origin',(0.,0.,37.));
#776=CARTESIAN_POINT('Origin',(0.,0.,36.85));
#777=CARTESIAN_POINT('Origin',(0.,0.,35.5));
#778=CARTESIAN_POINT('Origin',(0.,0.,37.));
#779=CARTESIAN_POINT('',(-12.0220080378973,33.0301956206247,35.5));
#780=CARTESIAN_POINT('',(-12.0220080378973,33.0301956206247,37.));
#781=CARTESIAN_POINT('Origin',(0.,0.,35.5));
#782=CARTESIAN_POINT('Origin',(-12.6547453030497,34.7686269690786,37.));
#783=CARTESIAN_POINT('',(-12.6547453030497,34.7686269690786,29.));
#784=CARTESIAN_POINT('',(0.,0.,29.));
#785=CARTESIAN_POINT('',(-12.6547453030497,34.7686269690786,36.85));
#786=CARTESIAN_POINT('',(-12.6547453030497,34.7686269690786,37.));
#787=CARTESIAN_POINT('',(-6.32737265152487,17.3843134845393,36.85));
#788=CARTESIAN_POINT('',(-6.32737265152487,17.3843134845393,35.5));
#789=CARTESIAN_POINT('Origin',(0.,0.,37.));
#790=CARTESIAN_POINT('Origin',(0.,0.,36.85));
#791=CARTESIAN_POINT('Origin',(0.,0.,29.));
#792=CARTESIAN_POINT('Origin',(-24.4853525081992,14.1718221977011,29.));
#793=CARTESIAN_POINT('Origin',(0.,0.,37.));
#794=CARTESIAN_POINT('',(31.5,3.85763741731416E-15,35.5));
#795=CARTESIAN_POINT('Origin',(0.,0.,35.5));
#796=CARTESIAN_POINT('',(31.5,-3.85763741731416E-15,36.85));
#797=CARTESIAN_POINT('',(31.5,-3.85763741731416E-15,37.));
#798=CARTESIAN_POINT('Origin',(0.,0.,36.85));
#799=CARTESIAN_POINT('Origin',(0.,0.,36.85));
#800=CARTESIAN_POINT('Origin',(0.,0.,35.5));
#801=UNCERTAINTY_MEASURE_WITH_UNIT(LENGTH_MEASURE(0.01),#805,
'DISTANCE_ACCURACY_VALUE',
'Maximum model space distance between geometric entities at asserted c
onnectivities');
#802=UNCERTAINTY_MEASURE_WITH_UNIT(LENGTH_MEASURE(0.01),#805,
'DISTANCE_ACCURACY_VALUE',
'Maximum model space distance between geometric entities at asserted c
onnectivities');
#803=(
GEOMETRIC_REPRESENTATION_CONTEXT(3)
GLOBAL_UNCERTAINTY_ASSIGNED_CONTEXT((#801))
GLOBAL_UNIT_ASSIGNED_CONTEXT((#805,#807,#808))
REPRESENTATION_CONTEXT('','3D')
);
#804=(
GEOMETRIC_REPRESENTATION_CONTEXT(3)
GLOBAL_UNCERTAINTY_ASSIGNED_CONTEXT((#802))
GLOBAL_UNIT_ASSIGNED_CONTEXT((#805,#807,#808))
REPRESENTATION_CONTEXT('','3D')
);
#805=(
LENGTH_UNIT()
NAMED_UNIT(*)
SI_UNIT(.MILLI.,.METRE.)
);
#806=(
LENGTH_UNIT()
NAMED_UNIT(*)
SI_UNIT($,.METRE.)
);
#807=(
NAMED_UNIT(*)
PLANE_ANGLE_UNIT()
SI_UNIT($,.RADIAN.)
);
#808=(
NAMED_UNIT(*)
SI_UNIT($,.STERADIAN.)
SOLID_ANGLE_UNIT()
);
#809=SHAPE_DEFINITION_REPRESENTATION(#810,#811);
#810=PRODUCT_DEFINITION_SHAPE('',$,#813);
#811=SHAPE_REPRESENTATION('',(#479),#803);
#812=PRODUCT_DEFINITION_CONTEXT('part definition',#817,'design');
#813=PRODUCT_DEFINITION('2026-08-24-20-16-43-753','TreeLEDCover',#814,#812);
#814=PRODUCT_DEFINITION_FORMATION('',$,#819);
#815=PRODUCT_RELATED_PRODUCT_CATEGORY('TreeLEDCover','TreeLEDCover',(#819));
#816=APPLICATION_PROTOCOL_DEFINITION('international standard',
'automotive_design',2009,#817);
#817=APPLICATION_CONTEXT(
'Core Data for Automotive Mechanical Design Process');
#818=PRODUCT_CONTEXT('part definition',#817,'mechanical');
#819=PRODUCT('2026-08-24-20-16-43-753','TreeLEDCover',$,(#818));
#820=PRESENTATION_STYLE_ASSIGNMENT((#821));
#821=SURFACE_STYLE_USAGE(.BOTH.,#822);
#822=SURFACE_SIDE_STYLE('',(#823));
#823=SURFACE_STYLE_FILL_AREA(#824);
#824=FILL_AREA_STYLE('Steel - Satin',(#825));
#825=FILL_AREA_STYLE_COLOUR('Steel - Satin',#826);
#826=COLOUR_RGB('Steel - Satin',0.627450980392157,0.627450980392157,0.627450980392157);
ENDSEC;
END-ISO-10303-21;
