0
SECTION
2
HEADER
9
$INSUNITS
70
4
9
$ACADVER
1
AC1014
9
$HANDSEED
5
FFFF
0
ENDSEC
0
SECTION
2
TABLES
0
TABLE
2
VPORT
5
8
100
AcDbSymbolTable
0
ENDTAB
0
TABLE
2
LTYPE
5
5
100
AcDbSymbolTable
0
LTYPE
5
14
100
AcDbSymbolTableRecord
100
AcDbLinetypeTableRecord
2
BYBLOCK
70
0
0
LTYPE
5
15
100
AcDbSymbolTableRecord
100
AcDbLinetypeTableRecord
2
BYLAYER
70
0
0
LTYPE
5
16
100
AcDbSymbolTableRecord
100
AcDbLinetypeTableRecord
2
DASHED
70
0
3
Dashed __ __ __ __ __ __ __ __ __ __ __ __ __ _
72
65
73
2
40
0.75
49
0.5
74
0
49
-0.25
74
0
0
ENDTAB
0
TABLE
2
LAYER
5
2
100
AcDbSymbolTable
70
2
0
LAYER
5
50
100
AcDbSymbolTableRecord
100
AcDbLayerTableRecord
2
0
70
0
62
7
6
CONTINUOUS
0
ENDTAB
0
TABLE
2
STYLE
5
3
100
AcDbSymbolTable
70
1
0
STYLE
5
11
100
AcDbSymbolTableRecord
100
AcDbTextStyleTableRecord
2
STANDARD
70
0
0
ENDTAB
0
TABLE
2
VIEW
5
6
100
AcDbSymbolTable
70
0
0
ENDTAB
0
TABLE
2
UCS
5
7
100
AcDbSymbolTable
70
0
0
ENDTAB
0
TABLE
2
APPID
5
9
100
AcDbSymbolTable
70
2
0
APPID
5
12
100
AcDbSymbolTableRecord
100
AcDbRegAppTableRecord
2
ACAD
70
0
0
ENDTAB
0
TABLE
2
DIMSTYLE
5
A
100
AcDbSymbolTable
70
1
0
ENDTAB
0
TABLE
2
BLOCK_RECORD
5
1
100
AcDbSymbolTable
70
1
0
BLOCK_RECORD
5
1F
100
AcDbSymbolTableRecord
100
AcDbBlockTableRecord
2
*MODEL_SPACE
0
BLOCK_RECORD
5
1B
100
AcDbSymbolTableRecord
100
AcDbBlockTableRecord
2
*PAPER_SPACE
0
ENDTAB
0
ENDSEC
0
SECTION
2
BLOCKS
0
BLOCK
5
20
100
AcDbEntity
100
AcDbBlockBegin
2
*MODEL_SPACE
0
ENDBLK
5
21
100
AcDbEntity
100
AcDbBlockEnd
0
BLOCK
5
1C
100
AcDbEntity
100
AcDbBlockBegin
2
*PAPER_SPACE
0
ENDBLK
5
1D
100
AcDbEntity
100
AcDbBlockEnd
0
ENDSEC
0
SECTION
2
ENTITIES
0
SPLINE
5
100
100
AcDbEntity
8
0
100
AcDbSpline
70
2
71
3
72
158
73
154
74
0
42
0.000000001
43
0.0000000001
44
0.0000000001
40
0
40
0
40
0
40
0
40
0.019858772385788096
40
0.019858772385788096
40
0.019858772385788096
40
0.045285652752885562
40
0.045285652752885562
40
0.045285652752885562
40
0.071575288035487045
40
0.071575288035487045
40
0.071575288035487045
40
0.089874456752889104
40
0.089874456752889104
40
0.089874456752889104
40
0.10731684612479453
40
0.10731684612479453
40
0.10731684612479453
40
0.12194788689234128
40
0.12194788689234128
40
0.12194788689234128
40
0.13929708380924249
40
0.13929708380924249
40
0.13929708380924249
40
0.16619404994020368
40
0.16619404994020368
40
0.16619404994020368
40
0.18264901918694726
40
0.18264901918694726
40
0.18264901918694726
40
0.19774519189761688
40
0.19774519189761688
40
0.19774519189761688
40
0.21239529300598312
40
0.21239529300598312
40
0.21239529300598312
40
0.23220958699465927
40
0.23220958699465927
40
0.23220958699465927
40
0.25620303740107619
40
0.25620303740107619
40
0.25620303740107619
40
0.27295608107880442
40
0.27295608107880442
40
0.27295608107880442
40
0.28807305664697425
40
0.28807305664697425
40
0.28807305664697425
40
0.3030152834958843
40
0.3030152834958843
40
0.3030152834958843
40
0.32843903512929967
40
0.32843903512929967
40
0.32843903512929967
40
0.35853750066751233
40
0.35853750066751233
40
0.35853750066751233
40
0.38126376749411561
40
0.38126376749411561
40
0.38126376749411561
40
0.40436342370867268
40
0.40436342370867268
40
0.40436342370867268
40
0.43008721627430013
40
0.43008721627430013
40
0.43008721627430013
40
0.44789699076572825
40
0.44789699076572825
40
0.44789699076572825
40
0.46150950999028967
40
0.46150950999028967
40
0.46150950999028967
40
0.47055344866311866
40
0.47055344866311866
40
0.47055344866311866
40
0.47918754839618816
40
0.47918754839618816
40
0.47918754839618816
40
0.49121193918717659
40
0.49121193918717659
40
0.49121193918717659
40
0.50939847640712266
40
0.50939847640712266
40
0.50939847640712266
40
0.54006107163167749
40
0.54006107163167749
40
0.54006107163167749
40
0.56193686981572988
40
0.56193686981572988
40
0.56193686981572988
40
0.58055125400732954
40
0.58055125400732954
40
0.58055125400732954
40
0.60458590526105227
40
0.60458590526105227
40
0.60458590526105227
40
0.6279845350598352
40
0.6279845350598352
40
0.6279845350598352
40
0.64821037227315936
40
0.64821037227315936
40
0.64821037227315936
40
0.67512819109639377
40
0.67512819109639377
40
0.67512819109639377
40
0.69636111103480902
40
0.69636111103480902
40
0.69636111103480902
40
0.71428015844711568
40
0.71428015844711568
40
0.71428015844711568
40
0.73452772590659965
40
0.73452772590659965
40
0.73452772590659965
40
0.76771176016827469
40
0.76771176016827469
40
0.76771176016827469
40
0.78488111344888167
40
0.78488111344888167
40
0.78488111344888167
40
0.79940059491837945
40
0.79940059491837945
40
0.79940059491837945
40
0.81384962066730138
40
0.81384962066730138
40
0.81384962066730138
40
0.8304230206562675
40
0.8304230206562675
40
0.8304230206562675
40
0.85827775319541344
40
0.85827775319541344
40
0.85827775319541344
40
0.87599303404598672
40
0.87599303404598672
40
0.87599303404598672
40
0.88882072793093536
40
0.88882072793093536
40
0.88882072793093536
40
0.905060312684971
40
0.905060312684971
40
0.905060312684971
40
0.92385591756059693
40
0.92385591756059693
40
0.92385591756059693
40
0.94827350924404485
40
0.94827350924404485
40
0.94827350924404485
40
0.97413675462202243
40
0.97413675462202243
40
0.97413675462202243
40
0.9938851763504043
40
0.9938851763504043
40
0.9938851763504043
40
1
40
1
40
1
40
1
10
-14.729985198791253
20
46.273885471800796
30
0
10
-17.46537690965901
20
45.388905260571804
30
0
10
-20.49119036058995
20
45.12786272922402
30
0
10
-23.99115628646808
20
45.350132941963537
30
0
10
-28.47246123107325
20
45.634724456418965
30
0
10
-33.68187614373597
20
46.73425473811961
30
0
10
-39.21856308097847
20
47.664632975862268
30
0
10
-44.943114349265457
20
48.626579710656145
30
0
10
-51.020938754628872
20
49.340552443016833
30
0
10
-56.731648198806482
20
48.668953097953803
30
0
10
-60.70664574029869
20
48.201479525433811
30
0
10
-64.513314660200479
20
47.047616051017044
30
0
10
-67.725505185791036
20
45.051455848835538
30
0
10
-70.787298797804382
20
43.148757205369812
30
0
10
-73.288410623376393
20
40.489654525509948
30
0
10
-74.76284218921208
20
37.368573475657016
30
0
10
-75.999626203645704
20
34.750545457502099
30
0
10
-76.477566412441035
20
31.823128104151053
30
0
10
-76.175395970116057
20
28.961185846354198
30
0
10
-75.817088274193893
20
25.567551682921817
30
0
10
-74.405328617670861
20
22.310502981876809
30
0
10
-72.487191876099104
20
19.33896444136505
30
0
10
-69.513448525342156
20
14.732101549450498
30
0
10
-65.332612530704424
20
10.70434147955087
30
0
10
-61.957845950225519
20
7.0803115513690429
30
0
10
-59.89323836488169
20
4.8632101605595324
30
0
10
-58.153785182104968
20
2.799894470245059
30
0
10
-57.050904468544239
20
0.93679919369814657
30
0
10
-56.039095969754477
20
-0.77244788233336914
30
0
10
-55.550507744152398
20
-2.265911003109661
30
0
10
-55.472004478321992
20
-3.7608554322059966
30
0
10
-55.395820878425866
20
-5.2116262638202224
30
0
10
-55.707606258749472
20
-6.751683247169515
30
0
10
-56.471945175357511
20
-8.5488281045476775
30
0
10
-57.50571524210531
20
-10.979470479022009
30
0
10
-59.394760875051212
20
-13.800595307838801
30
0
10
-61.57508398672838
20
-16.83119091268615
30
0
10
-64.215272654560181
20
-20.500988352270234
30
0
10
-67.223300203205255
20
-24.47628889316087
30
0
10
-69.316316721808334
20
-28.62263710153411
30
0
10
-70.777732089770026
20
-31.517758539314869
30
0
10
-71.798315892482918
20
-34.528797318581539
30
0
10
-71.939203159614195
20
-37.53215930428869
30
0
10
-72.066331663309398
20
-40.24221907812327
30
0
10
-71.437770926471842
20
-42.927477513185082
30
0
10
-70.047676094141281
20
-45.171728257656028
30
0
10
-68.673650434543305
20
-47.390035985845344
30
0
10
-66.599555034050852
20
-49.131356866416695
30
0
10
-64.170878818562443
20
-50.32215962607318
30
0
10
-60.038558949180697
20
-52.348274870609217
30
0
10
-54.920150222015216
20
-52.888446673481873
30
0
10
-49.396783669463112
20
-52.849563932377812
30
0
10
-42.857825130456447
20
-52.803531747198122
30
0
10
-35.703832249672452
20
-51.957936486028082
30
0
10
-28.856643156819757
20
-51.772131920152162
30
0
10
-23.686577389220545
20
-51.631837587328576
30
0
10
-18.711806524220933
20
-51.88305478229826
30
0
10
-14.195175884133256
20
-52.862145609285456
30
0
10
-9.6043376338303599
20
-53.857322761731609
30
0
10
-5.4727697210346316
20
-55.60647929744232
30
0
10
-1.7806894443315455
20
-57.992979954633498
30
0
10
2.330813614043115
20
-60.650588678032278
30
0
10
5.8966422060907
20
-64.098790671306261
30
0
10
8.9970226863688545
20
-67.448875772308384
30
0
10
11.143559867871458
20
-69.768295042376096
30
0
10
13.060180356681341
20
-72.016270481842469
30
0
10
14.897298022226103
20
-73.883758174924438
30
0
10
16.301459515233535
20
-75.311132347233325
30
0
10
17.645711283106632
20
-76.535387813818048
30
0
10
19.214269872092991
20
-77.404125457888583
30
0
10
20.256394951919194
20
-77.98130076586358
30
0
10
21.443882648434844
20
-78.401615481512181
30
0
10
22.732892533504078
20
-78.432627151005434
30
0
10
23.963489102898873
20
-78.46223348260277
30
0
10
25.218005619422993
20
-78.095957728855581
30
0
10
26.249420781772997
20
-77.479199878761008
30
0
10
27.685834462790112
20
-76.620264072802854
30
0
10
28.756650425057945
20
-75.377659882151647
30
0
10
29.731385536855434
20
-73.91788306057046
30
0
10
31.20564370913462
20
-71.710013575956154
30
0
10
32.480871647621868
20
-68.897555485724411
30
0
10
33.783890544083818
20
-65.646771115074003
30
0
10
35.980787100528843
20
-60.165931958390466
30
0
10
38.20651875619712
20
-53.466179336691155
30
0
10
40.605647505873385
20
-47.440612545581793
30
0
10
42.317272238258958
20
-43.141756493068698
30
0
10
44.112510751805267
20
-39.218781015461957
30
0
10
45.942093641839286
20
-36.203344114670905
30
0
10
47.498908096742142
20
-33.637471980333402
30
0
10
49.064159080262293
20
-31.745136498802044
30
0
10
50.609836022657205
20
-30.440159905198371
30
0
10
52.605594027810398
20
-28.755191066116947
30
0
10
54.603785538061587
20
-27.948883783726298
30
0
10
57.101021211365349
20
-27.3128007525948
30
0
10
59.532173318508924
20
-26.693550187666034
30
0
10
62.422227966973487
20
-26.279793328553531
30
0
10
65.528601129607523
20
-25.298290957919136
30
0
10
68.213758271353612
20
-24.449877724167489
30
0
10
71.036250382399544
20
-23.129698636854727
30
0
10
73.609407750989234
20
-21.137177533483658
30
0
10
77.033927740981994
20
-18.485404877730204
30
0
10
80.012663814465682
20
-14.660744743941198
30
0
10
81.772468056993404
20
-10.199549312739919
30
0
10
83.160611087238564
20
-6.6805344162372933
30
0
10
83.786213863218137
20
-2.7753704673790507
30
0
10
83.273928366110226
20
1.0451953522942754
30
0
10
82.841596490045163
20
4.2694763397011464
30
0
10
81.567285118130911
20
7.4114621252419983
30
0
10
79.516193001590977
20
10.098191216090349
30
0
10
77.198568351145809
20
13.134051731474036
30
0
10
73.933591954983214
20
15.560292577873076
30
0
10
70.233663149534692
20
17.448953472912358
30
0
10
64.169795749589184
20
20.544307419754656
30
0
10
56.894129622433013
20
22.292024391955572
30
0
10
50.981205515779635
20
24.164964965822485
30
0
10
47.921870351525719
20
25.1340206910163
30
0
10
45.249316310769416
20
26.149585699567798
30
0
10
43.289927716488073
20
27.285101159008775
30
0
10
41.632945888387013
20
28.245364216226186
30
0
10
40.509823105461834
20
29.254304365033491
30
0
10
39.782112022984514
20
30.357078996909472
30
0
10
39.057932155364597
20
31.454502419688566
30
0
10
38.656012011900778
20
32.703430845825707
30
0
10
38.554686574736053
20
34.402125092126589
30
0
10
38.438463721488446
20
36.350570592336211
30
0
10
38.791053632343548
20
38.866726335817098
30
0
10
39.450843728552101
20
41.737643145241201
30
0
10
40.559745744680484
20
46.562761704009247
30
0
10
42.46916469061226
20
52.312712936051895
30
0
10
43.176730786128388
20
57.84930056658655
30
0
10
43.626734464490625
20
61.370504896618812
30
0
10
43.589951818667288
20
64.849618159152925
30
0
10
42.503002095678625
20
67.959787803209906
30
0
10
41.715938179930603
20
70.211872004456495
30
0
10
40.337678792402357
20
72.24287900236844
30
0
10
38.474557014218419
20
73.722078483920811
30
0
10
36.115884886922899
20
75.594713235283322
30
0
10
33.080730716373033
20
76.56109396532726
30
0
10
29.929754789138499
20
76.687945287370582
30
0
10
26.282832814351451
20
76.834762300440133
30
0
10
22.481597834725751
20
75.864996990041789
30
0
10
18.938107272084199
20
74.128002209917199
30
0
10
14.334716944117902
20
71.87145183135695
30
0
10
10.140793068240054
20
68.340164624578378
30
0
10
6.381880998331722
20
64.564201911741677
30
0
10
2.4004209723545382
20
60.564681752413691
30
0
10
-1.1272784027582388
20
56.328030975909904
30
0
10
-4.5335033013711197
20
53.023850403766147
30
0
10
-7.1343975362763787
20
50.500874247765907
30
0
10
-9.6499808285577711
20
48.540176442413753
30
0
10
-12.260173885193931
20
47.270482497449876
30
0
10
-13.068383799497651
20
46.877339456998413
30
0
10
-13.887715717093936
20
46.546384588056355
30
0
10
-14.729985198791253
20
46.273885471800796
30
0
0
SPLINE
5
101
100
AcDbEntity
8
0
100
AcDbSpline
70
0
71
3
72
26
73
22
74
0
42
0.000000001
43
0.0000000001
44
0.0000000001
40
0.89785263389505354
40
0.89785263389505354
40
0.89785263389505354
40
0.89785263389505354
40
0.90442312521492629
40
0.90442312521492629
40
0.90442312521492629
40
0.92266351116654632
40
0.92266351116654632
40
0.92266351116654632
40
0.94188824218561484
40
0.94188824218561484
40
0.94188824218561484
40
0.96317858049699256
40
0.96317858049699256
40
0.96317858049699256
40
0.98158929024849628
40
0.98158929024849628
40
0.98158929024849628
40
0.99629538907310966
40
0.99629538907310966
40
0.99629538907310966
40
1
40
1
40
1
40
1
10
30.262174111662695
20
63.572305823535203
30
0
10
30.109117109766043
20
63.618225238454372
30
0
10
29.853306223886889
20
63.672202615747288
30
0
10
29.509282652037143
20
63.69305589392917
30
0
10
28.554236458152861
20
63.750946822305217
30
0
10
26.968322879673273
20
63.520343267632207
30
0
10
25.042565835901005
20
62.634861068049553
30
0
10
23.012885034584933
20
61.701593693428137
30
0
10
20.606019878801551
20
60.0372450600766
30
0
10
18.113650414573151
20
57.792596271768971
30
0
10
15.353487526585923
20
55.306770485915713
30
0
10
12.50437436711999
20
52.139434440350669
30
0
10
9.4634328143538244
20
48.828077809999186
30
0
10
6.8337943614342844
20
45.964599319733075
30
0
10
4.0437569788040326
20
42.987779497195419
30
0
10
0.75498293577888176
20
40.311751490544275
30
0
10
-1.8720225811920697
20
38.174194989224141
30
0
10
-4.8578967714047909
20
36.235701762849772
30
0
10
-8.1689001177279383
20
34.840650473530886
30
0
10
-9.0029744240442966
20
34.489223333565427
30
0
10
-9.8549529152757458
20
34.172075088903682
30
0
10
-10.718997015959097
20
33.892231347491105
30
0
0
SPLINE
5
102
100
AcDbEntity
8
0
100
AcDbSpline
70
0
71
3
72
26
73
22
74
0
42
0.000000001
43
0.0000000001
44
0.0000000001
40
0.89785263389505354
40
0.89785263389505354
40
0.89785263389505354
40
0.89785263389505354
40
0.90442312521492629
40
0.90442312521492629
40
0.90442312521492629
40
0.92266351116654632
40
0.92266351116654632
40
0.92266351116654632
40
0.94188824218561484
40
0.94188824218561484
40
0.94188824218561484
40
0.96317858049699256
40
0.96317858049699256
40
0.96317858049699256
40
0.98158929024849628
40
0.98158929024849628
40
0.98158929024849628
40
0.99629538907310966
40
0.99629538907310966
40
0.99629538907310966
40
1
40
1
40
1
40
1
10
30.262174111662695
20
63.572305823535203
30
0
10
30.109117109766043
20
63.618225238454372
30
0
10
29.853306223886889
20
63.672202615747288
30
0
10
29.509282652037143
20
63.69305589392917
30
0
10
28.554236458152861
20
63.750946822305217
30
0
10
26.968322879673273
20
63.520343267632207
30
0
10
25.042565835901005
20
62.634861068049553
30
0
10
23.012885034584933
20
61.701593693428137
30
0
10
20.606019878801551
20
60.0372450600766
30
0
10
18.113650414573151
20
57.792596271768971
30
0
10
15.353487526585923
20
55.306770485915713
30
0
10
12.50437436711999
20
52.139434440350669
30
0
10
9.4634328143538244
20
48.828077809999186
30
0
10
6.8337943614342844
20
45.964599319733075
30
0
10
4.0437569788040326
20
42.987779497195419
30
0
10
0.75498293577888176
20
40.311751490544275
30
0
10
-1.8720225811920697
20
38.174194989224141
30
0
10
-4.8578967714047909
20
36.235701762849772
30
0
10
-8.1689001177279383
20
34.840650473530886
30
0
10
-9.0029744240442966
20
34.489223333565427
30
0
10
-9.8549529152757458
20
34.172075088903682
30
0
10
-10.718997015959097
20
33.892231347491105
30
0
0
ARC
5
103
100
AcDbEntity
8
0
100
AcDbCircle
10
-52.117603504949621
20
38.039551802358318
30
0
40
7.5000000763112462
210
0
220
0
230
1
100
AcDbArc
50
204.61137413448751
51
339.46193656684164
0
LWPOLYLINE
5
104
100
AcDbEntity
8
0
100
AcDbPolyline
90
2
70
1
43
0.0
10
-44.967694611343418
20
-39.695762084714403
42
0.66671503723725967
10
-58.760682250850358
20
-38.479140231845413
42
-0.66671503723725967
0
SPLINE
5
105
100
AcDbEntity
8
0
100
AcDbSpline
70
0
71
3
72
26
73
22
74
0
42
0.000000001
43
0.0000000001
44
0.0000000001
40
0.89785263389505354
40
0.89785263389505354
40
0.89785263389505354
40
0.89785263389505354
40
0.90442312521492629
40
0.90442312521492629
40
0.90442312521492629
40
0.92266351116654632
40
0.92266351116654632
40
0.92266351116654632
40
0.94188824218561484
40
0.94188824218561484
40
0.94188824218561484
40
0.96317858049699256
40
0.96317858049699256
40
0.96317858049699256
40
0.98158929024849628
40
0.98158929024849628
40
0.98158929024849628
40
0.99629538907310966
40
0.99629538907310966
40
0.99629538907310966
40
1
40
1
40
1
40
1
10
30.262174111662695
20
63.572305823535203
30
0
10
30.109117109766043
20
63.618225238454372
30
0
10
29.853306223886889
20
63.672202615747288
30
0
10
29.509282652037143
20
63.69305589392917
30
0
10
28.554236458152861
20
63.750946822305217
30
0
10
26.968322879673273
20
63.520343267632207
30
0
10
25.042565835901005
20
62.634861068049553
30
0
10
23.012885034584933
20
61.701593693428137
30
0
10
20.606019878801551
20
60.0372450600766
30
0
10
18.113650414573151
20
57.792596271768971
30
0
10
15.353487526585923
20
55.306770485915713
30
0
10
12.50437436711999
20
52.139434440350669
30
0
10
9.4634328143538244
20
48.828077809999186
30
0
10
6.8337943614342844
20
45.964599319733075
30
0
10
4.0437569788040326
20
42.987779497195419
30
0
10
0.75498293577888176
20
40.311751490544275
30
0
10
-1.8720225811920697
20
38.174194989224141
30
0
10
-4.8578967714047909
20
36.235701762849772
30
0
10
-8.1689001177279383
20
34.840650473530886
30
0
10
-9.0029744240442966
20
34.489223333565427
30
0
10
-9.8549529152757458
20
34.172075088903682
30
0
10
-10.718997015959097
20
33.892231347491105
30
0
0
SPLINE
5
106
100
AcDbEntity
8
0
100
AcDbSpline
70
0
71
3
72
26
73
22
74
0
42
0.000000001
43
0.0000000001
44
0.0000000001
40
0.89785263389505354
40
0.89785263389505354
40
0.89785263389505354
40
0.89785263389505354
40
0.90442312521492629
40
0.90442312521492629
40
0.90442312521492629
40
0.92266351116654632
40
0.92266351116654632
40
0.92266351116654632
40
0.94188824218561484
40
0.94188824218561484
40
0.94188824218561484
40
0.96317858049699256
40
0.96317858049699256
40
0.96317858049699256
40
0.98158929024849628
40
0.98158929024849628
40
0.98158929024849628
40
0.99629538907310966
40
0.99629538907310966
40
0.99629538907310966
40
1
40
1
40
1
40
1
10
30.262174111662695
20
63.572305823535203
30
0
10
30.109117109766043
20
63.618225238454372
30
0
10
29.853306223886889
20
63.672202615747288
30
0
10
29.509282652037143
20
63.69305589392917
30
0
10
28.554236458152861
20
63.750946822305217
30
0
10
26.968322879673273
20
63.520343267632207
30
0
10
25.042565835901005
20
62.634861068049553
30
0
10
23.012885034584933
20
61.701593693428137
30
0
10
20.606019878801551
20
60.0372450600766
30
0
10
18.113650414573151
20
57.792596271768971
30
0
10
15.353487526585923
20
55.306770485915713
30
0
10
12.50437436711999
20
52.139434440350669
30
0
10
9.4634328143538244
20
48.828077809999186
30
0
10
6.8337943614342844
20
45.964599319733075
30
0
10
4.0437569788040326
20
42.987779497195419
30
0
10
0.75498293577888176
20
40.311751490544275
30
0
10
-1.8720225811920697
20
38.174194989224141
30
0
10
-4.8578967714047909
20
36.235701762849772
30
0
10
-8.1689001177279383
20
34.840650473530886
30
0
10
-9.0029744240442966
20
34.489223333565427
30
0
10
-9.8549529152757458
20
34.172075088903682
30
0
10
-10.718997015959097
20
33.892231347491105
30
0
0
LWPOLYLINE
5
107
100
AcDbEntity
8
0
100
AcDbPolyline
90
2
70
1
43
0.0
10
33.472566438799852
20
-36.960448197641682
42
1.3491472973439564
10
26.020471691281838
20
-49.225655422842593
42
-1.3491472973439564
0
ARC
5
108
100
AcDbEntity
8
0
100
AcDbCircle
10
72.603756045046225
20
-1.9604481976416088
30
0
40
7.4999999999999991
210
0
220
0
230
1
100
AcDbArc
50
130.81196439625401
51
234.63600923562936
0
ARC
5
109
100
AcDbEntity
8
0
100
AcDbCircle
10
27.882396495050376
20
38.039551802358311
30
0
40
7.499999999999992
210
0
220
0
230
1
100
AcDbArc
50
96.960375936252731
51
270
0
SPLINE
5
110
100
AcDbEntity
8
0
100
AcDbSpline
70
0
71
3
72
26
73
22
74
0
42
0.000000001
43
0.0000000001
44
0.0000000001
40
0.55157588818550007
40
0.55157588818550007
40
0.55157588818550007
40
0.55157588818550007
40
0.56199952206314041
40
0.56199952206314041
40
0.56199952206314041
40
0.57869755470376294
40
0.57869755470376294
40
0.57869755470376294
40
0.59324662125053118
40
0.59324662125053118
40
0.59324662125053118
40
0.60879672562857812
40
0.60879672562857812
40
0.60879672562857812
40
0.62747860738809924
40
0.62747860738809924
40
0.62747860738809924
40
0.64664569201011524
40
0.64664569201011524
40
0.64664569201011524
40
0.6637946742817511
40
0.6637946742817511
40
0.6637946742817511
40
0.6637946742817511
10
31.62306829829145
20
-35.459880945509326
30
0
10
32.621913583597589
20
-33.359972422580356
30
0
10
33.688704476966286
20
-31.334142222117769
30
0
10
34.848772005016727
20
-29.425480499516382
30
0
10
36.70713020102599
20
-26.367919564622952
30
0
10
38.839956558148273
20
-23.574421652328144
30
0
10
41.368429756845828
20
-21.259019417309254
30
0
10
43.571499161565782
20
-19.241599645480985
30
0
10
46.085220921229421
20
-17.636445874839385
30
0
10
48.526160399792005
20
-16.543089472383873
30
0
10
51.135046925269819
20
-15.374505486192284
30
0
10
53.588235765183086
20
-14.757041404605268
30
0
10
55.632356175903752
20
-14.302531445060666
30
0
10
58.088160644278872
20
-13.756483578351528
30
0
10
59.985934316367242
20
-13.40503962056119
30
0
10
61.490482700510668
20
-12.940277590786931
30
0
10
63.034106976052257
20
-12.463444835476123
30
0
10
64.213083862046801
20
-11.908977897696285
30
0
10
65.368474701413021
20
-11.069827331587128
30
0
10
66.402214438667727
20
-10.31903092904453
30
0
10
67.410991323010364
20
-9.3095175274016935
30
0
10
68.262990294938277
20
-8.0766359565883796
30
0
0
SPLINE
5
111
100
AcDbEntity
8
0
100
AcDbSpline
70
0
71
3
72
26
73
22
74
0
42
0.000000001
43
0.0000000001
44
0.0000000001
40
0.72308087149072942
40
0.72308087149072942
40
0.72308087149072942
40
0.72308087149072942
40
0.73516711350921793
40
0.73516711350921793
40
0.73516711350921793
40
0.75540013679951246
40
0.75540013679951246
40
0.75540013679951246
40
0.77315645180129366
40
0.77315645180129366
40
0.77315645180129366
40
0.78646168748329615
40
0.78646168748329615
40
0.78646168748329615
40
0.79702043402856104
40
0.79702043402856104
40
0.79702043402856104
40
0.80695871499882155
40
0.80695871499882155
40
0.80695871499882155
40
0.80999287597867586
40
0.80999287597867586
40
0.80999287597867586
40
0.80999287597867586
10
67.701916064692313
20
3.7159912507476061
30
0
10
66.813112984399197
20
4.4477735193643237
30
0
10
65.616437811140031
20
5.227041738631887
30
0
10
64.082374438366344
20
5.9917205091467931
30
0
10
61.514269323258006
20
7.2718341581829833
30
0
10
58.050001836118724
20
8.4640710977241955
30
0
10
54.25074229904196
20
9.6088306059171718
30
0
10
50.916547100135794
20
10.613461013203313
30
0
10
47.346751903848968
20
11.588807407717798
30
0
10
43.790555497687642
20
12.86967035777691
30
0
10
41.125811641165598
20
13.829451901704907
30
0
10
38.446724152013118
20
14.958353609649373
30
0
10
35.838543394232602
20
16.600994401884815
30
0
10
33.768747696972412
20
17.904558517895779
30
0
10
31.72931336455833
20
19.568665156847999
30
0
10
30.024897131780961
20
21.696165429577185
30
0
10
28.420637825148507
20
23.698647010515444
30
0
10
27.170641170383846
20
26.103279510972563
30
0
10
26.44575550239459
20
28.55776838816228
30
0
10
26.224447630816982
20
29.307124780775951
30
0
10
26.049301579842584
20
30.056645811729705
30
0
10
25.914061352026639
20
30.802450425658215
30
0
0
SPLINE
5
112
100
AcDbEntity
8
0
100
AcDbSpline
70
0
71
3
72
14
73
10
74
0
42
0.000000001
43
0.0000000001
44
0.0000000001
40
0
40
0
40
0
40
0
40
0.014909764816094821
40
0.014909764816094821
40
0.014909764816094821
40
0.038501238394262664
40
0.038501238394262664
40
0.038501238394262664
40
0.051573029007565996
40
0.051573029007565996
40
0.051573029007565996
40
0.051573029007565996
10
-10.718997015977967
20
33.892231347485136
30
0
10
-14.197019440069718
20
32.7676476313938
30
0
10
-17.84077584260276
20
32.289258475442388
30
0
10
-21.348730718337961
20
32.263679230076455
30
0
10
-26.899309535984802
20
32.223205614386131
30
0
10
-32.171856744300442
20
33.198805720830677
30
0
10
-37.151018730615498
20
34.09418437686449
30
0
10
-39.909920699972034
20
34.590304395502343
30
0
10
-42.582480748346356
20
35.06277058031695
30
0
10
-45.096335768250704
20
35.402924934003551
30
0
0
SPLINE
5
113
100
AcDbEntity
8
0
100
AcDbSpline
70
0
71
3
72
47
73
43
74
0
42
0.000000001
43
0.0000000001
44
0.0000000001
40
0.082136607266490469
40
0.082136607266490469
40
0.082136607266490469
40
0.082136607266490469
40
0.098769109280540154
40
0.098769109280540154
40
0.098769109280540154
40
0.11146338562002414
40
0.11146338562002414
40
0.11146338562002414
40
0.12441707163222358
40
0.12441707163222358
40
0.12441707163222358
40
0.13772560609111684
40
0.13772560609111684
40
0.13772560609111684
40
0.15557799919064255
40
0.15557799919064255
40
0.15557799919064255
40
0.17314715066507469
40
0.17314715066507469
40
0.17314715066507469
40
0.18657185069285567
40
0.18657185069285567
40
0.18657185069285567
40
0.1969888223797297
40
0.1969888223797297
40
0.1969888223797297
40
0.20742183319302937
40
0.20742183319302937
40
0.20742183319302937
40
0.22158444531631638
40
0.22158444531631638
40
0.22158444531631638
40
0.2393814799538474
40
0.2393814799538474
40
0.2393814799538474
40
0.25638167641085285
40
0.25638167641085285
40
0.25638167641085285
40
0.26969392207802578
40
0.26969392207802578
40
0.26969392207802578
40
0.27599235764373919
40
0.27599235764373919
40
0.27599235764373919
40
0.27599235764373919
10
-58.936254469532187
20
34.916092155129633
30
0
10
-60.550956486725795
20
34.329978892885514
30
0
10
-61.634540056471806
20
33.556432915981532
30
0
10
-62.296086132520578
20
32.83125708424614
30
0
10
-62.800992050678332
20
32.277787594509228
30
0
10
-63.039763899971923
20
31.798784267169374
30
0
10
-63.155513468103941
20
31.40543618963466
30
0
10
-63.273628398134747
20
31.004049977957617
30
0
10
-63.315257889104821
20
30.644627085687883
30
0
10
-63.184869901566657
20
29.964460545636669
30
0
10
-63.050910114094343
20
29.265661776889864
30
0
10
-62.671570666968925
20
28.213598730961088
30
0
10
-61.860868439362093
20
26.871338125201554
30
0
10
-60.77337267500112
20
25.070796972451706
30
0
10
-58.917619211332372
20
22.826660498758692
30
0
10
-56.685219891692384
20
20.428180018740335
30
0
10
-54.488239263968232
20
18.067753232987414
30
0
10
-51.956719868634224
20
15.56527620175428
30
0
10
-49.552037819330785
20
12.686848493373757
30
0
10
-47.714605020082182
20
10.48742363253764
30
0
10
-45.92173578718257
20
8.0338952008317825
30
0
10
-44.559868427057552
20
5.0862272582628796
30
0
10
-43.503119769557365
20
2.7989676966708759
30
0
10
-42.742000478746462
20
0.18952147326063415
30
0
10
-42.525822357597491
20
-2.5001396793402657
30
0
10
-42.309311384606346
20
-5.1939421329416344
30
0
10
-42.646448401028756
20
-7.9008457854279701
30
0
10
-43.332480572344167
20
-10.330955815852679
30
0
10
-44.263756090054827
20
-13.629783584145702
30
0
10
-45.757429610814611
20
-16.453841464931472
30
0
10
-47.344075198036826
20
-19.015603862262775
30
0
10
-49.337887231259828
20
-22.234768075866068
30
0
10
-51.52715852626612
20
-25.101804857366044
30
0
10
-53.433673657861476
20
-27.76788372508102
30
0
10
-55.254827150310454
20
-30.314592513602708
30
0
10
-56.80445087413085
20
-32.672388652875043
30
0
10
-57.743267926679621
20
-34.544808496851296
30
0
10
-58.478421974555943
20
-36.011033491258921
30
0
10
-58.819667694431345
20
-37.145014166537045
30
0
10
-58.916789291909083
20
-37.770884155781076
30
0
10
-58.962740526512654
20
-38.067002624319258
30
0
10
-58.962508083695184
20
-38.251653477511496
30
0
10
-58.956291065529115
20
-38.351383839807852
30
0
0
SPLINE
5
114
100
AcDbEntity
8
0
100
AcDbSpline
70
0
71
3
72
8
73
4
74
0
42
0.000000001
43
0.0000000001
44
0.0000000001
40
0.29679974888573024
40
0.29679974888573024
40
0.29679974888573024
40
0.29679974888573024
40
0.3000276193761745
40
0.3000276193761745
40
0.3000276193761745
40
0.3000276193761745
10
-58.956291065526869
20
-38.351383839807866
30
0
10
-58.913248050592209
20
-38.38362835413858
30
0
10
-58.849798343000387
20
-38.427186897579368
30
0
10
-58.760682228160093
20
-38.479140243736254
30
0
0
SPLINE
5
115
100
AcDbEntity
8
0
100
AcDbSpline
70
0
71
3
72
23
73
19
74
0
42
0.000000001
43
0.0000000001
44
0.0000000001
40
0.33614131145724613
40
0.33614131145724613
40
0.33614131145724613
40
0.33614131145724613
40
0.33967615545156132
40
0.33967615545156132
40
0.33967615545156132
40
0.36953162418081287
40
0.36953162418081287
40
0.36953162418081287
40
0.38836568035620567
40
0.38836568035620567
40
0.38836568035620567
40
0.40664790264653206
40
0.40664790264653206
40
0.40664790264653206
40
0.43287296650754981
40
0.43287296650754981
40
0.43287296650754981
40
0.43782015003984809
40
0.43782015003984809
40
0.43782015003984809
40
0.43782015003984809
10
-44.967694611343418
20
-39.695762084714403
30
0
10
-44.230097254857988
20
-39.657700984547859
30
0
10
-43.473564041800685
20
-39.613218076635647
30
0
10
-42.700870336454969
20
-39.563406614202691
30
0
10
-36.174660751438324
20
-39.142696517401546
30
0
10
-28.509380496652099
20
-38.398281394462053
30
0
10
-20.681260264514087
20
-38.901738866327882
30
0
10
-15.742960432853314
20
-39.219340522260083
30
0
10
-10.716267664334664
20
-40.068458795875195
30
0
10
-5.9679171316745272
20
-41.65552835860575
30
0
10
-1.3586922710254201
20
-43.196097116914984
30
0
10
2.9543503902198842
20
-45.431873319003344
30
0
10
6.7082531798995557
20
-48.034093489714344
30
0
10
12.093065749402809
20
-51.766866731041446
30
0
10
16.350677552886786
20
-56.20087668145316
30
0
10
19.611125482529943
20
-59.789903789651149
30
0
10
20.226187256675825
20
-60.466949836164012
30
0
10
20.805211156490834
20
-61.1128289121378
30
0
10
21.348261011679767
20
-61.717179482324497
30
0
0
CIRCLE
5
116
100
AcDbEntity
8
0
100
AcDbCircle
10
-52.117603504949621
20
-41.960448197641682
30
0
40
2.250000000000004
210
0
220
-0
230
1
0
CIRCLE
5
117
100
AcDbEntity
8
0
100
AcDbCircle
10
27.882396495050376
20
-41.960448197641682
30
0
40
2.2499999999999973
210
0
220
-0
230
1
0
CIRCLE
5
118
100
AcDbEntity
8
0
100
AcDbCircle
10
-52.117603504949621
20
38.039551802358318
30
0
40
2.2500000000000004
210
0
220
-0
230
1
0
CIRCLE
5
119
100
AcDbEntity
8
0
100
AcDbCircle
10
27.882396495050376
20
38.039551802358311
30
0
40
2.2500000000000004
210
0
220
-0
230
1
0
CIRCLE
5
120
100
AcDbEntity
8
0
100
AcDbCircle
10
72.603756045046225
20
-1.9604481976416084
30
0
40
2.2500000000000018
210
0
220
-0
230
1
0
SPLINE
5
121
100
AcDbEntity
8
0
100
AcDbSpline
70
0
71
3
72
11
73
7
74
0
42
0.000000001
43
0.0000000001
44
0.0000000001
40
0.50744560221330481
40
0.50744560221330481
40
0.50744560221330481
40
0.50744560221330481
40
0.5150231286606709
40
0.5150231286606709
40
0.5150231286606709
40
0.52971202938760431
40
0.52971202938760431
40
0.52971202938760431
40
0.52971202938760431
10
21.34826101167976
20
-61.717179482324489
30
0
10
21.819394628689423
20
-60.576344562625756
30
0
10
22.314818756994612
20
-59.304303779180223
30
0
10
22.82906368759846
20
-57.939158595118585
30
0
10
23.825918371965066
20
-55.292848849343585
30
0
10
24.88688920911504
20
-52.31086382715236
30
0
10
26.020471691277752
20
-49.225655422858537
30
0
0
SPLINE
5
122
100
AcDbEntity
8
0
100
AcDbSpline
70
0
71
3
72
17
73
13
74
0
42
0.000000001
43
0.0000000001
44
0.0000000001
40
0.83177818987790253
40
0.83177818987790253
40
0.83177818987790253
40
0.83177818987790253
40
0.83526246174702123
40
0.83526246174702123
40
0.83526246174702123
40
0.85246999897250653
40
0.85246999897250653
40
0.85246999897250653
40
0.86603416811491007
40
0.86603416811491007
40
0.86603416811491007
40
0.87456253663758887
40
0.87456253663758887
40
0.87456253663758887
40
0.87456253663758887
10
26.973524733909038
20
45.484278185772325
30
0
10
27.145598778919499
20
46.193122602132782
30
0
10
27.323729235199092
20
46.892601270325912
30
0
10
27.502323366408884
20
47.583971608439853
30
0
10
28.38433409246138
20
50.998395418227425
30
0
10
29.301873742646485
20
54.222188072295872
30
0
10
29.85172389755661
20
56.945164631072075
30
0
10
30.285153760670994
20
59.091602795351498
30
0
10
30.473405943445229
20
60.908019208479416
30
0
10
30.444281818758228
20
62.097923407919055
30
0
10
30.425970246141905
20
62.846066653035358
30
0
10
30.332161221277868
20
63.331355982133005
30
0
10
30.262174111682697
20
63.572305823579057
30
0
0
ENDSEC
0
SECTION
2
OBJECTS
0
DICTIONARY
5
C
100
AcDbDictionary
3
ACAD_GROUP
350
D
3
ACAD_MLINESTYLE
350
17
0
DICTIONARY
5
D
100
AcDbDictionary
0
DICTIONARY
5
1A
330
C
100
AcDbDictionary
0
DICTIONARY
5
17
100
AcDbDictionary
0
ENDSEC
0
EOF
