0
SECTION
2
HEADER
9
$INSUNITS
70
4
9
$ACADVER
1
AC1014
9
$HANDSEED
5
FFFF
0
ENDSEC
0
SECTION
2
TABLES
0
TABLE
2
VPORT
5
8
100
AcDbSymbolTable
0
ENDTAB
0
TABLE
2
LTYPE
5
5
100
AcDbSymbolTable
0
LTYPE
5
14
100
AcDbSymbolTableRecord
100
AcDbLinetypeTableRecord
2
BYBLOCK
70
0
0
LTYPE
5
15
100
AcDbSymbolTableRecord
100
AcDbLinetypeTableRecord
2
BYLAYER
70
0
0
LTYPE
5
16
100
AcDbSymbolTableRecord
100
AcDbLinetypeTableRecord
2
DASHED
70
0
3
Dashed __ __ __ __ __ __ __ __ __ __ __ __ __ _
72
65
73
2
40
0.75
49
0.5
74
0
49
-0.25
74
0
0
ENDTAB
0
TABLE
2
LAYER
5
2
100
AcDbSymbolTable
70
2
0
LAYER
5
50
100
AcDbSymbolTableRecord
100
AcDbLayerTableRecord
2
0
70
0
62
7
6
CONTINUOUS
0
ENDTAB
0
TABLE
2
STYLE
5
3
100
AcDbSymbolTable
70
1
0
STYLE
5
11
100
AcDbSymbolTableRecord
100
AcDbTextStyleTableRecord
2
STANDARD
70
0
0
ENDTAB
0
TABLE
2
VIEW
5
6
100
AcDbSymbolTable
70
0
0
ENDTAB
0
TABLE
2
UCS
5
7
100
AcDbSymbolTable
70
0
0
ENDTAB
0
TABLE
2
APPID
5
9
100
AcDbSymbolTable
70
2
0
APPID
5
12
100
AcDbSymbolTableRecord
100
AcDbRegAppTableRecord
2
ACAD
70
0
0
ENDTAB
0
TABLE
2
DIMSTYLE
5
A
100
AcDbSymbolTable
70
1
0
ENDTAB
0
TABLE
2
BLOCK_RECORD
5
1
100
AcDbSymbolTable
70
1
0
BLOCK_RECORD
5
1F
100
AcDbSymbolTableRecord
100
AcDbBlockTableRecord
2
*MODEL_SPACE
0
BLOCK_RECORD
5
1B
100
AcDbSymbolTableRecord
100
AcDbBlockTableRecord
2
*PAPER_SPACE
0
ENDTAB
0
ENDSEC
0
SECTION
2
BLOCKS
0
BLOCK
5
20
100
AcDbEntity
100
AcDbBlockBegin
2
*MODEL_SPACE
0
ENDBLK
5
21
100
AcDbEntity
100
AcDbBlockEnd
0
BLOCK
5
1C
100
AcDbEntity
100
AcDbBlockBegin
2
*PAPER_SPACE
0
ENDBLK
5
1D
100
AcDbEntity
100
AcDbBlockEnd
0
ENDSEC
0
SECTION
2
ENTITIES
0
SPLINE
5
100
100
AcDbEntity
8
0
100
AcDbSpline
70
0
71
3
72
345
73
341
74
0
42
0.000000001
43
0.0000000001
44
0.0000000001
40
0
40
0
40
0
40
0
40
0.15435474631422941
40
0.30870949262845881
40
0.46306423894268822
40
0.61741898525691763
40
0.77177373157114704
40
0.92612847788537644
40
1.0804832241996059
40
1.2348379705138353
40
1.5435474631422941
40
1.8522569557707529
40
2.1609664483992117
40
2.4696759410276705
40
3.0870949262845881
40
3.7045139115415058
40
4.3219328967984234
40
4.939351882055341
40
5.5567708673122587
40
5.865480359940717
40
6.0198351062549467
40
6.1741898525691763
40
6.4828993451976356
40
6.7916088378260939
40
7.1003183304545523
40
7.2546730767687819
40
7.4090278230830116
40
7.7177373157114708
40
8.0264468083399301
40
8.3351563009683893
40
8.6438657935968468
40
8.7982205399110747
40
8.9525752862253043
40
9.1069300325395339
40
9.1841074056966487
40
9.2612847788537636
40
9.4156395251679932
40
9.5699942714822228
40
9.7243490177964524
40
9.8787037641106821
40
10.187413256739141
40
10.496122749367601
40
10.80483224199606
40
11.113541734624517
40
11.730960719881434
40
12.039670212509893
40
12.348379705138353
40
12.657089197766812
40
12.965798690395271
40
13.27450818302373
40
13.583217675652188
40
13.891927168280645
40
14.200636660909105
40
14.509346153537564
40
14.818055646166023
40
15.435474631422942
40
16.05289361667986
40
16.361603109308319
40
16.670312601936779
40
16.979022094565238
40
17.287731587193694
40
17.596441079822149
40
17.905150572450609
40
18.059505318764838
40
18.213860065079068
40
18.368214811393297
40
18.522569557707527
40
18.676924304021757
40
18.831279050335986
40
18.985633796650216
40
19.139988542964446
40
19.294343289278675
40
19.448698035592905
40
19.603052781907135
40
19.757407528221364
40
19.911762274535594
40
20.066117020849823
40
20.374826513478283
40
20.683536006106742
40
20.992245498735201
40
21.60966448399212
40
22.227083469249035
40
22.84450245450595
40
23.461921439762868
40
23.770630932391327
40
24.079340425019787
40
24.388049917648246
40
24.542404663962476
40
24.696759410276705
40
24.851114156590935
40
25.005468902905164
40
25.082646276062277
40
25.121234962640834
40
25.159823649219394
40
25.237001022376511
40
25.314178395533624
40
25.468533141847853
40
25.622887888162083
40
25.777242634476313
40
25.931597380790542
40
26.240306873419001
40
26.549016366047461
40
26.85772585867592
40
27.166435351304376
40
27.783854336561291
40
28.09256382918975
40
28.401273321818209
40
28.709982814446668
40
29.018692307075128
40
29.327401799703587
40
29.481756546017817
40
29.636111292332046
40
29.790466038646276
40
29.944820784960505
40
30.099175531274735
40
30.253530277588965
40
30.407885023903194
40
30.562239770217424
40
30.870949262845883
40
31.179658755474343
40
31.488368248102802
40
31.797077740731261
40
32.10578723335972
40
32.723206218616639
40
33.340625203873557
40
33.649334696502017
40
33.958044189130476
40
34.266753681758928
40
34.421108428073154
40
34.575463174387387
40
34.72981792070162
40
34.884172667015847
40
34.96135004017296
40
35.038527413330073
40
35.192882159644299
40
35.270059532801412
40
35.347236905958525
40
35.424414279115638
40
35.501591652272758
40
35.578769025429878
40
35.655946398586991
40
35.810301144901217
40
36.119010637529676
40
36.427720130158136
40
36.736429622786595
40
37.045139115415054
40
37.353848608043513
40
37.662558100671973
40
37.816912846986199
40
37.971267593300432
40
38.125622339614665
40
38.279977085928891
40
38.357154459086004
40
38.434331832243117
40
38.51150920540023
40
38.588686578557351
40
38.743041324871584
40
38.89739607118581
40
39.051750817500036
40
39.206105563814269
40
39.360460310128502
40
39.514815056442728
40
39.823524549071188
40
40.132234041699647
40
40.440943534328106
40
40.749653026956565
40
41.058362519585025
40
41.367072012213484
40
41.675781504841943
40
41.984490997470402
40
42.293200490098862
40
42.447555236413095
40
42.601909982727321
40
42.756264729041547
40
42.83344210219866
40
42.91061947535578
40
42.949208161934337
40
42.968502505223618
40
42.9877968485129
40
42.990208641424061
40
42.992620434335223
40
42.997444020157538
40
43.007091191802175
40
43.026385535091457
40
43.045679878380739
40
43.064974221670013
40
43.142151594827126
40
43.219328967984239
40
43.296506341141352
40
43.373683714298465
40
43.528038460612699
40
43.836747953241158
40
44.14545744586961
40
44.454166938498069
40
44.762876431126529
40
45.071585923754981
40
45.689004909011899
40
46.306423894268818
40
46.923842879525736
40
47.232552372154196
40
47.541261864782655
40
47.849971357411114
40
48.158680850039573
40
48.467390342668033
40
48.776099835296492
40
49.084809327924951
40
49.239164074239184
40
49.39351882055341
40
49.547873566867636
40
49.70222831318187
40
49.856583059496103
40
50.010937805810329
40
50.165292552124555
40
50.319647298438788
40
50.474002044753021
40
50.628356791067247
40
50.70553416422436
40
50.782711537381473
40
50.937066283695707
40
51.245775776324166
40
51.554485268952625
40
51.863194761581084
40
52.171904254209544
40
52.480613746838003
40
53.098032732094921
40
53.71545171735184
40
54.024161209980292
40
54.332870702608751
40
54.641580195237211
40
54.950289687865663
40
55.104644434179889
40
55.258999180494122
40
55.413353926808355
40
55.490531299965468
40
55.567708673122581
40
55.644886046279694
40
55.683474732858251
40
55.722063419436807
40
55.741357762726082
40
55.751004934370727
40
55.760652106015364
40
55.779946449304646
40
55.79924079259392
40
55.837829479172484
40
55.876418165751041
40
55.953595538908161
40
56.030772912065274
40
56.1851276583795
40
56.339482404693726
40
56.493837151007959
40
56.802546643636418
40
57.111256136264878
40
57.265610882579111
40
57.419965628893337
40
57.574320375207563
40
57.728675121521796
40
57.883029867836029
40
58.037384614150255
40
58.191739360464481
40
58.346094106778715
40
58.654803599407174
40
58.963513092035633
40
59.272222584664092
40
59.580932077292552
40
59.889641569921011
40
60.043996316235237
40
60.19835106254947
40
60.352705808863703
40
60.507060555177929
40
60.584237928335043
40
60.661415301492156
40
60.738592674649269
40
60.815770047806389
40
60.854358734384945
40
60.892947420963509
40
60.912241764252784
40
60.931536107542065
40
60.970124794120622
40
61.047302167277735
40
61.124479540434848
40
61.201656913591961
40
61.278834286749074
40
61.433189033063307
40
61.58754377937754
40
61.741898525691767
40
62.050608018320226
40
62.359317510948685
40
62.668027003577144
40
62.976736496205604
40
63.285445988834063
40
63.594155481462522
40
63.902864974090981
40
64.211574466719441
40
64.520283959347893
40
64.828993451976359
40
65.137702944604825
40
65.292057690919052
40
65.446412437233278
40
65.600767183547504
40
65.75512192986173
40
66.063831422490196
40
66.218186168804436
40
66.372540915118662
40
66.681250407747115
40
66.989959900375567
40
67.298669393004033
40
67.6073788856325
40
67.916088378260952
40
68.53350736351787
40
69.150926348774789
40
69.768345334031707
40
70.385764319288626
40
70.694473811917078
40
71.003183304545544
40
71.311892797174011
40
71.620602289802463
40
71.929311782430915
40
72.238021275059381
40
72.546730767687848
40
72.8554402603163
40
73.009795006630526
40
73.164149752944752
40
73.318504499258978
40
73.395681872416105
40
73.472859245573218
40
73.627213991887459
40
73.781568738201685
40
73.935923484515911
40
74.090278230830137
40
74.398987723458589
40
74.707697216087055
40
75.016406708715522
40
75.325116201343974
40
75.942535186600878
40
76.559954171857797
40
77.177373157114715
40
77.79479214237162
40
78.412211127628538
40
78.720920620257004
40
79.029630112885457
40
79.029630112885457
40
79.029630112885457
40
79.029630112885457
10
-39.860618878374225
20
83.100216449674917
30
0
10
-39.817669845004211
20
83.612936559131029
30
0
10
-39.711972043057344
20
84.654911702533411
30
0
10
-38.818226632196328
20
85.978133953705509
30
0
10
-37.34281692329332
20
86.647065455223981
30
0
10
-35.773511474580069
20
86.3399978041884
30
0
10
-34.491646219955491
20
85.457469554304893
30
0
10
-33.306118484573041
20
84.47075268479928
30
0
10
-32.19894439094665
20
83.393861743206145
30
0
10
-30.773622830226191
20
81.909149656247848
30
0
10
-29.128762831554372
20
79.929089170637084
30
0
10
-27.187953363953781
20
77.528975076932852
30
0
10
-25.272090319749804
20
75.108113059950142
30
0
10
-22.711317447541653
20
71.885604324792197
30
0
10
-19.483172652884701
20
67.878991724457876
30
0
10
-15.497424529267839
20
63.162417461152629
30
0
10
-11.283189032292547
20
58.645823085876941
30
0
10
-6.7751801850576276
20
54.423009227546295
30
0
10
-2.8530250277923255
20
51.0906792243334
30
0
10
0.0073442243147033015
20
48.899902759246686
30
0
10
1.7377674160773351
20
47.780945508661489
30
0
10
3.5698219739368331
20
46.842516092055142
30
0
10
5.9594174172108687
20
45.86047281828516
30
0
10
9.048328821755554
20
45.412088875316172
30
0
10
11.606775588932233
20
45.858391933560341
30
0
10
13.570306025050103
20
46.470388545197096
30
0
10
15.470675052541914
20
47.267147908208614
30
0
10
17.704935293722855
20
48.556055120351182
30
0
10
20.118292503893404
20
50.493212791888418
30
0
10
22.296562320012772
20
52.683381065687243
30
0
10
24.057699332852035
20
54.559018431899098
30
0
10
25.542435500671044
20
55.98489840252504
30
0
10
26.693282942661227
20
57.013725004799852
30
0
10
27.693258608491398
20
57.824205733243083
30
0
10
28.565649313979186
20
58.376481714385129
30
0
10
29.576901704660543
20
58.66103852018972
30
0
10
30.864038695729295
20
58.273121146796427
30
0
10
32.056174267886192
20
57.243853625580726
30
0
10
32.677103851601984
20
55.79840619104877
30
0
10
32.996345406305174
20
53.761391171857007
30
0
10
33.103349015059038
20
51.188173801420049
30
0
10
33.11161147812912
20
48.101540784926549
30
0
10
33.055682819941893
20
45.014648680553634
30
0
10
33.029373139718444
20
40.898856087679505
30
0
10
33.123389627358399
20
36.780979911464335
30
0
10
33.515287694532539
20
32.681937144774267
30
0
10
33.994591198098576
20
29.630323816538425
30
0
10
34.649700450625453
20
26.614270796557395
30
0
10
35.631535376020182
20
23.667201827334139
30
0
10
37.384275083188747
20
21.098398838843892
30
0
10
39.498230727439363
20
18.841525646204083
30
0
10
41.908955572844263
20
16.899239970608654
30
0
10
44.576230402546273
20
15.33320680993711
30
0
10
47.38168260251414
20
14.035737418705317
30
0
10
51.278010539261672
20
12.694717057769136
30
0
10
56.310240877479671
20
11.584538578816597
30
0
10
61.39266270083958
20
10.785399710974438
30
0
10
65.462353899193303
20
10.168788873111234
30
0
10
68.51233050471555
20
9.6906817915588803
30
0
10
71.54579529923987
20
9.1142044103665132
30
0
10
74.547055264844886
20
8.3867122114736503
30
0
10
77.509919043979863
20
7.5169103128637609
30
0
10
79.918788805254394
20
6.6016514238592716
30
0
10
81.755731677024684
20
5.670842481387961
30
0
10
83.086783131665314
20
4.8870756411216281
30
0
10
84.334177388837546
20
3.972541500891047
30
0
10
85.465320144496218
20
2.9193729009674434
30
0
10
86.490081595135351
20
1.7612931349411318
30
0
10
87.38481949687106
20
0.50386012339366149
30
0
10
88.155077446112386
20
-0.84419820378080146
30
0
10
88.498677831717828
20
-2.3663980333914871
30
0
10
88.490561624702082
20
-3.9138883613492244
30
0
10
88.414533525509114
20
-5.4557004911703704
30
0
10
88.123152791433114
20
-6.9792154601007699
30
0
10
87.492114586082693
20
-8.3992108097996301
30
0
10
86.608151161501155
20
-9.6682106581542371
30
0
10
85.240633174545593
20
-11.21391940727483
30
0
10
83.169740188347347
20
-12.762948881046693
30
0
10
80.468353854041496
20
-14.264535255334302
30
0
10
76.665606822096009
20
-15.860733789705401
30
0
10
71.641394259789706
20
-17.042319449413327
30
0
10
65.539053734520124
20
-17.983082692683109
30
0
10
59.388752978872105
20
-18.552002898174649
30
0
10
54.258027417186256
20
-18.931987771340808
30
0
10
50.151954805939589
20
-19.220288776348852
30
0
10
47.072441560643064
20
-19.436280335992727
30
0
10
44.507205364235027
20
-19.631188364604796
30
0
10
42.457485962245435
20
-19.816772456435718
30
0
10
40.923255596486726
20
-19.986554310868158
30
0
10
39.39666578467375
20
-20.217853713623199
30
0
10
38.141240601281851
20
-20.506004938899117
30
0
10
37.304219151318563
20
-20.852838636468263
30
0
10
36.872429167213838
20
-21.127664779677957
30
0
10
36.502631343620159
20
-21.527874666194919
30
0
10
36.66486810082813
20
-22.220841053776567
30
0
10
37.077187982256532
20
-23.140326411811056
30
0
10
37.764897407422396
20
-24.244342277248162
30
0
10
38.684008957478767
20
-25.480227460520929
30
0
10
39.652995872670822
20
-26.68329457557228
30
0
10
40.994587974680535
20
-28.243723449017995
30
0
10
42.708014500551585
20
-30.16291949081949
30
0
10
44.792442679131156
20
-32.44003424951255
30
0
10
46.890741198266674
20
-34.704423561131208
30
0
10
49.686417726598592
20
-37.725357785887617
30
0
10
52.442102906146815
20
-40.78385274356301
30
0
10
55.073440319061859
20
-43.949839644867538
30
0
10
56.959596929066677
20
-46.394535436199348
30
0
10
58.673993261080398
20
-48.967005974024822
30
0
10
60.056405289775427
20
-51.731985035564072
30
0
10
61.029750269306234
20
-54.113815121044851
30
0
10
61.751869544214429
20
-56.041956137740492
30
0
10
62.203511005130572
20
-57.517213475862178
30
0
10
62.41414021841549
20
-59.066780570510609
30
0
10
62.042793023351862
20
-60.582608340368736
30
0
10
61.514371937563283
20
-62.026804551738536
30
0
10
60.679128112413792
20
-63.369723465477264
30
0
10
59.264919466763445
20
-64.097343641584473
30
0
10
57.196730113923195
20
-64.306917863725687
30
0
10
54.644203061433203
20
-63.760378583594139
30
0
10
51.926574944723598
20
-62.260741457053555
30
0
10
49.37810013349015
20
-60.520057641246751
30
0
10
46.947892948654044
20
-58.613176729797019
30
0
10
43.825623187995106
20
-55.930461037075631
30
0
10
40.030652054699459
20
-52.455628654264672
30
0
10
36.242201536284227
20
-48.973833267425618
30
0
10
33.117883520191818
20
-46.292994946922505
30
0
10
30.699113108505966
20
-44.373758690399285
30
0
10
28.625171023066223
20
-42.850966184945918
30
0
10
26.937411598897761
20
-41.673027117747814
30
0
10
25.654096085468517
20
-40.815150021812542
30
0
10
24.349375679779776
20
-39.990098812913892
30
0
10
23.230298137195273
20
-39.354015713021148
30
0
10
22.273676793092207
20
-38.963571018247308
30
0
10
21.253202717968165
20
-38.791748227094516
30
0
10
20.218677709088823
20
-38.874417640016624
30
0
10
19.213611514595929
20
-39.099201368093176
30
0
10
18.488232787194569
20
-39.371117863735392
30
0
10
17.817684076131659
20
-39.754290959986335
30
0
10
17.139756912469895
20
-40.129281020240711
30
0
10
16.580447529531867
20
-40.670298636990751
30
0
10
15.976897101687204
20
-41.505905204628412
30
0
10
15.111027955846193
20
-43.088366575410859
30
0
10
14.082452880890841
20
-45.448197155782907
30
0
10
13.036296484152954
20
-48.354404763760108
30
0
10
12.169919560328314
20
-51.318635393353276
30
0
10
11.430814196894232
20
-54.316244488025269
30
0
10
10.773980917984327
20
-57.33282330545407
30
0
10
10.247999289509522
20
-59.851027597665187
30
0
10
9.8141435959452412
20
-61.862880526929814
30
0
10
9.463311435996518
20
-63.366086492142273
30
0
10
9.076990588776404
20
-64.860764434246846
30
0
10
8.6765545782626301
20
-66.084828235502812
30
0
10
8.275227196989384
20
-67.032493021839571
30
0
10
7.8560329245409841
20
-67.690768040508942
30
0
10
7.1927364546113326
20
-68.132146129437274
30
0
10
6.1229828071460579
20
-68.182870414984819
30
0
10
5.0258688634746873
20
-67.36125503367154
30
0
10
4.3485238550148271
20
-65.957881543421792
30
0
10
3.9558335107116447
20
-64.463227946454481
30
0
10
3.6190180695939125
20
-62.957164500586103
30
0
10
3.3038782006544407
20
-61.44600447309741
30
0
10
2.9037209668924326
20
-59.427242668429841
30
0
10
2.4273265095957388
20
-56.899105988027728
30
0
10
1.8812998555367066
20
-53.86067583607435
30
0
10
1.3535856785297238
20
-50.819010780877306
30
0
10
0.81929769729750546
20
-47.778504046963583
30
0
10
0.27193761716529541
20
-44.740298119337169
30
0
10
-0.30990916695757109
20
-41.70843481165403
30
0
10
-0.93623951299145269
20
-38.685524753127758
30
0
10
-1.5956769259528101
20
-35.669514607753932
30
0
10
-2.2404410865006179
20
-33.178025441092032
30
0
10
-2.8613181028060271
20
-31.215467555636607
30
0
10
-3.3654004456721855
20
-29.7564669222878
30
0
10
-3.8342220582215929
20
-28.558077419264993
30
0
10
-4.2825840115746345
20
-27.630215191737303
30
0
10
-4.607264354016726
20
-27.076193212555214
30
0
10
-4.8966323656012412
20
-26.723389645266991
30
0
10
-5.077209859380547
20
-26.546350444964119
30
0
10
-5.1960943024706729
20
-26.479456477649173
30
0
10
-5.2623330550374519
20
-26.425859690205534
30
0
10
-5.2894315114601129
20
-26.461540397735629
30
0
10
-5.3377038450890453
20
-26.493770796390265
30
0
10
-5.4364403623771462
20
-26.548084293435593
30
0
10
-5.5629064109297097
20
-26.626198370030934
30
0
10
-5.6881941887963308
20
-26.78734200699861
30
0
10
-5.940013003765495
20
-27.073205239731028
30
0
10
-6.2614185812702434
20
-27.5613887317059
30
0
10
-6.6790020691827792
20
-28.208052057306496
30
0
10
-7.0540479178803448
20
-28.883857720813964
30
0
10
-7.5246495197177783
20
-29.798429498334123
30
0
10
-8.2602802836843825
20
-31.443328024043833
30
0
10
-9.1869214912468156
20
-33.843378298584483
30
0
10
-10.275111043048661
20
-36.73230436871313
30
0
10
-11.333955409292871
20
-39.632169154656729
30
0
10
-12.397045395088623
20
-42.530440633695214
30
0
10
-13.837691913759693
20
-46.386242034727502
30
0
10
-15.701300348345661
20
-51.182261928989448
30
0
10
-18.046635050037658
20
-56.894008096621903
30
0
10
-20.160639118191568
20
-61.586417179858358
30
0
10
-22.026422424936335
20
-65.256639199250984
30
0
10
-23.597248213997617
20
-67.916399333601618
30
0
10
-25.331428602219962
20
-70.47167377481999
30
0
10
-27.209061979598875
20
-72.925345216944422
30
0
10
-29.333837043815997
20
-75.171432594970028
30
0
10
-31.646443073740471
20
-77.213823748132768
30
0
10
-33.863453211161989
20
-78.592591907076596
30
0
10
-35.891840706755588
20
-79.015707908355552
30
0
10
-37.436463566169913
20
-79.107574251477757
30
0
10
-38.975727958117872
20
-78.918824830842681
30
0
10
-40.438144062997345
20
-78.375262186712334
30
0
10
-41.673674073783587
20
-77.42868678258121
30
0
10
-42.671277525112508
20
-76.24451779133058
30
0
10
-43.572262378197529
20
-74.988988833096514
30
0
10
-44.245212265829878
20
-73.592515452322175
30
0
10
-44.720975395104865
20
-72.123807892610671
30
0
10
-45.042944543538809
20
-70.875498229139566
30
0
10
-45.184204716118082
20
-69.85591212502969
30
0
10
-45.367665272277534
20
-68.843036371663686
30
0
10
-45.498183062307866
20
-67.043924430456372
30
0
10
-45.510571630554296
20
-64.471208950020809
30
0
10
-45.248286789325689
20
-61.390856148604783
30
0
10
-44.756475493166562
20
-58.342625094180519
30
0
10
-44.107929999975077
20
-55.323402511444264
30
0
10
-43.066482539447819
20
-51.339873737329398
30
0
10
-41.428362637736591
20
-46.45896783569075
30
0
10
-39.553803121060973
20
-41.666738351689538
30
0
10
-37.950943676092805
20
-37.875352086862435
30
0
10
-36.724442835714058
20
-35.0423930943426
30
0
10
-35.496547340914191
20
-32.209899152223805
30
0
10
-34.513947713348522
20
-29.832369751034975
30
0
10
-33.734389546802859
20
-27.927554616539108
30
0
10
-33.16768460267749
20
-26.492040935325534
30
0
10
-32.700551145585834
20
-25.292734443169564
30
0
10
-32.340153550852982
20
-24.330510126883063
30
0
10
-32.065507493954463
20
-23.604248041151244
30
0
10
-31.868769709786161
20
-23.006541189048715
30
0
10
-31.68812465393696
20
-22.494722076330579
30
0
10
-31.647702238078747
20
-22.243785905567229
30
0
10
-31.539377204502781
20
-21.912554707480663
30
0
10
-31.572727102664786
20
-21.847468826730612
30
0
10
-31.729391670880052
20
-21.92202142335589
30
0
10
-31.860869297492833
20
-21.955091755848947
30
0
10
-32.100504210995481
20
-22.07753314650838
30
0
10
-32.380413544705036
20
-22.224042681796512
30
0
10
-32.831560592244585
20
-22.476042891934608
30
0
10
-33.390854207338322
20
-22.791365125129659
30
0
10
-34.282079167079793
20
-23.30661993795249
30
0
10
-35.394359532202763
20
-23.952238204725226
30
0
10
-36.731459764357531
20
-24.72356001043638
30
0
10
-38.521515376324146
20
-25.73908011943174
30
0
10
-40.777347654666414
20
-26.976060380557271
30
0
10
-43.090988508547419
20
-28.104533748324691
30
0
10
-44.991483644346971
20
-28.895392552413199
30
0
10
-46.450353268187669
20
-29.40402198748178
30
0
10
-47.980547727961557
20
-29.680448106769042
30
0
10
-49.539303702809804
20
-29.413491738561547
30
0
10
-50.806659208246558
20
-28.465963651611126
30
0
10
-51.539649332375404
20
-27.054721946431314
30
0
10
-51.577685300735027
20
-25.488094689642544
30
0
10
-51.228014446874752
20
-23.459407989086674
30
0
10
-50.518226370570495
20
-20.982621717065541
30
0
10
-49.576122959733326
20
-18.043693104236723
30
0
10
-48.559058156731879
20
-15.128504330134513
30
0
10
-47.529735266686153
20
-12.218174202899078
30
0
10
-46.698029686571317
20
-9.7836591434632645
30
0
10
-46.075060686554622
20
-7.8219617491706117
30
0
10
-45.635841478501845
20
-6.3422788885811769
30
0
10
-45.216780815778471
20
-4.856311729410753
30
0
10
-44.92967501923421
20
-3.6023291352860265
30
0
10
-44.717343847756567
20
-2.5954400521693817
30
0
10
-44.61042187117117
20
-1.830401043201594
30
0
10
-44.550709337308582
20
-1.0609347645044762
30
0
10
-44.574971919134128
20
-0.41477909389618417
30
0
10
-44.665014308691454
20
0.089685589375522762
30
0
10
-44.742834978084531
20
0.40928371649030965
30
0
10
-44.899466730861903
20
0.61989214561989281
30
0
10
-45.141206284592784
20
0.72943629018264666
30
0
10
-45.580667271318376
20
0.82318814773617632
30
0
10
-46.228299808660154
20
0.83386755269811652
30
0
10
-46.996653518391938
20
0.76167320847706299
30
0
10
-47.755808154317151
20
0.6185323187440861
30
0
10
-48.7567527742764
20
0.37963451573369283
30
0
10
-49.979593383610236
20
-0.025742550021147295
30
0
10
-51.406804111927428
20
-0.61365276595617513
30
0
10
-53.290506023231401
20
-1.4431199269794637
30
0
10
-55.601024333764677
20
-2.5752420703851042
30
0
10
-58.372627903138493
20
-3.9346404366334466
30
0
10
-61.167287551309293
20
-5.2464566652007942
30
0
10
-63.980667608753663
20
-6.5173746984913876
30
0
10
-66.809280317841257
20
-7.7541081651861843
30
0
10
-69.656239244991397
20
-8.9481394762163706
30
0
10
-72.538467480080882
20
-10.056012096147182
30
0
10
-75.478871345020451
20
-11.000972493567378
30
0
10
-78.46395028706911
20
-11.790430800361985
30
0
10
-81.520050559038069
20
-12.293177904774591
30
0
10
-84.107170529149357
20
-12.160059879441036
30
0
10
-86.115782884554903
20
-11.691642401143955
30
0
10
-87.528418303684589
20
-11.027969102496913
30
0
10
-88.63963965230073
20
-9.9241287561396714
30
0
10
-89.6075782366743
20
-8.0871219939402383
30
0
10
-89.957975628330303
20
-6.0269632432125517
30
0
10
-89.86734741556586
20
-3.9687064645866075
30
0
10
-89.606212887593529
20
-1.9241459934377572
30
0
10
-88.824777533609279
20
0.54278773574935657
30
0
10
-87.374505096965436
20
3.2753227021258291
30
0
10
-85.694690016006675
20
5.8674086332527757
30
0
10
-83.823490870057242
20
8.3248809794107164
30
0
10
-81.156672566202872
20
11.462783230704346
30
0
10
-77.423049746360476
20
15.019549893354775
30
0
10
-72.395749312441239
20
18.635161719070982
30
0
10
-66.845372644281838
20
21.382435536840696
30
0
10
-61.965321395665143
20
23.037276368773188
30
0
10
-57.977687488171
20
24.061162335818697
30
0
10
-54.957453253177363
20
24.704547688881586
30
0
10
-51.904587308662698
20
25.17226509965294
30
0
10
-48.830998083187602
20
25.468084167261253
30
0
10
-45.750944613744089
20
25.677057033785452
30
0
10
-42.667066833248739
20
25.828442753248826
30
0
10
-39.580965723730166
20
25.882502206680194
30
0
10
-37.005723865781938
20
25.872137334106942
30
0
10
-34.955788467427993
20
26.071744548476556
30
0
10
-33.442719240271323
20
26.390404663023773
30
0
10
-32.265421212722714
20
26.963902579995569
30
0
10
-31.553159184626587
20
27.722156546602879
30
0
10
-31.08965620819783
20
28.652155645344081
30
0
10
-30.892880684882758
20
29.936922177608967
30
0
10
-30.888392002125528
20
31.480076249968842
30
0
10
-31.005268433912029
20
33.020430428477603
30
0
10
-31.226573255901627
20
35.066332973359529
30
0
10
-31.613801817104068
20
37.610513115142467
30
0
10
-32.149868127953418
20
40.650679507304837
30
0
10
-32.754638728723734
20
43.678131602417743
30
0
10
-33.610339370371221
20
47.704323043244699
30
0
10
-34.743931076726
20
52.723182289776453
30
0
10
-36.112146524905214
20
58.743698618896723
30
0
10
-37.440745015491913
20
64.773828508533995
30
0
10
-38.615992161086005
20
70.834617375254737
30
0
10
-39.452400037099281
20
75.915044434440489
30
0
10
-39.837924480972063
20
80.013029013967071
30
0
10
-39.91937866226408
20
82.072863828502591
30
0
10
-39.860618878374225
20
83.100216449674917
30
0
0
ENDSEC
0
SECTION
2
OBJECTS
0
DICTIONARY
5
C
100
AcDbDictionary
3
ACAD_GROUP
350
D
3
ACAD_MLINESTYLE
350
17
0
DICTIONARY
5
D
100
AcDbDictionary
0
DICTIONARY
5
1A
330
C
100
AcDbDictionary
0
DICTIONARY
5
17
100
AcDbDictionary
0
ENDSEC
0
EOF
