ISO-10303-21;
HEADER;
/* Generated by software containing ST-Developer
 * from STEP Tools, Inc. (www.steptools.com) 
 */

FILE_DESCRIPTION(
/* description */ (''),
/* implementation_level */ '2;1');

FILE_NAME(
/* name */ 'SheetCoverQuarter1.step',
/* time_stamp */ '2026-09-23T12:28:12+01:00',
/* author */ (''),
/* organization */ (''),
/* preprocessor_version */ 'ST-DEVELOPER v20.2',
/* originating_system */ 'Autodesk Translation Framework v15.15.0.0',
/* authorisation */ '');

FILE_SCHEMA (('AUTOMOTIVE_DESIGN { 1 0 10303 214 3 1 1 }'));
ENDSEC;

DATA;
#10=MECHANICAL_DESIGN_GEOMETRIC_PRESENTATION_REPRESENTATION('',(#13),#342);
#11=SHAPE_REPRESENTATION_RELATIONSHIP('SRR','None',#349,#12);
#12=ADVANCED_BREP_SHAPE_REPRESENTATION('',(#14),#341);
#13=STYLED_ITEM('',(#358),#14);
#14=MANIFOLD_SOLID_BREP('Body1',#122);
#15=B_SPLINE_CURVE_WITH_KNOTS('',3,(#227,#228,#229,#230,#231,#232,#233,
#234,#235,#236,#237,#238,#239,#240,#241,#242,#243,#244),.UNSPECIFIED.,.F.,
 .F.,(4,3,2,3,3,3,4),(0.,10.5705051102546,21.1418088916913,42.2830406406424,
84.5660898922902,169.132664756996,169.48483646001),.UNSPECIFIED.);
#16=B_SPLINE_CURVE_WITH_KNOTS('',3,(#246,#247,#248,#249,#250,#251,#252,
#253,#254,#255,#256,#257,#258,#259,#260,#261,#262,#263),.UNSPECIFIED.,.F.,
 .F.,(4,3,2,3,3,3,4),(0.,10.5705051102546,21.1418088916913,42.2830406406424,
84.5660898922902,169.132664756996,169.48483646001),.UNSPECIFIED.);
#17=B_SPLINE_CURVE_WITH_KNOTS('',3,(#301,#302,#303,#304,#305,#306,#307,
#308,#309,#310,#311,#312,#313,#314,#315,#316,#317,#318),.UNSPECIFIED.,.F.,
 .F.,(4,3,3,3,2,3,4),(157.301353108499,157.508496392807,236.263540517429,
275.640404542253,295.329530496303,305.173878908235,315.017975262179),
 .UNSPECIFIED.);
#18=B_SPLINE_CURVE_WITH_KNOTS('',3,(#319,#320,#321,#322,#323,#324,#325,
#326,#327,#328,#329,#330,#331,#332,#333,#334,#335,#336),.UNSPECIFIED.,.F.,
 .F.,(4,3,3,3,2,3,4),(157.301353108501,157.508496392807,236.263540517429,
275.640404542253,295.329530496303,305.173878908235,315.017975262179),
 .UNSPECIFIED.);
#19=B_SPLINE_SURFACE_WITH_KNOTS('',3,1,((#190,#191),(#192,#193),(#194,#195),
(#196,#197),(#198,#199),(#200,#201),(#202,#203),(#204,#205),(#206,#207),
(#208,#209),(#210,#211),(#212,#213),(#214,#215),(#216,#217),(#218,#219),
(#220,#221),(#222,#223),(#224,#225)),.UNSPECIFIED.,.F.,.F.,.F.,(4,3,2,3,
3,3,4),(2,2),(0.,10.5705051102546,21.1418088916913,42.2830406406424,84.5660898922902,
169.132664756996,169.48483646001),(0.,0.0499999999999998),.UNSPECIFIED.);
#20=B_SPLINE_SURFACE_WITH_KNOTS('',3,1,((#265,#266),(#267,#268),(#269,#270),
(#271,#272),(#273,#274),(#275,#276),(#277,#278),(#279,#280),(#281,#282),
(#283,#284),(#285,#286),(#287,#288),(#289,#290),(#291,#292),(#293,#294),
(#295,#296),(#297,#298),(#299,#300)),.UNSPECIFIED.,.F.,.F.,.F.,(4,3,3,3,
2,3,4),(2,2),(157.301353108501,157.508496392807,236.263540517429,275.640404542253,
295.329530496303,305.173878908235,315.017975262179),(0.,0.0499999999999998),
 .UNSPECIFIED.);
#21=CIRCLE('',#138,60.);
#22=CIRCLE('',#139,60.);
#23=CYLINDRICAL_SURFACE('',#137,60.);
#24=FACE_OUTER_BOUND('',#31,.T.);
#25=FACE_OUTER_BOUND('',#32,.T.);
#26=FACE_OUTER_BOUND('',#33,.T.);
#27=FACE_OUTER_BOUND('',#34,.T.);
#28=FACE_OUTER_BOUND('',#35,.T.);
#29=FACE_OUTER_BOUND('',#36,.T.);
#30=FACE_OUTER_BOUND('',#37,.T.);
#31=EDGE_LOOP('',(#81,#82,#83,#84));
#32=EDGE_LOOP('',(#85,#86,#87,#88));
#33=EDGE_LOOP('',(#89,#90,#91,#92));
#34=EDGE_LOOP('',(#93,#94,#95,#96));
#35=EDGE_LOOP('',(#97,#98,#99,#100));
#36=EDGE_LOOP('',(#101,#102,#103,#104,#105));
#37=EDGE_LOOP('',(#106,#107,#108,#109,#110));
#38=LINE('',#172,#47);
#39=LINE('',#174,#48);
#40=LINE('',#176,#49);
#41=LINE('',#177,#50);
#42=LINE('',#183,#51);
#43=LINE('',#186,#52);
#44=LINE('',#188,#53);
#45=LINE('',#189,#54);
#46=LINE('',#264,#55);
#47=VECTOR('',#147,10.);
#48=VECTOR('',#148,10.);
#49=VECTOR('',#149,10.);
#50=VECTOR('',#150,10.);
#51=VECTOR('',#157,10.);
#52=VECTOR('',#160,10.);
#53=VECTOR('',#161,10.);
#54=VECTOR('',#162,10.);
#55=VECTOR('',#163,10.);
#56=VERTEX_POINT('',#170);
#57=VERTEX_POINT('',#171);
#58=VERTEX_POINT('',#173);
#59=VERTEX_POINT('',#175);
#60=VERTEX_POINT('',#179);
#61=VERTEX_POINT('',#181);
#62=VERTEX_POINT('',#185);
#63=VERTEX_POINT('',#187);
#64=VERTEX_POINT('',#226);
#65=VERTEX_POINT('',#245);
#66=EDGE_CURVE('',#56,#57,#38,.T.);
#67=EDGE_CURVE('',#56,#58,#39,.T.);
#68=EDGE_CURVE('',#59,#58,#40,.T.);
#69=EDGE_CURVE('',#57,#59,#41,.T.);
#70=EDGE_CURVE('',#57,#60,#21,.T.);
#71=EDGE_CURVE('',#61,#59,#22,.T.);
#72=EDGE_CURVE('',#60,#61,#42,.T.);
#73=EDGE_CURVE('',#62,#60,#43,.T.);
#74=EDGE_CURVE('',#63,#61,#44,.T.);
#75=EDGE_CURVE('',#62,#63,#45,.T.);
#76=EDGE_CURVE('',#64,#62,#15,.T.);
#77=EDGE_CURVE('',#65,#63,#16,.T.);
#78=EDGE_CURVE('',#64,#65,#46,.T.);
#79=EDGE_CURVE('',#56,#64,#17,.T.);
#80=EDGE_CURVE('',#58,#65,#18,.T.);
#81=ORIENTED_EDGE('',*,*,#66,.F.);
#82=ORIENTED_EDGE('',*,*,#67,.T.);
#83=ORIENTED_EDGE('',*,*,#68,.F.);
#84=ORIENTED_EDGE('',*,*,#69,.F.);
#85=ORIENTED_EDGE('',*,*,#70,.F.);
#86=ORIENTED_EDGE('',*,*,#69,.T.);
#87=ORIENTED_EDGE('',*,*,#71,.F.);
#88=ORIENTED_EDGE('',*,*,#72,.F.);
#89=ORIENTED_EDGE('',*,*,#73,.T.);
#90=ORIENTED_EDGE('',*,*,#72,.T.);
#91=ORIENTED_EDGE('',*,*,#74,.F.);
#92=ORIENTED_EDGE('',*,*,#75,.F.);
#93=ORIENTED_EDGE('',*,*,#76,.T.);
#94=ORIENTED_EDGE('',*,*,#75,.T.);
#95=ORIENTED_EDGE('',*,*,#77,.F.);
#96=ORIENTED_EDGE('',*,*,#78,.F.);
#97=ORIENTED_EDGE('',*,*,#79,.T.);
#98=ORIENTED_EDGE('',*,*,#78,.T.);
#99=ORIENTED_EDGE('',*,*,#80,.F.);
#100=ORIENTED_EDGE('',*,*,#67,.F.);
#101=ORIENTED_EDGE('',*,*,#80,.T.);
#102=ORIENTED_EDGE('',*,*,#77,.T.);
#103=ORIENTED_EDGE('',*,*,#74,.T.);
#104=ORIENTED_EDGE('',*,*,#71,.T.);
#105=ORIENTED_EDGE('',*,*,#68,.T.);
#106=ORIENTED_EDGE('',*,*,#79,.F.);
#107=ORIENTED_EDGE('',*,*,#66,.T.);
#108=ORIENTED_EDGE('',*,*,#70,.T.);
#109=ORIENTED_EDGE('',*,*,#73,.F.);
#110=ORIENTED_EDGE('',*,*,#76,.F.);
#111=PLANE('',#136);
#112=PLANE('',#140);
#113=PLANE('',#141);
#114=PLANE('',#142);
#115=ADVANCED_FACE('',(#24),#111,.T.);
#116=ADVANCED_FACE('',(#25),#23,.F.);
#117=ADVANCED_FACE('',(#26),#112,.T.);
#118=ADVANCED_FACE('',(#27),#19,.T.);
#119=ADVANCED_FACE('',(#28),#20,.T.);
#120=ADVANCED_FACE('',(#29),#113,.T.);
#121=ADVANCED_FACE('',(#30),#114,.F.);
#122=CLOSED_SHELL('',(#115,#116,#117,#118,#119,#120,#121));
#123=DERIVED_UNIT_ELEMENT(#125,1.);
#124=DERIVED_UNIT_ELEMENT(#344,-3.);
#125=(
MASS_UNIT()
NAMED_UNIT(*)
SI_UNIT(.KILO.,.GRAM.)
);
#126=DERIVED_UNIT((#123,#124));
#127=MEASURE_REPRESENTATION_ITEM('density measure',
POSITIVE_RATIO_MEASURE(7850.),#126);
#128=PROPERTY_DEFINITION_REPRESENTATION(#133,#130);
#129=PROPERTY_DEFINITION_REPRESENTATION(#134,#131);
#130=REPRESENTATION('material name',(#132),#341);
#131=REPRESENTATION('density',(#127),#341);
#132=DESCRIPTIVE_REPRESENTATION_ITEM('Steel','Steel');
#133=PROPERTY_DEFINITION('material property','material name',#351);
#134=PROPERTY_DEFINITION('material property','density of part',#351);
#135=AXIS2_PLACEMENT_3D('',#168,#143,#144);
#136=AXIS2_PLACEMENT_3D('',#169,#145,#146);
#137=AXIS2_PLACEMENT_3D('',#178,#151,#152);
#138=AXIS2_PLACEMENT_3D('',#180,#153,#154);
#139=AXIS2_PLACEMENT_3D('',#182,#155,#156);
#140=AXIS2_PLACEMENT_3D('',#184,#158,#159);
#141=AXIS2_PLACEMENT_3D('',#337,#164,#165);
#142=AXIS2_PLACEMENT_3D('',#338,#166,#167);
#143=DIRECTION('axis',(0.,0.,1.));
#144=DIRECTION('refdir',(1.,0.,0.));
#145=DIRECTION('center_axis',(1.,8.16340459889049E-19,0.));
#146=DIRECTION('ref_axis',(-8.16340459889049E-19,1.,-5.82876527976907E-47));
#147=DIRECTION('',(8.16340459889049E-19,-1.,5.82876527976907E-47));
#148=DIRECTION('',(0.,0.,1.));
#149=DIRECTION('',(-8.16340459889049E-19,1.,-5.82876527976907E-47));
#150=DIRECTION('',(0.,0.,1.));
#151=DIRECTION('center_axis',(0.,0.,1.));
#152=DIRECTION('ref_axis',(-1.,-6.05845175209737E-28,0.));
#153=DIRECTION('center_axis',(4.07858549230649E-46,5.82876527976907E-47,
1.));
#154=DIRECTION('ref_axis',(-1.,-6.05845175209737E-28,4.07858549230649E-46));
#155=DIRECTION('center_axis',(-4.07858549230649E-46,-5.82876527976907E-47,
-1.));
#156=DIRECTION('ref_axis',(-1.,-6.05845175209737E-28,4.07858549230649E-46));
#157=DIRECTION('',(0.,0.,1.));
#158=DIRECTION('center_axis',(6.05845175209737E-28,-1.,0.));
#159=DIRECTION('ref_axis',(1.,6.05845175209737E-28,-4.07858549230649E-46));
#160=DIRECTION('',(1.,6.05845175209737E-28,-4.07858549230649E-46));
#161=DIRECTION('',(1.,6.05845175209737E-28,-4.07858549230649E-46));
#162=DIRECTION('',(0.,0.,1.));
#163=DIRECTION('',(0.,0.,1.));
#164=DIRECTION('center_axis',(4.07858549230649E-46,5.82876527976907E-47,
1.));
#165=DIRECTION('ref_axis',(-1.,-6.05845175209737E-28,4.07858549230649E-46));
#166=DIRECTION('center_axis',(4.07858549230649E-46,5.82876527976907E-47,
1.));
#167=DIRECTION('ref_axis',(-1.,-6.05845175209737E-28,4.07858549230649E-46));
#168=CARTESIAN_POINT('',(0.,0.,0.));
#169=CARTESIAN_POINT('Origin',(0.443442376830444,59.9984296889228,65.2167071548209));
#170=CARTESIAN_POINT('',(0.443442376830444,169.489452415107,65.2167071548209));
#171=CARTESIAN_POINT('',(0.443442376830444,59.9984296889228,65.2167071548209));
#172=CARTESIAN_POINT('',(0.443442376830444,170.000000000001,65.2167071548209));
#173=CARTESIAN_POINT('',(0.443442376830444,169.489452415107,65.7167071548209));
#174=CARTESIAN_POINT('',(0.443442376830444,169.489452415107,65.2167071548209));
#175=CARTESIAN_POINT('',(0.443442376830444,59.9984296889228,65.7167071548209));
#176=CARTESIAN_POINT('',(0.443442376830444,170.000000000001,65.7167071548209));
#177=CARTESIAN_POINT('',(0.443442376830444,59.9984296889228,65.2167071548209));
#178=CARTESIAN_POINT('Origin',(0.000131683403878924,6.7414364934848E-5,
65.2167071548209));
#179=CARTESIAN_POINT('',(-59.9998683165961,6.7414364934848E-5,65.2167071548209));
#180=CARTESIAN_POINT('Origin',(0.000131683403878924,6.7414364934848E-5,
65.2167071548209));
#181=CARTESIAN_POINT('',(-59.9998683165961,6.7414364934848E-5,65.7167071548209));
#182=CARTESIAN_POINT('Origin',(0.000131683403878924,6.7414364934848E-5,
65.7167071548209));
#183=CARTESIAN_POINT('',(-59.9998683165961,6.7414364934848E-5,65.2167071548209));
#184=CARTESIAN_POINT('Origin',(-157.276197692125,6.7414364934848E-5,65.2167071548209));
#185=CARTESIAN_POINT('',(-157.276197692125,6.7414364934848E-5,65.2167071548209));
#186=CARTESIAN_POINT('',(-158.499736633192,6.7414364934848E-5,65.2167071548209));
#187=CARTESIAN_POINT('',(-157.276197692125,6.7414364934848E-5,65.7167071548209));
#188=CARTESIAN_POINT('',(-158.499736633192,6.7414364934848E-5,65.7167071548209));
#189=CARTESIAN_POINT('',(-157.276197692125,6.7414364934848E-5,65.2167071548209));
#190=CARTESIAN_POINT('Ctrl Pts',(-157.27317965079,169.484903765429,65.2167071548211));
#191=CARTESIAN_POINT('Ctrl Pts',(-157.27317965079,169.484903765429,65.7167071548211));
#192=CARTESIAN_POINT('Ctrl Pts',(-157.273227146645,165.961402064339,65.2167071548211));
#193=CARTESIAN_POINT('Ctrl Pts',(-157.273227146645,165.961402064339,65.7167071548211));
#194=CARTESIAN_POINT('Ctrl Pts',(-157.273467330622,162.437900362949,65.2167071548211));
#195=CARTESIAN_POINT('Ctrl Pts',(-157.273467330622,162.437900362949,65.7167071548211));
#196=CARTESIAN_POINT('Ctrl Pts',(-157.273681919137,158.914398670209,65.2167071548211));
#197=CARTESIAN_POINT('Ctrl Pts',(-157.273681919137,158.914398670209,65.7167071548211));
#198=CARTESIAN_POINT('Ctrl Pts',(-157.273896523863,155.390630749609,65.2167071548211));
#199=CARTESIAN_POINT('Ctrl Pts',(-157.273896523863,155.390630749609,65.7167071548211));
#200=CARTESIAN_POINT('Ctrl Pts',(-157.274111146158,151.866862828979,65.2167071548211));
#201=CARTESIAN_POINT('Ctrl Pts',(-157.274111146158,151.866862828979,65.7167071548211));
#202=CARTESIAN_POINT('Ctrl Pts',(-157.274719704446,141.296017669799,65.2167071548211));
#203=CARTESIAN_POINT('Ctrl Pts',(-157.274719704446,141.296017669799,65.7167071548211));
#204=CARTESIAN_POINT('Ctrl Pts',(-157.275092909667,134.248940429719,65.2167071548211));
#205=CARTESIAN_POINT('Ctrl Pts',(-157.275092909667,134.248940429719,65.7167071548211));
#206=CARTESIAN_POINT('Ctrl Pts',(-157.275423914869,127.201863188069,65.2167071548211));
#207=CARTESIAN_POINT('Ctrl Pts',(-157.275423914869,127.201863188069,65.7167071548211));
#208=CARTESIAN_POINT('Ctrl Pts',(-157.276085934442,113.107513454299,65.2167071548211));
#209=CARTESIAN_POINT('Ctrl Pts',(-157.276085934442,113.107513454299,65.7167071548211));
#210=CARTESIAN_POINT('Ctrl Pts',(-157.276564559185,99.0131637073989,65.2167071548211));
#211=CARTESIAN_POINT('Ctrl Pts',(-157.276564559185,99.0131637073989,65.7167071548211));
#212=CARTESIAN_POINT('Ctrl Pts',(-157.276831992828,84.918813962629,65.2167071548211));
#213=CARTESIAN_POINT('Ctrl Pts',(-157.276831992828,84.918813962629,65.7167071548211));
#214=CARTESIAN_POINT('Ctrl Pts',(-157.277366863124,56.7299556881591,65.2167071548211));
#215=CARTESIAN_POINT('Ctrl Pts',(-157.277366863124,56.7299556881591,65.7167071548211));
#216=CARTESIAN_POINT('Ctrl Pts',(-157.277040259079,28.5410973709395,65.2167071548211));
#217=CARTESIAN_POINT('Ctrl Pts',(-157.277040259079,28.5410973709395,65.7167071548211));
#218=CARTESIAN_POINT('Ctrl Pts',(-157.276208089295,0.352239117178783,65.2167071548211));
#219=CARTESIAN_POINT('Ctrl Pts',(-157.276208089295,0.352239117178783,65.7167071548211));
#220=CARTESIAN_POINT('Ctrl Pts',(-157.276204623781,0.234848549574298,65.2167071548211));
#221=CARTESIAN_POINT('Ctrl Pts',(-157.276204623781,0.234848549574298,65.7167071548211));
#222=CARTESIAN_POINT('Ctrl Pts',(-157.276201158052,0.117457981969682,65.2167071548211));
#223=CARTESIAN_POINT('Ctrl Pts',(-157.276201158052,0.117457981969682,65.7167071548211));
#224=CARTESIAN_POINT('Ctrl Pts',(-157.276197692125,6.7414364936149E-5,65.2167071548211));
#225=CARTESIAN_POINT('Ctrl Pts',(-157.276197692125,6.7414364936149E-5,65.7167071548211));
#226=CARTESIAN_POINT('',(-157.27317965079,169.484903765429,65.2167071548211));
#227=CARTESIAN_POINT('Ctrl Pts',(-157.27317965079,169.484903765429,65.2167071548211));
#228=CARTESIAN_POINT('Ctrl Pts',(-157.273227146645,165.961402064339,65.2167071548211));
#229=CARTESIAN_POINT('Ctrl Pts',(-157.273467330622,162.437900362949,65.2167071548211));
#230=CARTESIAN_POINT('Ctrl Pts',(-157.273681919137,158.914398670209,65.2167071548211));
#231=CARTESIAN_POINT('Ctrl Pts',(-157.273896523863,155.390630749609,65.2167071548211));
#232=CARTESIAN_POINT('Ctrl Pts',(-157.274111146158,151.866862828979,65.2167071548211));
#233=CARTESIAN_POINT('Ctrl Pts',(-157.274719704446,141.296017669799,65.2167071548211));
#234=CARTESIAN_POINT('Ctrl Pts',(-157.275092909667,134.248940429719,65.2167071548211));
#235=CARTESIAN_POINT('Ctrl Pts',(-157.275423914869,127.201863188069,65.2167071548211));
#236=CARTESIAN_POINT('Ctrl Pts',(-157.276085934442,113.107513454299,65.2167071548211));
#237=CARTESIAN_POINT('Ctrl Pts',(-157.276564559185,99.0131637073989,65.2167071548211));
#238=CARTESIAN_POINT('Ctrl Pts',(-157.276831992828,84.918813962629,65.2167071548211));
#239=CARTESIAN_POINT('Ctrl Pts',(-157.277366863124,56.7299556881591,65.2167071548211));
#240=CARTESIAN_POINT('Ctrl Pts',(-157.277040259079,28.5410973709395,65.2167071548211));
#241=CARTESIAN_POINT('Ctrl Pts',(-157.276208089295,0.352239117178783,65.2167071548211));
#242=CARTESIAN_POINT('Ctrl Pts',(-157.276204623781,0.234848549574298,65.2167071548211));
#243=CARTESIAN_POINT('Ctrl Pts',(-157.276201158052,0.117457981969682,65.2167071548211));
#244=CARTESIAN_POINT('Ctrl Pts',(-157.276197692125,6.74143649361941E-5,
65.2167071548211));
#245=CARTESIAN_POINT('',(-157.27317965079,169.484903765429,65.7167071548211));
#246=CARTESIAN_POINT('Ctrl Pts',(-157.27317965079,169.484903765429,65.7167071548211));
#247=CARTESIAN_POINT('Ctrl Pts',(-157.273227146645,165.961402064339,65.7167071548211));
#248=CARTESIAN_POINT('Ctrl Pts',(-157.273467330622,162.437900362949,65.7167071548211));
#249=CARTESIAN_POINT('Ctrl Pts',(-157.273681919137,158.914398670209,65.7167071548211));
#250=CARTESIAN_POINT('Ctrl Pts',(-157.273896523863,155.390630749609,65.7167071548211));
#251=CARTESIAN_POINT('Ctrl Pts',(-157.274111146158,151.866862828979,65.7167071548211));
#252=CARTESIAN_POINT('Ctrl Pts',(-157.274719704446,141.296017669799,65.7167071548211));
#253=CARTESIAN_POINT('Ctrl Pts',(-157.275092909667,134.248940429719,65.7167071548211));
#254=CARTESIAN_POINT('Ctrl Pts',(-157.275423914869,127.201863188069,65.7167071548211));
#255=CARTESIAN_POINT('Ctrl Pts',(-157.276085934442,113.107513454299,65.7167071548211));
#256=CARTESIAN_POINT('Ctrl Pts',(-157.276564559185,99.0131637073989,65.7167071548211));
#257=CARTESIAN_POINT('Ctrl Pts',(-157.276831992828,84.918813962629,65.7167071548211));
#258=CARTESIAN_POINT('Ctrl Pts',(-157.277366863124,56.7299556881591,65.7167071548211));
#259=CARTESIAN_POINT('Ctrl Pts',(-157.277040259079,28.5410973709395,65.7167071548211));
#260=CARTESIAN_POINT('Ctrl Pts',(-157.276208089295,0.352239117178783,65.7167071548211));
#261=CARTESIAN_POINT('Ctrl Pts',(-157.276204623781,0.234848549574298,65.7167071548211));
#262=CARTESIAN_POINT('Ctrl Pts',(-157.276201158052,0.117457981969682,65.7167071548211));
#263=CARTESIAN_POINT('Ctrl Pts',(-157.276197692125,6.74143649361941E-5,
65.7167071548211));
#264=CARTESIAN_POINT('',(-157.27317965079,169.484903765429,65.2167071548211));
#265=CARTESIAN_POINT('Ctrl Pts',(0.443442376828287,169.489452415107,65.2167071548211));
#266=CARTESIAN_POINT('Ctrl Pts',(0.443442376828287,169.489452415107,65.7167071548211));
#267=CARTESIAN_POINT('Ctrl Pts',(0.374394615405535,169.489453497393,65.2167071548211));
#268=CARTESIAN_POINT('Ctrl Pts',(0.374394615405535,169.489453497393,65.7167071548211));
#269=CARTESIAN_POINT('Ctrl Pts',(0.305346853982727,169.489454577379,65.2167071548211));
#270=CARTESIAN_POINT('Ctrl Pts',(0.305346853982727,169.489454577379,65.7167071548211));
#271=CARTESIAN_POINT('Ctrl Pts',(0.236299092559875,169.489455655059,65.2167071548211));
#272=CARTESIAN_POINT('Ctrl Pts',(0.236299092559875,169.489455655059,65.7167071548211));
#273=CARTESIAN_POINT('Ctrl Pts',(-26.0153822727699,169.489865384838,65.2167071548211));
#274=CARTESIAN_POINT('Ctrl Pts',(-26.0153822727699,169.489865384838,65.7167071548211));
#275=CARTESIAN_POINT('Ctrl Pts',(-52.2670636704402,169.489722567226,65.2167071548211));
#276=CARTESIAN_POINT('Ctrl Pts',(-52.2670636704402,169.489722567226,65.7167071548211));
#277=CARTESIAN_POINT('Ctrl Pts',(-78.5187450155598,169.488899018954,65.2167071548211));
#278=CARTESIAN_POINT('Ctrl Pts',(-78.5187450155598,169.488899018954,65.7167071548211));
#279=CARTESIAN_POINT('Ctrl Pts',(-91.6443663498899,169.488487251699,65.2167071548211));
#280=CARTESIAN_POINT('Ctrl Pts',(-91.6443663498899,169.488487251699,65.7167071548211));
#281=CARTESIAN_POINT('Ctrl Pts',(-104.76998768181,169.487910923872,65.216707154821));
#282=CARTESIAN_POINT('Ctrl Pts',(-104.76998768181,169.487910923872,65.716707154821));
#283=CARTESIAN_POINT('Ctrl Pts',(-117.89560900201,169.487199889886,65.216707154821));
#284=CARTESIAN_POINT('Ctrl Pts',(-117.89560900201,169.487199889886,65.716707154821));
#285=CARTESIAN_POINT('Ctrl Pts',(-124.45865097701,169.486844360368,65.216707154821));
#286=CARTESIAN_POINT('Ctrl Pts',(-124.45865097701,169.486844360368,65.716707154821));
#287=CARTESIAN_POINT('Ctrl Pts',(-131.0216929504,169.486455658971,65.2167071548211));
#288=CARTESIAN_POINT('Ctrl Pts',(-131.0216929504,169.486455658971,65.7167071548211));
#289=CARTESIAN_POINT('Ctrl Pts',(-140.86618438605,169.485835856559,65.2167071548211));
#290=CARTESIAN_POINT('Ctrl Pts',(-140.86618438605,169.485835856559,65.7167071548211));
#291=CARTESIAN_POINT('Ctrl Pts',(-144.14763384961,169.485619929485,65.216707154821));
#292=CARTESIAN_POINT('Ctrl Pts',(-144.14763384961,169.485619929485,65.716707154821));
#293=CARTESIAN_POINT('Ctrl Pts',(-147.42908331315,169.485404263961,65.216707154821));
#294=CARTESIAN_POINT('Ctrl Pts',(-147.42908331315,169.485404263961,65.716707154821));
#295=CARTESIAN_POINT('Ctrl Pts',(-150.71044875631,169.485188603967,65.216707154821));
#296=CARTESIAN_POINT('Ctrl Pts',(-150.71044875631,169.485188603967,65.716707154821));
#297=CARTESIAN_POINT('Ctrl Pts',(-153.99181420179,169.484946359753,65.2167071548211));
#298=CARTESIAN_POINT('Ctrl Pts',(-153.99181420179,169.484946359753,65.7167071548211));
#299=CARTESIAN_POINT('Ctrl Pts',(-157.27317965079,169.484903765429,65.2167071548211));
#300=CARTESIAN_POINT('Ctrl Pts',(-157.27317965079,169.484903765429,65.7167071548211));
#301=CARTESIAN_POINT('Ctrl Pts',(0.443442376830447,169.489452415107,65.2167071548211));
#302=CARTESIAN_POINT('Ctrl Pts',(0.374394615406974,169.489453497393,65.2167071548211));
#303=CARTESIAN_POINT('Ctrl Pts',(0.30534685398345,169.489454577379,65.2167071548211));
#304=CARTESIAN_POINT('Ctrl Pts',(0.236299092559875,169.489455655059,65.2167071548211));
#305=CARTESIAN_POINT('Ctrl Pts',(-26.0153822727699,169.489865384838,65.2167071548211));
#306=CARTESIAN_POINT('Ctrl Pts',(-52.2670636704402,169.489722567226,65.2167071548211));
#307=CARTESIAN_POINT('Ctrl Pts',(-78.5187450155598,169.488899018954,65.2167071548211));
#308=CARTESIAN_POINT('Ctrl Pts',(-91.6443663498899,169.488487251699,65.2167071548211));
#309=CARTESIAN_POINT('Ctrl Pts',(-104.76998768181,169.487910923872,65.216707154821));
#310=CARTESIAN_POINT('Ctrl Pts',(-117.89560900201,169.487199889886,65.216707154821));
#311=CARTESIAN_POINT('Ctrl Pts',(-124.45865097701,169.486844360368,65.216707154821));
#312=CARTESIAN_POINT('Ctrl Pts',(-131.0216929504,169.486455658971,65.2167071548211));
#313=CARTESIAN_POINT('Ctrl Pts',(-140.86618438605,169.485835856559,65.2167071548211));
#314=CARTESIAN_POINT('Ctrl Pts',(-144.14763384961,169.485619929485,65.216707154821));
#315=CARTESIAN_POINT('Ctrl Pts',(-147.42908331315,169.485404263961,65.216707154821));
#316=CARTESIAN_POINT('Ctrl Pts',(-150.71044875631,169.485188603967,65.216707154821));
#317=CARTESIAN_POINT('Ctrl Pts',(-153.99181420179,169.484946359753,65.2167071548211));
#318=CARTESIAN_POINT('Ctrl Pts',(-157.27317965079,169.484903765429,65.2167071548211));
#319=CARTESIAN_POINT('Ctrl Pts',(0.443442376828287,169.489452415107,65.7167071548211));
#320=CARTESIAN_POINT('Ctrl Pts',(0.374394615405528,169.489453497393,65.7167071548211));
#321=CARTESIAN_POINT('Ctrl Pts',(0.305346853982727,169.489454577379,65.7167071548211));
#322=CARTESIAN_POINT('Ctrl Pts',(0.236299092559875,169.489455655059,65.7167071548211));
#323=CARTESIAN_POINT('Ctrl Pts',(-26.0153822727699,169.489865384838,65.7167071548211));
#324=CARTESIAN_POINT('Ctrl Pts',(-52.2670636704402,169.489722567226,65.7167071548211));
#325=CARTESIAN_POINT('Ctrl Pts',(-78.5187450155598,169.488899018954,65.7167071548211));
#326=CARTESIAN_POINT('Ctrl Pts',(-91.6443663498899,169.488487251699,65.7167071548211));
#327=CARTESIAN_POINT('Ctrl Pts',(-104.76998768181,169.487910923872,65.716707154821));
#328=CARTESIAN_POINT('Ctrl Pts',(-117.89560900201,169.487199889886,65.716707154821));
#329=CARTESIAN_POINT('Ctrl Pts',(-124.45865097701,169.486844360368,65.716707154821));
#330=CARTESIAN_POINT('Ctrl Pts',(-131.0216929504,169.486455658971,65.7167071548211));
#331=CARTESIAN_POINT('Ctrl Pts',(-140.86618438605,169.485835856559,65.7167071548211));
#332=CARTESIAN_POINT('Ctrl Pts',(-144.14763384961,169.485619929485,65.716707154821));
#333=CARTESIAN_POINT('Ctrl Pts',(-147.42908331315,169.485404263961,65.716707154821));
#334=CARTESIAN_POINT('Ctrl Pts',(-150.71044875631,169.485188603967,65.716707154821));
#335=CARTESIAN_POINT('Ctrl Pts',(-153.99181420179,169.484946359753,65.7167071548211));
#336=CARTESIAN_POINT('Ctrl Pts',(-157.27317965079,169.484903765429,65.7167071548211));
#337=CARTESIAN_POINT('Origin',(-78.4169622431466,84.7449663996014,65.7167071548209));
#338=CARTESIAN_POINT('Origin',(-78.4169622431466,84.7449663996014,65.2167071548209));
#339=UNCERTAINTY_MEASURE_WITH_UNIT(LENGTH_MEASURE(0.01),#343,
'DISTANCE_ACCURACY_VALUE',
'Maximum model space distance between geometric entities at asserted c
onnectivities');
#340=UNCERTAINTY_MEASURE_WITH_UNIT(LENGTH_MEASURE(0.01),#343,
'DISTANCE_ACCURACY_VALUE',
'Maximum model space distance between geometric entities at asserted c
onnectivities');
#341=(
GEOMETRIC_REPRESENTATION_CONTEXT(3)
GLOBAL_UNCERTAINTY_ASSIGNED_CONTEXT((#339))
GLOBAL_UNIT_ASSIGNED_CONTEXT((#343,#345,#346))
REPRESENTATION_CONTEXT('','3D')
);
#342=(
GEOMETRIC_REPRESENTATION_CONTEXT(3)
GLOBAL_UNCERTAINTY_ASSIGNED_CONTEXT((#340))
GLOBAL_UNIT_ASSIGNED_CONTEXT((#343,#345,#346))
REPRESENTATION_CONTEXT('','3D')
);
#343=(
LENGTH_UNIT()
NAMED_UNIT(*)
SI_UNIT(.MILLI.,.METRE.)
);
#344=(
LENGTH_UNIT()
NAMED_UNIT(*)
SI_UNIT($,.METRE.)
);
#345=(
NAMED_UNIT(*)
PLANE_ANGLE_UNIT()
SI_UNIT($,.RADIAN.)
);
#346=(
NAMED_UNIT(*)
SI_UNIT($,.STERADIAN.)
SOLID_ANGLE_UNIT()
);
#347=SHAPE_DEFINITION_REPRESENTATION(#348,#349);
#348=PRODUCT_DEFINITION_SHAPE('',$,#351);
#349=SHAPE_REPRESENTATION('',(#135),#341);
#350=PRODUCT_DEFINITION_CONTEXT('part definition',#355,'design');
#351=PRODUCT_DEFINITION('2026-09-23-12-28-12-435','SheetCoverQuarter1',
#352,#350);
#352=PRODUCT_DEFINITION_FORMATION('',$,#357);
#353=PRODUCT_RELATED_PRODUCT_CATEGORY('SheetCoverQuarter1',
'SheetCoverQuarter1',(#357));
#354=APPLICATION_PROTOCOL_DEFINITION('international standard',
'automotive_design',2009,#355);
#355=APPLICATION_CONTEXT(
'Core Data for Automotive Mechanical Design Process');
#356=PRODUCT_CONTEXT('part definition',#355,'mechanical');
#357=PRODUCT('2026-09-23-12-28-12-435','SheetCoverQuarter1',$,(#356));
#358=PRESENTATION_STYLE_ASSIGNMENT((#359));
#359=SURFACE_STYLE_USAGE(.BOTH.,#360);
#360=SURFACE_SIDE_STYLE('',(#361));
#361=SURFACE_STYLE_FILL_AREA(#362);
#362=FILL_AREA_STYLE('Steel - Satin',(#363));
#363=FILL_AREA_STYLE_COLOUR('Steel - Satin',#364);
#364=COLOUR_RGB('Steel - Satin',0.627450980392157,0.627450980392157,0.627450980392157);
ENDSEC;
END-ISO-10303-21;
